<svg xmlns="http://www.w3.org/2000/svg" xmlns:xlink="http://www.w3.org/1999/xlink" version="1.1" width="130px" height="130px" viewBox="0 0 130 130"><defs><rect id="r0" width="3" height="3" fill="#000000"/></defs><rect x="0" y="0" width="130" height="130" fill="#fefefe"/><use x="15" y="15" xlink:href="#r0"/><use x="18" y="15" xlink:href="#r0"/><use x="21" y="15" xlink:href="#r0"/><use x="24" y="15" xlink:href="#r0"/><use x="27" y="15" xlink:href="#r0"/><use x="30" y="15" xlink:href="#r0"/><use x="33" y="15" xlink:href="#r0"/><use x="39" y="15" xlink:href="#r0"/><use x="42" y="15" xlink:href="#r0"/><use x="48" y="15" xlink:href="#r0"/><use x="51" y="15" xlink:href="#r0"/><use x="54" y="15" xlink:href="#r0"/><use x="72" y="15" xlink:href="#r0"/><use x="84" y="15" xlink:href="#r0"/><use x="87" y="15" xlink:href="#r0"/><use x="93" y="15" xlink:href="#r0"/><use x="96" y="15" xlink:href="#r0"/><use x="99" y="15" xlink:href="#r0"/><use x="102" y="15" xlink:href="#r0"/><use x="105" y="15" xlink:href="#r0"/><use x="108" y="15" xlink:href="#r0"/><use x="111" y="15" xlink:href="#r0"/><use x="15" y="18" xlink:href="#r0"/><use x="33" y="18" xlink:href="#r0"/><use x="48" y="18" xlink:href="#r0"/><use x="63" y="18" xlink:href="#r0"/><use x="66" y="18" xlink:href="#r0"/><use x="75" y="18" xlink:href="#r0"/><use x="78" y="18" xlink:href="#r0"/><use x="81" y="18" xlink:href="#r0"/><use x="84" y="18" xlink:href="#r0"/><use x="87" y="18" xlink:href="#r0"/><use x="93" y="18" xlink:href="#r0"/><use x="111" y="18" xlink:href="#r0"/><use x="15" y="21" xlink:href="#r0"/><use x="21" y="21" xlink:href="#r0"/><use x="24" y="21" xlink:href="#r0"/><use x="27" y="21" xlink:href="#r0"/><use x="33" y="21" xlink:href="#r0"/><use x="39" y="21" xlink:href="#r0"/><use x="45" y="21" xlink:href="#r0"/><use x="48" y="21" xlink:href="#r0"/><use x="54" y="21" xlink:href="#r0"/><use x="57" y="21" xlink:href="#r0"/><use x="81" y="21" xlink:href="#r0"/><use x="84" y="21" xlink:href="#r0"/><use x="93" y="21" xlink:href="#r0"/><use x="99" y="21" xlink:href="#r0"/><use x="102" y="21" xlink:href="#r0"/><use x="105" y="21" xlink:href="#r0"/><use x="111" y="21" xlink:href="#r0"/><use x="15" y="24" xlink:href="#r0"/><use x="21" y="24" xlink:href="#r0"/><use x="24" y="24" xlink:href="#r0"/><use x="27" y="24" xlink:href="#r0"/><use x="33" y="24" xlink:href="#r0"/><use x="39" y="24" xlink:href="#r0"/><use x="42" y="24" xlink:href="#r0"/><use x="48" y="24" xlink:href="#r0"/><use x="57" y="24" xlink:href="#r0"/><use x="60" y="24" xlink:href="#r0"/><use x="66" y="24" xlink:href="#r0"/><use x="69" y="24" xlink:href="#r0"/><use x="75" y="24" xlink:href="#r0"/><use x="93" y="24" xlink:href="#r0"/><use x="99" y="24" xlink:href="#r0"/><use x="102" y="24" xlink:href="#r0"/><use x="105" y="24" xlink:href="#r0"/><use x="111" y="24" xlink:href="#r0"/><use x="15" y="27" xlink:href="#r0"/><use x="21" y="27" xlink:href="#r0"/><use x="24" y="27" xlink:href="#r0"/><use x="27" y="27" xlink:href="#r0"/><use x="33" y="27" xlink:href="#r0"/><use x="39" y="27" xlink:href="#r0"/><use x="42" y="27" xlink:href="#r0"/><use x="63" y="27" xlink:href="#r0"/><use x="66" y="27" xlink:href="#r0"/><use x="69" y="27" xlink:href="#r0"/><use x="72" y="27" xlink:href="#r0"/><use x="75" y="27" xlink:href="#r0"/><use x="78" y="27" xlink:href="#r0"/><use x="84" y="27" xlink:href="#r0"/><use x="87" y="27" xlink:href="#r0"/><use x="93" y="27" xlink:href="#r0"/><use x="99" y="27" xlink:href="#r0"/><use x="102" y="27" xlink:href="#r0"/><use x="105" y="27" xlink:href="#r0"/><use x="111" y="27" xlink:href="#r0"/><use x="15" y="30" xlink:href="#r0"/><use x="33" y="30" xlink:href="#r0"/><use x="42" y="30" xlink:href="#r0"/><use x="57" y="30" xlink:href="#r0"/><use x="66" y="30" xlink:href="#r0"/><use x="72" y="30" xlink:href="#r0"/><use x="75" y="30" xlink:href="#r0"/><use x="81" y="30" xlink:href="#r0"/><use x="93" y="30" xlink:href="#r0"/><use x="111" y="30" xlink:href="#r0"/><use x="15" y="33" xlink:href="#r0"/><use x="18" y="33" xlink:href="#r0"/><use x="21" y="33" xlink:href="#r0"/><use x="24" y="33" xlink:href="#r0"/><use x="27" y="33" xlink:href="#r0"/><use x="30" y="33" xlink:href="#r0"/><use x="33" y="33" xlink:href="#r0"/><use x="39" y="33" xlink:href="#r0"/><use x="45" y="33" xlink:href="#r0"/><use x="51" y="33" xlink:href="#r0"/><use x="57" y="33" xlink:href="#r0"/><use x="63" y="33" xlink:href="#r0"/><use x="69" y="33" xlink:href="#r0"/><use x="75" y="33" xlink:href="#r0"/><use x="81" y="33" xlink:href="#r0"/><use x="87" y="33" xlink:href="#r0"/><use x="93" y="33" xlink:href="#r0"/><use x="96" y="33" xlink:href="#r0"/><use x="99" y="33" xlink:href="#r0"/><use x="102" y="33" xlink:href="#r0"/><use x="105" y="33" xlink:href="#r0"/><use x="108" y="33" xlink:href="#r0"/><use x="111" y="33" xlink:href="#r0"/><use x="42" y="36" xlink:href="#r0"/><use x="48" y="36" xlink:href="#r0"/><use x="51" y="36" xlink:href="#r0"/><use x="57" y="36" xlink:href="#r0"/><use x="63" y="36" xlink:href="#r0"/><use x="66" y="36" xlink:href="#r0"/><use x="81" y="36" xlink:href="#r0"/><use x="87" y="36" xlink:href="#r0"/><use x="15" y="39" xlink:href="#r0"/><use x="18" y="39" xlink:href="#r0"/><use x="21" y="39" xlink:href="#r0"/><use x="24" y="39" xlink:href="#r0"/><use x="33" y="39" xlink:href="#r0"/><use x="39" y="39" xlink:href="#r0"/><use x="51" y="39" xlink:href="#r0"/><use x="66" y="39" xlink:href="#r0"/><use x="78" y="39" xlink:href="#r0"/><use x="81" y="39" xlink:href="#r0"/><use x="84" y="39" xlink:href="#r0"/><use x="90" y="39" xlink:href="#r0"/><use x="99" y="39" xlink:href="#r0"/><use x="102" y="39" xlink:href="#r0"/><use x="105" y="39" xlink:href="#r0"/><use x="111" y="39" xlink:href="#r0"/><use x="15" y="42" xlink:href="#r0"/><use x="21" y="42" xlink:href="#r0"/><use x="24" y="42" xlink:href="#r0"/><use x="27" y="42" xlink:href="#r0"/><use x="30" y="42" xlink:href="#r0"/><use x="39" y="42" xlink:href="#r0"/><use x="42" y="42" xlink:href="#r0"/><use x="48" y="42" xlink:href="#r0"/><use x="54" y="42" xlink:href="#r0"/><use x="60" y="42" xlink:href="#r0"/><use x="63" y="42" xlink:href="#r0"/><use x="72" y="42" xlink:href="#r0"/><use x="84" y="42" xlink:href="#r0"/><use x="87" y="42" xlink:href="#r0"/><use x="111" y="42" xlink:href="#r0"/><use x="15" y="45" xlink:href="#r0"/><use x="24" y="45" xlink:href="#r0"/><use x="33" y="45" xlink:href="#r0"/><use x="36" y="45" xlink:href="#r0"/><use x="48" y="45" xlink:href="#r0"/><use x="63" y="45" xlink:href="#r0"/><use x="75" y="45" xlink:href="#r0"/><use x="81" y="45" xlink:href="#r0"/><use x="84" y="45" xlink:href="#r0"/><use x="90" y="45" xlink:href="#r0"/><use x="105" y="45" xlink:href="#r0"/><use x="108" y="45" xlink:href="#r0"/><use x="111" y="45" xlink:href="#r0"/><use x="21" y="48" xlink:href="#r0"/><use x="27" y="48" xlink:href="#r0"/><use x="36" y="48" xlink:href="#r0"/><use x="39" y="48" xlink:href="#r0"/><use x="51" y="48" xlink:href="#r0"/><use x="54" y="48" xlink:href="#r0"/><use x="57" y="48" xlink:href="#r0"/><use x="63" y="48" xlink:href="#r0"/><use x="69" y="48" xlink:href="#r0"/><use x="99" y="48" xlink:href="#r0"/><use x="102" y="48" xlink:href="#r0"/><use x="18" y="51" xlink:href="#r0"/><use x="21" y="51" xlink:href="#r0"/><use x="24" y="51" xlink:href="#r0"/><use x="27" y="51" xlink:href="#r0"/><use x="33" y="51" xlink:href="#r0"/><use x="39" y="51" xlink:href="#r0"/><use x="42" y="51" xlink:href="#r0"/><use x="48" y="51" xlink:href="#r0"/><use x="51" y="51" xlink:href="#r0"/><use x="57" y="51" xlink:href="#r0"/><use x="60" y="51" xlink:href="#r0"/><use x="63" y="51" xlink:href="#r0"/><use x="66" y="51" xlink:href="#r0"/><use x="69" y="51" xlink:href="#r0"/><use x="75" y="51" xlink:href="#r0"/><use x="84" y="51" xlink:href="#r0"/><use x="87" y="51" xlink:href="#r0"/><use x="90" y="51" xlink:href="#r0"/><use x="96" y="51" xlink:href="#r0"/><use x="99" y="51" xlink:href="#r0"/><use x="111" y="51" xlink:href="#r0"/><use x="15" y="54" xlink:href="#r0"/><use x="18" y="54" xlink:href="#r0"/><use x="24" y="54" xlink:href="#r0"/><use x="27" y="54" xlink:href="#r0"/><use x="30" y="54" xlink:href="#r0"/><use x="39" y="54" xlink:href="#r0"/><use x="45" y="54" xlink:href="#r0"/><use x="51" y="54" xlink:href="#r0"/><use x="57" y="54" xlink:href="#r0"/><use x="63" y="54" xlink:href="#r0"/><use x="72" y="54" xlink:href="#r0"/><use x="75" y="54" xlink:href="#r0"/><use x="81" y="54" xlink:href="#r0"/><use x="84" y="54" xlink:href="#r0"/><use x="87" y="54" xlink:href="#r0"/><use x="102" y="54" xlink:href="#r0"/><use x="15" y="57" xlink:href="#r0"/><use x="18" y="57" xlink:href="#r0"/><use x="21" y="57" xlink:href="#r0"/><use x="24" y="57" xlink:href="#r0"/><use x="33" y="57" xlink:href="#r0"/><use x="39" y="57" xlink:href="#r0"/><use x="42" y="57" xlink:href="#r0"/><use x="45" y="57" xlink:href="#r0"/><use x="51" y="57" xlink:href="#r0"/><use x="54" y="57" xlink:href="#r0"/><use x="69" y="57" xlink:href="#r0"/><use x="72" y="57" xlink:href="#r0"/><use x="81" y="57" xlink:href="#r0"/><use x="90" y="57" xlink:href="#r0"/><use x="99" y="57" xlink:href="#r0"/><use x="102" y="57" xlink:href="#r0"/><use x="105" y="57" xlink:href="#r0"/><use x="15" y="60" xlink:href="#r0"/><use x="21" y="60" xlink:href="#r0"/><use x="24" y="60" xlink:href="#r0"/><use x="27" y="60" xlink:href="#r0"/><use x="30" y="60" xlink:href="#r0"/><use x="39" y="60" xlink:href="#r0"/><use x="57" y="60" xlink:href="#r0"/><use x="63" y="60" xlink:href="#r0"/><use x="78" y="60" xlink:href="#r0"/><use x="81" y="60" xlink:href="#r0"/><use x="87" y="60" xlink:href="#r0"/><use x="90" y="60" xlink:href="#r0"/><use x="96" y="60" xlink:href="#r0"/><use x="99" y="60" xlink:href="#r0"/><use x="102" y="60" xlink:href="#r0"/><use x="105" y="60" xlink:href="#r0"/><use x="111" y="60" xlink:href="#r0"/><use x="15" y="63" xlink:href="#r0"/><use x="18" y="63" xlink:href="#r0"/><use x="27" y="63" xlink:href="#r0"/><use x="30" y="63" xlink:href="#r0"/><use x="33" y="63" xlink:href="#r0"/><use x="36" y="63" xlink:href="#r0"/><use x="48" y="63" xlink:href="#r0"/><use x="51" y="63" xlink:href="#r0"/><use x="54" y="63" xlink:href="#r0"/><use x="57" y="63" xlink:href="#r0"/><use x="60" y="63" xlink:href="#r0"/><use x="66" y="63" xlink:href="#r0"/><use x="69" y="63" xlink:href="#r0"/><use x="78" y="63" xlink:href="#r0"/><use x="90" y="63" xlink:href="#r0"/><use x="93" y="63" xlink:href="#r0"/><use x="99" y="63" xlink:href="#r0"/><use x="102" y="63" xlink:href="#r0"/><use x="105" y="63" xlink:href="#r0"/><use x="108" y="63" xlink:href="#r0"/><use x="15" y="66" xlink:href="#r0"/><use x="18" y="66" xlink:href="#r0"/><use x="21" y="66" xlink:href="#r0"/><use x="36" y="66" xlink:href="#r0"/><use x="42" y="66" xlink:href="#r0"/><use x="45" y="66" xlink:href="#r0"/><use x="48" y="66" xlink:href="#r0"/><use x="51" y="66" xlink:href="#r0"/><use x="69" y="66" xlink:href="#r0"/><use x="78" y="66" xlink:href="#r0"/><use x="84" y="66" xlink:href="#r0"/><use x="90" y="66" xlink:href="#r0"/><use x="93" y="66" xlink:href="#r0"/><use x="96" y="66" xlink:href="#r0"/><use x="99" y="66" xlink:href="#r0"/><use x="105" y="66" xlink:href="#r0"/><use x="108" y="66" xlink:href="#r0"/><use x="111" y="66" xlink:href="#r0"/><use x="18" y="69" xlink:href="#r0"/><use x="21" y="69" xlink:href="#r0"/><use x="33" y="69" xlink:href="#r0"/><use x="45" y="69" xlink:href="#r0"/><use x="57" y="69" xlink:href="#r0"/><use x="60" y="69" xlink:href="#r0"/><use x="66" y="69" xlink:href="#r0"/><use x="69" y="69" xlink:href="#r0"/><use x="78" y="69" xlink:href="#r0"/><use x="87" y="69" xlink:href="#r0"/><use x="90" y="69" xlink:href="#r0"/><use x="99" y="69" xlink:href="#r0"/><use x="105" y="69" xlink:href="#r0"/><use x="108" y="69" xlink:href="#r0"/><use x="24" y="72" xlink:href="#r0"/><use x="30" y="72" xlink:href="#r0"/><use x="36" y="72" xlink:href="#r0"/><use x="42" y="72" xlink:href="#r0"/><use x="45" y="72" xlink:href="#r0"/><use x="66" y="72" xlink:href="#r0"/><use x="69" y="72" xlink:href="#r0"/><use x="75" y="72" xlink:href="#r0"/><use x="81" y="72" xlink:href="#r0"/><use x="84" y="72" xlink:href="#r0"/><use x="93" y="72" xlink:href="#r0"/><use x="96" y="72" xlink:href="#r0"/><use x="108" y="72" xlink:href="#r0"/><use x="111" y="72" xlink:href="#r0"/><use x="21" y="75" xlink:href="#r0"/><use x="24" y="75" xlink:href="#r0"/><use x="30" y="75" xlink:href="#r0"/><use x="33" y="75" xlink:href="#r0"/><use x="39" y="75" xlink:href="#r0"/><use x="42" y="75" xlink:href="#r0"/><use x="51" y="75" xlink:href="#r0"/><use x="60" y="75" xlink:href="#r0"/><use x="63" y="75" xlink:href="#r0"/><use x="69" y="75" xlink:href="#r0"/><use x="75" y="75" xlink:href="#r0"/><use x="78" y="75" xlink:href="#r0"/><use x="81" y="75" xlink:href="#r0"/><use x="84" y="75" xlink:href="#r0"/><use x="105" y="75" xlink:href="#r0"/><use x="108" y="75" xlink:href="#r0"/><use x="15" y="78" xlink:href="#r0"/><use x="21" y="78" xlink:href="#r0"/><use x="24" y="78" xlink:href="#r0"/><use x="45" y="78" xlink:href="#r0"/><use x="48" y="78" xlink:href="#r0"/><use x="57" y="78" xlink:href="#r0"/><use x="60" y="78" xlink:href="#r0"/><use x="63" y="78" xlink:href="#r0"/><use x="69" y="78" xlink:href="#r0"/><use x="72" y="78" xlink:href="#r0"/><use x="78" y="78" xlink:href="#r0"/><use x="81" y="78" xlink:href="#r0"/><use x="84" y="78" xlink:href="#r0"/><use x="90" y="78" xlink:href="#r0"/><use x="93" y="78" xlink:href="#r0"/><use x="105" y="78" xlink:href="#r0"/><use x="111" y="78" xlink:href="#r0"/><use x="27" y="81" xlink:href="#r0"/><use x="30" y="81" xlink:href="#r0"/><use x="33" y="81" xlink:href="#r0"/><use x="42" y="81" xlink:href="#r0"/><use x="48" y="81" xlink:href="#r0"/><use x="51" y="81" xlink:href="#r0"/><use x="57" y="81" xlink:href="#r0"/><use x="66" y="81" xlink:href="#r0"/><use x="84" y="81" xlink:href="#r0"/><use x="87" y="81" xlink:href="#r0"/><use x="93" y="81" xlink:href="#r0"/><use x="96" y="81" xlink:href="#r0"/><use x="108" y="81" xlink:href="#r0"/><use x="111" y="81" xlink:href="#r0"/><use x="18" y="84" xlink:href="#r0"/><use x="24" y="84" xlink:href="#r0"/><use x="27" y="84" xlink:href="#r0"/><use x="42" y="84" xlink:href="#r0"/><use x="45" y="84" xlink:href="#r0"/><use x="51" y="84" xlink:href="#r0"/><use x="54" y="84" xlink:href="#r0"/><use x="57" y="84" xlink:href="#r0"/><use x="63" y="84" xlink:href="#r0"/><use x="69" y="84" xlink:href="#r0"/><use x="72" y="84" xlink:href="#r0"/><use x="75" y="84" xlink:href="#r0"/><use x="81" y="84" xlink:href="#r0"/><use x="90" y="84" xlink:href="#r0"/><use x="93" y="84" xlink:href="#r0"/><use x="102" y="84" xlink:href="#r0"/><use x="15" y="87" xlink:href="#r0"/><use x="21" y="87" xlink:href="#r0"/><use x="27" y="87" xlink:href="#r0"/><use x="30" y="87" xlink:href="#r0"/><use x="33" y="87" xlink:href="#r0"/><use x="36" y="87" xlink:href="#r0"/><use x="51" y="87" xlink:href="#r0"/><use x="54" y="87" xlink:href="#r0"/><use x="60" y="87" xlink:href="#r0"/><use x="75" y="87" xlink:href="#r0"/><use x="87" y="87" xlink:href="#r0"/><use x="90" y="87" xlink:href="#r0"/><use x="93" y="87" xlink:href="#r0"/><use x="96" y="87" xlink:href="#r0"/><use x="99" y="87" xlink:href="#r0"/><use x="108" y="87" xlink:href="#r0"/><use x="111" y="87" xlink:href="#r0"/><use x="39" y="90" xlink:href="#r0"/><use x="42" y="90" xlink:href="#r0"/><use x="45" y="90" xlink:href="#r0"/><use x="51" y="90" xlink:href="#r0"/><use x="54" y="90" xlink:href="#r0"/><use x="60" y="90" xlink:href="#r0"/><use x="72" y="90" xlink:href="#r0"/><use x="75" y="90" xlink:href="#r0"/><use x="81" y="90" xlink:href="#r0"/><use x="84" y="90" xlink:href="#r0"/><use x="87" y="90" xlink:href="#r0"/><use x="99" y="90" xlink:href="#r0"/><use x="102" y="90" xlink:href="#r0"/><use x="105" y="90" xlink:href="#r0"/><use x="111" y="90" xlink:href="#r0"/><use x="15" y="93" xlink:href="#r0"/><use x="18" y="93" xlink:href="#r0"/><use x="21" y="93" xlink:href="#r0"/><use x="24" y="93" xlink:href="#r0"/><use x="27" y="93" xlink:href="#r0"/><use x="30" y="93" xlink:href="#r0"/><use x="33" y="93" xlink:href="#r0"/><use x="45" y="93" xlink:href="#r0"/><use x="63" y="93" xlink:href="#r0"/><use x="69" y="93" xlink:href="#r0"/><use x="72" y="93" xlink:href="#r0"/><use x="75" y="93" xlink:href="#r0"/><use x="78" y="93" xlink:href="#r0"/><use x="84" y="93" xlink:href="#r0"/><use x="87" y="93" xlink:href="#r0"/><use x="93" y="93" xlink:href="#r0"/><use x="99" y="93" xlink:href="#r0"/><use x="102" y="93" xlink:href="#r0"/><use x="105" y="93" xlink:href="#r0"/><use x="15" y="96" xlink:href="#r0"/><use x="33" y="96" xlink:href="#r0"/><use x="48" y="96" xlink:href="#r0"/><use x="51" y="96" xlink:href="#r0"/><use x="57" y="96" xlink:href="#r0"/><use x="60" y="96" xlink:href="#r0"/><use x="63" y="96" xlink:href="#r0"/><use x="78" y="96" xlink:href="#r0"/><use x="81" y="96" xlink:href="#r0"/><use x="84" y="96" xlink:href="#r0"/><use x="87" y="96" xlink:href="#r0"/><use x="99" y="96" xlink:href="#r0"/><use x="105" y="96" xlink:href="#r0"/><use x="15" y="99" xlink:href="#r0"/><use x="21" y="99" xlink:href="#r0"/><use x="24" y="99" xlink:href="#r0"/><use x="27" y="99" xlink:href="#r0"/><use x="33" y="99" xlink:href="#r0"/><use x="42" y="99" xlink:href="#r0"/><use x="45" y="99" xlink:href="#r0"/><use x="48" y="99" xlink:href="#r0"/><use x="51" y="99" xlink:href="#r0"/><use x="54" y="99" xlink:href="#r0"/><use x="57" y="99" xlink:href="#r0"/><use x="60" y="99" xlink:href="#r0"/><use x="66" y="99" xlink:href="#r0"/><use x="69" y="99" xlink:href="#r0"/><use x="78" y="99" xlink:href="#r0"/><use x="84" y="99" xlink:href="#r0"/><use x="87" y="99" xlink:href="#r0"/><use x="90" y="99" xlink:href="#r0"/><use x="93" y="99" xlink:href="#r0"/><use x="96" y="99" xlink:href="#r0"/><use x="99" y="99" xlink:href="#r0"/><use x="102" y="99" xlink:href="#r0"/><use x="105" y="99" xlink:href="#r0"/><use x="108" y="99" xlink:href="#r0"/><use x="15" y="102" xlink:href="#r0"/><use x="21" y="102" xlink:href="#r0"/><use x="24" y="102" xlink:href="#r0"/><use x="27" y="102" xlink:href="#r0"/><use x="33" y="102" xlink:href="#r0"/><use x="39" y="102" xlink:href="#r0"/><use x="42" y="102" xlink:href="#r0"/><use x="51" y="102" xlink:href="#r0"/><use x="66" y="102" xlink:href="#r0"/><use x="84" y="102" xlink:href="#r0"/><use x="87" y="102" xlink:href="#r0"/><use x="108" y="102" xlink:href="#r0"/><use x="15" y="105" xlink:href="#r0"/><use x="21" y="105" xlink:href="#r0"/><use x="24" y="105" xlink:href="#r0"/><use x="27" y="105" xlink:href="#r0"/><use x="33" y="105" xlink:href="#r0"/><use x="39" y="105" xlink:href="#r0"/><use x="42" y="105" xlink:href="#r0"/><use x="45" y="105" xlink:href="#r0"/><use x="54" y="105" xlink:href="#r0"/><use x="57" y="105" xlink:href="#r0"/><use x="60" y="105" xlink:href="#r0"/><use x="63" y="105" xlink:href="#r0"/><use x="69" y="105" xlink:href="#r0"/><use x="75" y="105" xlink:href="#r0"/><use x="78" y="105" xlink:href="#r0"/><use x="87" y="105" xlink:href="#r0"/><use x="93" y="105" xlink:href="#r0"/><use x="105" y="105" xlink:href="#r0"/><use x="108" y="105" xlink:href="#r0"/><use x="15" y="108" xlink:href="#r0"/><use x="33" y="108" xlink:href="#r0"/><use x="39" y="108" xlink:href="#r0"/><use x="45" y="108" xlink:href="#r0"/><use x="63" y="108" xlink:href="#r0"/><use x="66" y="108" xlink:href="#r0"/><use x="69" y="108" xlink:href="#r0"/><use x="81" y="108" xlink:href="#r0"/><use x="87" y="108" xlink:href="#r0"/><use x="93" y="108" xlink:href="#r0"/><use x="111" y="108" xlink:href="#r0"/><use x="15" y="111" xlink:href="#r0"/><use x="18" y="111" xlink:href="#r0"/><use x="21" y="111" xlink:href="#r0"/><use x="24" y="111" xlink:href="#r0"/><use x="27" y="111" xlink:href="#r0"/><use x="30" y="111" xlink:href="#r0"/><use x="33" y="111" xlink:href="#r0"/><use x="39" y="111" xlink:href="#r0"/><use x="48" y="111" xlink:href="#r0"/><use x="51" y="111" xlink:href="#r0"/><use x="69" y="111" xlink:href="#r0"/><use x="72" y="111" xlink:href="#r0"/><use x="75" y="111" xlink:href="#r0"/><use x="78" y="111" xlink:href="#r0"/><use x="81" y="111" xlink:href="#r0"/><use x="84" y="111" xlink:href="#r0"/></svg>