<svg xmlns="http://www.w3.org/2000/svg" xmlns:xlink="http://www.w3.org/1999/xlink" version="1.1" width="130px" height="130px" viewBox="0 0 130 130"><defs><rect id="r0" width="3" height="3" fill="#000000"/></defs><rect x="0" y="0" width="130" height="130" fill="#fefefe"/><use x="9" y="9" xlink:href="#r0"/><use x="12" y="9" xlink:href="#r0"/><use x="15" y="9" xlink:href="#r0"/><use x="18" y="9" xlink:href="#r0"/><use x="21" y="9" xlink:href="#r0"/><use x="24" y="9" xlink:href="#r0"/><use x="27" y="9" xlink:href="#r0"/><use x="39" y="9" xlink:href="#r0"/><use x="42" y="9" xlink:href="#r0"/><use x="48" y="9" xlink:href="#r0"/><use x="51" y="9" xlink:href="#r0"/><use x="54" y="9" xlink:href="#r0"/><use x="60" y="9" xlink:href="#r0"/><use x="63" y="9" xlink:href="#r0"/><use x="66" y="9" xlink:href="#r0"/><use x="69" y="9" xlink:href="#r0"/><use x="75" y="9" xlink:href="#r0"/><use x="90" y="9" xlink:href="#r0"/><use x="93" y="9" xlink:href="#r0"/><use x="99" y="9" xlink:href="#r0"/><use x="102" y="9" xlink:href="#r0"/><use x="105" y="9" xlink:href="#r0"/><use x="108" y="9" xlink:href="#r0"/><use x="111" y="9" xlink:href="#r0"/><use x="114" y="9" xlink:href="#r0"/><use x="117" y="9" xlink:href="#r0"/><use x="9" y="12" xlink:href="#r0"/><use x="27" y="12" xlink:href="#r0"/><use x="33" y="12" xlink:href="#r0"/><use x="36" y="12" xlink:href="#r0"/><use x="42" y="12" xlink:href="#r0"/><use x="54" y="12" xlink:href="#r0"/><use x="57" y="12" xlink:href="#r0"/><use x="63" y="12" xlink:href="#r0"/><use x="69" y="12" xlink:href="#r0"/><use x="72" y="12" xlink:href="#r0"/><use x="75" y="12" xlink:href="#r0"/><use x="78" y="12" xlink:href="#r0"/><use x="90" y="12" xlink:href="#r0"/><use x="99" y="12" xlink:href="#r0"/><use x="117" y="12" xlink:href="#r0"/><use x="9" y="15" xlink:href="#r0"/><use x="15" y="15" xlink:href="#r0"/><use x="18" y="15" xlink:href="#r0"/><use x="21" y="15" xlink:href="#r0"/><use x="27" y="15" xlink:href="#r0"/><use x="33" y="15" xlink:href="#r0"/><use x="42" y="15" xlink:href="#r0"/><use x="51" y="15" xlink:href="#r0"/><use x="60" y="15" xlink:href="#r0"/><use x="66" y="15" xlink:href="#r0"/><use x="81" y="15" xlink:href="#r0"/><use x="93" y="15" xlink:href="#r0"/><use x="99" y="15" xlink:href="#r0"/><use x="105" y="15" xlink:href="#r0"/><use x="108" y="15" xlink:href="#r0"/><use x="111" y="15" xlink:href="#r0"/><use x="117" y="15" xlink:href="#r0"/><use x="9" y="18" xlink:href="#r0"/><use x="15" y="18" xlink:href="#r0"/><use x="18" y="18" xlink:href="#r0"/><use x="21" y="18" xlink:href="#r0"/><use x="27" y="18" xlink:href="#r0"/><use x="39" y="18" xlink:href="#r0"/><use x="42" y="18" xlink:href="#r0"/><use x="45" y="18" xlink:href="#r0"/><use x="51" y="18" xlink:href="#r0"/><use x="54" y="18" xlink:href="#r0"/><use x="57" y="18" xlink:href="#r0"/><use x="69" y="18" xlink:href="#r0"/><use x="72" y="18" xlink:href="#r0"/><use x="75" y="18" xlink:href="#r0"/><use x="78" y="18" xlink:href="#r0"/><use x="81" y="18" xlink:href="#r0"/><use x="93" y="18" xlink:href="#r0"/><use x="99" y="18" xlink:href="#r0"/><use x="105" y="18" xlink:href="#r0"/><use x="108" y="18" xlink:href="#r0"/><use x="111" y="18" xlink:href="#r0"/><use x="117" y="18" xlink:href="#r0"/><use x="9" y="21" xlink:href="#r0"/><use x="15" y="21" xlink:href="#r0"/><use x="18" y="21" xlink:href="#r0"/><use x="21" y="21" xlink:href="#r0"/><use x="27" y="21" xlink:href="#r0"/><use x="33" y="21" xlink:href="#r0"/><use x="42" y="21" xlink:href="#r0"/><use x="48" y="21" xlink:href="#r0"/><use x="54" y="21" xlink:href="#r0"/><use x="57" y="21" xlink:href="#r0"/><use x="60" y="21" xlink:href="#r0"/><use x="69" y="21" xlink:href="#r0"/><use x="72" y="21" xlink:href="#r0"/><use x="84" y="21" xlink:href="#r0"/><use x="90" y="21" xlink:href="#r0"/><use x="99" y="21" xlink:href="#r0"/><use x="105" y="21" xlink:href="#r0"/><use x="108" y="21" xlink:href="#r0"/><use x="111" y="21" xlink:href="#r0"/><use x="117" y="21" xlink:href="#r0"/><use x="9" y="24" xlink:href="#r0"/><use x="27" y="24" xlink:href="#r0"/><use x="33" y="24" xlink:href="#r0"/><use x="36" y="24" xlink:href="#r0"/><use x="39" y="24" xlink:href="#r0"/><use x="45" y="24" xlink:href="#r0"/><use x="54" y="24" xlink:href="#r0"/><use x="57" y="24" xlink:href="#r0"/><use x="60" y="24" xlink:href="#r0"/><use x="66" y="24" xlink:href="#r0"/><use x="81" y="24" xlink:href="#r0"/><use x="90" y="24" xlink:href="#r0"/><use x="93" y="24" xlink:href="#r0"/><use x="99" y="24" xlink:href="#r0"/><use x="117" y="24" xlink:href="#r0"/><use x="9" y="27" xlink:href="#r0"/><use x="12" y="27" xlink:href="#r0"/><use x="15" y="27" xlink:href="#r0"/><use x="18" y="27" xlink:href="#r0"/><use x="21" y="27" xlink:href="#r0"/><use x="24" y="27" xlink:href="#r0"/><use x="27" y="27" xlink:href="#r0"/><use x="33" y="27" xlink:href="#r0"/><use x="39" y="27" xlink:href="#r0"/><use x="45" y="27" xlink:href="#r0"/><use x="51" y="27" xlink:href="#r0"/><use x="57" y="27" xlink:href="#r0"/><use x="63" y="27" xlink:href="#r0"/><use x="69" y="27" xlink:href="#r0"/><use x="75" y="27" xlink:href="#r0"/><use x="81" y="27" xlink:href="#r0"/><use x="87" y="27" xlink:href="#r0"/><use x="93" y="27" xlink:href="#r0"/><use x="99" y="27" xlink:href="#r0"/><use x="102" y="27" xlink:href="#r0"/><use x="105" y="27" xlink:href="#r0"/><use x="108" y="27" xlink:href="#r0"/><use x="111" y="27" xlink:href="#r0"/><use x="114" y="27" xlink:href="#r0"/><use x="117" y="27" xlink:href="#r0"/><use x="33" y="30" xlink:href="#r0"/><use x="36" y="30" xlink:href="#r0"/><use x="39" y="30" xlink:href="#r0"/><use x="45" y="30" xlink:href="#r0"/><use x="54" y="30" xlink:href="#r0"/><use x="57" y="30" xlink:href="#r0"/><use x="60" y="30" xlink:href="#r0"/><use x="63" y="30" xlink:href="#r0"/><use x="72" y="30" xlink:href="#r0"/><use x="75" y="30" xlink:href="#r0"/><use x="78" y="30" xlink:href="#r0"/><use x="87" y="30" xlink:href="#r0"/><use x="90" y="30" xlink:href="#r0"/><use x="93" y="30" xlink:href="#r0"/><use x="9" y="33" xlink:href="#r0"/><use x="12" y="33" xlink:href="#r0"/><use x="18" y="33" xlink:href="#r0"/><use x="27" y="33" xlink:href="#r0"/><use x="30" y="33" xlink:href="#r0"/><use x="39" y="33" xlink:href="#r0"/><use x="45" y="33" xlink:href="#r0"/><use x="48" y="33" xlink:href="#r0"/><use x="51" y="33" xlink:href="#r0"/><use x="57" y="33" xlink:href="#r0"/><use x="60" y="33" xlink:href="#r0"/><use x="69" y="33" xlink:href="#r0"/><use x="81" y="33" xlink:href="#r0"/><use x="84" y="33" xlink:href="#r0"/><use x="99" y="33" xlink:href="#r0"/><use x="102" y="33" xlink:href="#r0"/><use x="105" y="33" xlink:href="#r0"/><use x="111" y="33" xlink:href="#r0"/><use x="114" y="33" xlink:href="#r0"/><use x="9" y="36" xlink:href="#r0"/><use x="15" y="36" xlink:href="#r0"/><use x="18" y="36" xlink:href="#r0"/><use x="33" y="36" xlink:href="#r0"/><use x="45" y="36" xlink:href="#r0"/><use x="48" y="36" xlink:href="#r0"/><use x="57" y="36" xlink:href="#r0"/><use x="60" y="36" xlink:href="#r0"/><use x="72" y="36" xlink:href="#r0"/><use x="78" y="36" xlink:href="#r0"/><use x="81" y="36" xlink:href="#r0"/><use x="84" y="36" xlink:href="#r0"/><use x="87" y="36" xlink:href="#r0"/><use x="99" y="36" xlink:href="#r0"/><use x="108" y="36" xlink:href="#r0"/><use x="114" y="36" xlink:href="#r0"/><use x="117" y="36" xlink:href="#r0"/><use x="9" y="39" xlink:href="#r0"/><use x="18" y="39" xlink:href="#r0"/><use x="27" y="39" xlink:href="#r0"/><use x="36" y="39" xlink:href="#r0"/><use x="48" y="39" xlink:href="#r0"/><use x="57" y="39" xlink:href="#r0"/><use x="60" y="39" xlink:href="#r0"/><use x="66" y="39" xlink:href="#r0"/><use x="84" y="39" xlink:href="#r0"/><use x="87" y="39" xlink:href="#r0"/><use x="93" y="39" xlink:href="#r0"/><use x="99" y="39" xlink:href="#r0"/><use x="102" y="39" xlink:href="#r0"/><use x="105" y="39" xlink:href="#r0"/><use x="108" y="39" xlink:href="#r0"/><use x="111" y="39" xlink:href="#r0"/><use x="114" y="39" xlink:href="#r0"/><use x="117" y="39" xlink:href="#r0"/><use x="9" y="42" xlink:href="#r0"/><use x="12" y="42" xlink:href="#r0"/><use x="15" y="42" xlink:href="#r0"/><use x="18" y="42" xlink:href="#r0"/><use x="21" y="42" xlink:href="#r0"/><use x="24" y="42" xlink:href="#r0"/><use x="45" y="42" xlink:href="#r0"/><use x="48" y="42" xlink:href="#r0"/><use x="54" y="42" xlink:href="#r0"/><use x="57" y="42" xlink:href="#r0"/><use x="66" y="42" xlink:href="#r0"/><use x="72" y="42" xlink:href="#r0"/><use x="75" y="42" xlink:href="#r0"/><use x="78" y="42" xlink:href="#r0"/><use x="84" y="42" xlink:href="#r0"/><use x="90" y="42" xlink:href="#r0"/><use x="93" y="42" xlink:href="#r0"/><use x="99" y="42" xlink:href="#r0"/><use x="105" y="42" xlink:href="#r0"/><use x="114" y="42" xlink:href="#r0"/><use x="117" y="42" xlink:href="#r0"/><use x="12" y="45" xlink:href="#r0"/><use x="15" y="45" xlink:href="#r0"/><use x="27" y="45" xlink:href="#r0"/><use x="30" y="45" xlink:href="#r0"/><use x="33" y="45" xlink:href="#r0"/><use x="42" y="45" xlink:href="#r0"/><use x="45" y="45" xlink:href="#r0"/><use x="48" y="45" xlink:href="#r0"/><use x="51" y="45" xlink:href="#r0"/><use x="54" y="45" xlink:href="#r0"/><use x="57" y="45" xlink:href="#r0"/><use x="60" y="45" xlink:href="#r0"/><use x="66" y="45" xlink:href="#r0"/><use x="69" y="45" xlink:href="#r0"/><use x="72" y="45" xlink:href="#r0"/><use x="75" y="45" xlink:href="#r0"/><use x="84" y="45" xlink:href="#r0"/><use x="87" y="45" xlink:href="#r0"/><use x="90" y="45" xlink:href="#r0"/><use x="93" y="45" xlink:href="#r0"/><use x="96" y="45" xlink:href="#r0"/><use x="99" y="45" xlink:href="#r0"/><use x="9" y="48" xlink:href="#r0"/><use x="12" y="48" xlink:href="#r0"/><use x="18" y="48" xlink:href="#r0"/><use x="24" y="48" xlink:href="#r0"/><use x="36" y="48" xlink:href="#r0"/><use x="39" y="48" xlink:href="#r0"/><use x="45" y="48" xlink:href="#r0"/><use x="48" y="48" xlink:href="#r0"/><use x="51" y="48" xlink:href="#r0"/><use x="66" y="48" xlink:href="#r0"/><use x="72" y="48" xlink:href="#r0"/><use x="75" y="48" xlink:href="#r0"/><use x="78" y="48" xlink:href="#r0"/><use x="81" y="48" xlink:href="#r0"/><use x="87" y="48" xlink:href="#r0"/><use x="93" y="48" xlink:href="#r0"/><use x="96" y="48" xlink:href="#r0"/><use x="99" y="48" xlink:href="#r0"/><use x="102" y="48" xlink:href="#r0"/><use x="108" y="48" xlink:href="#r0"/><use x="114" y="48" xlink:href="#r0"/><use x="117" y="48" xlink:href="#r0"/><use x="12" y="51" xlink:href="#r0"/><use x="21" y="51" xlink:href="#r0"/><use x="24" y="51" xlink:href="#r0"/><use x="27" y="51" xlink:href="#r0"/><use x="30" y="51" xlink:href="#r0"/><use x="42" y="51" xlink:href="#r0"/><use x="48" y="51" xlink:href="#r0"/><use x="69" y="51" xlink:href="#r0"/><use x="75" y="51" xlink:href="#r0"/><use x="78" y="51" xlink:href="#r0"/><use x="87" y="51" xlink:href="#r0"/><use x="96" y="51" xlink:href="#r0"/><use x="99" y="51" xlink:href="#r0"/><use x="102" y="51" xlink:href="#r0"/><use x="111" y="51" xlink:href="#r0"/><use x="117" y="51" xlink:href="#r0"/><use x="15" y="54" xlink:href="#r0"/><use x="18" y="54" xlink:href="#r0"/><use x="24" y="54" xlink:href="#r0"/><use x="30" y="54" xlink:href="#r0"/><use x="36" y="54" xlink:href="#r0"/><use x="39" y="54" xlink:href="#r0"/><use x="45" y="54" xlink:href="#r0"/><use x="48" y="54" xlink:href="#r0"/><use x="54" y="54" xlink:href="#r0"/><use x="57" y="54" xlink:href="#r0"/><use x="60" y="54" xlink:href="#r0"/><use x="63" y="54" xlink:href="#r0"/><use x="66" y="54" xlink:href="#r0"/><use x="72" y="54" xlink:href="#r0"/><use x="78" y="54" xlink:href="#r0"/><use x="81" y="54" xlink:href="#r0"/><use x="84" y="54" xlink:href="#r0"/><use x="87" y="54" xlink:href="#r0"/><use x="90" y="54" xlink:href="#r0"/><use x="102" y="54" xlink:href="#r0"/><use x="18" y="57" xlink:href="#r0"/><use x="21" y="57" xlink:href="#r0"/><use x="24" y="57" xlink:href="#r0"/><use x="27" y="57" xlink:href="#r0"/><use x="30" y="57" xlink:href="#r0"/><use x="36" y="57" xlink:href="#r0"/><use x="39" y="57" xlink:href="#r0"/><use x="42" y="57" xlink:href="#r0"/><use x="45" y="57" xlink:href="#r0"/><use x="48" y="57" xlink:href="#r0"/><use x="54" y="57" xlink:href="#r0"/><use x="60" y="57" xlink:href="#r0"/><use x="66" y="57" xlink:href="#r0"/><use x="69" y="57" xlink:href="#r0"/><use x="75" y="57" xlink:href="#r0"/><use x="78" y="57" xlink:href="#r0"/><use x="81" y="57" xlink:href="#r0"/><use x="87" y="57" xlink:href="#r0"/><use x="90" y="57" xlink:href="#r0"/><use x="96" y="57" xlink:href="#r0"/><use x="99" y="57" xlink:href="#r0"/><use x="102" y="57" xlink:href="#r0"/><use x="111" y="57" xlink:href="#r0"/><use x="9" y="60" xlink:href="#r0"/><use x="12" y="60" xlink:href="#r0"/><use x="15" y="60" xlink:href="#r0"/><use x="18" y="60" xlink:href="#r0"/><use x="21" y="60" xlink:href="#r0"/><use x="30" y="60" xlink:href="#r0"/><use x="33" y="60" xlink:href="#r0"/><use x="42" y="60" xlink:href="#r0"/><use x="45" y="60" xlink:href="#r0"/><use x="48" y="60" xlink:href="#r0"/><use x="57" y="60" xlink:href="#r0"/><use x="63" y="60" xlink:href="#r0"/><use x="66" y="60" xlink:href="#r0"/><use x="78" y="60" xlink:href="#r0"/><use x="84" y="60" xlink:href="#r0"/><use x="96" y="60" xlink:href="#r0"/><use x="99" y="60" xlink:href="#r0"/><use x="105" y="60" xlink:href="#r0"/><use x="108" y="60" xlink:href="#r0"/><use x="117" y="60" xlink:href="#r0"/><use x="9" y="63" xlink:href="#r0"/><use x="12" y="63" xlink:href="#r0"/><use x="15" y="63" xlink:href="#r0"/><use x="27" y="63" xlink:href="#r0"/><use x="30" y="63" xlink:href="#r0"/><use x="39" y="63" xlink:href="#r0"/><use x="45" y="63" xlink:href="#r0"/><use x="48" y="63" xlink:href="#r0"/><use x="51" y="63" xlink:href="#r0"/><use x="60" y="63" xlink:href="#r0"/><use x="63" y="63" xlink:href="#r0"/><use x="81" y="63" xlink:href="#r0"/><use x="87" y="63" xlink:href="#r0"/><use x="93" y="63" xlink:href="#r0"/><use x="99" y="63" xlink:href="#r0"/><use x="102" y="63" xlink:href="#r0"/><use x="105" y="63" xlink:href="#r0"/><use x="108" y="63" xlink:href="#r0"/><use x="111" y="63" xlink:href="#r0"/><use x="114" y="63" xlink:href="#r0"/><use x="117" y="63" xlink:href="#r0"/><use x="9" y="66" xlink:href="#r0"/><use x="15" y="66" xlink:href="#r0"/><use x="18" y="66" xlink:href="#r0"/><use x="36" y="66" xlink:href="#r0"/><use x="39" y="66" xlink:href="#r0"/><use x="54" y="66" xlink:href="#r0"/><use x="60" y="66" xlink:href="#r0"/><use x="69" y="66" xlink:href="#r0"/><use x="72" y="66" xlink:href="#r0"/><use x="78" y="66" xlink:href="#r0"/><use x="87" y="66" xlink:href="#r0"/><use x="99" y="66" xlink:href="#r0"/><use x="102" y="66" xlink:href="#r0"/><use x="105" y="66" xlink:href="#r0"/><use x="111" y="66" xlink:href="#r0"/><use x="114" y="66" xlink:href="#r0"/><use x="117" y="66" xlink:href="#r0"/><use x="9" y="69" xlink:href="#r0"/><use x="15" y="69" xlink:href="#r0"/><use x="21" y="69" xlink:href="#r0"/><use x="24" y="69" xlink:href="#r0"/><use x="27" y="69" xlink:href="#r0"/><use x="30" y="69" xlink:href="#r0"/><use x="42" y="69" xlink:href="#r0"/><use x="48" y="69" xlink:href="#r0"/><use x="51" y="69" xlink:href="#r0"/><use x="66" y="69" xlink:href="#r0"/><use x="84" y="69" xlink:href="#r0"/><use x="90" y="69" xlink:href="#r0"/><use x="93" y="69" xlink:href="#r0"/><use x="99" y="69" xlink:href="#r0"/><use x="18" y="72" xlink:href="#r0"/><use x="21" y="72" xlink:href="#r0"/><use x="24" y="72" xlink:href="#r0"/><use x="36" y="72" xlink:href="#r0"/><use x="39" y="72" xlink:href="#r0"/><use x="45" y="72" xlink:href="#r0"/><use x="48" y="72" xlink:href="#r0"/><use x="57" y="72" xlink:href="#r0"/><use x="84" y="72" xlink:href="#r0"/><use x="87" y="72" xlink:href="#r0"/><use x="96" y="72" xlink:href="#r0"/><use x="99" y="72" xlink:href="#r0"/><use x="108" y="72" xlink:href="#r0"/><use x="111" y="72" xlink:href="#r0"/><use x="114" y="72" xlink:href="#r0"/><use x="117" y="72" xlink:href="#r0"/><use x="15" y="75" xlink:href="#r0"/><use x="18" y="75" xlink:href="#r0"/><use x="24" y="75" xlink:href="#r0"/><use x="27" y="75" xlink:href="#r0"/><use x="30" y="75" xlink:href="#r0"/><use x="33" y="75" xlink:href="#r0"/><use x="36" y="75" xlink:href="#r0"/><use x="45" y="75" xlink:href="#r0"/><use x="48" y="75" xlink:href="#r0"/><use x="57" y="75" xlink:href="#r0"/><use x="66" y="75" xlink:href="#r0"/><use x="69" y="75" xlink:href="#r0"/><use x="72" y="75" xlink:href="#r0"/><use x="75" y="75" xlink:href="#r0"/><use x="84" y="75" xlink:href="#r0"/><use x="93" y="75" xlink:href="#r0"/><use x="99" y="75" xlink:href="#r0"/><use x="102" y="75" xlink:href="#r0"/><use x="105" y="75" xlink:href="#r0"/><use x="108" y="75" xlink:href="#r0"/><use x="111" y="75" xlink:href="#r0"/><use x="114" y="75" xlink:href="#r0"/><use x="117" y="75" xlink:href="#r0"/><use x="15" y="78" xlink:href="#r0"/><use x="18" y="78" xlink:href="#r0"/><use x="33" y="78" xlink:href="#r0"/><use x="39" y="78" xlink:href="#r0"/><use x="48" y="78" xlink:href="#r0"/><use x="63" y="78" xlink:href="#r0"/><use x="66" y="78" xlink:href="#r0"/><use x="69" y="78" xlink:href="#r0"/><use x="72" y="78" xlink:href="#r0"/><use x="75" y="78" xlink:href="#r0"/><use x="84" y="78" xlink:href="#r0"/><use x="96" y="78" xlink:href="#r0"/><use x="102" y="78" xlink:href="#r0"/><use x="105" y="78" xlink:href="#r0"/><use x="108" y="78" xlink:href="#r0"/><use x="114" y="78" xlink:href="#r0"/><use x="9" y="81" xlink:href="#r0"/><use x="12" y="81" xlink:href="#r0"/><use x="18" y="81" xlink:href="#r0"/><use x="21" y="81" xlink:href="#r0"/><use x="24" y="81" xlink:href="#r0"/><use x="27" y="81" xlink:href="#r0"/><use x="33" y="81" xlink:href="#r0"/><use x="36" y="81" xlink:href="#r0"/><use x="39" y="81" xlink:href="#r0"/><use x="48" y="81" xlink:href="#r0"/><use x="60" y="81" xlink:href="#r0"/><use x="66" y="81" xlink:href="#r0"/><use x="84" y="81" xlink:href="#r0"/><use x="87" y="81" xlink:href="#r0"/><use x="96" y="81" xlink:href="#r0"/><use x="99" y="81" xlink:href="#r0"/><use x="117" y="81" xlink:href="#r0"/><use x="18" y="84" xlink:href="#r0"/><use x="39" y="84" xlink:href="#r0"/><use x="42" y="84" xlink:href="#r0"/><use x="45" y="84" xlink:href="#r0"/><use x="51" y="84" xlink:href="#r0"/><use x="54" y="84" xlink:href="#r0"/><use x="60" y="84" xlink:href="#r0"/><use x="69" y="84" xlink:href="#r0"/><use x="75" y="84" xlink:href="#r0"/><use x="84" y="84" xlink:href="#r0"/><use x="87" y="84" xlink:href="#r0"/><use x="90" y="84" xlink:href="#r0"/><use x="96" y="84" xlink:href="#r0"/><use x="99" y="84" xlink:href="#r0"/><use x="108" y="84" xlink:href="#r0"/><use x="111" y="84" xlink:href="#r0"/><use x="114" y="84" xlink:href="#r0"/><use x="117" y="84" xlink:href="#r0"/><use x="9" y="87" xlink:href="#r0"/><use x="21" y="87" xlink:href="#r0"/><use x="24" y="87" xlink:href="#r0"/><use x="27" y="87" xlink:href="#r0"/><use x="42" y="87" xlink:href="#r0"/><use x="45" y="87" xlink:href="#r0"/><use x="48" y="87" xlink:href="#r0"/><use x="57" y="87" xlink:href="#r0"/><use x="60" y="87" xlink:href="#r0"/><use x="63" y="87" xlink:href="#r0"/><use x="69" y="87" xlink:href="#r0"/><use x="72" y="87" xlink:href="#r0"/><use x="78" y="87" xlink:href="#r0"/><use x="81" y="87" xlink:href="#r0"/><use x="93" y="87" xlink:href="#r0"/><use x="96" y="87" xlink:href="#r0"/><use x="111" y="87" xlink:href="#r0"/><use x="117" y="87" xlink:href="#r0"/><use x="12" y="90" xlink:href="#r0"/><use x="15" y="90" xlink:href="#r0"/><use x="18" y="90" xlink:href="#r0"/><use x="21" y="90" xlink:href="#r0"/><use x="30" y="90" xlink:href="#r0"/><use x="42" y="90" xlink:href="#r0"/><use x="48" y="90" xlink:href="#r0"/><use x="51" y="90" xlink:href="#r0"/><use x="60" y="90" xlink:href="#r0"/><use x="63" y="90" xlink:href="#r0"/><use x="66" y="90" xlink:href="#r0"/><use x="72" y="90" xlink:href="#r0"/><use x="78" y="90" xlink:href="#r0"/><use x="84" y="90" xlink:href="#r0"/><use x="93" y="90" xlink:href="#r0"/><use x="96" y="90" xlink:href="#r0"/><use x="102" y="90" xlink:href="#r0"/><use x="105" y="90" xlink:href="#r0"/><use x="9" y="93" xlink:href="#r0"/><use x="12" y="93" xlink:href="#r0"/><use x="15" y="93" xlink:href="#r0"/><use x="27" y="93" xlink:href="#r0"/><use x="30" y="93" xlink:href="#r0"/><use x="45" y="93" xlink:href="#r0"/><use x="54" y="93" xlink:href="#r0"/><use x="57" y="93" xlink:href="#r0"/><use x="60" y="93" xlink:href="#r0"/><use x="69" y="93" xlink:href="#r0"/><use x="75" y="93" xlink:href="#r0"/><use x="87" y="93" xlink:href="#r0"/><use x="90" y="93" xlink:href="#r0"/><use x="93" y="93" xlink:href="#r0"/><use x="96" y="93" xlink:href="#r0"/><use x="99" y="93" xlink:href="#r0"/><use x="102" y="93" xlink:href="#r0"/><use x="105" y="93" xlink:href="#r0"/><use x="114" y="93" xlink:href="#r0"/><use x="33" y="96" xlink:href="#r0"/><use x="42" y="96" xlink:href="#r0"/><use x="48" y="96" xlink:href="#r0"/><use x="63" y="96" xlink:href="#r0"/><use x="66" y="96" xlink:href="#r0"/><use x="78" y="96" xlink:href="#r0"/><use x="84" y="96" xlink:href="#r0"/><use x="90" y="96" xlink:href="#r0"/><use x="93" y="96" xlink:href="#r0"/><use x="105" y="96" xlink:href="#r0"/><use x="108" y="96" xlink:href="#r0"/><use x="111" y="96" xlink:href="#r0"/><use x="9" y="99" xlink:href="#r0"/><use x="12" y="99" xlink:href="#r0"/><use x="15" y="99" xlink:href="#r0"/><use x="18" y="99" xlink:href="#r0"/><use x="21" y="99" xlink:href="#r0"/><use x="24" y="99" xlink:href="#r0"/><use x="27" y="99" xlink:href="#r0"/><use x="33" y="99" xlink:href="#r0"/><use x="39" y="99" xlink:href="#r0"/><use x="45" y="99" xlink:href="#r0"/><use x="75" y="99" xlink:href="#r0"/><use x="81" y="99" xlink:href="#r0"/><use x="87" y="99" xlink:href="#r0"/><use x="90" y="99" xlink:href="#r0"/><use x="93" y="99" xlink:href="#r0"/><use x="99" y="99" xlink:href="#r0"/><use x="105" y="99" xlink:href="#r0"/><use x="111" y="99" xlink:href="#r0"/><use x="114" y="99" xlink:href="#r0"/><use x="117" y="99" xlink:href="#r0"/><use x="9" y="102" xlink:href="#r0"/><use x="27" y="102" xlink:href="#r0"/><use x="39" y="102" xlink:href="#r0"/><use x="51" y="102" xlink:href="#r0"/><use x="54" y="102" xlink:href="#r0"/><use x="60" y="102" xlink:href="#r0"/><use x="69" y="102" xlink:href="#r0"/><use x="72" y="102" xlink:href="#r0"/><use x="90" y="102" xlink:href="#r0"/><use x="93" y="102" xlink:href="#r0"/><use x="105" y="102" xlink:href="#r0"/><use x="111" y="102" xlink:href="#r0"/><use x="114" y="102" xlink:href="#r0"/><use x="117" y="102" xlink:href="#r0"/><use x="9" y="105" xlink:href="#r0"/><use x="15" y="105" xlink:href="#r0"/><use x="18" y="105" xlink:href="#r0"/><use x="21" y="105" xlink:href="#r0"/><use x="27" y="105" xlink:href="#r0"/><use x="39" y="105" xlink:href="#r0"/><use x="48" y="105" xlink:href="#r0"/><use x="51" y="105" xlink:href="#r0"/><use x="57" y="105" xlink:href="#r0"/><use x="66" y="105" xlink:href="#r0"/><use x="78" y="105" xlink:href="#r0"/><use x="84" y="105" xlink:href="#r0"/><use x="93" y="105" xlink:href="#r0"/><use x="96" y="105" xlink:href="#r0"/><use x="99" y="105" xlink:href="#r0"/><use x="102" y="105" xlink:href="#r0"/><use x="105" y="105" xlink:href="#r0"/><use x="114" y="105" xlink:href="#r0"/><use x="9" y="108" xlink:href="#r0"/><use x="15" y="108" xlink:href="#r0"/><use x="18" y="108" xlink:href="#r0"/><use x="21" y="108" xlink:href="#r0"/><use x="27" y="108" xlink:href="#r0"/><use x="33" y="108" xlink:href="#r0"/><use x="36" y="108" xlink:href="#r0"/><use x="57" y="108" xlink:href="#r0"/><use x="72" y="108" xlink:href="#r0"/><use x="75" y="108" xlink:href="#r0"/><use x="84" y="108" xlink:href="#r0"/><use x="87" y="108" xlink:href="#r0"/><use x="90" y="108" xlink:href="#r0"/><use x="96" y="108" xlink:href="#r0"/><use x="102" y="108" xlink:href="#r0"/><use x="105" y="108" xlink:href="#r0"/><use x="108" y="108" xlink:href="#r0"/><use x="111" y="108" xlink:href="#r0"/><use x="114" y="108" xlink:href="#r0"/><use x="117" y="108" xlink:href="#r0"/><use x="9" y="111" xlink:href="#r0"/><use x="15" y="111" xlink:href="#r0"/><use x="18" y="111" xlink:href="#r0"/><use x="21" y="111" xlink:href="#r0"/><use x="27" y="111" xlink:href="#r0"/><use x="36" y="111" xlink:href="#r0"/><use x="39" y="111" xlink:href="#r0"/><use x="45" y="111" xlink:href="#r0"/><use x="48" y="111" xlink:href="#r0"/><use x="63" y="111" xlink:href="#r0"/><use x="66" y="111" xlink:href="#r0"/><use x="72" y="111" xlink:href="#r0"/><use x="87" y="111" xlink:href="#r0"/><use x="93" y="111" xlink:href="#r0"/><use x="105" y="111" xlink:href="#r0"/><use x="108" y="111" xlink:href="#r0"/><use x="114" y="111" xlink:href="#r0"/><use x="117" y="111" xlink:href="#r0"/><use x="9" y="114" xlink:href="#r0"/><use x="27" y="114" xlink:href="#r0"/><use x="33" y="114" xlink:href="#r0"/><use x="45" y="114" xlink:href="#r0"/><use x="48" y="114" xlink:href="#r0"/><use x="51" y="114" xlink:href="#r0"/><use x="57" y="114" xlink:href="#r0"/><use x="63" y="114" xlink:href="#r0"/><use x="66" y="114" xlink:href="#r0"/><use x="69" y="114" xlink:href="#r0"/><use x="72" y="114" xlink:href="#r0"/><use x="81" y="114" xlink:href="#r0"/><use x="84" y="114" xlink:href="#r0"/><use x="87" y="114" xlink:href="#r0"/><use x="90" y="114" xlink:href="#r0"/><use x="99" y="114" xlink:href="#r0"/><use x="9" y="117" xlink:href="#r0"/><use x="12" y="117" xlink:href="#r0"/><use x="15" y="117" xlink:href="#r0"/><use x="18" y="117" xlink:href="#r0"/><use x="21" y="117" xlink:href="#r0"/><use x="24" y="117" xlink:href="#r0"/><use x="27" y="117" xlink:href="#r0"/><use x="33" y="117" xlink:href="#r0"/><use x="39" y="117" xlink:href="#r0"/><use x="48" y="117" xlink:href="#r0"/><use x="60" y="117" xlink:href="#r0"/><use x="69" y="117" xlink:href="#r0"/><use x="78" y="117" xlink:href="#r0"/><use x="81" y="117" xlink:href="#r0"/><use x="84" y="117" xlink:href="#r0"/><use x="87" y="117" xlink:href="#r0"/><use x="90" y="117" xlink:href="#r0"/><use x="93" y="117" xlink:href="#r0"/><use x="99" y="117" xlink:href="#r0"/><use x="102" y="117" xlink:href="#r0"/><use x="105" y="117" xlink:href="#r0"/><use x="114" y="117" xlink:href="#r0"/><use x="117" y="117" xlink:href="#r0"/></svg>