<svg xmlns="http://www.w3.org/2000/svg" xmlns:xlink="http://www.w3.org/1999/xlink" version="1.1" width="125px" height="125px" viewBox="0 0 125 125"><defs><rect id="r0" width="3" height="3" fill="#000000"/></defs><rect x="0" y="0" width="125" height="125" fill="#fefefe"/><use x="1" y="1" xlink:href="#r0"/><use x="4" y="1" xlink:href="#r0"/><use x="7" y="1" xlink:href="#r0"/><use x="10" y="1" xlink:href="#r0"/><use x="13" y="1" xlink:href="#r0"/><use x="16" y="1" xlink:href="#r0"/><use x="19" y="1" xlink:href="#r0"/><use x="25" y="1" xlink:href="#r0"/><use x="34" y="1" xlink:href="#r0"/><use x="37" y="1" xlink:href="#r0"/><use x="40" y="1" xlink:href="#r0"/><use x="43" y="1" xlink:href="#r0"/><use x="49" y="1" xlink:href="#r0"/><use x="55" y="1" xlink:href="#r0"/><use x="58" y="1" xlink:href="#r0"/><use x="64" y="1" xlink:href="#r0"/><use x="67" y="1" xlink:href="#r0"/><use x="70" y="1" xlink:href="#r0"/><use x="73" y="1" xlink:href="#r0"/><use x="79" y="1" xlink:href="#r0"/><use x="82" y="1" xlink:href="#r0"/><use x="88" y="1" xlink:href="#r0"/><use x="103" y="1" xlink:href="#r0"/><use x="106" y="1" xlink:href="#r0"/><use x="109" y="1" xlink:href="#r0"/><use x="112" y="1" xlink:href="#r0"/><use x="115" y="1" xlink:href="#r0"/><use x="118" y="1" xlink:href="#r0"/><use x="121" y="1" xlink:href="#r0"/><use x="1" y="4" xlink:href="#r0"/><use x="19" y="4" xlink:href="#r0"/><use x="25" y="4" xlink:href="#r0"/><use x="28" y="4" xlink:href="#r0"/><use x="37" y="4" xlink:href="#r0"/><use x="40" y="4" xlink:href="#r0"/><use x="43" y="4" xlink:href="#r0"/><use x="55" y="4" xlink:href="#r0"/><use x="58" y="4" xlink:href="#r0"/><use x="61" y="4" xlink:href="#r0"/><use x="94" y="4" xlink:href="#r0"/><use x="97" y="4" xlink:href="#r0"/><use x="103" y="4" xlink:href="#r0"/><use x="121" y="4" xlink:href="#r0"/><use x="1" y="7" xlink:href="#r0"/><use x="7" y="7" xlink:href="#r0"/><use x="10" y="7" xlink:href="#r0"/><use x="13" y="7" xlink:href="#r0"/><use x="19" y="7" xlink:href="#r0"/><use x="25" y="7" xlink:href="#r0"/><use x="28" y="7" xlink:href="#r0"/><use x="31" y="7" xlink:href="#r0"/><use x="34" y="7" xlink:href="#r0"/><use x="43" y="7" xlink:href="#r0"/><use x="46" y="7" xlink:href="#r0"/><use x="52" y="7" xlink:href="#r0"/><use x="64" y="7" xlink:href="#r0"/><use x="70" y="7" xlink:href="#r0"/><use x="73" y="7" xlink:href="#r0"/><use x="79" y="7" xlink:href="#r0"/><use x="88" y="7" xlink:href="#r0"/><use x="91" y="7" xlink:href="#r0"/><use x="97" y="7" xlink:href="#r0"/><use x="103" y="7" xlink:href="#r0"/><use x="109" y="7" xlink:href="#r0"/><use x="112" y="7" xlink:href="#r0"/><use x="115" y="7" xlink:href="#r0"/><use x="121" y="7" xlink:href="#r0"/><use x="1" y="10" xlink:href="#r0"/><use x="7" y="10" xlink:href="#r0"/><use x="10" y="10" xlink:href="#r0"/><use x="13" y="10" xlink:href="#r0"/><use x="19" y="10" xlink:href="#r0"/><use x="25" y="10" xlink:href="#r0"/><use x="28" y="10" xlink:href="#r0"/><use x="49" y="10" xlink:href="#r0"/><use x="52" y="10" xlink:href="#r0"/><use x="55" y="10" xlink:href="#r0"/><use x="58" y="10" xlink:href="#r0"/><use x="67" y="10" xlink:href="#r0"/><use x="70" y="10" xlink:href="#r0"/><use x="76" y="10" xlink:href="#r0"/><use x="85" y="10" xlink:href="#r0"/><use x="91" y="10" xlink:href="#r0"/><use x="103" y="10" xlink:href="#r0"/><use x="109" y="10" xlink:href="#r0"/><use x="112" y="10" xlink:href="#r0"/><use x="115" y="10" xlink:href="#r0"/><use x="121" y="10" xlink:href="#r0"/><use x="1" y="13" xlink:href="#r0"/><use x="7" y="13" xlink:href="#r0"/><use x="10" y="13" xlink:href="#r0"/><use x="13" y="13" xlink:href="#r0"/><use x="19" y="13" xlink:href="#r0"/><use x="28" y="13" xlink:href="#r0"/><use x="34" y="13" xlink:href="#r0"/><use x="40" y="13" xlink:href="#r0"/><use x="49" y="13" xlink:href="#r0"/><use x="61" y="13" xlink:href="#r0"/><use x="64" y="13" xlink:href="#r0"/><use x="67" y="13" xlink:href="#r0"/><use x="70" y="13" xlink:href="#r0"/><use x="73" y="13" xlink:href="#r0"/><use x="82" y="13" xlink:href="#r0"/><use x="91" y="13" xlink:href="#r0"/><use x="103" y="13" xlink:href="#r0"/><use x="109" y="13" xlink:href="#r0"/><use x="112" y="13" xlink:href="#r0"/><use x="115" y="13" xlink:href="#r0"/><use x="121" y="13" xlink:href="#r0"/><use x="1" y="16" xlink:href="#r0"/><use x="19" y="16" xlink:href="#r0"/><use x="25" y="16" xlink:href="#r0"/><use x="31" y="16" xlink:href="#r0"/><use x="37" y="16" xlink:href="#r0"/><use x="40" y="16" xlink:href="#r0"/><use x="43" y="16" xlink:href="#r0"/><use x="46" y="16" xlink:href="#r0"/><use x="55" y="16" xlink:href="#r0"/><use x="58" y="16" xlink:href="#r0"/><use x="61" y="16" xlink:href="#r0"/><use x="76" y="16" xlink:href="#r0"/><use x="79" y="16" xlink:href="#r0"/><use x="85" y="16" xlink:href="#r0"/><use x="88" y="16" xlink:href="#r0"/><use x="91" y="16" xlink:href="#r0"/><use x="94" y="16" xlink:href="#r0"/><use x="103" y="16" xlink:href="#r0"/><use x="121" y="16" xlink:href="#r0"/><use x="1" y="19" xlink:href="#r0"/><use x="4" y="19" xlink:href="#r0"/><use x="7" y="19" xlink:href="#r0"/><use x="10" y="19" xlink:href="#r0"/><use x="13" y="19" xlink:href="#r0"/><use x="16" y="19" xlink:href="#r0"/><use x="19" y="19" xlink:href="#r0"/><use x="25" y="19" xlink:href="#r0"/><use x="31" y="19" xlink:href="#r0"/><use x="37" y="19" xlink:href="#r0"/><use x="43" y="19" xlink:href="#r0"/><use x="49" y="19" xlink:href="#r0"/><use x="55" y="19" xlink:href="#r0"/><use x="61" y="19" xlink:href="#r0"/><use x="67" y="19" xlink:href="#r0"/><use x="73" y="19" xlink:href="#r0"/><use x="79" y="19" xlink:href="#r0"/><use x="85" y="19" xlink:href="#r0"/><use x="91" y="19" xlink:href="#r0"/><use x="97" y="19" xlink:href="#r0"/><use x="103" y="19" xlink:href="#r0"/><use x="106" y="19" xlink:href="#r0"/><use x="109" y="19" xlink:href="#r0"/><use x="112" y="19" xlink:href="#r0"/><use x="115" y="19" xlink:href="#r0"/><use x="118" y="19" xlink:href="#r0"/><use x="121" y="19" xlink:href="#r0"/><use x="34" y="22" xlink:href="#r0"/><use x="37" y="22" xlink:href="#r0"/><use x="43" y="22" xlink:href="#r0"/><use x="52" y="22" xlink:href="#r0"/><use x="55" y="22" xlink:href="#r0"/><use x="58" y="22" xlink:href="#r0"/><use x="64" y="22" xlink:href="#r0"/><use x="67" y="22" xlink:href="#r0"/><use x="79" y="22" xlink:href="#r0"/><use x="82" y="22" xlink:href="#r0"/><use x="85" y="22" xlink:href="#r0"/><use x="88" y="22" xlink:href="#r0"/><use x="97" y="22" xlink:href="#r0"/><use x="1" y="25" xlink:href="#r0"/><use x="4" y="25" xlink:href="#r0"/><use x="13" y="25" xlink:href="#r0"/><use x="16" y="25" xlink:href="#r0"/><use x="19" y="25" xlink:href="#r0"/><use x="28" y="25" xlink:href="#r0"/><use x="31" y="25" xlink:href="#r0"/><use x="40" y="25" xlink:href="#r0"/><use x="46" y="25" xlink:href="#r0"/><use x="61" y="25" xlink:href="#r0"/><use x="64" y="25" xlink:href="#r0"/><use x="79" y="25" xlink:href="#r0"/><use x="88" y="25" xlink:href="#r0"/><use x="97" y="25" xlink:href="#r0"/><use x="106" y="25" xlink:href="#r0"/><use x="112" y="25" xlink:href="#r0"/><use x="115" y="25" xlink:href="#r0"/><use x="118" y="25" xlink:href="#r0"/><use x="121" y="25" xlink:href="#r0"/><use x="1" y="28" xlink:href="#r0"/><use x="4" y="28" xlink:href="#r0"/><use x="13" y="28" xlink:href="#r0"/><use x="16" y="28" xlink:href="#r0"/><use x="22" y="28" xlink:href="#r0"/><use x="25" y="28" xlink:href="#r0"/><use x="31" y="28" xlink:href="#r0"/><use x="43" y="28" xlink:href="#r0"/><use x="49" y="28" xlink:href="#r0"/><use x="58" y="28" xlink:href="#r0"/><use x="64" y="28" xlink:href="#r0"/><use x="67" y="28" xlink:href="#r0"/><use x="70" y="28" xlink:href="#r0"/><use x="73" y="28" xlink:href="#r0"/><use x="79" y="28" xlink:href="#r0"/><use x="82" y="28" xlink:href="#r0"/><use x="91" y="28" xlink:href="#r0"/><use x="106" y="28" xlink:href="#r0"/><use x="109" y="28" xlink:href="#r0"/><use x="121" y="28" xlink:href="#r0"/><use x="1" y="31" xlink:href="#r0"/><use x="10" y="31" xlink:href="#r0"/><use x="16" y="31" xlink:href="#r0"/><use x="19" y="31" xlink:href="#r0"/><use x="31" y="31" xlink:href="#r0"/><use x="34" y="31" xlink:href="#r0"/><use x="40" y="31" xlink:href="#r0"/><use x="43" y="31" xlink:href="#r0"/><use x="46" y="31" xlink:href="#r0"/><use x="52" y="31" xlink:href="#r0"/><use x="61" y="31" xlink:href="#r0"/><use x="67" y="31" xlink:href="#r0"/><use x="70" y="31" xlink:href="#r0"/><use x="73" y="31" xlink:href="#r0"/><use x="82" y="31" xlink:href="#r0"/><use x="88" y="31" xlink:href="#r0"/><use x="97" y="31" xlink:href="#r0"/><use x="100" y="31" xlink:href="#r0"/><use x="103" y="31" xlink:href="#r0"/><use x="106" y="31" xlink:href="#r0"/><use x="115" y="31" xlink:href="#r0"/><use x="118" y="31" xlink:href="#r0"/><use x="121" y="31" xlink:href="#r0"/><use x="4" y="34" xlink:href="#r0"/><use x="7" y="34" xlink:href="#r0"/><use x="25" y="34" xlink:href="#r0"/><use x="28" y="34" xlink:href="#r0"/><use x="34" y="34" xlink:href="#r0"/><use x="40" y="34" xlink:href="#r0"/><use x="49" y="34" xlink:href="#r0"/><use x="52" y="34" xlink:href="#r0"/><use x="61" y="34" xlink:href="#r0"/><use x="64" y="34" xlink:href="#r0"/><use x="70" y="34" xlink:href="#r0"/><use x="85" y="34" xlink:href="#r0"/><use x="88" y="34" xlink:href="#r0"/><use x="91" y="34" xlink:href="#r0"/><use x="100" y="34" xlink:href="#r0"/><use x="106" y="34" xlink:href="#r0"/><use x="112" y="34" xlink:href="#r0"/><use x="121" y="34" xlink:href="#r0"/><use x="4" y="37" xlink:href="#r0"/><use x="10" y="37" xlink:href="#r0"/><use x="16" y="37" xlink:href="#r0"/><use x="19" y="37" xlink:href="#r0"/><use x="22" y="37" xlink:href="#r0"/><use x="28" y="37" xlink:href="#r0"/><use x="31" y="37" xlink:href="#r0"/><use x="34" y="37" xlink:href="#r0"/><use x="40" y="37" xlink:href="#r0"/><use x="52" y="37" xlink:href="#r0"/><use x="64" y="37" xlink:href="#r0"/><use x="79" y="37" xlink:href="#r0"/><use x="85" y="37" xlink:href="#r0"/><use x="88" y="37" xlink:href="#r0"/><use x="94" y="37" xlink:href="#r0"/><use x="97" y="37" xlink:href="#r0"/><use x="106" y="37" xlink:href="#r0"/><use x="112" y="37" xlink:href="#r0"/><use x="1" y="40" xlink:href="#r0"/><use x="4" y="40" xlink:href="#r0"/><use x="7" y="40" xlink:href="#r0"/><use x="22" y="40" xlink:href="#r0"/><use x="31" y="40" xlink:href="#r0"/><use x="37" y="40" xlink:href="#r0"/><use x="43" y="40" xlink:href="#r0"/><use x="52" y="40" xlink:href="#r0"/><use x="61" y="40" xlink:href="#r0"/><use x="70" y="40" xlink:href="#r0"/><use x="82" y="40" xlink:href="#r0"/><use x="100" y="40" xlink:href="#r0"/><use x="103" y="40" xlink:href="#r0"/><use x="109" y="40" xlink:href="#r0"/><use x="121" y="40" xlink:href="#r0"/><use x="4" y="43" xlink:href="#r0"/><use x="19" y="43" xlink:href="#r0"/><use x="25" y="43" xlink:href="#r0"/><use x="28" y="43" xlink:href="#r0"/><use x="31" y="43" xlink:href="#r0"/><use x="34" y="43" xlink:href="#r0"/><use x="37" y="43" xlink:href="#r0"/><use x="43" y="43" xlink:href="#r0"/><use x="46" y="43" xlink:href="#r0"/><use x="49" y="43" xlink:href="#r0"/><use x="52" y="43" xlink:href="#r0"/><use x="64" y="43" xlink:href="#r0"/><use x="67" y="43" xlink:href="#r0"/><use x="70" y="43" xlink:href="#r0"/><use x="79" y="43" xlink:href="#r0"/><use x="82" y="43" xlink:href="#r0"/><use x="88" y="43" xlink:href="#r0"/><use x="97" y="43" xlink:href="#r0"/><use x="100" y="43" xlink:href="#r0"/><use x="112" y="43" xlink:href="#r0"/><use x="115" y="43" xlink:href="#r0"/><use x="121" y="43" xlink:href="#r0"/><use x="1" y="46" xlink:href="#r0"/><use x="4" y="46" xlink:href="#r0"/><use x="7" y="46" xlink:href="#r0"/><use x="10" y="46" xlink:href="#r0"/><use x="13" y="46" xlink:href="#r0"/><use x="25" y="46" xlink:href="#r0"/><use x="31" y="46" xlink:href="#r0"/><use x="34" y="46" xlink:href="#r0"/><use x="43" y="46" xlink:href="#r0"/><use x="46" y="46" xlink:href="#r0"/><use x="52" y="46" xlink:href="#r0"/><use x="55" y="46" xlink:href="#r0"/><use x="61" y="46" xlink:href="#r0"/><use x="64" y="46" xlink:href="#r0"/><use x="67" y="46" xlink:href="#r0"/><use x="70" y="46" xlink:href="#r0"/><use x="73" y="46" xlink:href="#r0"/><use x="79" y="46" xlink:href="#r0"/><use x="85" y="46" xlink:href="#r0"/><use x="88" y="46" xlink:href="#r0"/><use x="91" y="46" xlink:href="#r0"/><use x="97" y="46" xlink:href="#r0"/><use x="100" y="46" xlink:href="#r0"/><use x="103" y="46" xlink:href="#r0"/><use x="109" y="46" xlink:href="#r0"/><use x="121" y="46" xlink:href="#r0"/><use x="7" y="49" xlink:href="#r0"/><use x="10" y="49" xlink:href="#r0"/><use x="13" y="49" xlink:href="#r0"/><use x="19" y="49" xlink:href="#r0"/><use x="22" y="49" xlink:href="#r0"/><use x="28" y="49" xlink:href="#r0"/><use x="31" y="49" xlink:href="#r0"/><use x="43" y="49" xlink:href="#r0"/><use x="49" y="49" xlink:href="#r0"/><use x="58" y="49" xlink:href="#r0"/><use x="61" y="49" xlink:href="#r0"/><use x="64" y="49" xlink:href="#r0"/><use x="79" y="49" xlink:href="#r0"/><use x="85" y="49" xlink:href="#r0"/><use x="88" y="49" xlink:href="#r0"/><use x="94" y="49" xlink:href="#r0"/><use x="97" y="49" xlink:href="#r0"/><use x="100" y="49" xlink:href="#r0"/><use x="1" y="52" xlink:href="#r0"/><use x="10" y="52" xlink:href="#r0"/><use x="16" y="52" xlink:href="#r0"/><use x="22" y="52" xlink:href="#r0"/><use x="25" y="52" xlink:href="#r0"/><use x="31" y="52" xlink:href="#r0"/><use x="34" y="52" xlink:href="#r0"/><use x="37" y="52" xlink:href="#r0"/><use x="40" y="52" xlink:href="#r0"/><use x="43" y="52" xlink:href="#r0"/><use x="49" y="52" xlink:href="#r0"/><use x="55" y="52" xlink:href="#r0"/><use x="61" y="52" xlink:href="#r0"/><use x="67" y="52" xlink:href="#r0"/><use x="70" y="52" xlink:href="#r0"/><use x="73" y="52" xlink:href="#r0"/><use x="76" y="52" xlink:href="#r0"/><use x="85" y="52" xlink:href="#r0"/><use x="103" y="52" xlink:href="#r0"/><use x="109" y="52" xlink:href="#r0"/><use x="112" y="52" xlink:href="#r0"/><use x="118" y="52" xlink:href="#r0"/><use x="121" y="52" xlink:href="#r0"/><use x="4" y="55" xlink:href="#r0"/><use x="13" y="55" xlink:href="#r0"/><use x="19" y="55" xlink:href="#r0"/><use x="28" y="55" xlink:href="#r0"/><use x="31" y="55" xlink:href="#r0"/><use x="34" y="55" xlink:href="#r0"/><use x="37" y="55" xlink:href="#r0"/><use x="46" y="55" xlink:href="#r0"/><use x="61" y="55" xlink:href="#r0"/><use x="64" y="55" xlink:href="#r0"/><use x="67" y="55" xlink:href="#r0"/><use x="70" y="55" xlink:href="#r0"/><use x="73" y="55" xlink:href="#r0"/><use x="82" y="55" xlink:href="#r0"/><use x="85" y="55" xlink:href="#r0"/><use x="88" y="55" xlink:href="#r0"/><use x="91" y="55" xlink:href="#r0"/><use x="97" y="55" xlink:href="#r0"/><use x="100" y="55" xlink:href="#r0"/><use x="103" y="55" xlink:href="#r0"/><use x="109" y="55" xlink:href="#r0"/><use x="112" y="55" xlink:href="#r0"/><use x="118" y="55" xlink:href="#r0"/><use x="121" y="55" xlink:href="#r0"/><use x="4" y="58" xlink:href="#r0"/><use x="22" y="58" xlink:href="#r0"/><use x="28" y="58" xlink:href="#r0"/><use x="34" y="58" xlink:href="#r0"/><use x="37" y="58" xlink:href="#r0"/><use x="43" y="58" xlink:href="#r0"/><use x="46" y="58" xlink:href="#r0"/><use x="49" y="58" xlink:href="#r0"/><use x="52" y="58" xlink:href="#r0"/><use x="64" y="58" xlink:href="#r0"/><use x="67" y="58" xlink:href="#r0"/><use x="70" y="58" xlink:href="#r0"/><use x="73" y="58" xlink:href="#r0"/><use x="88" y="58" xlink:href="#r0"/><use x="97" y="58" xlink:href="#r0"/><use x="100" y="58" xlink:href="#r0"/><use x="103" y="58" xlink:href="#r0"/><use x="106" y="58" xlink:href="#r0"/><use x="109" y="58" xlink:href="#r0"/><use x="112" y="58" xlink:href="#r0"/><use x="1" y="61" xlink:href="#r0"/><use x="4" y="61" xlink:href="#r0"/><use x="7" y="61" xlink:href="#r0"/><use x="10" y="61" xlink:href="#r0"/><use x="16" y="61" xlink:href="#r0"/><use x="19" y="61" xlink:href="#r0"/><use x="22" y="61" xlink:href="#r0"/><use x="25" y="61" xlink:href="#r0"/><use x="34" y="61" xlink:href="#r0"/><use x="37" y="61" xlink:href="#r0"/><use x="40" y="61" xlink:href="#r0"/><use x="43" y="61" xlink:href="#r0"/><use x="46" y="61" xlink:href="#r0"/><use x="52" y="61" xlink:href="#r0"/><use x="67" y="61" xlink:href="#r0"/><use x="73" y="61" xlink:href="#r0"/><use x="79" y="61" xlink:href="#r0"/><use x="82" y="61" xlink:href="#r0"/><use x="85" y="61" xlink:href="#r0"/><use x="88" y="61" xlink:href="#r0"/><use x="112" y="61" xlink:href="#r0"/><use x="1" y="64" xlink:href="#r0"/><use x="10" y="64" xlink:href="#r0"/><use x="13" y="64" xlink:href="#r0"/><use x="16" y="64" xlink:href="#r0"/><use x="46" y="64" xlink:href="#r0"/><use x="49" y="64" xlink:href="#r0"/><use x="55" y="64" xlink:href="#r0"/><use x="67" y="64" xlink:href="#r0"/><use x="76" y="64" xlink:href="#r0"/><use x="82" y="64" xlink:href="#r0"/><use x="91" y="64" xlink:href="#r0"/><use x="100" y="64" xlink:href="#r0"/><use x="103" y="64" xlink:href="#r0"/><use x="109" y="64" xlink:href="#r0"/><use x="112" y="64" xlink:href="#r0"/><use x="115" y="64" xlink:href="#r0"/><use x="121" y="64" xlink:href="#r0"/><use x="4" y="67" xlink:href="#r0"/><use x="16" y="67" xlink:href="#r0"/><use x="19" y="67" xlink:href="#r0"/><use x="25" y="67" xlink:href="#r0"/><use x="28" y="67" xlink:href="#r0"/><use x="43" y="67" xlink:href="#r0"/><use x="46" y="67" xlink:href="#r0"/><use x="52" y="67" xlink:href="#r0"/><use x="67" y="67" xlink:href="#r0"/><use x="70" y="67" xlink:href="#r0"/><use x="82" y="67" xlink:href="#r0"/><use x="97" y="67" xlink:href="#r0"/><use x="100" y="67" xlink:href="#r0"/><use x="121" y="67" xlink:href="#r0"/><use x="1" y="70" xlink:href="#r0"/><use x="10" y="70" xlink:href="#r0"/><use x="16" y="70" xlink:href="#r0"/><use x="31" y="70" xlink:href="#r0"/><use x="37" y="70" xlink:href="#r0"/><use x="43" y="70" xlink:href="#r0"/><use x="46" y="70" xlink:href="#r0"/><use x="52" y="70" xlink:href="#r0"/><use x="55" y="70" xlink:href="#r0"/><use x="61" y="70" xlink:href="#r0"/><use x="64" y="70" xlink:href="#r0"/><use x="67" y="70" xlink:href="#r0"/><use x="70" y="70" xlink:href="#r0"/><use x="79" y="70" xlink:href="#r0"/><use x="82" y="70" xlink:href="#r0"/><use x="88" y="70" xlink:href="#r0"/><use x="91" y="70" xlink:href="#r0"/><use x="94" y="70" xlink:href="#r0"/><use x="103" y="70" xlink:href="#r0"/><use x="106" y="70" xlink:href="#r0"/><use x="121" y="70" xlink:href="#r0"/><use x="7" y="73" xlink:href="#r0"/><use x="10" y="73" xlink:href="#r0"/><use x="19" y="73" xlink:href="#r0"/><use x="34" y="73" xlink:href="#r0"/><use x="37" y="73" xlink:href="#r0"/><use x="40" y="73" xlink:href="#r0"/><use x="64" y="73" xlink:href="#r0"/><use x="79" y="73" xlink:href="#r0"/><use x="88" y="73" xlink:href="#r0"/><use x="94" y="73" xlink:href="#r0"/><use x="97" y="73" xlink:href="#r0"/><use x="100" y="73" xlink:href="#r0"/><use x="118" y="73" xlink:href="#r0"/><use x="121" y="73" xlink:href="#r0"/><use x="1" y="76" xlink:href="#r0"/><use x="4" y="76" xlink:href="#r0"/><use x="7" y="76" xlink:href="#r0"/><use x="13" y="76" xlink:href="#r0"/><use x="16" y="76" xlink:href="#r0"/><use x="34" y="76" xlink:href="#r0"/><use x="37" y="76" xlink:href="#r0"/><use x="43" y="76" xlink:href="#r0"/><use x="49" y="76" xlink:href="#r0"/><use x="52" y="76" xlink:href="#r0"/><use x="61" y="76" xlink:href="#r0"/><use x="70" y="76" xlink:href="#r0"/><use x="73" y="76" xlink:href="#r0"/><use x="76" y="76" xlink:href="#r0"/><use x="82" y="76" xlink:href="#r0"/><use x="88" y="76" xlink:href="#r0"/><use x="91" y="76" xlink:href="#r0"/><use x="94" y="76" xlink:href="#r0"/><use x="103" y="76" xlink:href="#r0"/><use x="106" y="76" xlink:href="#r0"/><use x="109" y="76" xlink:href="#r0"/><use x="112" y="76" xlink:href="#r0"/><use x="118" y="76" xlink:href="#r0"/><use x="121" y="76" xlink:href="#r0"/><use x="1" y="79" xlink:href="#r0"/><use x="4" y="79" xlink:href="#r0"/><use x="7" y="79" xlink:href="#r0"/><use x="13" y="79" xlink:href="#r0"/><use x="16" y="79" xlink:href="#r0"/><use x="19" y="79" xlink:href="#r0"/><use x="25" y="79" xlink:href="#r0"/><use x="31" y="79" xlink:href="#r0"/><use x="34" y="79" xlink:href="#r0"/><use x="37" y="79" xlink:href="#r0"/><use x="40" y="79" xlink:href="#r0"/><use x="43" y="79" xlink:href="#r0"/><use x="46" y="79" xlink:href="#r0"/><use x="49" y="79" xlink:href="#r0"/><use x="55" y="79" xlink:href="#r0"/><use x="61" y="79" xlink:href="#r0"/><use x="67" y="79" xlink:href="#r0"/><use x="70" y="79" xlink:href="#r0"/><use x="73" y="79" xlink:href="#r0"/><use x="82" y="79" xlink:href="#r0"/><use x="85" y="79" xlink:href="#r0"/><use x="88" y="79" xlink:href="#r0"/><use x="100" y="79" xlink:href="#r0"/><use x="103" y="79" xlink:href="#r0"/><use x="112" y="79" xlink:href="#r0"/><use x="115" y="79" xlink:href="#r0"/><use x="118" y="79" xlink:href="#r0"/><use x="121" y="79" xlink:href="#r0"/><use x="1" y="82" xlink:href="#r0"/><use x="7" y="82" xlink:href="#r0"/><use x="10" y="82" xlink:href="#r0"/><use x="13" y="82" xlink:href="#r0"/><use x="22" y="82" xlink:href="#r0"/><use x="28" y="82" xlink:href="#r0"/><use x="34" y="82" xlink:href="#r0"/><use x="40" y="82" xlink:href="#r0"/><use x="46" y="82" xlink:href="#r0"/><use x="49" y="82" xlink:href="#r0"/><use x="52" y="82" xlink:href="#r0"/><use x="55" y="82" xlink:href="#r0"/><use x="64" y="82" xlink:href="#r0"/><use x="67" y="82" xlink:href="#r0"/><use x="70" y="82" xlink:href="#r0"/><use x="82" y="82" xlink:href="#r0"/><use x="85" y="82" xlink:href="#r0"/><use x="88" y="82" xlink:href="#r0"/><use x="91" y="82" xlink:href="#r0"/><use x="103" y="82" xlink:href="#r0"/><use x="106" y="82" xlink:href="#r0"/><use x="112" y="82" xlink:href="#r0"/><use x="1" y="85" xlink:href="#r0"/><use x="10" y="85" xlink:href="#r0"/><use x="16" y="85" xlink:href="#r0"/><use x="19" y="85" xlink:href="#r0"/><use x="25" y="85" xlink:href="#r0"/><use x="40" y="85" xlink:href="#r0"/><use x="52" y="85" xlink:href="#r0"/><use x="58" y="85" xlink:href="#r0"/><use x="61" y="85" xlink:href="#r0"/><use x="64" y="85" xlink:href="#r0"/><use x="67" y="85" xlink:href="#r0"/><use x="79" y="85" xlink:href="#r0"/><use x="82" y="85" xlink:href="#r0"/><use x="85" y="85" xlink:href="#r0"/><use x="88" y="85" xlink:href="#r0"/><use x="94" y="85" xlink:href="#r0"/><use x="106" y="85" xlink:href="#r0"/><use x="112" y="85" xlink:href="#r0"/><use x="121" y="85" xlink:href="#r0"/><use x="1" y="88" xlink:href="#r0"/><use x="4" y="88" xlink:href="#r0"/><use x="7" y="88" xlink:href="#r0"/><use x="10" y="88" xlink:href="#r0"/><use x="22" y="88" xlink:href="#r0"/><use x="25" y="88" xlink:href="#r0"/><use x="28" y="88" xlink:href="#r0"/><use x="31" y="88" xlink:href="#r0"/><use x="37" y="88" xlink:href="#r0"/><use x="43" y="88" xlink:href="#r0"/><use x="46" y="88" xlink:href="#r0"/><use x="49" y="88" xlink:href="#r0"/><use x="55" y="88" xlink:href="#r0"/><use x="64" y="88" xlink:href="#r0"/><use x="70" y="88" xlink:href="#r0"/><use x="73" y="88" xlink:href="#r0"/><use x="79" y="88" xlink:href="#r0"/><use x="82" y="88" xlink:href="#r0"/><use x="94" y="88" xlink:href="#r0"/><use x="100" y="88" xlink:href="#r0"/><use x="103" y="88" xlink:href="#r0"/><use x="109" y="88" xlink:href="#r0"/><use x="112" y="88" xlink:href="#r0"/><use x="115" y="88" xlink:href="#r0"/><use x="7" y="91" xlink:href="#r0"/><use x="10" y="91" xlink:href="#r0"/><use x="13" y="91" xlink:href="#r0"/><use x="19" y="91" xlink:href="#r0"/><use x="25" y="91" xlink:href="#r0"/><use x="31" y="91" xlink:href="#r0"/><use x="34" y="91" xlink:href="#r0"/><use x="37" y="91" xlink:href="#r0"/><use x="46" y="91" xlink:href="#r0"/><use x="49" y="91" xlink:href="#r0"/><use x="52" y="91" xlink:href="#r0"/><use x="55" y="91" xlink:href="#r0"/><use x="61" y="91" xlink:href="#r0"/><use x="64" y="91" xlink:href="#r0"/><use x="70" y="91" xlink:href="#r0"/><use x="82" y="91" xlink:href="#r0"/><use x="85" y="91" xlink:href="#r0"/><use x="88" y="91" xlink:href="#r0"/><use x="97" y="91" xlink:href="#r0"/><use x="103" y="91" xlink:href="#r0"/><use x="106" y="91" xlink:href="#r0"/><use x="112" y="91" xlink:href="#r0"/><use x="115" y="91" xlink:href="#r0"/><use x="121" y="91" xlink:href="#r0"/><use x="7" y="94" xlink:href="#r0"/><use x="22" y="94" xlink:href="#r0"/><use x="25" y="94" xlink:href="#r0"/><use x="28" y="94" xlink:href="#r0"/><use x="34" y="94" xlink:href="#r0"/><use x="43" y="94" xlink:href="#r0"/><use x="46" y="94" xlink:href="#r0"/><use x="52" y="94" xlink:href="#r0"/><use x="61" y="94" xlink:href="#r0"/><use x="64" y="94" xlink:href="#r0"/><use x="70" y="94" xlink:href="#r0"/><use x="79" y="94" xlink:href="#r0"/><use x="85" y="94" xlink:href="#r0"/><use x="88" y="94" xlink:href="#r0"/><use x="91" y="94" xlink:href="#r0"/><use x="94" y="94" xlink:href="#r0"/><use x="106" y="94" xlink:href="#r0"/><use x="118" y="94" xlink:href="#r0"/><use x="121" y="94" xlink:href="#r0"/><use x="1" y="97" xlink:href="#r0"/><use x="4" y="97" xlink:href="#r0"/><use x="10" y="97" xlink:href="#r0"/><use x="13" y="97" xlink:href="#r0"/><use x="16" y="97" xlink:href="#r0"/><use x="19" y="97" xlink:href="#r0"/><use x="22" y="97" xlink:href="#r0"/><use x="31" y="97" xlink:href="#r0"/><use x="37" y="97" xlink:href="#r0"/><use x="40" y="97" xlink:href="#r0"/><use x="58" y="97" xlink:href="#r0"/><use x="64" y="97" xlink:href="#r0"/><use x="70" y="97" xlink:href="#r0"/><use x="79" y="97" xlink:href="#r0"/><use x="82" y="97" xlink:href="#r0"/><use x="88" y="97" xlink:href="#r0"/><use x="97" y="97" xlink:href="#r0"/><use x="100" y="97" xlink:href="#r0"/><use x="103" y="97" xlink:href="#r0"/><use x="106" y="97" xlink:href="#r0"/><use x="109" y="97" xlink:href="#r0"/><use x="112" y="97" xlink:href="#r0"/><use x="118" y="97" xlink:href="#r0"/><use x="121" y="97" xlink:href="#r0"/><use x="25" y="100" xlink:href="#r0"/><use x="28" y="100" xlink:href="#r0"/><use x="40" y="100" xlink:href="#r0"/><use x="46" y="100" xlink:href="#r0"/><use x="52" y="100" xlink:href="#r0"/><use x="61" y="100" xlink:href="#r0"/><use x="67" y="100" xlink:href="#r0"/><use x="70" y="100" xlink:href="#r0"/><use x="73" y="100" xlink:href="#r0"/><use x="85" y="100" xlink:href="#r0"/><use x="91" y="100" xlink:href="#r0"/><use x="94" y="100" xlink:href="#r0"/><use x="97" y="100" xlink:href="#r0"/><use x="109" y="100" xlink:href="#r0"/><use x="112" y="100" xlink:href="#r0"/><use x="115" y="100" xlink:href="#r0"/><use x="118" y="100" xlink:href="#r0"/><use x="121" y="100" xlink:href="#r0"/><use x="1" y="103" xlink:href="#r0"/><use x="4" y="103" xlink:href="#r0"/><use x="7" y="103" xlink:href="#r0"/><use x="10" y="103" xlink:href="#r0"/><use x="13" y="103" xlink:href="#r0"/><use x="16" y="103" xlink:href="#r0"/><use x="19" y="103" xlink:href="#r0"/><use x="28" y="103" xlink:href="#r0"/><use x="31" y="103" xlink:href="#r0"/><use x="34" y="103" xlink:href="#r0"/><use x="37" y="103" xlink:href="#r0"/><use x="46" y="103" xlink:href="#r0"/><use x="49" y="103" xlink:href="#r0"/><use x="52" y="103" xlink:href="#r0"/><use x="55" y="103" xlink:href="#r0"/><use x="64" y="103" xlink:href="#r0"/><use x="70" y="103" xlink:href="#r0"/><use x="73" y="103" xlink:href="#r0"/><use x="79" y="103" xlink:href="#r0"/><use x="82" y="103" xlink:href="#r0"/><use x="85" y="103" xlink:href="#r0"/><use x="91" y="103" xlink:href="#r0"/><use x="94" y="103" xlink:href="#r0"/><use x="97" y="103" xlink:href="#r0"/><use x="103" y="103" xlink:href="#r0"/><use x="109" y="103" xlink:href="#r0"/><use x="112" y="103" xlink:href="#r0"/><use x="115" y="103" xlink:href="#r0"/><use x="118" y="103" xlink:href="#r0"/><use x="121" y="103" xlink:href="#r0"/><use x="1" y="106" xlink:href="#r0"/><use x="19" y="106" xlink:href="#r0"/><use x="25" y="106" xlink:href="#r0"/><use x="34" y="106" xlink:href="#r0"/><use x="37" y="106" xlink:href="#r0"/><use x="43" y="106" xlink:href="#r0"/><use x="46" y="106" xlink:href="#r0"/><use x="52" y="106" xlink:href="#r0"/><use x="55" y="106" xlink:href="#r0"/><use x="64" y="106" xlink:href="#r0"/><use x="73" y="106" xlink:href="#r0"/><use x="79" y="106" xlink:href="#r0"/><use x="82" y="106" xlink:href="#r0"/><use x="85" y="106" xlink:href="#r0"/><use x="88" y="106" xlink:href="#r0"/><use x="97" y="106" xlink:href="#r0"/><use x="109" y="106" xlink:href="#r0"/><use x="112" y="106" xlink:href="#r0"/><use x="118" y="106" xlink:href="#r0"/><use x="1" y="109" xlink:href="#r0"/><use x="7" y="109" xlink:href="#r0"/><use x="10" y="109" xlink:href="#r0"/><use x="13" y="109" xlink:href="#r0"/><use x="19" y="109" xlink:href="#r0"/><use x="25" y="109" xlink:href="#r0"/><use x="31" y="109" xlink:href="#r0"/><use x="34" y="109" xlink:href="#r0"/><use x="37" y="109" xlink:href="#r0"/><use x="40" y="109" xlink:href="#r0"/><use x="43" y="109" xlink:href="#r0"/><use x="46" y="109" xlink:href="#r0"/><use x="49" y="109" xlink:href="#r0"/><use x="52" y="109" xlink:href="#r0"/><use x="58" y="109" xlink:href="#r0"/><use x="64" y="109" xlink:href="#r0"/><use x="67" y="109" xlink:href="#r0"/><use x="73" y="109" xlink:href="#r0"/><use x="79" y="109" xlink:href="#r0"/><use x="82" y="109" xlink:href="#r0"/><use x="85" y="109" xlink:href="#r0"/><use x="88" y="109" xlink:href="#r0"/><use x="94" y="109" xlink:href="#r0"/><use x="97" y="109" xlink:href="#r0"/><use x="100" y="109" xlink:href="#r0"/><use x="103" y="109" xlink:href="#r0"/><use x="106" y="109" xlink:href="#r0"/><use x="109" y="109" xlink:href="#r0"/><use x="112" y="109" xlink:href="#r0"/><use x="1" y="112" xlink:href="#r0"/><use x="7" y="112" xlink:href="#r0"/><use x="10" y="112" xlink:href="#r0"/><use x="13" y="112" xlink:href="#r0"/><use x="19" y="112" xlink:href="#r0"/><use x="31" y="112" xlink:href="#r0"/><use x="46" y="112" xlink:href="#r0"/><use x="49" y="112" xlink:href="#r0"/><use x="55" y="112" xlink:href="#r0"/><use x="67" y="112" xlink:href="#r0"/><use x="70" y="112" xlink:href="#r0"/><use x="73" y="112" xlink:href="#r0"/><use x="76" y="112" xlink:href="#r0"/><use x="79" y="112" xlink:href="#r0"/><use x="82" y="112" xlink:href="#r0"/><use x="88" y="112" xlink:href="#r0"/><use x="91" y="112" xlink:href="#r0"/><use x="94" y="112" xlink:href="#r0"/><use x="97" y="112" xlink:href="#r0"/><use x="100" y="112" xlink:href="#r0"/><use x="118" y="112" xlink:href="#r0"/><use x="121" y="112" xlink:href="#r0"/><use x="1" y="115" xlink:href="#r0"/><use x="7" y="115" xlink:href="#r0"/><use x="10" y="115" xlink:href="#r0"/><use x="13" y="115" xlink:href="#r0"/><use x="19" y="115" xlink:href="#r0"/><use x="31" y="115" xlink:href="#r0"/><use x="46" y="115" xlink:href="#r0"/><use x="52" y="115" xlink:href="#r0"/><use x="55" y="115" xlink:href="#r0"/><use x="61" y="115" xlink:href="#r0"/><use x="67" y="115" xlink:href="#r0"/><use x="70" y="115" xlink:href="#r0"/><use x="82" y="115" xlink:href="#r0"/><use x="88" y="115" xlink:href="#r0"/><use x="97" y="115" xlink:href="#r0"/><use x="100" y="115" xlink:href="#r0"/><use x="112" y="115" xlink:href="#r0"/><use x="121" y="115" xlink:href="#r0"/><use x="1" y="118" xlink:href="#r0"/><use x="19" y="118" xlink:href="#r0"/><use x="25" y="118" xlink:href="#r0"/><use x="28" y="118" xlink:href="#r0"/><use x="37" y="118" xlink:href="#r0"/><use x="52" y="118" xlink:href="#r0"/><use x="55" y="118" xlink:href="#r0"/><use x="58" y="118" xlink:href="#r0"/><use x="64" y="118" xlink:href="#r0"/><use x="67" y="118" xlink:href="#r0"/><use x="70" y="118" xlink:href="#r0"/><use x="82" y="118" xlink:href="#r0"/><use x="88" y="118" xlink:href="#r0"/><use x="94" y="118" xlink:href="#r0"/><use x="97" y="118" xlink:href="#r0"/><use x="103" y="118" xlink:href="#r0"/><use x="106" y="118" xlink:href="#r0"/><use x="118" y="118" xlink:href="#r0"/><use x="121" y="118" xlink:href="#r0"/><use x="1" y="121" xlink:href="#r0"/><use x="4" y="121" xlink:href="#r0"/><use x="7" y="121" xlink:href="#r0"/><use x="10" y="121" xlink:href="#r0"/><use x="13" y="121" xlink:href="#r0"/><use x="16" y="121" xlink:href="#r0"/><use x="19" y="121" xlink:href="#r0"/><use x="25" y="121" xlink:href="#r0"/><use x="34" y="121" xlink:href="#r0"/><use x="37" y="121" xlink:href="#r0"/><use x="43" y="121" xlink:href="#r0"/><use x="46" y="121" xlink:href="#r0"/><use x="58" y="121" xlink:href="#r0"/><use x="64" y="121" xlink:href="#r0"/><use x="79" y="121" xlink:href="#r0"/><use x="88" y="121" xlink:href="#r0"/><use x="91" y="121" xlink:href="#r0"/><use x="94" y="121" xlink:href="#r0"/><use x="97" y="121" xlink:href="#r0"/><use x="100" y="121" xlink:href="#r0"/><use x="118" y="121" xlink:href="#r0"/></svg>