<svg xmlns="http://www.w3.org/2000/svg" xmlns:xlink="http://www.w3.org/1999/xlink" version="1.1" width="120px" height="120px" viewBox="0 0 120 120"><defs><rect id="r0" width="2" height="2" fill="#000000"/></defs><rect x="0" y="0" width="120" height="120" fill="#fefefe"/><use x="15" y="15" xlink:href="#r0"/><use x="17" y="15" xlink:href="#r0"/><use x="19" y="15" xlink:href="#r0"/><use x="21" y="15" xlink:href="#r0"/><use x="23" y="15" xlink:href="#r0"/><use x="25" y="15" xlink:href="#r0"/><use x="27" y="15" xlink:href="#r0"/><use x="33" y="15" xlink:href="#r0"/><use x="35" y="15" xlink:href="#r0"/><use x="37" y="15" xlink:href="#r0"/><use x="39" y="15" xlink:href="#r0"/><use x="47" y="15" xlink:href="#r0"/><use x="51" y="15" xlink:href="#r0"/><use x="57" y="15" xlink:href="#r0"/><use x="63" y="15" xlink:href="#r0"/><use x="69" y="15" xlink:href="#r0"/><use x="75" y="15" xlink:href="#r0"/><use x="77" y="15" xlink:href="#r0"/><use x="81" y="15" xlink:href="#r0"/><use x="87" y="15" xlink:href="#r0"/><use x="91" y="15" xlink:href="#r0"/><use x="93" y="15" xlink:href="#r0"/><use x="95" y="15" xlink:href="#r0"/><use x="97" y="15" xlink:href="#r0"/><use x="99" y="15" xlink:href="#r0"/><use x="101" y="15" xlink:href="#r0"/><use x="103" y="15" xlink:href="#r0"/><use x="15" y="17" xlink:href="#r0"/><use x="27" y="17" xlink:href="#r0"/><use x="31" y="17" xlink:href="#r0"/><use x="33" y="17" xlink:href="#r0"/><use x="37" y="17" xlink:href="#r0"/><use x="41" y="17" xlink:href="#r0"/><use x="43" y="17" xlink:href="#r0"/><use x="45" y="17" xlink:href="#r0"/><use x="47" y="17" xlink:href="#r0"/><use x="49" y="17" xlink:href="#r0"/><use x="59" y="17" xlink:href="#r0"/><use x="61" y="17" xlink:href="#r0"/><use x="63" y="17" xlink:href="#r0"/><use x="65" y="17" xlink:href="#r0"/><use x="67" y="17" xlink:href="#r0"/><use x="69" y="17" xlink:href="#r0"/><use x="79" y="17" xlink:href="#r0"/><use x="81" y="17" xlink:href="#r0"/><use x="85" y="17" xlink:href="#r0"/><use x="91" y="17" xlink:href="#r0"/><use x="103" y="17" xlink:href="#r0"/><use x="15" y="19" xlink:href="#r0"/><use x="19" y="19" xlink:href="#r0"/><use x="21" y="19" xlink:href="#r0"/><use x="23" y="19" xlink:href="#r0"/><use x="27" y="19" xlink:href="#r0"/><use x="35" y="19" xlink:href="#r0"/><use x="37" y="19" xlink:href="#r0"/><use x="41" y="19" xlink:href="#r0"/><use x="47" y="19" xlink:href="#r0"/><use x="49" y="19" xlink:href="#r0"/><use x="51" y="19" xlink:href="#r0"/><use x="53" y="19" xlink:href="#r0"/><use x="61" y="19" xlink:href="#r0"/><use x="63" y="19" xlink:href="#r0"/><use x="69" y="19" xlink:href="#r0"/><use x="71" y="19" xlink:href="#r0"/><use x="73" y="19" xlink:href="#r0"/><use x="79" y="19" xlink:href="#r0"/><use x="81" y="19" xlink:href="#r0"/><use x="85" y="19" xlink:href="#r0"/><use x="91" y="19" xlink:href="#r0"/><use x="95" y="19" xlink:href="#r0"/><use x="97" y="19" xlink:href="#r0"/><use x="99" y="19" xlink:href="#r0"/><use x="103" y="19" xlink:href="#r0"/><use x="15" y="21" xlink:href="#r0"/><use x="19" y="21" xlink:href="#r0"/><use x="21" y="21" xlink:href="#r0"/><use x="23" y="21" xlink:href="#r0"/><use x="27" y="21" xlink:href="#r0"/><use x="31" y="21" xlink:href="#r0"/><use x="35" y="21" xlink:href="#r0"/><use x="37" y="21" xlink:href="#r0"/><use x="39" y="21" xlink:href="#r0"/><use x="41" y="21" xlink:href="#r0"/><use x="45" y="21" xlink:href="#r0"/><use x="47" y="21" xlink:href="#r0"/><use x="49" y="21" xlink:href="#r0"/><use x="51" y="21" xlink:href="#r0"/><use x="55" y="21" xlink:href="#r0"/><use x="69" y="21" xlink:href="#r0"/><use x="73" y="21" xlink:href="#r0"/><use x="77" y="21" xlink:href="#r0"/><use x="85" y="21" xlink:href="#r0"/><use x="87" y="21" xlink:href="#r0"/><use x="91" y="21" xlink:href="#r0"/><use x="95" y="21" xlink:href="#r0"/><use x="97" y="21" xlink:href="#r0"/><use x="99" y="21" xlink:href="#r0"/><use x="103" y="21" xlink:href="#r0"/><use x="15" y="23" xlink:href="#r0"/><use x="19" y="23" xlink:href="#r0"/><use x="21" y="23" xlink:href="#r0"/><use x="23" y="23" xlink:href="#r0"/><use x="27" y="23" xlink:href="#r0"/><use x="39" y="23" xlink:href="#r0"/><use x="43" y="23" xlink:href="#r0"/><use x="51" y="23" xlink:href="#r0"/><use x="55" y="23" xlink:href="#r0"/><use x="57" y="23" xlink:href="#r0"/><use x="59" y="23" xlink:href="#r0"/><use x="61" y="23" xlink:href="#r0"/><use x="63" y="23" xlink:href="#r0"/><use x="69" y="23" xlink:href="#r0"/><use x="71" y="23" xlink:href="#r0"/><use x="73" y="23" xlink:href="#r0"/><use x="75" y="23" xlink:href="#r0"/><use x="81" y="23" xlink:href="#r0"/><use x="83" y="23" xlink:href="#r0"/><use x="85" y="23" xlink:href="#r0"/><use x="87" y="23" xlink:href="#r0"/><use x="91" y="23" xlink:href="#r0"/><use x="95" y="23" xlink:href="#r0"/><use x="97" y="23" xlink:href="#r0"/><use x="99" y="23" xlink:href="#r0"/><use x="103" y="23" xlink:href="#r0"/><use x="15" y="25" xlink:href="#r0"/><use x="27" y="25" xlink:href="#r0"/><use x="31" y="25" xlink:href="#r0"/><use x="33" y="25" xlink:href="#r0"/><use x="45" y="25" xlink:href="#r0"/><use x="47" y="25" xlink:href="#r0"/><use x="49" y="25" xlink:href="#r0"/><use x="55" y="25" xlink:href="#r0"/><use x="63" y="25" xlink:href="#r0"/><use x="65" y="25" xlink:href="#r0"/><use x="67" y="25" xlink:href="#r0"/><use x="69" y="25" xlink:href="#r0"/><use x="71" y="25" xlink:href="#r0"/><use x="91" y="25" xlink:href="#r0"/><use x="103" y="25" xlink:href="#r0"/><use x="15" y="27" xlink:href="#r0"/><use x="17" y="27" xlink:href="#r0"/><use x="19" y="27" xlink:href="#r0"/><use x="21" y="27" xlink:href="#r0"/><use x="23" y="27" xlink:href="#r0"/><use x="25" y="27" xlink:href="#r0"/><use x="27" y="27" xlink:href="#r0"/><use x="31" y="27" xlink:href="#r0"/><use x="35" y="27" xlink:href="#r0"/><use x="39" y="27" xlink:href="#r0"/><use x="43" y="27" xlink:href="#r0"/><use x="47" y="27" xlink:href="#r0"/><use x="51" y="27" xlink:href="#r0"/><use x="55" y="27" xlink:href="#r0"/><use x="59" y="27" xlink:href="#r0"/><use x="63" y="27" xlink:href="#r0"/><use x="67" y="27" xlink:href="#r0"/><use x="71" y="27" xlink:href="#r0"/><use x="75" y="27" xlink:href="#r0"/><use x="79" y="27" xlink:href="#r0"/><use x="83" y="27" xlink:href="#r0"/><use x="87" y="27" xlink:href="#r0"/><use x="91" y="27" xlink:href="#r0"/><use x="93" y="27" xlink:href="#r0"/><use x="95" y="27" xlink:href="#r0"/><use x="97" y="27" xlink:href="#r0"/><use x="99" y="27" xlink:href="#r0"/><use x="101" y="27" xlink:href="#r0"/><use x="103" y="27" xlink:href="#r0"/><use x="33" y="29" xlink:href="#r0"/><use x="35" y="29" xlink:href="#r0"/><use x="41" y="29" xlink:href="#r0"/><use x="45" y="29" xlink:href="#r0"/><use x="55" y="29" xlink:href="#r0"/><use x="63" y="29" xlink:href="#r0"/><use x="71" y="29" xlink:href="#r0"/><use x="73" y="29" xlink:href="#r0"/><use x="79" y="29" xlink:href="#r0"/><use x="81" y="29" xlink:href="#r0"/><use x="87" y="29" xlink:href="#r0"/><use x="15" y="31" xlink:href="#r0"/><use x="17" y="31" xlink:href="#r0"/><use x="19" y="31" xlink:href="#r0"/><use x="21" y="31" xlink:href="#r0"/><use x="23" y="31" xlink:href="#r0"/><use x="27" y="31" xlink:href="#r0"/><use x="29" y="31" xlink:href="#r0"/><use x="31" y="31" xlink:href="#r0"/><use x="37" y="31" xlink:href="#r0"/><use x="49" y="31" xlink:href="#r0"/><use x="53" y="31" xlink:href="#r0"/><use x="55" y="31" xlink:href="#r0"/><use x="57" y="31" xlink:href="#r0"/><use x="59" y="31" xlink:href="#r0"/><use x="61" y="31" xlink:href="#r0"/><use x="63" y="31" xlink:href="#r0"/><use x="67" y="31" xlink:href="#r0"/><use x="69" y="31" xlink:href="#r0"/><use x="73" y="31" xlink:href="#r0"/><use x="75" y="31" xlink:href="#r0"/><use x="81" y="31" xlink:href="#r0"/><use x="83" y="31" xlink:href="#r0"/><use x="85" y="31" xlink:href="#r0"/><use x="89" y="31" xlink:href="#r0"/><use x="93" y="31" xlink:href="#r0"/><use x="97" y="31" xlink:href="#r0"/><use x="101" y="31" xlink:href="#r0"/><use x="29" y="33" xlink:href="#r0"/><use x="35" y="33" xlink:href="#r0"/><use x="37" y="33" xlink:href="#r0"/><use x="39" y="33" xlink:href="#r0"/><use x="41" y="33" xlink:href="#r0"/><use x="45" y="33" xlink:href="#r0"/><use x="51" y="33" xlink:href="#r0"/><use x="53" y="33" xlink:href="#r0"/><use x="57" y="33" xlink:href="#r0"/><use x="59" y="33" xlink:href="#r0"/><use x="61" y="33" xlink:href="#r0"/><use x="69" y="33" xlink:href="#r0"/><use x="75" y="33" xlink:href="#r0"/><use x="79" y="33" xlink:href="#r0"/><use x="85" y="33" xlink:href="#r0"/><use x="87" y="33" xlink:href="#r0"/><use x="89" y="33" xlink:href="#r0"/><use x="93" y="33" xlink:href="#r0"/><use x="99" y="33" xlink:href="#r0"/><use x="103" y="33" xlink:href="#r0"/><use x="15" y="35" xlink:href="#r0"/><use x="21" y="35" xlink:href="#r0"/><use x="27" y="35" xlink:href="#r0"/><use x="31" y="35" xlink:href="#r0"/><use x="33" y="35" xlink:href="#r0"/><use x="35" y="35" xlink:href="#r0"/><use x="37" y="35" xlink:href="#r0"/><use x="39" y="35" xlink:href="#r0"/><use x="51" y="35" xlink:href="#r0"/><use x="55" y="35" xlink:href="#r0"/><use x="57" y="35" xlink:href="#r0"/><use x="63" y="35" xlink:href="#r0"/><use x="67" y="35" xlink:href="#r0"/><use x="69" y="35" xlink:href="#r0"/><use x="71" y="35" xlink:href="#r0"/><use x="73" y="35" xlink:href="#r0"/><use x="77" y="35" xlink:href="#r0"/><use x="79" y="35" xlink:href="#r0"/><use x="81" y="35" xlink:href="#r0"/><use x="83" y="35" xlink:href="#r0"/><use x="87" y="35" xlink:href="#r0"/><use x="91" y="35" xlink:href="#r0"/><use x="93" y="35" xlink:href="#r0"/><use x="95" y="35" xlink:href="#r0"/><use x="101" y="35" xlink:href="#r0"/><use x="23" y="37" xlink:href="#r0"/><use x="25" y="37" xlink:href="#r0"/><use x="29" y="37" xlink:href="#r0"/><use x="31" y="37" xlink:href="#r0"/><use x="33" y="37" xlink:href="#r0"/><use x="39" y="37" xlink:href="#r0"/><use x="41" y="37" xlink:href="#r0"/><use x="45" y="37" xlink:href="#r0"/><use x="49" y="37" xlink:href="#r0"/><use x="51" y="37" xlink:href="#r0"/><use x="53" y="37" xlink:href="#r0"/><use x="63" y="37" xlink:href="#r0"/><use x="65" y="37" xlink:href="#r0"/><use x="71" y="37" xlink:href="#r0"/><use x="73" y="37" xlink:href="#r0"/><use x="79" y="37" xlink:href="#r0"/><use x="81" y="37" xlink:href="#r0"/><use x="85" y="37" xlink:href="#r0"/><use x="87" y="37" xlink:href="#r0"/><use x="89" y="37" xlink:href="#r0"/><use x="95" y="37" xlink:href="#r0"/><use x="99" y="37" xlink:href="#r0"/><use x="103" y="37" xlink:href="#r0"/><use x="17" y="39" xlink:href="#r0"/><use x="23" y="39" xlink:href="#r0"/><use x="27" y="39" xlink:href="#r0"/><use x="29" y="39" xlink:href="#r0"/><use x="31" y="39" xlink:href="#r0"/><use x="33" y="39" xlink:href="#r0"/><use x="39" y="39" xlink:href="#r0"/><use x="41" y="39" xlink:href="#r0"/><use x="47" y="39" xlink:href="#r0"/><use x="51" y="39" xlink:href="#r0"/><use x="53" y="39" xlink:href="#r0"/><use x="57" y="39" xlink:href="#r0"/><use x="63" y="39" xlink:href="#r0"/><use x="69" y="39" xlink:href="#r0"/><use x="73" y="39" xlink:href="#r0"/><use x="75" y="39" xlink:href="#r0"/><use x="83" y="39" xlink:href="#r0"/><use x="85" y="39" xlink:href="#r0"/><use x="89" y="39" xlink:href="#r0"/><use x="93" y="39" xlink:href="#r0"/><use x="97" y="39" xlink:href="#r0"/><use x="101" y="39" xlink:href="#r0"/><use x="103" y="39" xlink:href="#r0"/><use x="15" y="41" xlink:href="#r0"/><use x="19" y="41" xlink:href="#r0"/><use x="21" y="41" xlink:href="#r0"/><use x="23" y="41" xlink:href="#r0"/><use x="25" y="41" xlink:href="#r0"/><use x="31" y="41" xlink:href="#r0"/><use x="33" y="41" xlink:href="#r0"/><use x="37" y="41" xlink:href="#r0"/><use x="41" y="41" xlink:href="#r0"/><use x="43" y="41" xlink:href="#r0"/><use x="53" y="41" xlink:href="#r0"/><use x="57" y="41" xlink:href="#r0"/><use x="63" y="41" xlink:href="#r0"/><use x="75" y="41" xlink:href="#r0"/><use x="77" y="41" xlink:href="#r0"/><use x="87" y="41" xlink:href="#r0"/><use x="93" y="41" xlink:href="#r0"/><use x="95" y="41" xlink:href="#r0"/><use x="101" y="41" xlink:href="#r0"/><use x="103" y="41" xlink:href="#r0"/><use x="17" y="43" xlink:href="#r0"/><use x="21" y="43" xlink:href="#r0"/><use x="23" y="43" xlink:href="#r0"/><use x="27" y="43" xlink:href="#r0"/><use x="29" y="43" xlink:href="#r0"/><use x="31" y="43" xlink:href="#r0"/><use x="39" y="43" xlink:href="#r0"/><use x="41" y="43" xlink:href="#r0"/><use x="43" y="43" xlink:href="#r0"/><use x="47" y="43" xlink:href="#r0"/><use x="51" y="43" xlink:href="#r0"/><use x="53" y="43" xlink:href="#r0"/><use x="57" y="43" xlink:href="#r0"/><use x="61" y="43" xlink:href="#r0"/><use x="63" y="43" xlink:href="#r0"/><use x="65" y="43" xlink:href="#r0"/><use x="67" y="43" xlink:href="#r0"/><use x="71" y="43" xlink:href="#r0"/><use x="73" y="43" xlink:href="#r0"/><use x="77" y="43" xlink:href="#r0"/><use x="83" y="43" xlink:href="#r0"/><use x="87" y="43" xlink:href="#r0"/><use x="89" y="43" xlink:href="#r0"/><use x="91" y="43" xlink:href="#r0"/><use x="93" y="43" xlink:href="#r0"/><use x="97" y="43" xlink:href="#r0"/><use x="99" y="43" xlink:href="#r0"/><use x="17" y="45" xlink:href="#r0"/><use x="19" y="45" xlink:href="#r0"/><use x="21" y="45" xlink:href="#r0"/><use x="29" y="45" xlink:href="#r0"/><use x="31" y="45" xlink:href="#r0"/><use x="35" y="45" xlink:href="#r0"/><use x="37" y="45" xlink:href="#r0"/><use x="39" y="45" xlink:href="#r0"/><use x="43" y="45" xlink:href="#r0"/><use x="47" y="45" xlink:href="#r0"/><use x="49" y="45" xlink:href="#r0"/><use x="51" y="45" xlink:href="#r0"/><use x="53" y="45" xlink:href="#r0"/><use x="65" y="45" xlink:href="#r0"/><use x="67" y="45" xlink:href="#r0"/><use x="71" y="45" xlink:href="#r0"/><use x="75" y="45" xlink:href="#r0"/><use x="79" y="45" xlink:href="#r0"/><use x="81" y="45" xlink:href="#r0"/><use x="87" y="45" xlink:href="#r0"/><use x="91" y="45" xlink:href="#r0"/><use x="93" y="45" xlink:href="#r0"/><use x="97" y="45" xlink:href="#r0"/><use x="99" y="45" xlink:href="#r0"/><use x="103" y="45" xlink:href="#r0"/><use x="15" y="47" xlink:href="#r0"/><use x="17" y="47" xlink:href="#r0"/><use x="19" y="47" xlink:href="#r0"/><use x="21" y="47" xlink:href="#r0"/><use x="23" y="47" xlink:href="#r0"/><use x="25" y="47" xlink:href="#r0"/><use x="27" y="47" xlink:href="#r0"/><use x="29" y="47" xlink:href="#r0"/><use x="33" y="47" xlink:href="#r0"/><use x="39" y="47" xlink:href="#r0"/><use x="41" y="47" xlink:href="#r0"/><use x="43" y="47" xlink:href="#r0"/><use x="45" y="47" xlink:href="#r0"/><use x="51" y="47" xlink:href="#r0"/><use x="53" y="47" xlink:href="#r0"/><use x="59" y="47" xlink:href="#r0"/><use x="63" y="47" xlink:href="#r0"/><use x="65" y="47" xlink:href="#r0"/><use x="69" y="47" xlink:href="#r0"/><use x="73" y="47" xlink:href="#r0"/><use x="75" y="47" xlink:href="#r0"/><use x="89" y="47" xlink:href="#r0"/><use x="19" y="49" xlink:href="#r0"/><use x="21" y="49" xlink:href="#r0"/><use x="33" y="49" xlink:href="#r0"/><use x="35" y="49" xlink:href="#r0"/><use x="37" y="49" xlink:href="#r0"/><use x="39" y="49" xlink:href="#r0"/><use x="47" y="49" xlink:href="#r0"/><use x="49" y="49" xlink:href="#r0"/><use x="51" y="49" xlink:href="#r0"/><use x="53" y="49" xlink:href="#r0"/><use x="55" y="49" xlink:href="#r0"/><use x="57" y="49" xlink:href="#r0"/><use x="75" y="49" xlink:href="#r0"/><use x="77" y="49" xlink:href="#r0"/><use x="79" y="49" xlink:href="#r0"/><use x="85" y="49" xlink:href="#r0"/><use x="87" y="49" xlink:href="#r0"/><use x="89" y="49" xlink:href="#r0"/><use x="93" y="49" xlink:href="#r0"/><use x="99" y="49" xlink:href="#r0"/><use x="103" y="49" xlink:href="#r0"/><use x="23" y="51" xlink:href="#r0"/><use x="27" y="51" xlink:href="#r0"/><use x="37" y="51" xlink:href="#r0"/><use x="41" y="51" xlink:href="#r0"/><use x="45" y="51" xlink:href="#r0"/><use x="47" y="51" xlink:href="#r0"/><use x="49" y="51" xlink:href="#r0"/><use x="55" y="51" xlink:href="#r0"/><use x="63" y="51" xlink:href="#r0"/><use x="65" y="51" xlink:href="#r0"/><use x="67" y="51" xlink:href="#r0"/><use x="73" y="51" xlink:href="#r0"/><use x="83" y="51" xlink:href="#r0"/><use x="85" y="51" xlink:href="#r0"/><use x="87" y="51" xlink:href="#r0"/><use x="91" y="51" xlink:href="#r0"/><use x="93" y="51" xlink:href="#r0"/><use x="101" y="51" xlink:href="#r0"/><use x="21" y="53" xlink:href="#r0"/><use x="25" y="53" xlink:href="#r0"/><use x="35" y="53" xlink:href="#r0"/><use x="37" y="53" xlink:href="#r0"/><use x="39" y="53" xlink:href="#r0"/><use x="47" y="53" xlink:href="#r0"/><use x="49" y="53" xlink:href="#r0"/><use x="51" y="53" xlink:href="#r0"/><use x="53" y="53" xlink:href="#r0"/><use x="65" y="53" xlink:href="#r0"/><use x="69" y="53" xlink:href="#r0"/><use x="71" y="53" xlink:href="#r0"/><use x="79" y="53" xlink:href="#r0"/><use x="87" y="53" xlink:href="#r0"/><use x="95" y="53" xlink:href="#r0"/><use x="99" y="53" xlink:href="#r0"/><use x="101" y="53" xlink:href="#r0"/><use x="17" y="55" xlink:href="#r0"/><use x="21" y="55" xlink:href="#r0"/><use x="23" y="55" xlink:href="#r0"/><use x="25" y="55" xlink:href="#r0"/><use x="27" y="55" xlink:href="#r0"/><use x="29" y="55" xlink:href="#r0"/><use x="31" y="55" xlink:href="#r0"/><use x="37" y="55" xlink:href="#r0"/><use x="39" y="55" xlink:href="#r0"/><use x="41" y="55" xlink:href="#r0"/><use x="45" y="55" xlink:href="#r0"/><use x="47" y="55" xlink:href="#r0"/><use x="51" y="55" xlink:href="#r0"/><use x="55" y="55" xlink:href="#r0"/><use x="57" y="55" xlink:href="#r0"/><use x="59" y="55" xlink:href="#r0"/><use x="61" y="55" xlink:href="#r0"/><use x="63" y="55" xlink:href="#r0"/><use x="65" y="55" xlink:href="#r0"/><use x="77" y="55" xlink:href="#r0"/><use x="87" y="55" xlink:href="#r0"/><use x="89" y="55" xlink:href="#r0"/><use x="91" y="55" xlink:href="#r0"/><use x="93" y="55" xlink:href="#r0"/><use x="95" y="55" xlink:href="#r0"/><use x="17" y="57" xlink:href="#r0"/><use x="23" y="57" xlink:href="#r0"/><use x="31" y="57" xlink:href="#r0"/><use x="35" y="57" xlink:href="#r0"/><use x="37" y="57" xlink:href="#r0"/><use x="39" y="57" xlink:href="#r0"/><use x="43" y="57" xlink:href="#r0"/><use x="49" y="57" xlink:href="#r0"/><use x="55" y="57" xlink:href="#r0"/><use x="63" y="57" xlink:href="#r0"/><use x="69" y="57" xlink:href="#r0"/><use x="71" y="57" xlink:href="#r0"/><use x="75" y="57" xlink:href="#r0"/><use x="79" y="57" xlink:href="#r0"/><use x="85" y="57" xlink:href="#r0"/><use x="87" y="57" xlink:href="#r0"/><use x="95" y="57" xlink:href="#r0"/><use x="101" y="57" xlink:href="#r0"/><use x="103" y="57" xlink:href="#r0"/><use x="17" y="59" xlink:href="#r0"/><use x="21" y="59" xlink:href="#r0"/><use x="23" y="59" xlink:href="#r0"/><use x="27" y="59" xlink:href="#r0"/><use x="31" y="59" xlink:href="#r0"/><use x="33" y="59" xlink:href="#r0"/><use x="35" y="59" xlink:href="#r0"/><use x="39" y="59" xlink:href="#r0"/><use x="45" y="59" xlink:href="#r0"/><use x="47" y="59" xlink:href="#r0"/><use x="49" y="59" xlink:href="#r0"/><use x="53" y="59" xlink:href="#r0"/><use x="55" y="59" xlink:href="#r0"/><use x="59" y="59" xlink:href="#r0"/><use x="63" y="59" xlink:href="#r0"/><use x="65" y="59" xlink:href="#r0"/><use x="67" y="59" xlink:href="#r0"/><use x="77" y="59" xlink:href="#r0"/><use x="81" y="59" xlink:href="#r0"/><use x="83" y="59" xlink:href="#r0"/><use x="87" y="59" xlink:href="#r0"/><use x="91" y="59" xlink:href="#r0"/><use x="95" y="59" xlink:href="#r0"/><use x="97" y="59" xlink:href="#r0"/><use x="17" y="61" xlink:href="#r0"/><use x="21" y="61" xlink:href="#r0"/><use x="23" y="61" xlink:href="#r0"/><use x="31" y="61" xlink:href="#r0"/><use x="37" y="61" xlink:href="#r0"/><use x="41" y="61" xlink:href="#r0"/><use x="55" y="61" xlink:href="#r0"/><use x="63" y="61" xlink:href="#r0"/><use x="71" y="61" xlink:href="#r0"/><use x="77" y="61" xlink:href="#r0"/><use x="81" y="61" xlink:href="#r0"/><use x="87" y="61" xlink:href="#r0"/><use x="95" y="61" xlink:href="#r0"/><use x="97" y="61" xlink:href="#r0"/><use x="99" y="61" xlink:href="#r0"/><use x="21" y="63" xlink:href="#r0"/><use x="23" y="63" xlink:href="#r0"/><use x="25" y="63" xlink:href="#r0"/><use x="27" y="63" xlink:href="#r0"/><use x="29" y="63" xlink:href="#r0"/><use x="31" y="63" xlink:href="#r0"/><use x="33" y="63" xlink:href="#r0"/><use x="39" y="63" xlink:href="#r0"/><use x="49" y="63" xlink:href="#r0"/><use x="55" y="63" xlink:href="#r0"/><use x="57" y="63" xlink:href="#r0"/><use x="59" y="63" xlink:href="#r0"/><use x="61" y="63" xlink:href="#r0"/><use x="63" y="63" xlink:href="#r0"/><use x="67" y="63" xlink:href="#r0"/><use x="69" y="63" xlink:href="#r0"/><use x="73" y="63" xlink:href="#r0"/><use x="75" y="63" xlink:href="#r0"/><use x="77" y="63" xlink:href="#r0"/><use x="83" y="63" xlink:href="#r0"/><use x="87" y="63" xlink:href="#r0"/><use x="89" y="63" xlink:href="#r0"/><use x="91" y="63" xlink:href="#r0"/><use x="93" y="63" xlink:href="#r0"/><use x="95" y="63" xlink:href="#r0"/><use x="15" y="65" xlink:href="#r0"/><use x="29" y="65" xlink:href="#r0"/><use x="35" y="65" xlink:href="#r0"/><use x="37" y="65" xlink:href="#r0"/><use x="41" y="65" xlink:href="#r0"/><use x="45" y="65" xlink:href="#r0"/><use x="51" y="65" xlink:href="#r0"/><use x="53" y="65" xlink:href="#r0"/><use x="57" y="65" xlink:href="#r0"/><use x="75" y="65" xlink:href="#r0"/><use x="79" y="65" xlink:href="#r0"/><use x="85" y="65" xlink:href="#r0"/><use x="87" y="65" xlink:href="#r0"/><use x="93" y="65" xlink:href="#r0"/><use x="97" y="65" xlink:href="#r0"/><use x="103" y="65" xlink:href="#r0"/><use x="15" y="67" xlink:href="#r0"/><use x="17" y="67" xlink:href="#r0"/><use x="19" y="67" xlink:href="#r0"/><use x="25" y="67" xlink:href="#r0"/><use x="27" y="67" xlink:href="#r0"/><use x="29" y="67" xlink:href="#r0"/><use x="33" y="67" xlink:href="#r0"/><use x="43" y="67" xlink:href="#r0"/><use x="51" y="67" xlink:href="#r0"/><use x="55" y="67" xlink:href="#r0"/><use x="57" y="67" xlink:href="#r0"/><use x="61" y="67" xlink:href="#r0"/><use x="63" y="67" xlink:href="#r0"/><use x="65" y="67" xlink:href="#r0"/><use x="67" y="67" xlink:href="#r0"/><use x="69" y="67" xlink:href="#r0"/><use x="73" y="67" xlink:href="#r0"/><use x="77" y="67" xlink:href="#r0"/><use x="79" y="67" xlink:href="#r0"/><use x="81" y="67" xlink:href="#r0"/><use x="83" y="67" xlink:href="#r0"/><use x="85" y="67" xlink:href="#r0"/><use x="87" y="67" xlink:href="#r0"/><use x="93" y="67" xlink:href="#r0"/><use x="97" y="67" xlink:href="#r0"/><use x="99" y="67" xlink:href="#r0"/><use x="101" y="67" xlink:href="#r0"/><use x="15" y="69" xlink:href="#r0"/><use x="19" y="69" xlink:href="#r0"/><use x="25" y="69" xlink:href="#r0"/><use x="31" y="69" xlink:href="#r0"/><use x="35" y="69" xlink:href="#r0"/><use x="37" y="69" xlink:href="#r0"/><use x="41" y="69" xlink:href="#r0"/><use x="45" y="69" xlink:href="#r0"/><use x="53" y="69" xlink:href="#r0"/><use x="57" y="69" xlink:href="#r0"/><use x="59" y="69" xlink:href="#r0"/><use x="61" y="69" xlink:href="#r0"/><use x="63" y="69" xlink:href="#r0"/><use x="69" y="69" xlink:href="#r0"/><use x="71" y="69" xlink:href="#r0"/><use x="75" y="69" xlink:href="#r0"/><use x="77" y="69" xlink:href="#r0"/><use x="79" y="69" xlink:href="#r0"/><use x="83" y="69" xlink:href="#r0"/><use x="85" y="69" xlink:href="#r0"/><use x="91" y="69" xlink:href="#r0"/><use x="93" y="69" xlink:href="#r0"/><use x="97" y="69" xlink:href="#r0"/><use x="99" y="69" xlink:href="#r0"/><use x="101" y="69" xlink:href="#r0"/><use x="15" y="71" xlink:href="#r0"/><use x="17" y="71" xlink:href="#r0"/><use x="27" y="71" xlink:href="#r0"/><use x="33" y="71" xlink:href="#r0"/><use x="35" y="71" xlink:href="#r0"/><use x="41" y="71" xlink:href="#r0"/><use x="45" y="71" xlink:href="#r0"/><use x="51" y="71" xlink:href="#r0"/><use x="53" y="71" xlink:href="#r0"/><use x="55" y="71" xlink:href="#r0"/><use x="61" y="71" xlink:href="#r0"/><use x="63" y="71" xlink:href="#r0"/><use x="75" y="71" xlink:href="#r0"/><use x="77" y="71" xlink:href="#r0"/><use x="89" y="71" xlink:href="#r0"/><use x="93" y="71" xlink:href="#r0"/><use x="95" y="71" xlink:href="#r0"/><use x="101" y="71" xlink:href="#r0"/><use x="103" y="71" xlink:href="#r0"/><use x="15" y="73" xlink:href="#r0"/><use x="17" y="73" xlink:href="#r0"/><use x="23" y="73" xlink:href="#r0"/><use x="25" y="73" xlink:href="#r0"/><use x="31" y="73" xlink:href="#r0"/><use x="37" y="73" xlink:href="#r0"/><use x="39" y="73" xlink:href="#r0"/><use x="41" y="73" xlink:href="#r0"/><use x="43" y="73" xlink:href="#r0"/><use x="49" y="73" xlink:href="#r0"/><use x="53" y="73" xlink:href="#r0"/><use x="55" y="73" xlink:href="#r0"/><use x="57" y="73" xlink:href="#r0"/><use x="59" y="73" xlink:href="#r0"/><use x="61" y="73" xlink:href="#r0"/><use x="75" y="73" xlink:href="#r0"/><use x="77" y="73" xlink:href="#r0"/><use x="89" y="73" xlink:href="#r0"/><use x="91" y="73" xlink:href="#r0"/><use x="93" y="73" xlink:href="#r0"/><use x="99" y="73" xlink:href="#r0"/><use x="103" y="73" xlink:href="#r0"/><use x="17" y="75" xlink:href="#r0"/><use x="23" y="75" xlink:href="#r0"/><use x="27" y="75" xlink:href="#r0"/><use x="31" y="75" xlink:href="#r0"/><use x="33" y="75" xlink:href="#r0"/><use x="37" y="75" xlink:href="#r0"/><use x="41" y="75" xlink:href="#r0"/><use x="43" y="75" xlink:href="#r0"/><use x="47" y="75" xlink:href="#r0"/><use x="51" y="75" xlink:href="#r0"/><use x="55" y="75" xlink:href="#r0"/><use x="59" y="75" xlink:href="#r0"/><use x="61" y="75" xlink:href="#r0"/><use x="67" y="75" xlink:href="#r0"/><use x="71" y="75" xlink:href="#r0"/><use x="73" y="75" xlink:href="#r0"/><use x="79" y="75" xlink:href="#r0"/><use x="81" y="75" xlink:href="#r0"/><use x="83" y="75" xlink:href="#r0"/><use x="85" y="75" xlink:href="#r0"/><use x="89" y="75" xlink:href="#r0"/><use x="95" y="75" xlink:href="#r0"/><use x="97" y="75" xlink:href="#r0"/><use x="19" y="77" xlink:href="#r0"/><use x="21" y="77" xlink:href="#r0"/><use x="23" y="77" xlink:href="#r0"/><use x="25" y="77" xlink:href="#r0"/><use x="35" y="77" xlink:href="#r0"/><use x="37" y="77" xlink:href="#r0"/><use x="43" y="77" xlink:href="#r0"/><use x="45" y="77" xlink:href="#r0"/><use x="47" y="77" xlink:href="#r0"/><use x="49" y="77" xlink:href="#r0"/><use x="51" y="77" xlink:href="#r0"/><use x="53" y="77" xlink:href="#r0"/><use x="55" y="77" xlink:href="#r0"/><use x="57" y="77" xlink:href="#r0"/><use x="59" y="77" xlink:href="#r0"/><use x="63" y="77" xlink:href="#r0"/><use x="71" y="77" xlink:href="#r0"/><use x="75" y="77" xlink:href="#r0"/><use x="79" y="77" xlink:href="#r0"/><use x="81" y="77" xlink:href="#r0"/><use x="85" y="77" xlink:href="#r0"/><use x="87" y="77" xlink:href="#r0"/><use x="91" y="77" xlink:href="#r0"/><use x="93" y="77" xlink:href="#r0"/><use x="95" y="77" xlink:href="#r0"/><use x="97" y="77" xlink:href="#r0"/><use x="99" y="77" xlink:href="#r0"/><use x="103" y="77" xlink:href="#r0"/><use x="17" y="79" xlink:href="#r0"/><use x="19" y="79" xlink:href="#r0"/><use x="23" y="79" xlink:href="#r0"/><use x="25" y="79" xlink:href="#r0"/><use x="27" y="79" xlink:href="#r0"/><use x="29" y="79" xlink:href="#r0"/><use x="35" y="79" xlink:href="#r0"/><use x="37" y="79" xlink:href="#r0"/><use x="39" y="79" xlink:href="#r0"/><use x="41" y="79" xlink:href="#r0"/><use x="43" y="79" xlink:href="#r0"/><use x="45" y="79" xlink:href="#r0"/><use x="51" y="79" xlink:href="#r0"/><use x="53" y="79" xlink:href="#r0"/><use x="57" y="79" xlink:href="#r0"/><use x="61" y="79" xlink:href="#r0"/><use x="69" y="79" xlink:href="#r0"/><use x="75" y="79" xlink:href="#r0"/><use x="89" y="79" xlink:href="#r0"/><use x="91" y="79" xlink:href="#r0"/><use x="93" y="79" xlink:href="#r0"/><use x="95" y="79" xlink:href="#r0"/><use x="103" y="79" xlink:href="#r0"/><use x="17" y="81" xlink:href="#r0"/><use x="21" y="81" xlink:href="#r0"/><use x="31" y="81" xlink:href="#r0"/><use x="39" y="81" xlink:href="#r0"/><use x="47" y="81" xlink:href="#r0"/><use x="49" y="81" xlink:href="#r0"/><use x="51" y="81" xlink:href="#r0"/><use x="55" y="81" xlink:href="#r0"/><use x="57" y="81" xlink:href="#r0"/><use x="59" y="81" xlink:href="#r0"/><use x="63" y="81" xlink:href="#r0"/><use x="75" y="81" xlink:href="#r0"/><use x="85" y="81" xlink:href="#r0"/><use x="87" y="81" xlink:href="#r0"/><use x="89" y="81" xlink:href="#r0"/><use x="93" y="81" xlink:href="#r0"/><use x="97" y="81" xlink:href="#r0"/><use x="99" y="81" xlink:href="#r0"/><use x="23" y="83" xlink:href="#r0"/><use x="27" y="83" xlink:href="#r0"/><use x="29" y="83" xlink:href="#r0"/><use x="35" y="83" xlink:href="#r0"/><use x="37" y="83" xlink:href="#r0"/><use x="39" y="83" xlink:href="#r0"/><use x="41" y="83" xlink:href="#r0"/><use x="45" y="83" xlink:href="#r0"/><use x="47" y="83" xlink:href="#r0"/><use x="49" y="83" xlink:href="#r0"/><use x="51" y="83" xlink:href="#r0"/><use x="55" y="83" xlink:href="#r0"/><use x="59" y="83" xlink:href="#r0"/><use x="65" y="83" xlink:href="#r0"/><use x="67" y="83" xlink:href="#r0"/><use x="73" y="83" xlink:href="#r0"/><use x="79" y="83" xlink:href="#r0"/><use x="81" y="83" xlink:href="#r0"/><use x="83" y="83" xlink:href="#r0"/><use x="87" y="83" xlink:href="#r0"/><use x="89" y="83" xlink:href="#r0"/><use x="93" y="83" xlink:href="#r0"/><use x="95" y="83" xlink:href="#r0"/><use x="101" y="83" xlink:href="#r0"/><use x="17" y="85" xlink:href="#r0"/><use x="19" y="85" xlink:href="#r0"/><use x="21" y="85" xlink:href="#r0"/><use x="23" y="85" xlink:href="#r0"/><use x="35" y="85" xlink:href="#r0"/><use x="39" y="85" xlink:href="#r0"/><use x="43" y="85" xlink:href="#r0"/><use x="47" y="85" xlink:href="#r0"/><use x="53" y="85" xlink:href="#r0"/><use x="59" y="85" xlink:href="#r0"/><use x="63" y="85" xlink:href="#r0"/><use x="65" y="85" xlink:href="#r0"/><use x="67" y="85" xlink:href="#r0"/><use x="69" y="85" xlink:href="#r0"/><use x="71" y="85" xlink:href="#r0"/><use x="75" y="85" xlink:href="#r0"/><use x="79" y="85" xlink:href="#r0"/><use x="83" y="85" xlink:href="#r0"/><use x="93" y="85" xlink:href="#r0"/><use x="95" y="85" xlink:href="#r0"/><use x="97" y="85" xlink:href="#r0"/><use x="99" y="85" xlink:href="#r0"/><use x="101" y="85" xlink:href="#r0"/><use x="103" y="85" xlink:href="#r0"/><use x="15" y="87" xlink:href="#r0"/><use x="21" y="87" xlink:href="#r0"/><use x="23" y="87" xlink:href="#r0"/><use x="27" y="87" xlink:href="#r0"/><use x="29" y="87" xlink:href="#r0"/><use x="35" y="87" xlink:href="#r0"/><use x="41" y="87" xlink:href="#r0"/><use x="47" y="87" xlink:href="#r0"/><use x="51" y="87" xlink:href="#r0"/><use x="55" y="87" xlink:href="#r0"/><use x="57" y="87" xlink:href="#r0"/><use x="59" y="87" xlink:href="#r0"/><use x="61" y="87" xlink:href="#r0"/><use x="63" y="87" xlink:href="#r0"/><use x="65" y="87" xlink:href="#r0"/><use x="69" y="87" xlink:href="#r0"/><use x="73" y="87" xlink:href="#r0"/><use x="75" y="87" xlink:href="#r0"/><use x="77" y="87" xlink:href="#r0"/><use x="87" y="87" xlink:href="#r0"/><use x="89" y="87" xlink:href="#r0"/><use x="91" y="87" xlink:href="#r0"/><use x="93" y="87" xlink:href="#r0"/><use x="95" y="87" xlink:href="#r0"/><use x="101" y="87" xlink:href="#r0"/><use x="31" y="89" xlink:href="#r0"/><use x="33" y="89" xlink:href="#r0"/><use x="35" y="89" xlink:href="#r0"/><use x="37" y="89" xlink:href="#r0"/><use x="39" y="89" xlink:href="#r0"/><use x="43" y="89" xlink:href="#r0"/><use x="45" y="89" xlink:href="#r0"/><use x="49" y="89" xlink:href="#r0"/><use x="55" y="89" xlink:href="#r0"/><use x="63" y="89" xlink:href="#r0"/><use x="65" y="89" xlink:href="#r0"/><use x="69" y="89" xlink:href="#r0"/><use x="75" y="89" xlink:href="#r0"/><use x="87" y="89" xlink:href="#r0"/><use x="95" y="89" xlink:href="#r0"/><use x="101" y="89" xlink:href="#r0"/><use x="103" y="89" xlink:href="#r0"/><use x="15" y="91" xlink:href="#r0"/><use x="17" y="91" xlink:href="#r0"/><use x="19" y="91" xlink:href="#r0"/><use x="21" y="91" xlink:href="#r0"/><use x="23" y="91" xlink:href="#r0"/><use x="25" y="91" xlink:href="#r0"/><use x="27" y="91" xlink:href="#r0"/><use x="31" y="91" xlink:href="#r0"/><use x="33" y="91" xlink:href="#r0"/><use x="35" y="91" xlink:href="#r0"/><use x="39" y="91" xlink:href="#r0"/><use x="47" y="91" xlink:href="#r0"/><use x="49" y="91" xlink:href="#r0"/><use x="53" y="91" xlink:href="#r0"/><use x="55" y="91" xlink:href="#r0"/><use x="59" y="91" xlink:href="#r0"/><use x="63" y="91" xlink:href="#r0"/><use x="69" y="91" xlink:href="#r0"/><use x="73" y="91" xlink:href="#r0"/><use x="77" y="91" xlink:href="#r0"/><use x="81" y="91" xlink:href="#r0"/><use x="83" y="91" xlink:href="#r0"/><use x="87" y="91" xlink:href="#r0"/><use x="91" y="91" xlink:href="#r0"/><use x="95" y="91" xlink:href="#r0"/><use x="99" y="91" xlink:href="#r0"/><use x="15" y="93" xlink:href="#r0"/><use x="27" y="93" xlink:href="#r0"/><use x="39" y="93" xlink:href="#r0"/><use x="41" y="93" xlink:href="#r0"/><use x="47" y="93" xlink:href="#r0"/><use x="53" y="93" xlink:href="#r0"/><use x="55" y="93" xlink:href="#r0"/><use x="63" y="93" xlink:href="#r0"/><use x="71" y="93" xlink:href="#r0"/><use x="73" y="93" xlink:href="#r0"/><use x="75" y="93" xlink:href="#r0"/><use x="81" y="93" xlink:href="#r0"/><use x="83" y="93" xlink:href="#r0"/><use x="87" y="93" xlink:href="#r0"/><use x="95" y="93" xlink:href="#r0"/><use x="97" y="93" xlink:href="#r0"/><use x="99" y="93" xlink:href="#r0"/><use x="101" y="93" xlink:href="#r0"/><use x="15" y="95" xlink:href="#r0"/><use x="19" y="95" xlink:href="#r0"/><use x="21" y="95" xlink:href="#r0"/><use x="23" y="95" xlink:href="#r0"/><use x="27" y="95" xlink:href="#r0"/><use x="31" y="95" xlink:href="#r0"/><use x="33" y="95" xlink:href="#r0"/><use x="35" y="95" xlink:href="#r0"/><use x="39" y="95" xlink:href="#r0"/><use x="49" y="95" xlink:href="#r0"/><use x="55" y="95" xlink:href="#r0"/><use x="57" y="95" xlink:href="#r0"/><use x="59" y="95" xlink:href="#r0"/><use x="61" y="95" xlink:href="#r0"/><use x="63" y="95" xlink:href="#r0"/><use x="65" y="95" xlink:href="#r0"/><use x="69" y="95" xlink:href="#r0"/><use x="73" y="95" xlink:href="#r0"/><use x="77" y="95" xlink:href="#r0"/><use x="81" y="95" xlink:href="#r0"/><use x="87" y="95" xlink:href="#r0"/><use x="89" y="95" xlink:href="#r0"/><use x="91" y="95" xlink:href="#r0"/><use x="93" y="95" xlink:href="#r0"/><use x="95" y="95" xlink:href="#r0"/><use x="101" y="95" xlink:href="#r0"/><use x="103" y="95" xlink:href="#r0"/><use x="15" y="97" xlink:href="#r0"/><use x="19" y="97" xlink:href="#r0"/><use x="21" y="97" xlink:href="#r0"/><use x="23" y="97" xlink:href="#r0"/><use x="27" y="97" xlink:href="#r0"/><use x="31" y="97" xlink:href="#r0"/><use x="33" y="97" xlink:href="#r0"/><use x="35" y="97" xlink:href="#r0"/><use x="37" y="97" xlink:href="#r0"/><use x="41" y="97" xlink:href="#r0"/><use x="45" y="97" xlink:href="#r0"/><use x="51" y="97" xlink:href="#r0"/><use x="53" y="97" xlink:href="#r0"/><use x="63" y="97" xlink:href="#r0"/><use x="75" y="97" xlink:href="#r0"/><use x="81" y="97" xlink:href="#r0"/><use x="85" y="97" xlink:href="#r0"/><use x="91" y="97" xlink:href="#r0"/><use x="93" y="97" xlink:href="#r0"/><use x="95" y="97" xlink:href="#r0"/><use x="97" y="97" xlink:href="#r0"/><use x="15" y="99" xlink:href="#r0"/><use x="19" y="99" xlink:href="#r0"/><use x="21" y="99" xlink:href="#r0"/><use x="23" y="99" xlink:href="#r0"/><use x="27" y="99" xlink:href="#r0"/><use x="31" y="99" xlink:href="#r0"/><use x="33" y="99" xlink:href="#r0"/><use x="41" y="99" xlink:href="#r0"/><use x="53" y="99" xlink:href="#r0"/><use x="55" y="99" xlink:href="#r0"/><use x="57" y="99" xlink:href="#r0"/><use x="59" y="99" xlink:href="#r0"/><use x="65" y="99" xlink:href="#r0"/><use x="67" y="99" xlink:href="#r0"/><use x="69" y="99" xlink:href="#r0"/><use x="73" y="99" xlink:href="#r0"/><use x="79" y="99" xlink:href="#r0"/><use x="81" y="99" xlink:href="#r0"/><use x="83" y="99" xlink:href="#r0"/><use x="85" y="99" xlink:href="#r0"/><use x="87" y="99" xlink:href="#r0"/><use x="97" y="99" xlink:href="#r0"/><use x="99" y="99" xlink:href="#r0"/><use x="103" y="99" xlink:href="#r0"/><use x="15" y="101" xlink:href="#r0"/><use x="27" y="101" xlink:href="#r0"/><use x="31" y="101" xlink:href="#r0"/><use x="33" y="101" xlink:href="#r0"/><use x="37" y="101" xlink:href="#r0"/><use x="41" y="101" xlink:href="#r0"/><use x="45" y="101" xlink:href="#r0"/><use x="49" y="101" xlink:href="#r0"/><use x="53" y="101" xlink:href="#r0"/><use x="57" y="101" xlink:href="#r0"/><use x="61" y="101" xlink:href="#r0"/><use x="65" y="101" xlink:href="#r0"/><use x="71" y="101" xlink:href="#r0"/><use x="75" y="101" xlink:href="#r0"/><use x="77" y="101" xlink:href="#r0"/><use x="79" y="101" xlink:href="#r0"/><use x="81" y="101" xlink:href="#r0"/><use x="87" y="101" xlink:href="#r0"/><use x="99" y="101" xlink:href="#r0"/><use x="15" y="103" xlink:href="#r0"/><use x="17" y="103" xlink:href="#r0"/><use x="19" y="103" xlink:href="#r0"/><use x="21" y="103" xlink:href="#r0"/><use x="23" y="103" xlink:href="#r0"/><use x="25" y="103" xlink:href="#r0"/><use x="27" y="103" xlink:href="#r0"/><use x="31" y="103" xlink:href="#r0"/><use x="35" y="103" xlink:href="#r0"/><use x="45" y="103" xlink:href="#r0"/><use x="47" y="103" xlink:href="#r0"/><use x="51" y="103" xlink:href="#r0"/><use x="53" y="103" xlink:href="#r0"/><use x="57" y="103" xlink:href="#r0"/><use x="61" y="103" xlink:href="#r0"/><use x="63" y="103" xlink:href="#r0"/><use x="69" y="103" xlink:href="#r0"/><use x="73" y="103" xlink:href="#r0"/><use x="77" y="103" xlink:href="#r0"/><use x="85" y="103" xlink:href="#r0"/><use x="87" y="103" xlink:href="#r0"/><use x="91" y="103" xlink:href="#r0"/><use x="93" y="103" xlink:href="#r0"/><use x="97" y="103" xlink:href="#r0"/><use x="101" y="103" xlink:href="#r0"/></svg>