<svg xmlns="http://www.w3.org/2000/svg" xmlns:xlink="http://www.w3.org/1999/xlink" version="1.1" width="130px" height="130px" viewBox="0 0 130 130"><defs><rect id="r0" width="2" height="2" fill="#000000"/></defs><rect x="0" y="0" width="130" height="130" fill="#fefefe"/><use x="16" y="16" xlink:href="#r0"/><use x="18" y="16" xlink:href="#r0"/><use x="20" y="16" xlink:href="#r0"/><use x="22" y="16" xlink:href="#r0"/><use x="24" y="16" xlink:href="#r0"/><use x="26" y="16" xlink:href="#r0"/><use x="28" y="16" xlink:href="#r0"/><use x="38" y="16" xlink:href="#r0"/><use x="40" y="16" xlink:href="#r0"/><use x="62" y="16" xlink:href="#r0"/><use x="64" y="16" xlink:href="#r0"/><use x="66" y="16" xlink:href="#r0"/><use x="72" y="16" xlink:href="#r0"/><use x="74" y="16" xlink:href="#r0"/><use x="76" y="16" xlink:href="#r0"/><use x="80" y="16" xlink:href="#r0"/><use x="82" y="16" xlink:href="#r0"/><use x="86" y="16" xlink:href="#r0"/><use x="88" y="16" xlink:href="#r0"/><use x="90" y="16" xlink:href="#r0"/><use x="96" y="16" xlink:href="#r0"/><use x="100" y="16" xlink:href="#r0"/><use x="102" y="16" xlink:href="#r0"/><use x="104" y="16" xlink:href="#r0"/><use x="106" y="16" xlink:href="#r0"/><use x="108" y="16" xlink:href="#r0"/><use x="110" y="16" xlink:href="#r0"/><use x="112" y="16" xlink:href="#r0"/><use x="16" y="18" xlink:href="#r0"/><use x="28" y="18" xlink:href="#r0"/><use x="32" y="18" xlink:href="#r0"/><use x="38" y="18" xlink:href="#r0"/><use x="42" y="18" xlink:href="#r0"/><use x="44" y="18" xlink:href="#r0"/><use x="48" y="18" xlink:href="#r0"/><use x="50" y="18" xlink:href="#r0"/><use x="54" y="18" xlink:href="#r0"/><use x="62" y="18" xlink:href="#r0"/><use x="66" y="18" xlink:href="#r0"/><use x="68" y="18" xlink:href="#r0"/><use x="72" y="18" xlink:href="#r0"/><use x="84" y="18" xlink:href="#r0"/><use x="90" y="18" xlink:href="#r0"/><use x="92" y="18" xlink:href="#r0"/><use x="94" y="18" xlink:href="#r0"/><use x="96" y="18" xlink:href="#r0"/><use x="100" y="18" xlink:href="#r0"/><use x="112" y="18" xlink:href="#r0"/><use x="16" y="20" xlink:href="#r0"/><use x="20" y="20" xlink:href="#r0"/><use x="22" y="20" xlink:href="#r0"/><use x="24" y="20" xlink:href="#r0"/><use x="28" y="20" xlink:href="#r0"/><use x="44" y="20" xlink:href="#r0"/><use x="46" y="20" xlink:href="#r0"/><use x="48" y="20" xlink:href="#r0"/><use x="54" y="20" xlink:href="#r0"/><use x="58" y="20" xlink:href="#r0"/><use x="64" y="20" xlink:href="#r0"/><use x="70" y="20" xlink:href="#r0"/><use x="72" y="20" xlink:href="#r0"/><use x="76" y="20" xlink:href="#r0"/><use x="78" y="20" xlink:href="#r0"/><use x="80" y="20" xlink:href="#r0"/><use x="82" y="20" xlink:href="#r0"/><use x="86" y="20" xlink:href="#r0"/><use x="94" y="20" xlink:href="#r0"/><use x="96" y="20" xlink:href="#r0"/><use x="100" y="20" xlink:href="#r0"/><use x="104" y="20" xlink:href="#r0"/><use x="106" y="20" xlink:href="#r0"/><use x="108" y="20" xlink:href="#r0"/><use x="112" y="20" xlink:href="#r0"/><use x="16" y="22" xlink:href="#r0"/><use x="20" y="22" xlink:href="#r0"/><use x="22" y="22" xlink:href="#r0"/><use x="24" y="22" xlink:href="#r0"/><use x="28" y="22" xlink:href="#r0"/><use x="32" y="22" xlink:href="#r0"/><use x="38" y="22" xlink:href="#r0"/><use x="40" y="22" xlink:href="#r0"/><use x="42" y="22" xlink:href="#r0"/><use x="44" y="22" xlink:href="#r0"/><use x="50" y="22" xlink:href="#r0"/><use x="54" y="22" xlink:href="#r0"/><use x="62" y="22" xlink:href="#r0"/><use x="70" y="22" xlink:href="#r0"/><use x="74" y="22" xlink:href="#r0"/><use x="76" y="22" xlink:href="#r0"/><use x="82" y="22" xlink:href="#r0"/><use x="88" y="22" xlink:href="#r0"/><use x="90" y="22" xlink:href="#r0"/><use x="94" y="22" xlink:href="#r0"/><use x="100" y="22" xlink:href="#r0"/><use x="104" y="22" xlink:href="#r0"/><use x="106" y="22" xlink:href="#r0"/><use x="108" y="22" xlink:href="#r0"/><use x="112" y="22" xlink:href="#r0"/><use x="16" y="24" xlink:href="#r0"/><use x="20" y="24" xlink:href="#r0"/><use x="22" y="24" xlink:href="#r0"/><use x="24" y="24" xlink:href="#r0"/><use x="28" y="24" xlink:href="#r0"/><use x="36" y="24" xlink:href="#r0"/><use x="38" y="24" xlink:href="#r0"/><use x="40" y="24" xlink:href="#r0"/><use x="46" y="24" xlink:href="#r0"/><use x="52" y="24" xlink:href="#r0"/><use x="58" y="24" xlink:href="#r0"/><use x="60" y="24" xlink:href="#r0"/><use x="62" y="24" xlink:href="#r0"/><use x="64" y="24" xlink:href="#r0"/><use x="66" y="24" xlink:href="#r0"/><use x="68" y="24" xlink:href="#r0"/><use x="70" y="24" xlink:href="#r0"/><use x="72" y="24" xlink:href="#r0"/><use x="76" y="24" xlink:href="#r0"/><use x="82" y="24" xlink:href="#r0"/><use x="86" y="24" xlink:href="#r0"/><use x="88" y="24" xlink:href="#r0"/><use x="90" y="24" xlink:href="#r0"/><use x="100" y="24" xlink:href="#r0"/><use x="104" y="24" xlink:href="#r0"/><use x="106" y="24" xlink:href="#r0"/><use x="108" y="24" xlink:href="#r0"/><use x="112" y="24" xlink:href="#r0"/><use x="16" y="26" xlink:href="#r0"/><use x="28" y="26" xlink:href="#r0"/><use x="32" y="26" xlink:href="#r0"/><use x="34" y="26" xlink:href="#r0"/><use x="36" y="26" xlink:href="#r0"/><use x="38" y="26" xlink:href="#r0"/><use x="42" y="26" xlink:href="#r0"/><use x="50" y="26" xlink:href="#r0"/><use x="54" y="26" xlink:href="#r0"/><use x="58" y="26" xlink:href="#r0"/><use x="60" y="26" xlink:href="#r0"/><use x="68" y="26" xlink:href="#r0"/><use x="70" y="26" xlink:href="#r0"/><use x="74" y="26" xlink:href="#r0"/><use x="84" y="26" xlink:href="#r0"/><use x="92" y="26" xlink:href="#r0"/><use x="100" y="26" xlink:href="#r0"/><use x="112" y="26" xlink:href="#r0"/><use x="16" y="28" xlink:href="#r0"/><use x="18" y="28" xlink:href="#r0"/><use x="20" y="28" xlink:href="#r0"/><use x="22" y="28" xlink:href="#r0"/><use x="24" y="28" xlink:href="#r0"/><use x="26" y="28" xlink:href="#r0"/><use x="28" y="28" xlink:href="#r0"/><use x="32" y="28" xlink:href="#r0"/><use x="36" y="28" xlink:href="#r0"/><use x="40" y="28" xlink:href="#r0"/><use x="44" y="28" xlink:href="#r0"/><use x="48" y="28" xlink:href="#r0"/><use x="52" y="28" xlink:href="#r0"/><use x="56" y="28" xlink:href="#r0"/><use x="60" y="28" xlink:href="#r0"/><use x="64" y="28" xlink:href="#r0"/><use x="68" y="28" xlink:href="#r0"/><use x="72" y="28" xlink:href="#r0"/><use x="76" y="28" xlink:href="#r0"/><use x="80" y="28" xlink:href="#r0"/><use x="84" y="28" xlink:href="#r0"/><use x="88" y="28" xlink:href="#r0"/><use x="92" y="28" xlink:href="#r0"/><use x="96" y="28" xlink:href="#r0"/><use x="100" y="28" xlink:href="#r0"/><use x="102" y="28" xlink:href="#r0"/><use x="104" y="28" xlink:href="#r0"/><use x="106" y="28" xlink:href="#r0"/><use x="108" y="28" xlink:href="#r0"/><use x="110" y="28" xlink:href="#r0"/><use x="112" y="28" xlink:href="#r0"/><use x="36" y="30" xlink:href="#r0"/><use x="38" y="30" xlink:href="#r0"/><use x="44" y="30" xlink:href="#r0"/><use x="46" y="30" xlink:href="#r0"/><use x="50" y="30" xlink:href="#r0"/><use x="58" y="30" xlink:href="#r0"/><use x="60" y="30" xlink:href="#r0"/><use x="68" y="30" xlink:href="#r0"/><use x="70" y="30" xlink:href="#r0"/><use x="72" y="30" xlink:href="#r0"/><use x="74" y="30" xlink:href="#r0"/><use x="76" y="30" xlink:href="#r0"/><use x="78" y="30" xlink:href="#r0"/><use x="86" y="30" xlink:href="#r0"/><use x="90" y="30" xlink:href="#r0"/><use x="92" y="30" xlink:href="#r0"/><use x="94" y="30" xlink:href="#r0"/><use x="16" y="32" xlink:href="#r0"/><use x="18" y="32" xlink:href="#r0"/><use x="20" y="32" xlink:href="#r0"/><use x="22" y="32" xlink:href="#r0"/><use x="24" y="32" xlink:href="#r0"/><use x="28" y="32" xlink:href="#r0"/><use x="30" y="32" xlink:href="#r0"/><use x="32" y="32" xlink:href="#r0"/><use x="36" y="32" xlink:href="#r0"/><use x="42" y="32" xlink:href="#r0"/><use x="48" y="32" xlink:href="#r0"/><use x="52" y="32" xlink:href="#r0"/><use x="54" y="32" xlink:href="#r0"/><use x="56" y="32" xlink:href="#r0"/><use x="60" y="32" xlink:href="#r0"/><use x="62" y="32" xlink:href="#r0"/><use x="64" y="32" xlink:href="#r0"/><use x="66" y="32" xlink:href="#r0"/><use x="68" y="32" xlink:href="#r0"/><use x="74" y="32" xlink:href="#r0"/><use x="76" y="32" xlink:href="#r0"/><use x="78" y="32" xlink:href="#r0"/><use x="88" y="32" xlink:href="#r0"/><use x="90" y="32" xlink:href="#r0"/><use x="94" y="32" xlink:href="#r0"/><use x="96" y="32" xlink:href="#r0"/><use x="98" y="32" xlink:href="#r0"/><use x="102" y="32" xlink:href="#r0"/><use x="106" y="32" xlink:href="#r0"/><use x="110" y="32" xlink:href="#r0"/><use x="16" y="34" xlink:href="#r0"/><use x="18" y="34" xlink:href="#r0"/><use x="38" y="34" xlink:href="#r0"/><use x="44" y="34" xlink:href="#r0"/><use x="46" y="34" xlink:href="#r0"/><use x="50" y="34" xlink:href="#r0"/><use x="66" y="34" xlink:href="#r0"/><use x="74" y="34" xlink:href="#r0"/><use x="76" y="34" xlink:href="#r0"/><use x="78" y="34" xlink:href="#r0"/><use x="82" y="34" xlink:href="#r0"/><use x="86" y="34" xlink:href="#r0"/><use x="90" y="34" xlink:href="#r0"/><use x="100" y="34" xlink:href="#r0"/><use x="102" y="34" xlink:href="#r0"/><use x="104" y="34" xlink:href="#r0"/><use x="106" y="34" xlink:href="#r0"/><use x="108" y="34" xlink:href="#r0"/><use x="110" y="34" xlink:href="#r0"/><use x="20" y="36" xlink:href="#r0"/><use x="22" y="36" xlink:href="#r0"/><use x="28" y="36" xlink:href="#r0"/><use x="32" y="36" xlink:href="#r0"/><use x="36" y="36" xlink:href="#r0"/><use x="38" y="36" xlink:href="#r0"/><use x="46" y="36" xlink:href="#r0"/><use x="52" y="36" xlink:href="#r0"/><use x="58" y="36" xlink:href="#r0"/><use x="60" y="36" xlink:href="#r0"/><use x="62" y="36" xlink:href="#r0"/><use x="66" y="36" xlink:href="#r0"/><use x="72" y="36" xlink:href="#r0"/><use x="74" y="36" xlink:href="#r0"/><use x="78" y="36" xlink:href="#r0"/><use x="80" y="36" xlink:href="#r0"/><use x="84" y="36" xlink:href="#r0"/><use x="86" y="36" xlink:href="#r0"/><use x="92" y="36" xlink:href="#r0"/><use x="98" y="36" xlink:href="#r0"/><use x="112" y="36" xlink:href="#r0"/><use x="18" y="38" xlink:href="#r0"/><use x="22" y="38" xlink:href="#r0"/><use x="26" y="38" xlink:href="#r0"/><use x="32" y="38" xlink:href="#r0"/><use x="34" y="38" xlink:href="#r0"/><use x="38" y="38" xlink:href="#r0"/><use x="40" y="38" xlink:href="#r0"/><use x="42" y="38" xlink:href="#r0"/><use x="46" y="38" xlink:href="#r0"/><use x="48" y="38" xlink:href="#r0"/><use x="50" y="38" xlink:href="#r0"/><use x="52" y="38" xlink:href="#r0"/><use x="54" y="38" xlink:href="#r0"/><use x="66" y="38" xlink:href="#r0"/><use x="78" y="38" xlink:href="#r0"/><use x="80" y="38" xlink:href="#r0"/><use x="86" y="38" xlink:href="#r0"/><use x="96" y="38" xlink:href="#r0"/><use x="98" y="38" xlink:href="#r0"/><use x="100" y="38" xlink:href="#r0"/><use x="104" y="38" xlink:href="#r0"/><use x="16" y="40" xlink:href="#r0"/><use x="20" y="40" xlink:href="#r0"/><use x="22" y="40" xlink:href="#r0"/><use x="24" y="40" xlink:href="#r0"/><use x="26" y="40" xlink:href="#r0"/><use x="28" y="40" xlink:href="#r0"/><use x="30" y="40" xlink:href="#r0"/><use x="34" y="40" xlink:href="#r0"/><use x="38" y="40" xlink:href="#r0"/><use x="46" y="40" xlink:href="#r0"/><use x="52" y="40" xlink:href="#r0"/><use x="58" y="40" xlink:href="#r0"/><use x="64" y="40" xlink:href="#r0"/><use x="76" y="40" xlink:href="#r0"/><use x="84" y="40" xlink:href="#r0"/><use x="88" y="40" xlink:href="#r0"/><use x="90" y="40" xlink:href="#r0"/><use x="96" y="40" xlink:href="#r0"/><use x="98" y="40" xlink:href="#r0"/><use x="102" y="40" xlink:href="#r0"/><use x="106" y="40" xlink:href="#r0"/><use x="108" y="40" xlink:href="#r0"/><use x="110" y="40" xlink:href="#r0"/><use x="112" y="40" xlink:href="#r0"/><use x="20" y="42" xlink:href="#r0"/><use x="24" y="42" xlink:href="#r0"/><use x="26" y="42" xlink:href="#r0"/><use x="32" y="42" xlink:href="#r0"/><use x="34" y="42" xlink:href="#r0"/><use x="40" y="42" xlink:href="#r0"/><use x="42" y="42" xlink:href="#r0"/><use x="48" y="42" xlink:href="#r0"/><use x="50" y="42" xlink:href="#r0"/><use x="52" y="42" xlink:href="#r0"/><use x="54" y="42" xlink:href="#r0"/><use x="56" y="42" xlink:href="#r0"/><use x="60" y="42" xlink:href="#r0"/><use x="66" y="42" xlink:href="#r0"/><use x="76" y="42" xlink:href="#r0"/><use x="80" y="42" xlink:href="#r0"/><use x="82" y="42" xlink:href="#r0"/><use x="86" y="42" xlink:href="#r0"/><use x="88" y="42" xlink:href="#r0"/><use x="90" y="42" xlink:href="#r0"/><use x="98" y="42" xlink:href="#r0"/><use x="100" y="42" xlink:href="#r0"/><use x="102" y="42" xlink:href="#r0"/><use x="106" y="42" xlink:href="#r0"/><use x="20" y="44" xlink:href="#r0"/><use x="28" y="44" xlink:href="#r0"/><use x="30" y="44" xlink:href="#r0"/><use x="40" y="44" xlink:href="#r0"/><use x="42" y="44" xlink:href="#r0"/><use x="44" y="44" xlink:href="#r0"/><use x="46" y="44" xlink:href="#r0"/><use x="48" y="44" xlink:href="#r0"/><use x="52" y="44" xlink:href="#r0"/><use x="56" y="44" xlink:href="#r0"/><use x="58" y="44" xlink:href="#r0"/><use x="60" y="44" xlink:href="#r0"/><use x="62" y="44" xlink:href="#r0"/><use x="68" y="44" xlink:href="#r0"/><use x="70" y="44" xlink:href="#r0"/><use x="72" y="44" xlink:href="#r0"/><use x="84" y="44" xlink:href="#r0"/><use x="88" y="44" xlink:href="#r0"/><use x="92" y="44" xlink:href="#r0"/><use x="104" y="44" xlink:href="#r0"/><use x="110" y="44" xlink:href="#r0"/><use x="112" y="44" xlink:href="#r0"/><use x="18" y="46" xlink:href="#r0"/><use x="20" y="46" xlink:href="#r0"/><use x="22" y="46" xlink:href="#r0"/><use x="30" y="46" xlink:href="#r0"/><use x="34" y="46" xlink:href="#r0"/><use x="36" y="46" xlink:href="#r0"/><use x="38" y="46" xlink:href="#r0"/><use x="40" y="46" xlink:href="#r0"/><use x="42" y="46" xlink:href="#r0"/><use x="44" y="46" xlink:href="#r0"/><use x="48" y="46" xlink:href="#r0"/><use x="52" y="46" xlink:href="#r0"/><use x="54" y="46" xlink:href="#r0"/><use x="56" y="46" xlink:href="#r0"/><use x="60" y="46" xlink:href="#r0"/><use x="62" y="46" xlink:href="#r0"/><use x="64" y="46" xlink:href="#r0"/><use x="70" y="46" xlink:href="#r0"/><use x="72" y="46" xlink:href="#r0"/><use x="76" y="46" xlink:href="#r0"/><use x="80" y="46" xlink:href="#r0"/><use x="82" y="46" xlink:href="#r0"/><use x="94" y="46" xlink:href="#r0"/><use x="102" y="46" xlink:href="#r0"/><use x="104" y="46" xlink:href="#r0"/><use x="106" y="46" xlink:href="#r0"/><use x="20" y="48" xlink:href="#r0"/><use x="22" y="48" xlink:href="#r0"/><use x="28" y="48" xlink:href="#r0"/><use x="32" y="48" xlink:href="#r0"/><use x="34" y="48" xlink:href="#r0"/><use x="42" y="48" xlink:href="#r0"/><use x="48" y="48" xlink:href="#r0"/><use x="52" y="48" xlink:href="#r0"/><use x="54" y="48" xlink:href="#r0"/><use x="56" y="48" xlink:href="#r0"/><use x="58" y="48" xlink:href="#r0"/><use x="64" y="48" xlink:href="#r0"/><use x="68" y="48" xlink:href="#r0"/><use x="74" y="48" xlink:href="#r0"/><use x="82" y="48" xlink:href="#r0"/><use x="88" y="48" xlink:href="#r0"/><use x="90" y="48" xlink:href="#r0"/><use x="94" y="48" xlink:href="#r0"/><use x="96" y="48" xlink:href="#r0"/><use x="102" y="48" xlink:href="#r0"/><use x="106" y="48" xlink:href="#r0"/><use x="108" y="48" xlink:href="#r0"/><use x="110" y="48" xlink:href="#r0"/><use x="16" y="50" xlink:href="#r0"/><use x="18" y="50" xlink:href="#r0"/><use x="20" y="50" xlink:href="#r0"/><use x="22" y="50" xlink:href="#r0"/><use x="24" y="50" xlink:href="#r0"/><use x="30" y="50" xlink:href="#r0"/><use x="34" y="50" xlink:href="#r0"/><use x="42" y="50" xlink:href="#r0"/><use x="44" y="50" xlink:href="#r0"/><use x="46" y="50" xlink:href="#r0"/><use x="50" y="50" xlink:href="#r0"/><use x="58" y="50" xlink:href="#r0"/><use x="60" y="50" xlink:href="#r0"/><use x="62" y="50" xlink:href="#r0"/><use x="64" y="50" xlink:href="#r0"/><use x="66" y="50" xlink:href="#r0"/><use x="72" y="50" xlink:href="#r0"/><use x="74" y="50" xlink:href="#r0"/><use x="76" y="50" xlink:href="#r0"/><use x="78" y="50" xlink:href="#r0"/><use x="82" y="50" xlink:href="#r0"/><use x="86" y="50" xlink:href="#r0"/><use x="88" y="50" xlink:href="#r0"/><use x="90" y="50" xlink:href="#r0"/><use x="100" y="50" xlink:href="#r0"/><use x="106" y="50" xlink:href="#r0"/><use x="108" y="50" xlink:href="#r0"/><use x="110" y="50" xlink:href="#r0"/><use x="16" y="52" xlink:href="#r0"/><use x="22" y="52" xlink:href="#r0"/><use x="26" y="52" xlink:href="#r0"/><use x="28" y="52" xlink:href="#r0"/><use x="30" y="52" xlink:href="#r0"/><use x="34" y="52" xlink:href="#r0"/><use x="38" y="52" xlink:href="#r0"/><use x="40" y="52" xlink:href="#r0"/><use x="42" y="52" xlink:href="#r0"/><use x="44" y="52" xlink:href="#r0"/><use x="50" y="52" xlink:href="#r0"/><use x="56" y="52" xlink:href="#r0"/><use x="64" y="52" xlink:href="#r0"/><use x="72" y="52" xlink:href="#r0"/><use x="74" y="52" xlink:href="#r0"/><use x="78" y="52" xlink:href="#r0"/><use x="80" y="52" xlink:href="#r0"/><use x="82" y="52" xlink:href="#r0"/><use x="84" y="52" xlink:href="#r0"/><use x="90" y="52" xlink:href="#r0"/><use x="92" y="52" xlink:href="#r0"/><use x="102" y="52" xlink:href="#r0"/><use x="108" y="52" xlink:href="#r0"/><use x="112" y="52" xlink:href="#r0"/><use x="16" y="54" xlink:href="#r0"/><use x="26" y="54" xlink:href="#r0"/><use x="32" y="54" xlink:href="#r0"/><use x="38" y="54" xlink:href="#r0"/><use x="44" y="54" xlink:href="#r0"/><use x="46" y="54" xlink:href="#r0"/><use x="58" y="54" xlink:href="#r0"/><use x="64" y="54" xlink:href="#r0"/><use x="66" y="54" xlink:href="#r0"/><use x="70" y="54" xlink:href="#r0"/><use x="74" y="54" xlink:href="#r0"/><use x="78" y="54" xlink:href="#r0"/><use x="80" y="54" xlink:href="#r0"/><use x="82" y="54" xlink:href="#r0"/><use x="86" y="54" xlink:href="#r0"/><use x="92" y="54" xlink:href="#r0"/><use x="104" y="54" xlink:href="#r0"/><use x="16" y="56" xlink:href="#r0"/><use x="18" y="56" xlink:href="#r0"/><use x="20" y="56" xlink:href="#r0"/><use x="24" y="56" xlink:href="#r0"/><use x="28" y="56" xlink:href="#r0"/><use x="30" y="56" xlink:href="#r0"/><use x="32" y="56" xlink:href="#r0"/><use x="34" y="56" xlink:href="#r0"/><use x="42" y="56" xlink:href="#r0"/><use x="44" y="56" xlink:href="#r0"/><use x="50" y="56" xlink:href="#r0"/><use x="54" y="56" xlink:href="#r0"/><use x="58" y="56" xlink:href="#r0"/><use x="60" y="56" xlink:href="#r0"/><use x="62" y="56" xlink:href="#r0"/><use x="64" y="56" xlink:href="#r0"/><use x="66" y="56" xlink:href="#r0"/><use x="74" y="56" xlink:href="#r0"/><use x="76" y="56" xlink:href="#r0"/><use x="88" y="56" xlink:href="#r0"/><use x="94" y="56" xlink:href="#r0"/><use x="96" y="56" xlink:href="#r0"/><use x="100" y="56" xlink:href="#r0"/><use x="102" y="56" xlink:href="#r0"/><use x="106" y="56" xlink:href="#r0"/><use x="108" y="56" xlink:href="#r0"/><use x="112" y="56" xlink:href="#r0"/><use x="16" y="58" xlink:href="#r0"/><use x="20" y="58" xlink:href="#r0"/><use x="24" y="58" xlink:href="#r0"/><use x="30" y="58" xlink:href="#r0"/><use x="34" y="58" xlink:href="#r0"/><use x="40" y="58" xlink:href="#r0"/><use x="46" y="58" xlink:href="#r0"/><use x="52" y="58" xlink:href="#r0"/><use x="58" y="58" xlink:href="#r0"/><use x="62" y="58" xlink:href="#r0"/><use x="64" y="58" xlink:href="#r0"/><use x="66" y="58" xlink:href="#r0"/><use x="70" y="58" xlink:href="#r0"/><use x="72" y="58" xlink:href="#r0"/><use x="74" y="58" xlink:href="#r0"/><use x="76" y="58" xlink:href="#r0"/><use x="78" y="58" xlink:href="#r0"/><use x="82" y="58" xlink:href="#r0"/><use x="86" y="58" xlink:href="#r0"/><use x="88" y="58" xlink:href="#r0"/><use x="100" y="58" xlink:href="#r0"/><use x="108" y="58" xlink:href="#r0"/><use x="24" y="60" xlink:href="#r0"/><use x="26" y="60" xlink:href="#r0"/><use x="28" y="60" xlink:href="#r0"/><use x="30" y="60" xlink:href="#r0"/><use x="32" y="60" xlink:href="#r0"/><use x="34" y="60" xlink:href="#r0"/><use x="36" y="60" xlink:href="#r0"/><use x="54" y="60" xlink:href="#r0"/><use x="58" y="60" xlink:href="#r0"/><use x="60" y="60" xlink:href="#r0"/><use x="62" y="60" xlink:href="#r0"/><use x="64" y="60" xlink:href="#r0"/><use x="66" y="60" xlink:href="#r0"/><use x="68" y="60" xlink:href="#r0"/><use x="70" y="60" xlink:href="#r0"/><use x="76" y="60" xlink:href="#r0"/><use x="78" y="60" xlink:href="#r0"/><use x="80" y="60" xlink:href="#r0"/><use x="84" y="60" xlink:href="#r0"/><use x="86" y="60" xlink:href="#r0"/><use x="92" y="60" xlink:href="#r0"/><use x="94" y="60" xlink:href="#r0"/><use x="96" y="60" xlink:href="#r0"/><use x="98" y="60" xlink:href="#r0"/><use x="100" y="60" xlink:href="#r0"/><use x="102" y="60" xlink:href="#r0"/><use x="104" y="60" xlink:href="#r0"/><use x="108" y="60" xlink:href="#r0"/><use x="110" y="60" xlink:href="#r0"/><use x="112" y="60" xlink:href="#r0"/><use x="16" y="62" xlink:href="#r0"/><use x="20" y="62" xlink:href="#r0"/><use x="24" y="62" xlink:href="#r0"/><use x="32" y="62" xlink:href="#r0"/><use x="38" y="62" xlink:href="#r0"/><use x="40" y="62" xlink:href="#r0"/><use x="44" y="62" xlink:href="#r0"/><use x="46" y="62" xlink:href="#r0"/><use x="50" y="62" xlink:href="#r0"/><use x="52" y="62" xlink:href="#r0"/><use x="60" y="62" xlink:href="#r0"/><use x="68" y="62" xlink:href="#r0"/><use x="70" y="62" xlink:href="#r0"/><use x="72" y="62" xlink:href="#r0"/><use x="74" y="62" xlink:href="#r0"/><use x="76" y="62" xlink:href="#r0"/><use x="80" y="62" xlink:href="#r0"/><use x="84" y="62" xlink:href="#r0"/><use x="86" y="62" xlink:href="#r0"/><use x="90" y="62" xlink:href="#r0"/><use x="96" y="62" xlink:href="#r0"/><use x="104" y="62" xlink:href="#r0"/><use x="106" y="62" xlink:href="#r0"/><use x="110" y="62" xlink:href="#r0"/><use x="112" y="62" xlink:href="#r0"/><use x="16" y="64" xlink:href="#r0"/><use x="20" y="64" xlink:href="#r0"/><use x="24" y="64" xlink:href="#r0"/><use x="28" y="64" xlink:href="#r0"/><use x="32" y="64" xlink:href="#r0"/><use x="34" y="64" xlink:href="#r0"/><use x="38" y="64" xlink:href="#r0"/><use x="42" y="64" xlink:href="#r0"/><use x="48" y="64" xlink:href="#r0"/><use x="52" y="64" xlink:href="#r0"/><use x="54" y="64" xlink:href="#r0"/><use x="56" y="64" xlink:href="#r0"/><use x="58" y="64" xlink:href="#r0"/><use x="60" y="64" xlink:href="#r0"/><use x="64" y="64" xlink:href="#r0"/><use x="68" y="64" xlink:href="#r0"/><use x="74" y="64" xlink:href="#r0"/><use x="76" y="64" xlink:href="#r0"/><use x="88" y="64" xlink:href="#r0"/><use x="94" y="64" xlink:href="#r0"/><use x="96" y="64" xlink:href="#r0"/><use x="100" y="64" xlink:href="#r0"/><use x="104" y="64" xlink:href="#r0"/><use x="108" y="64" xlink:href="#r0"/><use x="112" y="64" xlink:href="#r0"/><use x="16" y="66" xlink:href="#r0"/><use x="20" y="66" xlink:href="#r0"/><use x="22" y="66" xlink:href="#r0"/><use x="24" y="66" xlink:href="#r0"/><use x="32" y="66" xlink:href="#r0"/><use x="34" y="66" xlink:href="#r0"/><use x="36" y="66" xlink:href="#r0"/><use x="38" y="66" xlink:href="#r0"/><use x="40" y="66" xlink:href="#r0"/><use x="44" y="66" xlink:href="#r0"/><use x="46" y="66" xlink:href="#r0"/><use x="58" y="66" xlink:href="#r0"/><use x="60" y="66" xlink:href="#r0"/><use x="68" y="66" xlink:href="#r0"/><use x="70" y="66" xlink:href="#r0"/><use x="72" y="66" xlink:href="#r0"/><use x="74" y="66" xlink:href="#r0"/><use x="76" y="66" xlink:href="#r0"/><use x="82" y="66" xlink:href="#r0"/><use x="86" y="66" xlink:href="#r0"/><use x="88" y="66" xlink:href="#r0"/><use x="90" y="66" xlink:href="#r0"/><use x="94" y="66" xlink:href="#r0"/><use x="96" y="66" xlink:href="#r0"/><use x="104" y="66" xlink:href="#r0"/><use x="106" y="66" xlink:href="#r0"/><use x="110" y="66" xlink:href="#r0"/><use x="16" y="68" xlink:href="#r0"/><use x="20" y="68" xlink:href="#r0"/><use x="24" y="68" xlink:href="#r0"/><use x="26" y="68" xlink:href="#r0"/><use x="28" y="68" xlink:href="#r0"/><use x="30" y="68" xlink:href="#r0"/><use x="32" y="68" xlink:href="#r0"/><use x="34" y="68" xlink:href="#r0"/><use x="36" y="68" xlink:href="#r0"/><use x="46" y="68" xlink:href="#r0"/><use x="52" y="68" xlink:href="#r0"/><use x="54" y="68" xlink:href="#r0"/><use x="56" y="68" xlink:href="#r0"/><use x="58" y="68" xlink:href="#r0"/><use x="60" y="68" xlink:href="#r0"/><use x="62" y="68" xlink:href="#r0"/><use x="64" y="68" xlink:href="#r0"/><use x="66" y="68" xlink:href="#r0"/><use x="68" y="68" xlink:href="#r0"/><use x="70" y="68" xlink:href="#r0"/><use x="82" y="68" xlink:href="#r0"/><use x="84" y="68" xlink:href="#r0"/><use x="86" y="68" xlink:href="#r0"/><use x="88" y="68" xlink:href="#r0"/><use x="92" y="68" xlink:href="#r0"/><use x="96" y="68" xlink:href="#r0"/><use x="98" y="68" xlink:href="#r0"/><use x="100" y="68" xlink:href="#r0"/><use x="102" y="68" xlink:href="#r0"/><use x="104" y="68" xlink:href="#r0"/><use x="108" y="68" xlink:href="#r0"/><use x="112" y="68" xlink:href="#r0"/><use x="16" y="70" xlink:href="#r0"/><use x="24" y="70" xlink:href="#r0"/><use x="26" y="70" xlink:href="#r0"/><use x="30" y="70" xlink:href="#r0"/><use x="34" y="70" xlink:href="#r0"/><use x="36" y="70" xlink:href="#r0"/><use x="38" y="70" xlink:href="#r0"/><use x="42" y="70" xlink:href="#r0"/><use x="46" y="70" xlink:href="#r0"/><use x="50" y="70" xlink:href="#r0"/><use x="52" y="70" xlink:href="#r0"/><use x="56" y="70" xlink:href="#r0"/><use x="60" y="70" xlink:href="#r0"/><use x="64" y="70" xlink:href="#r0"/><use x="68" y="70" xlink:href="#r0"/><use x="70" y="70" xlink:href="#r0"/><use x="74" y="70" xlink:href="#r0"/><use x="80" y="70" xlink:href="#r0"/><use x="92" y="70" xlink:href="#r0"/><use x="96" y="70" xlink:href="#r0"/><use x="104" y="70" xlink:href="#r0"/><use x="16" y="72" xlink:href="#r0"/><use x="18" y="72" xlink:href="#r0"/><use x="22" y="72" xlink:href="#r0"/><use x="24" y="72" xlink:href="#r0"/><use x="26" y="72" xlink:href="#r0"/><use x="28" y="72" xlink:href="#r0"/><use x="30" y="72" xlink:href="#r0"/><use x="32" y="72" xlink:href="#r0"/><use x="36" y="72" xlink:href="#r0"/><use x="38" y="72" xlink:href="#r0"/><use x="40" y="72" xlink:href="#r0"/><use x="46" y="72" xlink:href="#r0"/><use x="52" y="72" xlink:href="#r0"/><use x="58" y="72" xlink:href="#r0"/><use x="60" y="72" xlink:href="#r0"/><use x="64" y="72" xlink:href="#r0"/><use x="74" y="72" xlink:href="#r0"/><use x="76" y="72" xlink:href="#r0"/><use x="88" y="72" xlink:href="#r0"/><use x="94" y="72" xlink:href="#r0"/><use x="96" y="72" xlink:href="#r0"/><use x="100" y="72" xlink:href="#r0"/><use x="106" y="72" xlink:href="#r0"/><use x="108" y="72" xlink:href="#r0"/><use x="20" y="74" xlink:href="#r0"/><use x="26" y="74" xlink:href="#r0"/><use x="30" y="74" xlink:href="#r0"/><use x="34" y="74" xlink:href="#r0"/><use x="36" y="74" xlink:href="#r0"/><use x="38" y="74" xlink:href="#r0"/><use x="40" y="74" xlink:href="#r0"/><use x="42" y="74" xlink:href="#r0"/><use x="48" y="74" xlink:href="#r0"/><use x="50" y="74" xlink:href="#r0"/><use x="52" y="74" xlink:href="#r0"/><use x="54" y="74" xlink:href="#r0"/><use x="56" y="74" xlink:href="#r0"/><use x="58" y="74" xlink:href="#r0"/><use x="60" y="74" xlink:href="#r0"/><use x="62" y="74" xlink:href="#r0"/><use x="66" y="74" xlink:href="#r0"/><use x="70" y="74" xlink:href="#r0"/><use x="72" y="74" xlink:href="#r0"/><use x="74" y="74" xlink:href="#r0"/><use x="76" y="74" xlink:href="#r0"/><use x="80" y="74" xlink:href="#r0"/><use x="82" y="74" xlink:href="#r0"/><use x="86" y="74" xlink:href="#r0"/><use x="88" y="74" xlink:href="#r0"/><use x="90" y="74" xlink:href="#r0"/><use x="100" y="74" xlink:href="#r0"/><use x="102" y="74" xlink:href="#r0"/><use x="106" y="74" xlink:href="#r0"/><use x="16" y="76" xlink:href="#r0"/><use x="20" y="76" xlink:href="#r0"/><use x="22" y="76" xlink:href="#r0"/><use x="28" y="76" xlink:href="#r0"/><use x="36" y="76" xlink:href="#r0"/><use x="40" y="76" xlink:href="#r0"/><use x="42" y="76" xlink:href="#r0"/><use x="44" y="76" xlink:href="#r0"/><use x="46" y="76" xlink:href="#r0"/><use x="48" y="76" xlink:href="#r0"/><use x="50" y="76" xlink:href="#r0"/><use x="56" y="76" xlink:href="#r0"/><use x="58" y="76" xlink:href="#r0"/><use x="60" y="76" xlink:href="#r0"/><use x="66" y="76" xlink:href="#r0"/><use x="72" y="76" xlink:href="#r0"/><use x="76" y="76" xlink:href="#r0"/><use x="84" y="76" xlink:href="#r0"/><use x="94" y="76" xlink:href="#r0"/><use x="96" y="76" xlink:href="#r0"/><use x="100" y="76" xlink:href="#r0"/><use x="108" y="76" xlink:href="#r0"/><use x="110" y="76" xlink:href="#r0"/><use x="112" y="76" xlink:href="#r0"/><use x="18" y="78" xlink:href="#r0"/><use x="22" y="78" xlink:href="#r0"/><use x="24" y="78" xlink:href="#r0"/><use x="26" y="78" xlink:href="#r0"/><use x="32" y="78" xlink:href="#r0"/><use x="34" y="78" xlink:href="#r0"/><use x="36" y="78" xlink:href="#r0"/><use x="40" y="78" xlink:href="#r0"/><use x="42" y="78" xlink:href="#r0"/><use x="48" y="78" xlink:href="#r0"/><use x="50" y="78" xlink:href="#r0"/><use x="52" y="78" xlink:href="#r0"/><use x="54" y="78" xlink:href="#r0"/><use x="56" y="78" xlink:href="#r0"/><use x="62" y="78" xlink:href="#r0"/><use x="72" y="78" xlink:href="#r0"/><use x="74" y="78" xlink:href="#r0"/><use x="78" y="78" xlink:href="#r0"/><use x="80" y="78" xlink:href="#r0"/><use x="82" y="78" xlink:href="#r0"/><use x="86" y="78" xlink:href="#r0"/><use x="92" y="78" xlink:href="#r0"/><use x="96" y="78" xlink:href="#r0"/><use x="98" y="78" xlink:href="#r0"/><use x="106" y="78" xlink:href="#r0"/><use x="110" y="78" xlink:href="#r0"/><use x="112" y="78" xlink:href="#r0"/><use x="18" y="80" xlink:href="#r0"/><use x="22" y="80" xlink:href="#r0"/><use x="24" y="80" xlink:href="#r0"/><use x="26" y="80" xlink:href="#r0"/><use x="28" y="80" xlink:href="#r0"/><use x="34" y="80" xlink:href="#r0"/><use x="38" y="80" xlink:href="#r0"/><use x="42" y="80" xlink:href="#r0"/><use x="48" y="80" xlink:href="#r0"/><use x="52" y="80" xlink:href="#r0"/><use x="54" y="80" xlink:href="#r0"/><use x="56" y="80" xlink:href="#r0"/><use x="60" y="80" xlink:href="#r0"/><use x="64" y="80" xlink:href="#r0"/><use x="66" y="80" xlink:href="#r0"/><use x="76" y="80" xlink:href="#r0"/><use x="82" y="80" xlink:href="#r0"/><use x="88" y="80" xlink:href="#r0"/><use x="90" y="80" xlink:href="#r0"/><use x="94" y="80" xlink:href="#r0"/><use x="100" y="80" xlink:href="#r0"/><use x="108" y="80" xlink:href="#r0"/><use x="110" y="80" xlink:href="#r0"/><use x="22" y="82" xlink:href="#r0"/><use x="26" y="82" xlink:href="#r0"/><use x="30" y="82" xlink:href="#r0"/><use x="34" y="82" xlink:href="#r0"/><use x="40" y="82" xlink:href="#r0"/><use x="44" y="82" xlink:href="#r0"/><use x="46" y="82" xlink:href="#r0"/><use x="50" y="82" xlink:href="#r0"/><use x="62" y="82" xlink:href="#r0"/><use x="64" y="82" xlink:href="#r0"/><use x="70" y="82" xlink:href="#r0"/><use x="74" y="82" xlink:href="#r0"/><use x="76" y="82" xlink:href="#r0"/><use x="90" y="82" xlink:href="#r0"/><use x="94" y="82" xlink:href="#r0"/><use x="96" y="82" xlink:href="#r0"/><use x="100" y="82" xlink:href="#r0"/><use x="102" y="82" xlink:href="#r0"/><use x="106" y="82" xlink:href="#r0"/><use x="108" y="82" xlink:href="#r0"/><use x="110" y="82" xlink:href="#r0"/><use x="16" y="84" xlink:href="#r0"/><use x="18" y="84" xlink:href="#r0"/><use x="22" y="84" xlink:href="#r0"/><use x="28" y="84" xlink:href="#r0"/><use x="30" y="84" xlink:href="#r0"/><use x="32" y="84" xlink:href="#r0"/><use x="38" y="84" xlink:href="#r0"/><use x="40" y="84" xlink:href="#r0"/><use x="42" y="84" xlink:href="#r0"/><use x="44" y="84" xlink:href="#r0"/><use x="46" y="84" xlink:href="#r0"/><use x="48" y="84" xlink:href="#r0"/><use x="50" y="84" xlink:href="#r0"/><use x="54" y="84" xlink:href="#r0"/><use x="58" y="84" xlink:href="#r0"/><use x="60" y="84" xlink:href="#r0"/><use x="62" y="84" xlink:href="#r0"/><use x="64" y="84" xlink:href="#r0"/><use x="70" y="84" xlink:href="#r0"/><use x="74" y="84" xlink:href="#r0"/><use x="82" y="84" xlink:href="#r0"/><use x="86" y="84" xlink:href="#r0"/><use x="88" y="84" xlink:href="#r0"/><use x="90" y="84" xlink:href="#r0"/><use x="92" y="84" xlink:href="#r0"/><use x="94" y="84" xlink:href="#r0"/><use x="96" y="84" xlink:href="#r0"/><use x="98" y="84" xlink:href="#r0"/><use x="100" y="84" xlink:href="#r0"/><use x="106" y="84" xlink:href="#r0"/><use x="112" y="84" xlink:href="#r0"/><use x="16" y="86" xlink:href="#r0"/><use x="18" y="86" xlink:href="#r0"/><use x="22" y="86" xlink:href="#r0"/><use x="24" y="86" xlink:href="#r0"/><use x="30" y="86" xlink:href="#r0"/><use x="34" y="86" xlink:href="#r0"/><use x="36" y="86" xlink:href="#r0"/><use x="38" y="86" xlink:href="#r0"/><use x="44" y="86" xlink:href="#r0"/><use x="46" y="86" xlink:href="#r0"/><use x="58" y="86" xlink:href="#r0"/><use x="62" y="86" xlink:href="#r0"/><use x="70" y="86" xlink:href="#r0"/><use x="74" y="86" xlink:href="#r0"/><use x="76" y="86" xlink:href="#r0"/><use x="78" y="86" xlink:href="#r0"/><use x="80" y="86" xlink:href="#r0"/><use x="82" y="86" xlink:href="#r0"/><use x="92" y="86" xlink:href="#r0"/><use x="94" y="86" xlink:href="#r0"/><use x="96" y="86" xlink:href="#r0"/><use x="100" y="86" xlink:href="#r0"/><use x="110" y="86" xlink:href="#r0"/><use x="112" y="86" xlink:href="#r0"/><use x="18" y="88" xlink:href="#r0"/><use x="22" y="88" xlink:href="#r0"/><use x="24" y="88" xlink:href="#r0"/><use x="28" y="88" xlink:href="#r0"/><use x="38" y="88" xlink:href="#r0"/><use x="40" y="88" xlink:href="#r0"/><use x="42" y="88" xlink:href="#r0"/><use x="44" y="88" xlink:href="#r0"/><use x="50" y="88" xlink:href="#r0"/><use x="54" y="88" xlink:href="#r0"/><use x="58" y="88" xlink:href="#r0"/><use x="62" y="88" xlink:href="#r0"/><use x="64" y="88" xlink:href="#r0"/><use x="68" y="88" xlink:href="#r0"/><use x="76" y="88" xlink:href="#r0"/><use x="88" y="88" xlink:href="#r0"/><use x="94" y="88" xlink:href="#r0"/><use x="96" y="88" xlink:href="#r0"/><use x="100" y="88" xlink:href="#r0"/><use x="104" y="88" xlink:href="#r0"/><use x="106" y="88" xlink:href="#r0"/><use x="108" y="88" xlink:href="#r0"/><use x="110" y="88" xlink:href="#r0"/><use x="112" y="88" xlink:href="#r0"/><use x="18" y="90" xlink:href="#r0"/><use x="20" y="90" xlink:href="#r0"/><use x="22" y="90" xlink:href="#r0"/><use x="24" y="90" xlink:href="#r0"/><use x="26" y="90" xlink:href="#r0"/><use x="30" y="90" xlink:href="#r0"/><use x="32" y="90" xlink:href="#r0"/><use x="34" y="90" xlink:href="#r0"/><use x="36" y="90" xlink:href="#r0"/><use x="40" y="90" xlink:href="#r0"/><use x="46" y="90" xlink:href="#r0"/><use x="52" y="90" xlink:href="#r0"/><use x="58" y="90" xlink:href="#r0"/><use x="60" y="90" xlink:href="#r0"/><use x="64" y="90" xlink:href="#r0"/><use x="76" y="90" xlink:href="#r0"/><use x="82" y="90" xlink:href="#r0"/><use x="94" y="90" xlink:href="#r0"/><use x="96" y="90" xlink:href="#r0"/><use x="100" y="90" xlink:href="#r0"/><use x="106" y="90" xlink:href="#r0"/><use x="112" y="90" xlink:href="#r0"/><use x="18" y="92" xlink:href="#r0"/><use x="26" y="92" xlink:href="#r0"/><use x="28" y="92" xlink:href="#r0"/><use x="30" y="92" xlink:href="#r0"/><use x="32" y="92" xlink:href="#r0"/><use x="36" y="92" xlink:href="#r0"/><use x="38" y="92" xlink:href="#r0"/><use x="40" y="92" xlink:href="#r0"/><use x="52" y="92" xlink:href="#r0"/><use x="54" y="92" xlink:href="#r0"/><use x="62" y="92" xlink:href="#r0"/><use x="64" y="92" xlink:href="#r0"/><use x="66" y="92" xlink:href="#r0"/><use x="70" y="92" xlink:href="#r0"/><use x="84" y="92" xlink:href="#r0"/><use x="86" y="92" xlink:href="#r0"/><use x="92" y="92" xlink:href="#r0"/><use x="100" y="92" xlink:href="#r0"/><use x="102" y="92" xlink:href="#r0"/><use x="106" y="92" xlink:href="#r0"/><use x="110" y="92" xlink:href="#r0"/><use x="112" y="92" xlink:href="#r0"/><use x="18" y="94" xlink:href="#r0"/><use x="20" y="94" xlink:href="#r0"/><use x="22" y="94" xlink:href="#r0"/><use x="32" y="94" xlink:href="#r0"/><use x="34" y="94" xlink:href="#r0"/><use x="40" y="94" xlink:href="#r0"/><use x="42" y="94" xlink:href="#r0"/><use x="46" y="94" xlink:href="#r0"/><use x="52" y="94" xlink:href="#r0"/><use x="58" y="94" xlink:href="#r0"/><use x="64" y="94" xlink:href="#r0"/><use x="74" y="94" xlink:href="#r0"/><use x="76" y="94" xlink:href="#r0"/><use x="80" y="94" xlink:href="#r0"/><use x="86" y="94" xlink:href="#r0"/><use x="90" y="94" xlink:href="#r0"/><use x="96" y="94" xlink:href="#r0"/><use x="102" y="94" xlink:href="#r0"/><use x="104" y="94" xlink:href="#r0"/><use x="106" y="94" xlink:href="#r0"/><use x="112" y="94" xlink:href="#r0"/><use x="16" y="96" xlink:href="#r0"/><use x="18" y="96" xlink:href="#r0"/><use x="20" y="96" xlink:href="#r0"/><use x="28" y="96" xlink:href="#r0"/><use x="30" y="96" xlink:href="#r0"/><use x="38" y="96" xlink:href="#r0"/><use x="42" y="96" xlink:href="#r0"/><use x="48" y="96" xlink:href="#r0"/><use x="52" y="96" xlink:href="#r0"/><use x="54" y="96" xlink:href="#r0"/><use x="56" y="96" xlink:href="#r0"/><use x="58" y="96" xlink:href="#r0"/><use x="60" y="96" xlink:href="#r0"/><use x="62" y="96" xlink:href="#r0"/><use x="64" y="96" xlink:href="#r0"/><use x="66" y="96" xlink:href="#r0"/><use x="68" y="96" xlink:href="#r0"/><use x="76" y="96" xlink:href="#r0"/><use x="82" y="96" xlink:href="#r0"/><use x="88" y="96" xlink:href="#r0"/><use x="92" y="96" xlink:href="#r0"/><use x="94" y="96" xlink:href="#r0"/><use x="96" y="96" xlink:href="#r0"/><use x="98" y="96" xlink:href="#r0"/><use x="100" y="96" xlink:href="#r0"/><use x="102" y="96" xlink:href="#r0"/><use x="104" y="96" xlink:href="#r0"/><use x="108" y="96" xlink:href="#r0"/><use x="110" y="96" xlink:href="#r0"/><use x="32" y="98" xlink:href="#r0"/><use x="36" y="98" xlink:href="#r0"/><use x="38" y="98" xlink:href="#r0"/><use x="40" y="98" xlink:href="#r0"/><use x="42" y="98" xlink:href="#r0"/><use x="44" y="98" xlink:href="#r0"/><use x="46" y="98" xlink:href="#r0"/><use x="50" y="98" xlink:href="#r0"/><use x="58" y="98" xlink:href="#r0"/><use x="60" y="98" xlink:href="#r0"/><use x="68" y="98" xlink:href="#r0"/><use x="70" y="98" xlink:href="#r0"/><use x="76" y="98" xlink:href="#r0"/><use x="80" y="98" xlink:href="#r0"/><use x="90" y="98" xlink:href="#r0"/><use x="96" y="98" xlink:href="#r0"/><use x="104" y="98" xlink:href="#r0"/><use x="106" y="98" xlink:href="#r0"/><use x="16" y="100" xlink:href="#r0"/><use x="18" y="100" xlink:href="#r0"/><use x="20" y="100" xlink:href="#r0"/><use x="22" y="100" xlink:href="#r0"/><use x="24" y="100" xlink:href="#r0"/><use x="26" y="100" xlink:href="#r0"/><use x="28" y="100" xlink:href="#r0"/><use x="32" y="100" xlink:href="#r0"/><use x="34" y="100" xlink:href="#r0"/><use x="36" y="100" xlink:href="#r0"/><use x="38" y="100" xlink:href="#r0"/><use x="40" y="100" xlink:href="#r0"/><use x="52" y="100" xlink:href="#r0"/><use x="56" y="100" xlink:href="#r0"/><use x="60" y="100" xlink:href="#r0"/><use x="64" y="100" xlink:href="#r0"/><use x="68" y="100" xlink:href="#r0"/><use x="70" y="100" xlink:href="#r0"/><use x="74" y="100" xlink:href="#r0"/><use x="80" y="100" xlink:href="#r0"/><use x="84" y="100" xlink:href="#r0"/><use x="92" y="100" xlink:href="#r0"/><use x="94" y="100" xlink:href="#r0"/><use x="96" y="100" xlink:href="#r0"/><use x="100" y="100" xlink:href="#r0"/><use x="104" y="100" xlink:href="#r0"/><use x="110" y="100" xlink:href="#r0"/><use x="112" y="100" xlink:href="#r0"/><use x="16" y="102" xlink:href="#r0"/><use x="28" y="102" xlink:href="#r0"/><use x="34" y="102" xlink:href="#r0"/><use x="42" y="102" xlink:href="#r0"/><use x="48" y="102" xlink:href="#r0"/><use x="50" y="102" xlink:href="#r0"/><use x="52" y="102" xlink:href="#r0"/><use x="54" y="102" xlink:href="#r0"/><use x="58" y="102" xlink:href="#r0"/><use x="60" y="102" xlink:href="#r0"/><use x="68" y="102" xlink:href="#r0"/><use x="70" y="102" xlink:href="#r0"/><use x="76" y="102" xlink:href="#r0"/><use x="78" y="102" xlink:href="#r0"/><use x="80" y="102" xlink:href="#r0"/><use x="90" y="102" xlink:href="#r0"/><use x="92" y="102" xlink:href="#r0"/><use x="94" y="102" xlink:href="#r0"/><use x="96" y="102" xlink:href="#r0"/><use x="104" y="102" xlink:href="#r0"/><use x="16" y="104" xlink:href="#r0"/><use x="20" y="104" xlink:href="#r0"/><use x="22" y="104" xlink:href="#r0"/><use x="24" y="104" xlink:href="#r0"/><use x="28" y="104" xlink:href="#r0"/><use x="32" y="104" xlink:href="#r0"/><use x="36" y="104" xlink:href="#r0"/><use x="40" y="104" xlink:href="#r0"/><use x="46" y="104" xlink:href="#r0"/><use x="52" y="104" xlink:href="#r0"/><use x="58" y="104" xlink:href="#r0"/><use x="60" y="104" xlink:href="#r0"/><use x="62" y="104" xlink:href="#r0"/><use x="64" y="104" xlink:href="#r0"/><use x="66" y="104" xlink:href="#r0"/><use x="68" y="104" xlink:href="#r0"/><use x="76" y="104" xlink:href="#r0"/><use x="88" y="104" xlink:href="#r0"/><use x="92" y="104" xlink:href="#r0"/><use x="94" y="104" xlink:href="#r0"/><use x="96" y="104" xlink:href="#r0"/><use x="98" y="104" xlink:href="#r0"/><use x="100" y="104" xlink:href="#r0"/><use x="102" y="104" xlink:href="#r0"/><use x="104" y="104" xlink:href="#r0"/><use x="106" y="104" xlink:href="#r0"/><use x="108" y="104" xlink:href="#r0"/><use x="110" y="104" xlink:href="#r0"/><use x="112" y="104" xlink:href="#r0"/><use x="16" y="106" xlink:href="#r0"/><use x="20" y="106" xlink:href="#r0"/><use x="22" y="106" xlink:href="#r0"/><use x="24" y="106" xlink:href="#r0"/><use x="28" y="106" xlink:href="#r0"/><use x="32" y="106" xlink:href="#r0"/><use x="34" y="106" xlink:href="#r0"/><use x="36" y="106" xlink:href="#r0"/><use x="38" y="106" xlink:href="#r0"/><use x="42" y="106" xlink:href="#r0"/><use x="48" y="106" xlink:href="#r0"/><use x="50" y="106" xlink:href="#r0"/><use x="52" y="106" xlink:href="#r0"/><use x="54" y="106" xlink:href="#r0"/><use x="56" y="106" xlink:href="#r0"/><use x="64" y="106" xlink:href="#r0"/><use x="66" y="106" xlink:href="#r0"/><use x="68" y="106" xlink:href="#r0"/><use x="70" y="106" xlink:href="#r0"/><use x="74" y="106" xlink:href="#r0"/><use x="76" y="106" xlink:href="#r0"/><use x="82" y="106" xlink:href="#r0"/><use x="86" y="106" xlink:href="#r0"/><use x="90" y="106" xlink:href="#r0"/><use x="94" y="106" xlink:href="#r0"/><use x="96" y="106" xlink:href="#r0"/><use x="98" y="106" xlink:href="#r0"/><use x="104" y="106" xlink:href="#r0"/><use x="106" y="106" xlink:href="#r0"/><use x="110" y="106" xlink:href="#r0"/><use x="112" y="106" xlink:href="#r0"/><use x="16" y="108" xlink:href="#r0"/><use x="20" y="108" xlink:href="#r0"/><use x="22" y="108" xlink:href="#r0"/><use x="24" y="108" xlink:href="#r0"/><use x="28" y="108" xlink:href="#r0"/><use x="32" y="108" xlink:href="#r0"/><use x="34" y="108" xlink:href="#r0"/><use x="42" y="108" xlink:href="#r0"/><use x="46" y="108" xlink:href="#r0"/><use x="48" y="108" xlink:href="#r0"/><use x="52" y="108" xlink:href="#r0"/><use x="56" y="108" xlink:href="#r0"/><use x="60" y="108" xlink:href="#r0"/><use x="62" y="108" xlink:href="#r0"/><use x="64" y="108" xlink:href="#r0"/><use x="68" y="108" xlink:href="#r0"/><use x="74" y="108" xlink:href="#r0"/><use x="76" y="108" xlink:href="#r0"/><use x="80" y="108" xlink:href="#r0"/><use x="84" y="108" xlink:href="#r0"/><use x="88" y="108" xlink:href="#r0"/><use x="90" y="108" xlink:href="#r0"/><use x="94" y="108" xlink:href="#r0"/><use x="98" y="108" xlink:href="#r0"/><use x="100" y="108" xlink:href="#r0"/><use x="106" y="108" xlink:href="#r0"/><use x="16" y="110" xlink:href="#r0"/><use x="28" y="110" xlink:href="#r0"/><use x="32" y="110" xlink:href="#r0"/><use x="36" y="110" xlink:href="#r0"/><use x="38" y="110" xlink:href="#r0"/><use x="48" y="110" xlink:href="#r0"/><use x="50" y="110" xlink:href="#r0"/><use x="52" y="110" xlink:href="#r0"/><use x="54" y="110" xlink:href="#r0"/><use x="56" y="110" xlink:href="#r0"/><use x="62" y="110" xlink:href="#r0"/><use x="64" y="110" xlink:href="#r0"/><use x="66" y="110" xlink:href="#r0"/><use x="68" y="110" xlink:href="#r0"/><use x="70" y="110" xlink:href="#r0"/><use x="72" y="110" xlink:href="#r0"/><use x="78" y="110" xlink:href="#r0"/><use x="80" y="110" xlink:href="#r0"/><use x="82" y="110" xlink:href="#r0"/><use x="86" y="110" xlink:href="#r0"/><use x="90" y="110" xlink:href="#r0"/><use x="98" y="110" xlink:href="#r0"/><use x="100" y="110" xlink:href="#r0"/><use x="102" y="110" xlink:href="#r0"/><use x="104" y="110" xlink:href="#r0"/><use x="106" y="110" xlink:href="#r0"/><use x="112" y="110" xlink:href="#r0"/><use x="16" y="112" xlink:href="#r0"/><use x="18" y="112" xlink:href="#r0"/><use x="20" y="112" xlink:href="#r0"/><use x="22" y="112" xlink:href="#r0"/><use x="24" y="112" xlink:href="#r0"/><use x="26" y="112" xlink:href="#r0"/><use x="28" y="112" xlink:href="#r0"/><use x="32" y="112" xlink:href="#r0"/><use x="42" y="112" xlink:href="#r0"/><use x="46" y="112" xlink:href="#r0"/><use x="48" y="112" xlink:href="#r0"/><use x="52" y="112" xlink:href="#r0"/><use x="54" y="112" xlink:href="#r0"/><use x="56" y="112" xlink:href="#r0"/><use x="58" y="112" xlink:href="#r0"/><use x="64" y="112" xlink:href="#r0"/><use x="70" y="112" xlink:href="#r0"/><use x="84" y="112" xlink:href="#r0"/><use x="88" y="112" xlink:href="#r0"/><use x="90" y="112" xlink:href="#r0"/><use x="96" y="112" xlink:href="#r0"/><use x="104" y="112" xlink:href="#r0"/><use x="106" y="112" xlink:href="#r0"/><use x="108" y="112" xlink:href="#r0"/><use x="110" y="112" xlink:href="#r0"/><use x="112" y="112" xlink:href="#r0"/></svg>