<svg xmlns="http://www.w3.org/2000/svg" xmlns:xlink="http://www.w3.org/1999/xlink" version="1.1" width="130px" height="130px" viewBox="0 0 130 130"><defs><rect id="r0" width="3" height="3" fill="#000000"/></defs><rect x="0" y="0" width="130" height="130" fill="#fefefe"/><use x="9" y="9" xlink:href="#r0"/><use x="12" y="9" xlink:href="#r0"/><use x="15" y="9" xlink:href="#r0"/><use x="18" y="9" xlink:href="#r0"/><use x="21" y="9" xlink:href="#r0"/><use x="24" y="9" xlink:href="#r0"/><use x="27" y="9" xlink:href="#r0"/><use x="36" y="9" xlink:href="#r0"/><use x="42" y="9" xlink:href="#r0"/><use x="48" y="9" xlink:href="#r0"/><use x="57" y="9" xlink:href="#r0"/><use x="60" y="9" xlink:href="#r0"/><use x="63" y="9" xlink:href="#r0"/><use x="66" y="9" xlink:href="#r0"/><use x="72" y="9" xlink:href="#r0"/><use x="75" y="9" xlink:href="#r0"/><use x="87" y="9" xlink:href="#r0"/><use x="99" y="9" xlink:href="#r0"/><use x="102" y="9" xlink:href="#r0"/><use x="105" y="9" xlink:href="#r0"/><use x="108" y="9" xlink:href="#r0"/><use x="111" y="9" xlink:href="#r0"/><use x="114" y="9" xlink:href="#r0"/><use x="117" y="9" xlink:href="#r0"/><use x="9" y="12" xlink:href="#r0"/><use x="27" y="12" xlink:href="#r0"/><use x="33" y="12" xlink:href="#r0"/><use x="36" y="12" xlink:href="#r0"/><use x="39" y="12" xlink:href="#r0"/><use x="45" y="12" xlink:href="#r0"/><use x="54" y="12" xlink:href="#r0"/><use x="60" y="12" xlink:href="#r0"/><use x="69" y="12" xlink:href="#r0"/><use x="72" y="12" xlink:href="#r0"/><use x="90" y="12" xlink:href="#r0"/><use x="93" y="12" xlink:href="#r0"/><use x="99" y="12" xlink:href="#r0"/><use x="117" y="12" xlink:href="#r0"/><use x="9" y="15" xlink:href="#r0"/><use x="15" y="15" xlink:href="#r0"/><use x="18" y="15" xlink:href="#r0"/><use x="21" y="15" xlink:href="#r0"/><use x="27" y="15" xlink:href="#r0"/><use x="36" y="15" xlink:href="#r0"/><use x="39" y="15" xlink:href="#r0"/><use x="51" y="15" xlink:href="#r0"/><use x="54" y="15" xlink:href="#r0"/><use x="57" y="15" xlink:href="#r0"/><use x="66" y="15" xlink:href="#r0"/><use x="72" y="15" xlink:href="#r0"/><use x="90" y="15" xlink:href="#r0"/><use x="99" y="15" xlink:href="#r0"/><use x="105" y="15" xlink:href="#r0"/><use x="108" y="15" xlink:href="#r0"/><use x="111" y="15" xlink:href="#r0"/><use x="117" y="15" xlink:href="#r0"/><use x="9" y="18" xlink:href="#r0"/><use x="15" y="18" xlink:href="#r0"/><use x="18" y="18" xlink:href="#r0"/><use x="21" y="18" xlink:href="#r0"/><use x="27" y="18" xlink:href="#r0"/><use x="33" y="18" xlink:href="#r0"/><use x="39" y="18" xlink:href="#r0"/><use x="48" y="18" xlink:href="#r0"/><use x="51" y="18" xlink:href="#r0"/><use x="54" y="18" xlink:href="#r0"/><use x="57" y="18" xlink:href="#r0"/><use x="60" y="18" xlink:href="#r0"/><use x="63" y="18" xlink:href="#r0"/><use x="66" y="18" xlink:href="#r0"/><use x="69" y="18" xlink:href="#r0"/><use x="72" y="18" xlink:href="#r0"/><use x="75" y="18" xlink:href="#r0"/><use x="78" y="18" xlink:href="#r0"/><use x="81" y="18" xlink:href="#r0"/><use x="84" y="18" xlink:href="#r0"/><use x="93" y="18" xlink:href="#r0"/><use x="99" y="18" xlink:href="#r0"/><use x="105" y="18" xlink:href="#r0"/><use x="108" y="18" xlink:href="#r0"/><use x="111" y="18" xlink:href="#r0"/><use x="117" y="18" xlink:href="#r0"/><use x="9" y="21" xlink:href="#r0"/><use x="15" y="21" xlink:href="#r0"/><use x="18" y="21" xlink:href="#r0"/><use x="21" y="21" xlink:href="#r0"/><use x="27" y="21" xlink:href="#r0"/><use x="36" y="21" xlink:href="#r0"/><use x="42" y="21" xlink:href="#r0"/><use x="51" y="21" xlink:href="#r0"/><use x="57" y="21" xlink:href="#r0"/><use x="60" y="21" xlink:href="#r0"/><use x="66" y="21" xlink:href="#r0"/><use x="72" y="21" xlink:href="#r0"/><use x="87" y="21" xlink:href="#r0"/><use x="99" y="21" xlink:href="#r0"/><use x="105" y="21" xlink:href="#r0"/><use x="108" y="21" xlink:href="#r0"/><use x="111" y="21" xlink:href="#r0"/><use x="117" y="21" xlink:href="#r0"/><use x="9" y="24" xlink:href="#r0"/><use x="27" y="24" xlink:href="#r0"/><use x="33" y="24" xlink:href="#r0"/><use x="36" y="24" xlink:href="#r0"/><use x="39" y="24" xlink:href="#r0"/><use x="48" y="24" xlink:href="#r0"/><use x="51" y="24" xlink:href="#r0"/><use x="54" y="24" xlink:href="#r0"/><use x="57" y="24" xlink:href="#r0"/><use x="60" y="24" xlink:href="#r0"/><use x="63" y="24" xlink:href="#r0"/><use x="72" y="24" xlink:href="#r0"/><use x="84" y="24" xlink:href="#r0"/><use x="87" y="24" xlink:href="#r0"/><use x="90" y="24" xlink:href="#r0"/><use x="93" y="24" xlink:href="#r0"/><use x="99" y="24" xlink:href="#r0"/><use x="117" y="24" xlink:href="#r0"/><use x="9" y="27" xlink:href="#r0"/><use x="12" y="27" xlink:href="#r0"/><use x="15" y="27" xlink:href="#r0"/><use x="18" y="27" xlink:href="#r0"/><use x="21" y="27" xlink:href="#r0"/><use x="24" y="27" xlink:href="#r0"/><use x="27" y="27" xlink:href="#r0"/><use x="33" y="27" xlink:href="#r0"/><use x="39" y="27" xlink:href="#r0"/><use x="45" y="27" xlink:href="#r0"/><use x="51" y="27" xlink:href="#r0"/><use x="57" y="27" xlink:href="#r0"/><use x="63" y="27" xlink:href="#r0"/><use x="69" y="27" xlink:href="#r0"/><use x="75" y="27" xlink:href="#r0"/><use x="81" y="27" xlink:href="#r0"/><use x="87" y="27" xlink:href="#r0"/><use x="93" y="27" xlink:href="#r0"/><use x="99" y="27" xlink:href="#r0"/><use x="102" y="27" xlink:href="#r0"/><use x="105" y="27" xlink:href="#r0"/><use x="108" y="27" xlink:href="#r0"/><use x="111" y="27" xlink:href="#r0"/><use x="114" y="27" xlink:href="#r0"/><use x="117" y="27" xlink:href="#r0"/><use x="36" y="30" xlink:href="#r0"/><use x="42" y="30" xlink:href="#r0"/><use x="54" y="30" xlink:href="#r0"/><use x="72" y="30" xlink:href="#r0"/><use x="75" y="30" xlink:href="#r0"/><use x="81" y="30" xlink:href="#r0"/><use x="87" y="30" xlink:href="#r0"/><use x="90" y="30" xlink:href="#r0"/><use x="9" y="33" xlink:href="#r0"/><use x="12" y="33" xlink:href="#r0"/><use x="15" y="33" xlink:href="#r0"/><use x="18" y="33" xlink:href="#r0"/><use x="21" y="33" xlink:href="#r0"/><use x="27" y="33" xlink:href="#r0"/><use x="30" y="33" xlink:href="#r0"/><use x="33" y="33" xlink:href="#r0"/><use x="36" y="33" xlink:href="#r0"/><use x="42" y="33" xlink:href="#r0"/><use x="45" y="33" xlink:href="#r0"/><use x="48" y="33" xlink:href="#r0"/><use x="51" y="33" xlink:href="#r0"/><use x="54" y="33" xlink:href="#r0"/><use x="69" y="33" xlink:href="#r0"/><use x="78" y="33" xlink:href="#r0"/><use x="81" y="33" xlink:href="#r0"/><use x="84" y="33" xlink:href="#r0"/><use x="90" y="33" xlink:href="#r0"/><use x="93" y="33" xlink:href="#r0"/><use x="96" y="33" xlink:href="#r0"/><use x="102" y="33" xlink:href="#r0"/><use x="108" y="33" xlink:href="#r0"/><use x="114" y="33" xlink:href="#r0"/><use x="12" y="36" xlink:href="#r0"/><use x="18" y="36" xlink:href="#r0"/><use x="21" y="36" xlink:href="#r0"/><use x="36" y="36" xlink:href="#r0"/><use x="42" y="36" xlink:href="#r0"/><use x="57" y="36" xlink:href="#r0"/><use x="63" y="36" xlink:href="#r0"/><use x="66" y="36" xlink:href="#r0"/><use x="72" y="36" xlink:href="#r0"/><use x="87" y="36" xlink:href="#r0"/><use x="96" y="36" xlink:href="#r0"/><use x="102" y="36" xlink:href="#r0"/><use x="108" y="36" xlink:href="#r0"/><use x="9" y="39" xlink:href="#r0"/><use x="15" y="39" xlink:href="#r0"/><use x="27" y="39" xlink:href="#r0"/><use x="30" y="39" xlink:href="#r0"/><use x="51" y="39" xlink:href="#r0"/><use x="54" y="39" xlink:href="#r0"/><use x="57" y="39" xlink:href="#r0"/><use x="60" y="39" xlink:href="#r0"/><use x="69" y="39" xlink:href="#r0"/><use x="72" y="39" xlink:href="#r0"/><use x="81" y="39" xlink:href="#r0"/><use x="90" y="39" xlink:href="#r0"/><use x="93" y="39" xlink:href="#r0"/><use x="99" y="39" xlink:href="#r0"/><use x="111" y="39" xlink:href="#r0"/><use x="114" y="39" xlink:href="#r0"/><use x="117" y="39" xlink:href="#r0"/><use x="12" y="42" xlink:href="#r0"/><use x="15" y="42" xlink:href="#r0"/><use x="18" y="42" xlink:href="#r0"/><use x="24" y="42" xlink:href="#r0"/><use x="30" y="42" xlink:href="#r0"/><use x="39" y="42" xlink:href="#r0"/><use x="51" y="42" xlink:href="#r0"/><use x="54" y="42" xlink:href="#r0"/><use x="57" y="42" xlink:href="#r0"/><use x="63" y="42" xlink:href="#r0"/><use x="69" y="42" xlink:href="#r0"/><use x="72" y="42" xlink:href="#r0"/><use x="78" y="42" xlink:href="#r0"/><use x="81" y="42" xlink:href="#r0"/><use x="87" y="42" xlink:href="#r0"/><use x="90" y="42" xlink:href="#r0"/><use x="93" y="42" xlink:href="#r0"/><use x="102" y="42" xlink:href="#r0"/><use x="114" y="42" xlink:href="#r0"/><use x="9" y="45" xlink:href="#r0"/><use x="12" y="45" xlink:href="#r0"/><use x="15" y="45" xlink:href="#r0"/><use x="24" y="45" xlink:href="#r0"/><use x="27" y="45" xlink:href="#r0"/><use x="30" y="45" xlink:href="#r0"/><use x="36" y="45" xlink:href="#r0"/><use x="42" y="45" xlink:href="#r0"/><use x="45" y="45" xlink:href="#r0"/><use x="48" y="45" xlink:href="#r0"/><use x="60" y="45" xlink:href="#r0"/><use x="69" y="45" xlink:href="#r0"/><use x="72" y="45" xlink:href="#r0"/><use x="75" y="45" xlink:href="#r0"/><use x="84" y="45" xlink:href="#r0"/><use x="96" y="45" xlink:href="#r0"/><use x="99" y="45" xlink:href="#r0"/><use x="105" y="45" xlink:href="#r0"/><use x="108" y="45" xlink:href="#r0"/><use x="111" y="45" xlink:href="#r0"/><use x="9" y="48" xlink:href="#r0"/><use x="12" y="48" xlink:href="#r0"/><use x="15" y="48" xlink:href="#r0"/><use x="24" y="48" xlink:href="#r0"/><use x="33" y="48" xlink:href="#r0"/><use x="39" y="48" xlink:href="#r0"/><use x="42" y="48" xlink:href="#r0"/><use x="48" y="48" xlink:href="#r0"/><use x="51" y="48" xlink:href="#r0"/><use x="57" y="48" xlink:href="#r0"/><use x="60" y="48" xlink:href="#r0"/><use x="63" y="48" xlink:href="#r0"/><use x="66" y="48" xlink:href="#r0"/><use x="87" y="48" xlink:href="#r0"/><use x="102" y="48" xlink:href="#r0"/><use x="108" y="48" xlink:href="#r0"/><use x="111" y="48" xlink:href="#r0"/><use x="12" y="51" xlink:href="#r0"/><use x="18" y="51" xlink:href="#r0"/><use x="21" y="51" xlink:href="#r0"/><use x="27" y="51" xlink:href="#r0"/><use x="30" y="51" xlink:href="#r0"/><use x="33" y="51" xlink:href="#r0"/><use x="48" y="51" xlink:href="#r0"/><use x="54" y="51" xlink:href="#r0"/><use x="57" y="51" xlink:href="#r0"/><use x="60" y="51" xlink:href="#r0"/><use x="69" y="51" xlink:href="#r0"/><use x="87" y="51" xlink:href="#r0"/><use x="90" y="51" xlink:href="#r0"/><use x="93" y="51" xlink:href="#r0"/><use x="99" y="51" xlink:href="#r0"/><use x="102" y="51" xlink:href="#r0"/><use x="108" y="51" xlink:href="#r0"/><use x="114" y="51" xlink:href="#r0"/><use x="117" y="51" xlink:href="#r0"/><use x="15" y="54" xlink:href="#r0"/><use x="21" y="54" xlink:href="#r0"/><use x="36" y="54" xlink:href="#r0"/><use x="42" y="54" xlink:href="#r0"/><use x="54" y="54" xlink:href="#r0"/><use x="57" y="54" xlink:href="#r0"/><use x="69" y="54" xlink:href="#r0"/><use x="72" y="54" xlink:href="#r0"/><use x="75" y="54" xlink:href="#r0"/><use x="87" y="54" xlink:href="#r0"/><use x="90" y="54" xlink:href="#r0"/><use x="96" y="54" xlink:href="#r0"/><use x="99" y="54" xlink:href="#r0"/><use x="114" y="54" xlink:href="#r0"/><use x="117" y="54" xlink:href="#r0"/><use x="15" y="57" xlink:href="#r0"/><use x="27" y="57" xlink:href="#r0"/><use x="30" y="57" xlink:href="#r0"/><use x="33" y="57" xlink:href="#r0"/><use x="42" y="57" xlink:href="#r0"/><use x="45" y="57" xlink:href="#r0"/><use x="51" y="57" xlink:href="#r0"/><use x="60" y="57" xlink:href="#r0"/><use x="66" y="57" xlink:href="#r0"/><use x="72" y="57" xlink:href="#r0"/><use x="75" y="57" xlink:href="#r0"/><use x="78" y="57" xlink:href="#r0"/><use x="81" y="57" xlink:href="#r0"/><use x="84" y="57" xlink:href="#r0"/><use x="96" y="57" xlink:href="#r0"/><use x="99" y="57" xlink:href="#r0"/><use x="105" y="57" xlink:href="#r0"/><use x="108" y="57" xlink:href="#r0"/><use x="111" y="57" xlink:href="#r0"/><use x="15" y="60" xlink:href="#r0"/><use x="30" y="60" xlink:href="#r0"/><use x="33" y="60" xlink:href="#r0"/><use x="36" y="60" xlink:href="#r0"/><use x="39" y="60" xlink:href="#r0"/><use x="42" y="60" xlink:href="#r0"/><use x="51" y="60" xlink:href="#r0"/><use x="57" y="60" xlink:href="#r0"/><use x="66" y="60" xlink:href="#r0"/><use x="78" y="60" xlink:href="#r0"/><use x="81" y="60" xlink:href="#r0"/><use x="87" y="60" xlink:href="#r0"/><use x="96" y="60" xlink:href="#r0"/><use x="102" y="60" xlink:href="#r0"/><use x="108" y="60" xlink:href="#r0"/><use x="12" y="63" xlink:href="#r0"/><use x="15" y="63" xlink:href="#r0"/><use x="27" y="63" xlink:href="#r0"/><use x="45" y="63" xlink:href="#r0"/><use x="48" y="63" xlink:href="#r0"/><use x="54" y="63" xlink:href="#r0"/><use x="57" y="63" xlink:href="#r0"/><use x="60" y="63" xlink:href="#r0"/><use x="63" y="63" xlink:href="#r0"/><use x="69" y="63" xlink:href="#r0"/><use x="72" y="63" xlink:href="#r0"/><use x="81" y="63" xlink:href="#r0"/><use x="90" y="63" xlink:href="#r0"/><use x="99" y="63" xlink:href="#r0"/><use x="102" y="63" xlink:href="#r0"/><use x="114" y="63" xlink:href="#r0"/><use x="117" y="63" xlink:href="#r0"/><use x="9" y="66" xlink:href="#r0"/><use x="12" y="66" xlink:href="#r0"/><use x="15" y="66" xlink:href="#r0"/><use x="18" y="66" xlink:href="#r0"/><use x="24" y="66" xlink:href="#r0"/><use x="33" y="66" xlink:href="#r0"/><use x="36" y="66" xlink:href="#r0"/><use x="42" y="66" xlink:href="#r0"/><use x="45" y="66" xlink:href="#r0"/><use x="54" y="66" xlink:href="#r0"/><use x="57" y="66" xlink:href="#r0"/><use x="63" y="66" xlink:href="#r0"/><use x="66" y="66" xlink:href="#r0"/><use x="72" y="66" xlink:href="#r0"/><use x="81" y="66" xlink:href="#r0"/><use x="87" y="66" xlink:href="#r0"/><use x="93" y="66" xlink:href="#r0"/><use x="96" y="66" xlink:href="#r0"/><use x="102" y="66" xlink:href="#r0"/><use x="105" y="66" xlink:href="#r0"/><use x="9" y="69" xlink:href="#r0"/><use x="12" y="69" xlink:href="#r0"/><use x="18" y="69" xlink:href="#r0"/><use x="21" y="69" xlink:href="#r0"/><use x="24" y="69" xlink:href="#r0"/><use x="27" y="69" xlink:href="#r0"/><use x="30" y="69" xlink:href="#r0"/><use x="48" y="69" xlink:href="#r0"/><use x="51" y="69" xlink:href="#r0"/><use x="54" y="69" xlink:href="#r0"/><use x="57" y="69" xlink:href="#r0"/><use x="60" y="69" xlink:href="#r0"/><use x="72" y="69" xlink:href="#r0"/><use x="75" y="69" xlink:href="#r0"/><use x="78" y="69" xlink:href="#r0"/><use x="84" y="69" xlink:href="#r0"/><use x="96" y="69" xlink:href="#r0"/><use x="99" y="69" xlink:href="#r0"/><use x="108" y="69" xlink:href="#r0"/><use x="111" y="69" xlink:href="#r0"/><use x="114" y="69" xlink:href="#r0"/><use x="12" y="72" xlink:href="#r0"/><use x="15" y="72" xlink:href="#r0"/><use x="21" y="72" xlink:href="#r0"/><use x="24" y="72" xlink:href="#r0"/><use x="30" y="72" xlink:href="#r0"/><use x="42" y="72" xlink:href="#r0"/><use x="57" y="72" xlink:href="#r0"/><use x="60" y="72" xlink:href="#r0"/><use x="63" y="72" xlink:href="#r0"/><use x="69" y="72" xlink:href="#r0"/><use x="72" y="72" xlink:href="#r0"/><use x="78" y="72" xlink:href="#r0"/><use x="81" y="72" xlink:href="#r0"/><use x="87" y="72" xlink:href="#r0"/><use x="102" y="72" xlink:href="#r0"/><use x="108" y="72" xlink:href="#r0"/><use x="111" y="72" xlink:href="#r0"/><use x="9" y="75" xlink:href="#r0"/><use x="12" y="75" xlink:href="#r0"/><use x="15" y="75" xlink:href="#r0"/><use x="24" y="75" xlink:href="#r0"/><use x="27" y="75" xlink:href="#r0"/><use x="33" y="75" xlink:href="#r0"/><use x="36" y="75" xlink:href="#r0"/><use x="45" y="75" xlink:href="#r0"/><use x="51" y="75" xlink:href="#r0"/><use x="54" y="75" xlink:href="#r0"/><use x="57" y="75" xlink:href="#r0"/><use x="69" y="75" xlink:href="#r0"/><use x="72" y="75" xlink:href="#r0"/><use x="87" y="75" xlink:href="#r0"/><use x="90" y="75" xlink:href="#r0"/><use x="93" y="75" xlink:href="#r0"/><use x="99" y="75" xlink:href="#r0"/><use x="111" y="75" xlink:href="#r0"/><use x="114" y="75" xlink:href="#r0"/><use x="117" y="75" xlink:href="#r0"/><use x="15" y="78" xlink:href="#r0"/><use x="24" y="78" xlink:href="#r0"/><use x="36" y="78" xlink:href="#r0"/><use x="39" y="78" xlink:href="#r0"/><use x="45" y="78" xlink:href="#r0"/><use x="51" y="78" xlink:href="#r0"/><use x="69" y="78" xlink:href="#r0"/><use x="72" y="78" xlink:href="#r0"/><use x="75" y="78" xlink:href="#r0"/><use x="81" y="78" xlink:href="#r0"/><use x="87" y="78" xlink:href="#r0"/><use x="96" y="78" xlink:href="#r0"/><use x="99" y="78" xlink:href="#r0"/><use x="108" y="78" xlink:href="#r0"/><use x="114" y="78" xlink:href="#r0"/><use x="117" y="78" xlink:href="#r0"/><use x="9" y="81" xlink:href="#r0"/><use x="18" y="81" xlink:href="#r0"/><use x="21" y="81" xlink:href="#r0"/><use x="27" y="81" xlink:href="#r0"/><use x="30" y="81" xlink:href="#r0"/><use x="33" y="81" xlink:href="#r0"/><use x="36" y="81" xlink:href="#r0"/><use x="48" y="81" xlink:href="#r0"/><use x="51" y="81" xlink:href="#r0"/><use x="54" y="81" xlink:href="#r0"/><use x="57" y="81" xlink:href="#r0"/><use x="60" y="81" xlink:href="#r0"/><use x="66" y="81" xlink:href="#r0"/><use x="72" y="81" xlink:href="#r0"/><use x="75" y="81" xlink:href="#r0"/><use x="84" y="81" xlink:href="#r0"/><use x="90" y="81" xlink:href="#r0"/><use x="93" y="81" xlink:href="#r0"/><use x="96" y="81" xlink:href="#r0"/><use x="99" y="81" xlink:href="#r0"/><use x="105" y="81" xlink:href="#r0"/><use x="108" y="81" xlink:href="#r0"/><use x="111" y="81" xlink:href="#r0"/><use x="117" y="81" xlink:href="#r0"/><use x="9" y="84" xlink:href="#r0"/><use x="15" y="84" xlink:href="#r0"/><use x="21" y="84" xlink:href="#r0"/><use x="24" y="84" xlink:href="#r0"/><use x="33" y="84" xlink:href="#r0"/><use x="39" y="84" xlink:href="#r0"/><use x="51" y="84" xlink:href="#r0"/><use x="54" y="84" xlink:href="#r0"/><use x="57" y="84" xlink:href="#r0"/><use x="63" y="84" xlink:href="#r0"/><use x="66" y="84" xlink:href="#r0"/><use x="72" y="84" xlink:href="#r0"/><use x="75" y="84" xlink:href="#r0"/><use x="78" y="84" xlink:href="#r0"/><use x="81" y="84" xlink:href="#r0"/><use x="84" y="84" xlink:href="#r0"/><use x="87" y="84" xlink:href="#r0"/><use x="90" y="84" xlink:href="#r0"/><use x="93" y="84" xlink:href="#r0"/><use x="108" y="84" xlink:href="#r0"/><use x="9" y="87" xlink:href="#r0"/><use x="15" y="87" xlink:href="#r0"/><use x="18" y="87" xlink:href="#r0"/><use x="21" y="87" xlink:href="#r0"/><use x="27" y="87" xlink:href="#r0"/><use x="30" y="87" xlink:href="#r0"/><use x="36" y="87" xlink:href="#r0"/><use x="45" y="87" xlink:href="#r0"/><use x="48" y="87" xlink:href="#r0"/><use x="54" y="87" xlink:href="#r0"/><use x="63" y="87" xlink:href="#r0"/><use x="72" y="87" xlink:href="#r0"/><use x="75" y="87" xlink:href="#r0"/><use x="81" y="87" xlink:href="#r0"/><use x="90" y="87" xlink:href="#r0"/><use x="108" y="87" xlink:href="#r0"/><use x="114" y="87" xlink:href="#r0"/><use x="117" y="87" xlink:href="#r0"/><use x="9" y="90" xlink:href="#r0"/><use x="15" y="90" xlink:href="#r0"/><use x="24" y="90" xlink:href="#r0"/><use x="30" y="90" xlink:href="#r0"/><use x="45" y="90" xlink:href="#r0"/><use x="51" y="90" xlink:href="#r0"/><use x="72" y="90" xlink:href="#r0"/><use x="81" y="90" xlink:href="#r0"/><use x="93" y="90" xlink:href="#r0"/><use x="99" y="90" xlink:href="#r0"/><use x="105" y="90" xlink:href="#r0"/><use x="114" y="90" xlink:href="#r0"/><use x="117" y="90" xlink:href="#r0"/><use x="9" y="93" xlink:href="#r0"/><use x="15" y="93" xlink:href="#r0"/><use x="18" y="93" xlink:href="#r0"/><use x="27" y="93" xlink:href="#r0"/><use x="30" y="93" xlink:href="#r0"/><use x="36" y="93" xlink:href="#r0"/><use x="45" y="93" xlink:href="#r0"/><use x="48" y="93" xlink:href="#r0"/><use x="51" y="93" xlink:href="#r0"/><use x="57" y="93" xlink:href="#r0"/><use x="60" y="93" xlink:href="#r0"/><use x="66" y="93" xlink:href="#r0"/><use x="69" y="93" xlink:href="#r0"/><use x="72" y="93" xlink:href="#r0"/><use x="75" y="93" xlink:href="#r0"/><use x="84" y="93" xlink:href="#r0"/><use x="93" y="93" xlink:href="#r0"/><use x="96" y="93" xlink:href="#r0"/><use x="99" y="93" xlink:href="#r0"/><use x="102" y="93" xlink:href="#r0"/><use x="105" y="93" xlink:href="#r0"/><use x="108" y="93" xlink:href="#r0"/><use x="114" y="93" xlink:href="#r0"/><use x="33" y="96" xlink:href="#r0"/><use x="39" y="96" xlink:href="#r0"/><use x="42" y="96" xlink:href="#r0"/><use x="45" y="96" xlink:href="#r0"/><use x="51" y="96" xlink:href="#r0"/><use x="69" y="96" xlink:href="#r0"/><use x="72" y="96" xlink:href="#r0"/><use x="75" y="96" xlink:href="#r0"/><use x="78" y="96" xlink:href="#r0"/><use x="81" y="96" xlink:href="#r0"/><use x="87" y="96" xlink:href="#r0"/><use x="90" y="96" xlink:href="#r0"/><use x="93" y="96" xlink:href="#r0"/><use x="105" y="96" xlink:href="#r0"/><use x="108" y="96" xlink:href="#r0"/><use x="111" y="96" xlink:href="#r0"/><use x="117" y="96" xlink:href="#r0"/><use x="9" y="99" xlink:href="#r0"/><use x="12" y="99" xlink:href="#r0"/><use x="15" y="99" xlink:href="#r0"/><use x="18" y="99" xlink:href="#r0"/><use x="21" y="99" xlink:href="#r0"/><use x="24" y="99" xlink:href="#r0"/><use x="27" y="99" xlink:href="#r0"/><use x="33" y="99" xlink:href="#r0"/><use x="36" y="99" xlink:href="#r0"/><use x="39" y="99" xlink:href="#r0"/><use x="45" y="99" xlink:href="#r0"/><use x="51" y="99" xlink:href="#r0"/><use x="54" y="99" xlink:href="#r0"/><use x="57" y="99" xlink:href="#r0"/><use x="69" y="99" xlink:href="#r0"/><use x="72" y="99" xlink:href="#r0"/><use x="75" y="99" xlink:href="#r0"/><use x="81" y="99" xlink:href="#r0"/><use x="93" y="99" xlink:href="#r0"/><use x="99" y="99" xlink:href="#r0"/><use x="105" y="99" xlink:href="#r0"/><use x="108" y="99" xlink:href="#r0"/><use x="114" y="99" xlink:href="#r0"/><use x="117" y="99" xlink:href="#r0"/><use x="9" y="102" xlink:href="#r0"/><use x="27" y="102" xlink:href="#r0"/><use x="36" y="102" xlink:href="#r0"/><use x="42" y="102" xlink:href="#r0"/><use x="45" y="102" xlink:href="#r0"/><use x="51" y="102" xlink:href="#r0"/><use x="54" y="102" xlink:href="#r0"/><use x="57" y="102" xlink:href="#r0"/><use x="63" y="102" xlink:href="#r0"/><use x="72" y="102" xlink:href="#r0"/><use x="75" y="102" xlink:href="#r0"/><use x="78" y="102" xlink:href="#r0"/><use x="81" y="102" xlink:href="#r0"/><use x="90" y="102" xlink:href="#r0"/><use x="93" y="102" xlink:href="#r0"/><use x="105" y="102" xlink:href="#r0"/><use x="9" y="105" xlink:href="#r0"/><use x="15" y="105" xlink:href="#r0"/><use x="18" y="105" xlink:href="#r0"/><use x="21" y="105" xlink:href="#r0"/><use x="27" y="105" xlink:href="#r0"/><use x="33" y="105" xlink:href="#r0"/><use x="39" y="105" xlink:href="#r0"/><use x="42" y="105" xlink:href="#r0"/><use x="48" y="105" xlink:href="#r0"/><use x="51" y="105" xlink:href="#r0"/><use x="54" y="105" xlink:href="#r0"/><use x="60" y="105" xlink:href="#r0"/><use x="66" y="105" xlink:href="#r0"/><use x="72" y="105" xlink:href="#r0"/><use x="75" y="105" xlink:href="#r0"/><use x="84" y="105" xlink:href="#r0"/><use x="90" y="105" xlink:href="#r0"/><use x="93" y="105" xlink:href="#r0"/><use x="96" y="105" xlink:href="#r0"/><use x="99" y="105" xlink:href="#r0"/><use x="102" y="105" xlink:href="#r0"/><use x="105" y="105" xlink:href="#r0"/><use x="108" y="105" xlink:href="#r0"/><use x="111" y="105" xlink:href="#r0"/><use x="9" y="108" xlink:href="#r0"/><use x="15" y="108" xlink:href="#r0"/><use x="18" y="108" xlink:href="#r0"/><use x="21" y="108" xlink:href="#r0"/><use x="27" y="108" xlink:href="#r0"/><use x="33" y="108" xlink:href="#r0"/><use x="42" y="108" xlink:href="#r0"/><use x="45" y="108" xlink:href="#r0"/><use x="48" y="108" xlink:href="#r0"/><use x="57" y="108" xlink:href="#r0"/><use x="60" y="108" xlink:href="#r0"/><use x="63" y="108" xlink:href="#r0"/><use x="69" y="108" xlink:href="#r0"/><use x="78" y="108" xlink:href="#r0"/><use x="81" y="108" xlink:href="#r0"/><use x="87" y="108" xlink:href="#r0"/><use x="90" y="108" xlink:href="#r0"/><use x="99" y="108" xlink:href="#r0"/><use x="105" y="108" xlink:href="#r0"/><use x="108" y="108" xlink:href="#r0"/><use x="111" y="108" xlink:href="#r0"/><use x="9" y="111" xlink:href="#r0"/><use x="15" y="111" xlink:href="#r0"/><use x="18" y="111" xlink:href="#r0"/><use x="21" y="111" xlink:href="#r0"/><use x="27" y="111" xlink:href="#r0"/><use x="33" y="111" xlink:href="#r0"/><use x="45" y="111" xlink:href="#r0"/><use x="51" y="111" xlink:href="#r0"/><use x="54" y="111" xlink:href="#r0"/><use x="63" y="111" xlink:href="#r0"/><use x="69" y="111" xlink:href="#r0"/><use x="75" y="111" xlink:href="#r0"/><use x="84" y="111" xlink:href="#r0"/><use x="90" y="111" xlink:href="#r0"/><use x="93" y="111" xlink:href="#r0"/><use x="102" y="111" xlink:href="#r0"/><use x="114" y="111" xlink:href="#r0"/><use x="117" y="111" xlink:href="#r0"/><use x="9" y="114" xlink:href="#r0"/><use x="27" y="114" xlink:href="#r0"/><use x="33" y="114" xlink:href="#r0"/><use x="57" y="114" xlink:href="#r0"/><use x="69" y="114" xlink:href="#r0"/><use x="72" y="114" xlink:href="#r0"/><use x="90" y="114" xlink:href="#r0"/><use x="102" y="114" xlink:href="#r0"/><use x="105" y="114" xlink:href="#r0"/><use x="117" y="114" xlink:href="#r0"/><use x="9" y="117" xlink:href="#r0"/><use x="12" y="117" xlink:href="#r0"/><use x="15" y="117" xlink:href="#r0"/><use x="18" y="117" xlink:href="#r0"/><use x="21" y="117" xlink:href="#r0"/><use x="24" y="117" xlink:href="#r0"/><use x="27" y="117" xlink:href="#r0"/><use x="33" y="117" xlink:href="#r0"/><use x="36" y="117" xlink:href="#r0"/><use x="48" y="117" xlink:href="#r0"/><use x="51" y="117" xlink:href="#r0"/><use x="54" y="117" xlink:href="#r0"/><use x="57" y="117" xlink:href="#r0"/><use x="60" y="117" xlink:href="#r0"/><use x="66" y="117" xlink:href="#r0"/><use x="78" y="117" xlink:href="#r0"/><use x="81" y="117" xlink:href="#r0"/><use x="84" y="117" xlink:href="#r0"/><use x="99" y="117" xlink:href="#r0"/><use x="102" y="117" xlink:href="#r0"/><use x="108" y="117" xlink:href="#r0"/><use x="111" y="117" xlink:href="#r0"/><use x="114" y="117" xlink:href="#r0"/><use x="117" y="117" xlink:href="#r0"/></svg>