<svg xmlns="http://www.w3.org/2000/svg" xmlns:xlink="http://www.w3.org/1999/xlink" version="1.1" width="120px" height="120px" viewBox="0 0 120 120"><defs><rect id="r0" width="3" height="3" fill="#000000"/></defs><rect x="0" y="0" width="120" height="120" fill="#fefefe"/><use x="10" y="10" xlink:href="#r0"/><use x="13" y="10" xlink:href="#r0"/><use x="16" y="10" xlink:href="#r0"/><use x="19" y="10" xlink:href="#r0"/><use x="22" y="10" xlink:href="#r0"/><use x="25" y="10" xlink:href="#r0"/><use x="28" y="10" xlink:href="#r0"/><use x="34" y="10" xlink:href="#r0"/><use x="52" y="10" xlink:href="#r0"/><use x="58" y="10" xlink:href="#r0"/><use x="70" y="10" xlink:href="#r0"/><use x="73" y="10" xlink:href="#r0"/><use x="79" y="10" xlink:href="#r0"/><use x="82" y="10" xlink:href="#r0"/><use x="88" y="10" xlink:href="#r0"/><use x="91" y="10" xlink:href="#r0"/><use x="94" y="10" xlink:href="#r0"/><use x="97" y="10" xlink:href="#r0"/><use x="100" y="10" xlink:href="#r0"/><use x="103" y="10" xlink:href="#r0"/><use x="106" y="10" xlink:href="#r0"/><use x="10" y="13" xlink:href="#r0"/><use x="28" y="13" xlink:href="#r0"/><use x="34" y="13" xlink:href="#r0"/><use x="43" y="13" xlink:href="#r0"/><use x="46" y="13" xlink:href="#r0"/><use x="49" y="13" xlink:href="#r0"/><use x="52" y="13" xlink:href="#r0"/><use x="58" y="13" xlink:href="#r0"/><use x="64" y="13" xlink:href="#r0"/><use x="67" y="13" xlink:href="#r0"/><use x="70" y="13" xlink:href="#r0"/><use x="73" y="13" xlink:href="#r0"/><use x="76" y="13" xlink:href="#r0"/><use x="88" y="13" xlink:href="#r0"/><use x="106" y="13" xlink:href="#r0"/><use x="10" y="16" xlink:href="#r0"/><use x="16" y="16" xlink:href="#r0"/><use x="19" y="16" xlink:href="#r0"/><use x="22" y="16" xlink:href="#r0"/><use x="28" y="16" xlink:href="#r0"/><use x="34" y="16" xlink:href="#r0"/><use x="37" y="16" xlink:href="#r0"/><use x="46" y="16" xlink:href="#r0"/><use x="58" y="16" xlink:href="#r0"/><use x="61" y="16" xlink:href="#r0"/><use x="67" y="16" xlink:href="#r0"/><use x="73" y="16" xlink:href="#r0"/><use x="76" y="16" xlink:href="#r0"/><use x="88" y="16" xlink:href="#r0"/><use x="94" y="16" xlink:href="#r0"/><use x="97" y="16" xlink:href="#r0"/><use x="100" y="16" xlink:href="#r0"/><use x="106" y="16" xlink:href="#r0"/><use x="10" y="19" xlink:href="#r0"/><use x="16" y="19" xlink:href="#r0"/><use x="19" y="19" xlink:href="#r0"/><use x="22" y="19" xlink:href="#r0"/><use x="28" y="19" xlink:href="#r0"/><use x="34" y="19" xlink:href="#r0"/><use x="37" y="19" xlink:href="#r0"/><use x="40" y="19" xlink:href="#r0"/><use x="46" y="19" xlink:href="#r0"/><use x="52" y="19" xlink:href="#r0"/><use x="58" y="19" xlink:href="#r0"/><use x="70" y="19" xlink:href="#r0"/><use x="76" y="19" xlink:href="#r0"/><use x="79" y="19" xlink:href="#r0"/><use x="82" y="19" xlink:href="#r0"/><use x="88" y="19" xlink:href="#r0"/><use x="94" y="19" xlink:href="#r0"/><use x="97" y="19" xlink:href="#r0"/><use x="100" y="19" xlink:href="#r0"/><use x="106" y="19" xlink:href="#r0"/><use x="10" y="22" xlink:href="#r0"/><use x="16" y="22" xlink:href="#r0"/><use x="19" y="22" xlink:href="#r0"/><use x="22" y="22" xlink:href="#r0"/><use x="28" y="22" xlink:href="#r0"/><use x="37" y="22" xlink:href="#r0"/><use x="40" y="22" xlink:href="#r0"/><use x="46" y="22" xlink:href="#r0"/><use x="49" y="22" xlink:href="#r0"/><use x="52" y="22" xlink:href="#r0"/><use x="58" y="22" xlink:href="#r0"/><use x="70" y="22" xlink:href="#r0"/><use x="73" y="22" xlink:href="#r0"/><use x="88" y="22" xlink:href="#r0"/><use x="94" y="22" xlink:href="#r0"/><use x="97" y="22" xlink:href="#r0"/><use x="100" y="22" xlink:href="#r0"/><use x="106" y="22" xlink:href="#r0"/><use x="10" y="25" xlink:href="#r0"/><use x="28" y="25" xlink:href="#r0"/><use x="34" y="25" xlink:href="#r0"/><use x="37" y="25" xlink:href="#r0"/><use x="40" y="25" xlink:href="#r0"/><use x="49" y="25" xlink:href="#r0"/><use x="52" y="25" xlink:href="#r0"/><use x="64" y="25" xlink:href="#r0"/><use x="67" y="25" xlink:href="#r0"/><use x="82" y="25" xlink:href="#r0"/><use x="88" y="25" xlink:href="#r0"/><use x="106" y="25" xlink:href="#r0"/><use x="10" y="28" xlink:href="#r0"/><use x="13" y="28" xlink:href="#r0"/><use x="16" y="28" xlink:href="#r0"/><use x="19" y="28" xlink:href="#r0"/><use x="22" y="28" xlink:href="#r0"/><use x="25" y="28" xlink:href="#r0"/><use x="28" y="28" xlink:href="#r0"/><use x="34" y="28" xlink:href="#r0"/><use x="40" y="28" xlink:href="#r0"/><use x="46" y="28" xlink:href="#r0"/><use x="52" y="28" xlink:href="#r0"/><use x="58" y="28" xlink:href="#r0"/><use x="64" y="28" xlink:href="#r0"/><use x="70" y="28" xlink:href="#r0"/><use x="76" y="28" xlink:href="#r0"/><use x="82" y="28" xlink:href="#r0"/><use x="88" y="28" xlink:href="#r0"/><use x="91" y="28" xlink:href="#r0"/><use x="94" y="28" xlink:href="#r0"/><use x="97" y="28" xlink:href="#r0"/><use x="100" y="28" xlink:href="#r0"/><use x="103" y="28" xlink:href="#r0"/><use x="106" y="28" xlink:href="#r0"/><use x="40" y="31" xlink:href="#r0"/><use x="43" y="31" xlink:href="#r0"/><use x="52" y="31" xlink:href="#r0"/><use x="55" y="31" xlink:href="#r0"/><use x="58" y="31" xlink:href="#r0"/><use x="61" y="31" xlink:href="#r0"/><use x="64" y="31" xlink:href="#r0"/><use x="70" y="31" xlink:href="#r0"/><use x="73" y="31" xlink:href="#r0"/><use x="82" y="31" xlink:href="#r0"/><use x="10" y="34" xlink:href="#r0"/><use x="13" y="34" xlink:href="#r0"/><use x="22" y="34" xlink:href="#r0"/><use x="25" y="34" xlink:href="#r0"/><use x="28" y="34" xlink:href="#r0"/><use x="40" y="34" xlink:href="#r0"/><use x="46" y="34" xlink:href="#r0"/><use x="49" y="34" xlink:href="#r0"/><use x="61" y="34" xlink:href="#r0"/><use x="64" y="34" xlink:href="#r0"/><use x="70" y="34" xlink:href="#r0"/><use x="73" y="34" xlink:href="#r0"/><use x="79" y="34" xlink:href="#r0"/><use x="82" y="34" xlink:href="#r0"/><use x="91" y="34" xlink:href="#r0"/><use x="97" y="34" xlink:href="#r0"/><use x="100" y="34" xlink:href="#r0"/><use x="103" y="34" xlink:href="#r0"/><use x="106" y="34" xlink:href="#r0"/><use x="22" y="37" xlink:href="#r0"/><use x="31" y="37" xlink:href="#r0"/><use x="49" y="37" xlink:href="#r0"/><use x="55" y="37" xlink:href="#r0"/><use x="61" y="37" xlink:href="#r0"/><use x="70" y="37" xlink:href="#r0"/><use x="73" y="37" xlink:href="#r0"/><use x="79" y="37" xlink:href="#r0"/><use x="82" y="37" xlink:href="#r0"/><use x="85" y="37" xlink:href="#r0"/><use x="88" y="37" xlink:href="#r0"/><use x="91" y="37" xlink:href="#r0"/><use x="103" y="37" xlink:href="#r0"/><use x="13" y="40" xlink:href="#r0"/><use x="16" y="40" xlink:href="#r0"/><use x="22" y="40" xlink:href="#r0"/><use x="25" y="40" xlink:href="#r0"/><use x="28" y="40" xlink:href="#r0"/><use x="34" y="40" xlink:href="#r0"/><use x="37" y="40" xlink:href="#r0"/><use x="40" y="40" xlink:href="#r0"/><use x="52" y="40" xlink:href="#r0"/><use x="55" y="40" xlink:href="#r0"/><use x="61" y="40" xlink:href="#r0"/><use x="73" y="40" xlink:href="#r0"/><use x="79" y="40" xlink:href="#r0"/><use x="85" y="40" xlink:href="#r0"/><use x="88" y="40" xlink:href="#r0"/><use x="91" y="40" xlink:href="#r0"/><use x="94" y="40" xlink:href="#r0"/><use x="100" y="40" xlink:href="#r0"/><use x="103" y="40" xlink:href="#r0"/><use x="10" y="43" xlink:href="#r0"/><use x="16" y="43" xlink:href="#r0"/><use x="19" y="43" xlink:href="#r0"/><use x="22" y="43" xlink:href="#r0"/><use x="31" y="43" xlink:href="#r0"/><use x="34" y="43" xlink:href="#r0"/><use x="37" y="43" xlink:href="#r0"/><use x="46" y="43" xlink:href="#r0"/><use x="55" y="43" xlink:href="#r0"/><use x="58" y="43" xlink:href="#r0"/><use x="61" y="43" xlink:href="#r0"/><use x="67" y="43" xlink:href="#r0"/><use x="73" y="43" xlink:href="#r0"/><use x="79" y="43" xlink:href="#r0"/><use x="85" y="43" xlink:href="#r0"/><use x="91" y="43" xlink:href="#r0"/><use x="94" y="43" xlink:href="#r0"/><use x="103" y="43" xlink:href="#r0"/><use x="10" y="46" xlink:href="#r0"/><use x="16" y="46" xlink:href="#r0"/><use x="22" y="46" xlink:href="#r0"/><use x="25" y="46" xlink:href="#r0"/><use x="28" y="46" xlink:href="#r0"/><use x="31" y="46" xlink:href="#r0"/><use x="43" y="46" xlink:href="#r0"/><use x="46" y="46" xlink:href="#r0"/><use x="49" y="46" xlink:href="#r0"/><use x="61" y="46" xlink:href="#r0"/><use x="64" y="46" xlink:href="#r0"/><use x="67" y="46" xlink:href="#r0"/><use x="73" y="46" xlink:href="#r0"/><use x="79" y="46" xlink:href="#r0"/><use x="82" y="46" xlink:href="#r0"/><use x="88" y="46" xlink:href="#r0"/><use x="94" y="46" xlink:href="#r0"/><use x="103" y="46" xlink:href="#r0"/><use x="16" y="49" xlink:href="#r0"/><use x="19" y="49" xlink:href="#r0"/><use x="25" y="49" xlink:href="#r0"/><use x="34" y="49" xlink:href="#r0"/><use x="40" y="49" xlink:href="#r0"/><use x="46" y="49" xlink:href="#r0"/><use x="49" y="49" xlink:href="#r0"/><use x="58" y="49" xlink:href="#r0"/><use x="61" y="49" xlink:href="#r0"/><use x="64" y="49" xlink:href="#r0"/><use x="70" y="49" xlink:href="#r0"/><use x="76" y="49" xlink:href="#r0"/><use x="85" y="49" xlink:href="#r0"/><use x="100" y="49" xlink:href="#r0"/><use x="103" y="49" xlink:href="#r0"/><use x="10" y="52" xlink:href="#r0"/><use x="19" y="52" xlink:href="#r0"/><use x="22" y="52" xlink:href="#r0"/><use x="28" y="52" xlink:href="#r0"/><use x="43" y="52" xlink:href="#r0"/><use x="46" y="52" xlink:href="#r0"/><use x="52" y="52" xlink:href="#r0"/><use x="55" y="52" xlink:href="#r0"/><use x="58" y="52" xlink:href="#r0"/><use x="61" y="52" xlink:href="#r0"/><use x="64" y="52" xlink:href="#r0"/><use x="73" y="52" xlink:href="#r0"/><use x="76" y="52" xlink:href="#r0"/><use x="79" y="52" xlink:href="#r0"/><use x="91" y="52" xlink:href="#r0"/><use x="94" y="52" xlink:href="#r0"/><use x="100" y="52" xlink:href="#r0"/><use x="103" y="52" xlink:href="#r0"/><use x="10" y="55" xlink:href="#r0"/><use x="19" y="55" xlink:href="#r0"/><use x="22" y="55" xlink:href="#r0"/><use x="25" y="55" xlink:href="#r0"/><use x="31" y="55" xlink:href="#r0"/><use x="40" y="55" xlink:href="#r0"/><use x="46" y="55" xlink:href="#r0"/><use x="52" y="55" xlink:href="#r0"/><use x="61" y="55" xlink:href="#r0"/><use x="64" y="55" xlink:href="#r0"/><use x="73" y="55" xlink:href="#r0"/><use x="79" y="55" xlink:href="#r0"/><use x="85" y="55" xlink:href="#r0"/><use x="91" y="55" xlink:href="#r0"/><use x="106" y="55" xlink:href="#r0"/><use x="25" y="58" xlink:href="#r0"/><use x="28" y="58" xlink:href="#r0"/><use x="31" y="58" xlink:href="#r0"/><use x="34" y="58" xlink:href="#r0"/><use x="43" y="58" xlink:href="#r0"/><use x="46" y="58" xlink:href="#r0"/><use x="49" y="58" xlink:href="#r0"/><use x="55" y="58" xlink:href="#r0"/><use x="67" y="58" xlink:href="#r0"/><use x="73" y="58" xlink:href="#r0"/><use x="79" y="58" xlink:href="#r0"/><use x="82" y="58" xlink:href="#r0"/><use x="88" y="58" xlink:href="#r0"/><use x="94" y="58" xlink:href="#r0"/><use x="10" y="61" xlink:href="#r0"/><use x="25" y="61" xlink:href="#r0"/><use x="40" y="61" xlink:href="#r0"/><use x="43" y="61" xlink:href="#r0"/><use x="46" y="61" xlink:href="#r0"/><use x="52" y="61" xlink:href="#r0"/><use x="58" y="61" xlink:href="#r0"/><use x="61" y="61" xlink:href="#r0"/><use x="64" y="61" xlink:href="#r0"/><use x="70" y="61" xlink:href="#r0"/><use x="73" y="61" xlink:href="#r0"/><use x="76" y="61" xlink:href="#r0"/><use x="79" y="61" xlink:href="#r0"/><use x="82" y="61" xlink:href="#r0"/><use x="85" y="61" xlink:href="#r0"/><use x="91" y="61" xlink:href="#r0"/><use x="103" y="61" xlink:href="#r0"/><use x="13" y="64" xlink:href="#r0"/><use x="16" y="64" xlink:href="#r0"/><use x="22" y="64" xlink:href="#r0"/><use x="28" y="64" xlink:href="#r0"/><use x="31" y="64" xlink:href="#r0"/><use x="34" y="64" xlink:href="#r0"/><use x="43" y="64" xlink:href="#r0"/><use x="49" y="64" xlink:href="#r0"/><use x="52" y="64" xlink:href="#r0"/><use x="55" y="64" xlink:href="#r0"/><use x="61" y="64" xlink:href="#r0"/><use x="64" y="64" xlink:href="#r0"/><use x="73" y="64" xlink:href="#r0"/><use x="76" y="64" xlink:href="#r0"/><use x="79" y="64" xlink:href="#r0"/><use x="85" y="64" xlink:href="#r0"/><use x="97" y="64" xlink:href="#r0"/><use x="103" y="64" xlink:href="#r0"/><use x="13" y="67" xlink:href="#r0"/><use x="22" y="67" xlink:href="#r0"/><use x="34" y="67" xlink:href="#r0"/><use x="37" y="67" xlink:href="#r0"/><use x="40" y="67" xlink:href="#r0"/><use x="43" y="67" xlink:href="#r0"/><use x="55" y="67" xlink:href="#r0"/><use x="58" y="67" xlink:href="#r0"/><use x="61" y="67" xlink:href="#r0"/><use x="64" y="67" xlink:href="#r0"/><use x="73" y="67" xlink:href="#r0"/><use x="79" y="67" xlink:href="#r0"/><use x="94" y="67" xlink:href="#r0"/><use x="103" y="67" xlink:href="#r0"/><use x="10" y="70" xlink:href="#r0"/><use x="19" y="70" xlink:href="#r0"/><use x="22" y="70" xlink:href="#r0"/><use x="25" y="70" xlink:href="#r0"/><use x="28" y="70" xlink:href="#r0"/><use x="34" y="70" xlink:href="#r0"/><use x="40" y="70" xlink:href="#r0"/><use x="43" y="70" xlink:href="#r0"/><use x="52" y="70" xlink:href="#r0"/><use x="55" y="70" xlink:href="#r0"/><use x="73" y="70" xlink:href="#r0"/><use x="79" y="70" xlink:href="#r0"/><use x="82" y="70" xlink:href="#r0"/><use x="88" y="70" xlink:href="#r0"/><use x="94" y="70" xlink:href="#r0"/><use x="103" y="70" xlink:href="#r0"/><use x="106" y="70" xlink:href="#r0"/><use x="10" y="73" xlink:href="#r0"/><use x="13" y="73" xlink:href="#r0"/><use x="16" y="73" xlink:href="#r0"/><use x="19" y="73" xlink:href="#r0"/><use x="34" y="73" xlink:href="#r0"/><use x="37" y="73" xlink:href="#r0"/><use x="40" y="73" xlink:href="#r0"/><use x="43" y="73" xlink:href="#r0"/><use x="46" y="73" xlink:href="#r0"/><use x="52" y="73" xlink:href="#r0"/><use x="58" y="73" xlink:href="#r0"/><use x="70" y="73" xlink:href="#r0"/><use x="76" y="73" xlink:href="#r0"/><use x="79" y="73" xlink:href="#r0"/><use x="91" y="73" xlink:href="#r0"/><use x="100" y="73" xlink:href="#r0"/><use x="103" y="73" xlink:href="#r0"/><use x="16" y="76" xlink:href="#r0"/><use x="19" y="76" xlink:href="#r0"/><use x="22" y="76" xlink:href="#r0"/><use x="28" y="76" xlink:href="#r0"/><use x="31" y="76" xlink:href="#r0"/><use x="40" y="76" xlink:href="#r0"/><use x="43" y="76" xlink:href="#r0"/><use x="46" y="76" xlink:href="#r0"/><use x="52" y="76" xlink:href="#r0"/><use x="55" y="76" xlink:href="#r0"/><use x="58" y="76" xlink:href="#r0"/><use x="70" y="76" xlink:href="#r0"/><use x="73" y="76" xlink:href="#r0"/><use x="76" y="76" xlink:href="#r0"/><use x="79" y="76" xlink:href="#r0"/><use x="82" y="76" xlink:href="#r0"/><use x="94" y="76" xlink:href="#r0"/><use x="103" y="76" xlink:href="#r0"/><use x="16" y="79" xlink:href="#r0"/><use x="19" y="79" xlink:href="#r0"/><use x="25" y="79" xlink:href="#r0"/><use x="31" y="79" xlink:href="#r0"/><use x="43" y="79" xlink:href="#r0"/><use x="46" y="79" xlink:href="#r0"/><use x="52" y="79" xlink:href="#r0"/><use x="61" y="79" xlink:href="#r0"/><use x="64" y="79" xlink:href="#r0"/><use x="70" y="79" xlink:href="#r0"/><use x="73" y="79" xlink:href="#r0"/><use x="76" y="79" xlink:href="#r0"/><use x="79" y="79" xlink:href="#r0"/><use x="88" y="79" xlink:href="#r0"/><use x="91" y="79" xlink:href="#r0"/><use x="103" y="79" xlink:href="#r0"/><use x="10" y="82" xlink:href="#r0"/><use x="13" y="82" xlink:href="#r0"/><use x="22" y="82" xlink:href="#r0"/><use x="28" y="82" xlink:href="#r0"/><use x="31" y="82" xlink:href="#r0"/><use x="34" y="82" xlink:href="#r0"/><use x="43" y="82" xlink:href="#r0"/><use x="46" y="82" xlink:href="#r0"/><use x="49" y="82" xlink:href="#r0"/><use x="67" y="82" xlink:href="#r0"/><use x="73" y="82" xlink:href="#r0"/><use x="82" y="82" xlink:href="#r0"/><use x="85" y="82" xlink:href="#r0"/><use x="88" y="82" xlink:href="#r0"/><use x="91" y="82" xlink:href="#r0"/><use x="94" y="82" xlink:href="#r0"/><use x="34" y="85" xlink:href="#r0"/><use x="43" y="85" xlink:href="#r0"/><use x="46" y="85" xlink:href="#r0"/><use x="52" y="85" xlink:href="#r0"/><use x="58" y="85" xlink:href="#r0"/><use x="70" y="85" xlink:href="#r0"/><use x="76" y="85" xlink:href="#r0"/><use x="82" y="85" xlink:href="#r0"/><use x="94" y="85" xlink:href="#r0"/><use x="103" y="85" xlink:href="#r0"/><use x="106" y="85" xlink:href="#r0"/><use x="10" y="88" xlink:href="#r0"/><use x="13" y="88" xlink:href="#r0"/><use x="16" y="88" xlink:href="#r0"/><use x="19" y="88" xlink:href="#r0"/><use x="22" y="88" xlink:href="#r0"/><use x="25" y="88" xlink:href="#r0"/><use x="28" y="88" xlink:href="#r0"/><use x="37" y="88" xlink:href="#r0"/><use x="40" y="88" xlink:href="#r0"/><use x="43" y="88" xlink:href="#r0"/><use x="46" y="88" xlink:href="#r0"/><use x="55" y="88" xlink:href="#r0"/><use x="61" y="88" xlink:href="#r0"/><use x="64" y="88" xlink:href="#r0"/><use x="70" y="88" xlink:href="#r0"/><use x="82" y="88" xlink:href="#r0"/><use x="88" y="88" xlink:href="#r0"/><use x="94" y="88" xlink:href="#r0"/><use x="100" y="88" xlink:href="#r0"/><use x="103" y="88" xlink:href="#r0"/><use x="10" y="91" xlink:href="#r0"/><use x="28" y="91" xlink:href="#r0"/><use x="34" y="91" xlink:href="#r0"/><use x="37" y="91" xlink:href="#r0"/><use x="40" y="91" xlink:href="#r0"/><use x="43" y="91" xlink:href="#r0"/><use x="52" y="91" xlink:href="#r0"/><use x="55" y="91" xlink:href="#r0"/><use x="58" y="91" xlink:href="#r0"/><use x="61" y="91" xlink:href="#r0"/><use x="73" y="91" xlink:href="#r0"/><use x="82" y="91" xlink:href="#r0"/><use x="94" y="91" xlink:href="#r0"/><use x="97" y="91" xlink:href="#r0"/><use x="10" y="94" xlink:href="#r0"/><use x="16" y="94" xlink:href="#r0"/><use x="19" y="94" xlink:href="#r0"/><use x="22" y="94" xlink:href="#r0"/><use x="28" y="94" xlink:href="#r0"/><use x="34" y="94" xlink:href="#r0"/><use x="46" y="94" xlink:href="#r0"/><use x="49" y="94" xlink:href="#r0"/><use x="61" y="94" xlink:href="#r0"/><use x="64" y="94" xlink:href="#r0"/><use x="67" y="94" xlink:href="#r0"/><use x="73" y="94" xlink:href="#r0"/><use x="82" y="94" xlink:href="#r0"/><use x="85" y="94" xlink:href="#r0"/><use x="88" y="94" xlink:href="#r0"/><use x="91" y="94" xlink:href="#r0"/><use x="94" y="94" xlink:href="#r0"/><use x="103" y="94" xlink:href="#r0"/><use x="10" y="97" xlink:href="#r0"/><use x="16" y="97" xlink:href="#r0"/><use x="19" y="97" xlink:href="#r0"/><use x="22" y="97" xlink:href="#r0"/><use x="28" y="97" xlink:href="#r0"/><use x="37" y="97" xlink:href="#r0"/><use x="40" y="97" xlink:href="#r0"/><use x="58" y="97" xlink:href="#r0"/><use x="64" y="97" xlink:href="#r0"/><use x="70" y="97" xlink:href="#r0"/><use x="76" y="97" xlink:href="#r0"/><use x="79" y="97" xlink:href="#r0"/><use x="88" y="97" xlink:href="#r0"/><use x="94" y="97" xlink:href="#r0"/><use x="100" y="97" xlink:href="#r0"/><use x="103" y="97" xlink:href="#r0"/><use x="106" y="97" xlink:href="#r0"/><use x="10" y="100" xlink:href="#r0"/><use x="16" y="100" xlink:href="#r0"/><use x="19" y="100" xlink:href="#r0"/><use x="22" y="100" xlink:href="#r0"/><use x="28" y="100" xlink:href="#r0"/><use x="37" y="100" xlink:href="#r0"/><use x="40" y="100" xlink:href="#r0"/><use x="43" y="100" xlink:href="#r0"/><use x="46" y="100" xlink:href="#r0"/><use x="55" y="100" xlink:href="#r0"/><use x="58" y="100" xlink:href="#r0"/><use x="61" y="100" xlink:href="#r0"/><use x="70" y="100" xlink:href="#r0"/><use x="73" y="100" xlink:href="#r0"/><use x="76" y="100" xlink:href="#r0"/><use x="79" y="100" xlink:href="#r0"/><use x="88" y="100" xlink:href="#r0"/><use x="94" y="100" xlink:href="#r0"/><use x="97" y="100" xlink:href="#r0"/><use x="103" y="100" xlink:href="#r0"/><use x="10" y="103" xlink:href="#r0"/><use x="28" y="103" xlink:href="#r0"/><use x="34" y="103" xlink:href="#r0"/><use x="40" y="103" xlink:href="#r0"/><use x="43" y="103" xlink:href="#r0"/><use x="46" y="103" xlink:href="#r0"/><use x="58" y="103" xlink:href="#r0"/><use x="61" y="103" xlink:href="#r0"/><use x="70" y="103" xlink:href="#r0"/><use x="73" y="103" xlink:href="#r0"/><use x="82" y="103" xlink:href="#r0"/><use x="91" y="103" xlink:href="#r0"/><use x="94" y="103" xlink:href="#r0"/><use x="10" y="106" xlink:href="#r0"/><use x="13" y="106" xlink:href="#r0"/><use x="16" y="106" xlink:href="#r0"/><use x="19" y="106" xlink:href="#r0"/><use x="22" y="106" xlink:href="#r0"/><use x="25" y="106" xlink:href="#r0"/><use x="28" y="106" xlink:href="#r0"/><use x="34" y="106" xlink:href="#r0"/><use x="43" y="106" xlink:href="#r0"/><use x="46" y="106" xlink:href="#r0"/><use x="52" y="106" xlink:href="#r0"/><use x="58" y="106" xlink:href="#r0"/><use x="67" y="106" xlink:href="#r0"/><use x="73" y="106" xlink:href="#r0"/><use x="79" y="106" xlink:href="#r0"/><use x="82" y="106" xlink:href="#r0"/><use x="88" y="106" xlink:href="#r0"/><use x="94" y="106" xlink:href="#r0"/><use x="100" y="106" xlink:href="#r0"/><use x="106" y="106" xlink:href="#r0"/></svg>