<svg xmlns="http://www.w3.org/2000/svg" xmlns:xlink="http://www.w3.org/1999/xlink" version="1.1" width="120px" height="120px" viewBox="0 0 120 120"><defs><rect id="r0" width="3" height="3" fill="#000000"/></defs><rect x="0" y="0" width="120" height="120" fill="#fefefe"/><use x="4" y="4" xlink:href="#r0"/><use x="7" y="4" xlink:href="#r0"/><use x="10" y="4" xlink:href="#r0"/><use x="13" y="4" xlink:href="#r0"/><use x="16" y="4" xlink:href="#r0"/><use x="19" y="4" xlink:href="#r0"/><use x="22" y="4" xlink:href="#r0"/><use x="28" y="4" xlink:href="#r0"/><use x="34" y="4" xlink:href="#r0"/><use x="40" y="4" xlink:href="#r0"/><use x="52" y="4" xlink:href="#r0"/><use x="61" y="4" xlink:href="#r0"/><use x="82" y="4" xlink:href="#r0"/><use x="94" y="4" xlink:href="#r0"/><use x="97" y="4" xlink:href="#r0"/><use x="100" y="4" xlink:href="#r0"/><use x="103" y="4" xlink:href="#r0"/><use x="106" y="4" xlink:href="#r0"/><use x="109" y="4" xlink:href="#r0"/><use x="112" y="4" xlink:href="#r0"/><use x="4" y="7" xlink:href="#r0"/><use x="22" y="7" xlink:href="#r0"/><use x="31" y="7" xlink:href="#r0"/><use x="34" y="7" xlink:href="#r0"/><use x="37" y="7" xlink:href="#r0"/><use x="40" y="7" xlink:href="#r0"/><use x="55" y="7" xlink:href="#r0"/><use x="70" y="7" xlink:href="#r0"/><use x="73" y="7" xlink:href="#r0"/><use x="82" y="7" xlink:href="#r0"/><use x="88" y="7" xlink:href="#r0"/><use x="94" y="7" xlink:href="#r0"/><use x="112" y="7" xlink:href="#r0"/><use x="4" y="10" xlink:href="#r0"/><use x="10" y="10" xlink:href="#r0"/><use x="13" y="10" xlink:href="#r0"/><use x="16" y="10" xlink:href="#r0"/><use x="22" y="10" xlink:href="#r0"/><use x="28" y="10" xlink:href="#r0"/><use x="31" y="10" xlink:href="#r0"/><use x="34" y="10" xlink:href="#r0"/><use x="43" y="10" xlink:href="#r0"/><use x="46" y="10" xlink:href="#r0"/><use x="58" y="10" xlink:href="#r0"/><use x="73" y="10" xlink:href="#r0"/><use x="79" y="10" xlink:href="#r0"/><use x="88" y="10" xlink:href="#r0"/><use x="94" y="10" xlink:href="#r0"/><use x="100" y="10" xlink:href="#r0"/><use x="103" y="10" xlink:href="#r0"/><use x="106" y="10" xlink:href="#r0"/><use x="112" y="10" xlink:href="#r0"/><use x="4" y="13" xlink:href="#r0"/><use x="10" y="13" xlink:href="#r0"/><use x="13" y="13" xlink:href="#r0"/><use x="16" y="13" xlink:href="#r0"/><use x="22" y="13" xlink:href="#r0"/><use x="28" y="13" xlink:href="#r0"/><use x="31" y="13" xlink:href="#r0"/><use x="34" y="13" xlink:href="#r0"/><use x="40" y="13" xlink:href="#r0"/><use x="43" y="13" xlink:href="#r0"/><use x="46" y="13" xlink:href="#r0"/><use x="49" y="13" xlink:href="#r0"/><use x="52" y="13" xlink:href="#r0"/><use x="55" y="13" xlink:href="#r0"/><use x="58" y="13" xlink:href="#r0"/><use x="61" y="13" xlink:href="#r0"/><use x="64" y="13" xlink:href="#r0"/><use x="67" y="13" xlink:href="#r0"/><use x="70" y="13" xlink:href="#r0"/><use x="73" y="13" xlink:href="#r0"/><use x="76" y="13" xlink:href="#r0"/><use x="79" y="13" xlink:href="#r0"/><use x="88" y="13" xlink:href="#r0"/><use x="94" y="13" xlink:href="#r0"/><use x="100" y="13" xlink:href="#r0"/><use x="103" y="13" xlink:href="#r0"/><use x="106" y="13" xlink:href="#r0"/><use x="112" y="13" xlink:href="#r0"/><use x="4" y="16" xlink:href="#r0"/><use x="10" y="16" xlink:href="#r0"/><use x="13" y="16" xlink:href="#r0"/><use x="16" y="16" xlink:href="#r0"/><use x="22" y="16" xlink:href="#r0"/><use x="28" y="16" xlink:href="#r0"/><use x="37" y="16" xlink:href="#r0"/><use x="40" y="16" xlink:href="#r0"/><use x="46" y="16" xlink:href="#r0"/><use x="49" y="16" xlink:href="#r0"/><use x="52" y="16" xlink:href="#r0"/><use x="61" y="16" xlink:href="#r0"/><use x="64" y="16" xlink:href="#r0"/><use x="67" y="16" xlink:href="#r0"/><use x="73" y="16" xlink:href="#r0"/><use x="76" y="16" xlink:href="#r0"/><use x="85" y="16" xlink:href="#r0"/><use x="94" y="16" xlink:href="#r0"/><use x="100" y="16" xlink:href="#r0"/><use x="103" y="16" xlink:href="#r0"/><use x="106" y="16" xlink:href="#r0"/><use x="112" y="16" xlink:href="#r0"/><use x="4" y="19" xlink:href="#r0"/><use x="22" y="19" xlink:href="#r0"/><use x="34" y="19" xlink:href="#r0"/><use x="37" y="19" xlink:href="#r0"/><use x="43" y="19" xlink:href="#r0"/><use x="46" y="19" xlink:href="#r0"/><use x="55" y="19" xlink:href="#r0"/><use x="58" y="19" xlink:href="#r0"/><use x="61" y="19" xlink:href="#r0"/><use x="64" y="19" xlink:href="#r0"/><use x="70" y="19" xlink:href="#r0"/><use x="76" y="19" xlink:href="#r0"/><use x="82" y="19" xlink:href="#r0"/><use x="94" y="19" xlink:href="#r0"/><use x="112" y="19" xlink:href="#r0"/><use x="4" y="22" xlink:href="#r0"/><use x="7" y="22" xlink:href="#r0"/><use x="10" y="22" xlink:href="#r0"/><use x="13" y="22" xlink:href="#r0"/><use x="16" y="22" xlink:href="#r0"/><use x="19" y="22" xlink:href="#r0"/><use x="22" y="22" xlink:href="#r0"/><use x="28" y="22" xlink:href="#r0"/><use x="34" y="22" xlink:href="#r0"/><use x="40" y="22" xlink:href="#r0"/><use x="46" y="22" xlink:href="#r0"/><use x="52" y="22" xlink:href="#r0"/><use x="58" y="22" xlink:href="#r0"/><use x="64" y="22" xlink:href="#r0"/><use x="70" y="22" xlink:href="#r0"/><use x="76" y="22" xlink:href="#r0"/><use x="82" y="22" xlink:href="#r0"/><use x="88" y="22" xlink:href="#r0"/><use x="94" y="22" xlink:href="#r0"/><use x="97" y="22" xlink:href="#r0"/><use x="100" y="22" xlink:href="#r0"/><use x="103" y="22" xlink:href="#r0"/><use x="106" y="22" xlink:href="#r0"/><use x="109" y="22" xlink:href="#r0"/><use x="112" y="22" xlink:href="#r0"/><use x="34" y="25" xlink:href="#r0"/><use x="40" y="25" xlink:href="#r0"/><use x="46" y="25" xlink:href="#r0"/><use x="49" y="25" xlink:href="#r0"/><use x="52" y="25" xlink:href="#r0"/><use x="55" y="25" xlink:href="#r0"/><use x="58" y="25" xlink:href="#r0"/><use x="64" y="25" xlink:href="#r0"/><use x="70" y="25" xlink:href="#r0"/><use x="73" y="25" xlink:href="#r0"/><use x="4" y="28" xlink:href="#r0"/><use x="7" y="28" xlink:href="#r0"/><use x="10" y="28" xlink:href="#r0"/><use x="13" y="28" xlink:href="#r0"/><use x="22" y="28" xlink:href="#r0"/><use x="28" y="28" xlink:href="#r0"/><use x="34" y="28" xlink:href="#r0"/><use x="37" y="28" xlink:href="#r0"/><use x="40" y="28" xlink:href="#r0"/><use x="43" y="28" xlink:href="#r0"/><use x="49" y="28" xlink:href="#r0"/><use x="52" y="28" xlink:href="#r0"/><use x="55" y="28" xlink:href="#r0"/><use x="61" y="28" xlink:href="#r0"/><use x="64" y="28" xlink:href="#r0"/><use x="91" y="28" xlink:href="#r0"/><use x="100" y="28" xlink:href="#r0"/><use x="103" y="28" xlink:href="#r0"/><use x="106" y="28" xlink:href="#r0"/><use x="112" y="28" xlink:href="#r0"/><use x="4" y="31" xlink:href="#r0"/><use x="7" y="31" xlink:href="#r0"/><use x="10" y="31" xlink:href="#r0"/><use x="16" y="31" xlink:href="#r0"/><use x="25" y="31" xlink:href="#r0"/><use x="31" y="31" xlink:href="#r0"/><use x="34" y="31" xlink:href="#r0"/><use x="40" y="31" xlink:href="#r0"/><use x="43" y="31" xlink:href="#r0"/><use x="52" y="31" xlink:href="#r0"/><use x="61" y="31" xlink:href="#r0"/><use x="67" y="31" xlink:href="#r0"/><use x="70" y="31" xlink:href="#r0"/><use x="82" y="31" xlink:href="#r0"/><use x="91" y="31" xlink:href="#r0"/><use x="97" y="31" xlink:href="#r0"/><use x="103" y="31" xlink:href="#r0"/><use x="4" y="34" xlink:href="#r0"/><use x="13" y="34" xlink:href="#r0"/><use x="16" y="34" xlink:href="#r0"/><use x="22" y="34" xlink:href="#r0"/><use x="25" y="34" xlink:href="#r0"/><use x="37" y="34" xlink:href="#r0"/><use x="40" y="34" xlink:href="#r0"/><use x="43" y="34" xlink:href="#r0"/><use x="52" y="34" xlink:href="#r0"/><use x="55" y="34" xlink:href="#r0"/><use x="67" y="34" xlink:href="#r0"/><use x="73" y="34" xlink:href="#r0"/><use x="82" y="34" xlink:href="#r0"/><use x="88" y="34" xlink:href="#r0"/><use x="91" y="34" xlink:href="#r0"/><use x="100" y="34" xlink:href="#r0"/><use x="103" y="34" xlink:href="#r0"/><use x="106" y="34" xlink:href="#r0"/><use x="7" y="37" xlink:href="#r0"/><use x="10" y="37" xlink:href="#r0"/><use x="13" y="37" xlink:href="#r0"/><use x="16" y="37" xlink:href="#r0"/><use x="19" y="37" xlink:href="#r0"/><use x="25" y="37" xlink:href="#r0"/><use x="34" y="37" xlink:href="#r0"/><use x="58" y="37" xlink:href="#r0"/><use x="61" y="37" xlink:href="#r0"/><use x="64" y="37" xlink:href="#r0"/><use x="70" y="37" xlink:href="#r0"/><use x="76" y="37" xlink:href="#r0"/><use x="79" y="37" xlink:href="#r0"/><use x="82" y="37" xlink:href="#r0"/><use x="94" y="37" xlink:href="#r0"/><use x="103" y="37" xlink:href="#r0"/><use x="106" y="37" xlink:href="#r0"/><use x="109" y="37" xlink:href="#r0"/><use x="112" y="37" xlink:href="#r0"/><use x="13" y="40" xlink:href="#r0"/><use x="19" y="40" xlink:href="#r0"/><use x="22" y="40" xlink:href="#r0"/><use x="40" y="40" xlink:href="#r0"/><use x="46" y="40" xlink:href="#r0"/><use x="55" y="40" xlink:href="#r0"/><use x="58" y="40" xlink:href="#r0"/><use x="61" y="40" xlink:href="#r0"/><use x="67" y="40" xlink:href="#r0"/><use x="70" y="40" xlink:href="#r0"/><use x="79" y="40" xlink:href="#r0"/><use x="91" y="40" xlink:href="#r0"/><use x="94" y="40" xlink:href="#r0"/><use x="100" y="40" xlink:href="#r0"/><use x="103" y="40" xlink:href="#r0"/><use x="106" y="40" xlink:href="#r0"/><use x="10" y="43" xlink:href="#r0"/><use x="13" y="43" xlink:href="#r0"/><use x="16" y="43" xlink:href="#r0"/><use x="25" y="43" xlink:href="#r0"/><use x="28" y="43" xlink:href="#r0"/><use x="31" y="43" xlink:href="#r0"/><use x="37" y="43" xlink:href="#r0"/><use x="40" y="43" xlink:href="#r0"/><use x="46" y="43" xlink:href="#r0"/><use x="49" y="43" xlink:href="#r0"/><use x="52" y="43" xlink:href="#r0"/><use x="55" y="43" xlink:href="#r0"/><use x="58" y="43" xlink:href="#r0"/><use x="61" y="43" xlink:href="#r0"/><use x="64" y="43" xlink:href="#r0"/><use x="73" y="43" xlink:href="#r0"/><use x="76" y="43" xlink:href="#r0"/><use x="85" y="43" xlink:href="#r0"/><use x="91" y="43" xlink:href="#r0"/><use x="94" y="43" xlink:href="#r0"/><use x="97" y="43" xlink:href="#r0"/><use x="100" y="43" xlink:href="#r0"/><use x="106" y="43" xlink:href="#r0"/><use x="109" y="43" xlink:href="#r0"/><use x="112" y="43" xlink:href="#r0"/><use x="7" y="46" xlink:href="#r0"/><use x="16" y="46" xlink:href="#r0"/><use x="19" y="46" xlink:href="#r0"/><use x="22" y="46" xlink:href="#r0"/><use x="28" y="46" xlink:href="#r0"/><use x="37" y="46" xlink:href="#r0"/><use x="43" y="46" xlink:href="#r0"/><use x="61" y="46" xlink:href="#r0"/><use x="64" y="46" xlink:href="#r0"/><use x="70" y="46" xlink:href="#r0"/><use x="76" y="46" xlink:href="#r0"/><use x="79" y="46" xlink:href="#r0"/><use x="82" y="46" xlink:href="#r0"/><use x="106" y="46" xlink:href="#r0"/><use x="109" y="46" xlink:href="#r0"/><use x="10" y="49" xlink:href="#r0"/><use x="16" y="49" xlink:href="#r0"/><use x="28" y="49" xlink:href="#r0"/><use x="31" y="49" xlink:href="#r0"/><use x="34" y="49" xlink:href="#r0"/><use x="37" y="49" xlink:href="#r0"/><use x="46" y="49" xlink:href="#r0"/><use x="52" y="49" xlink:href="#r0"/><use x="58" y="49" xlink:href="#r0"/><use x="67" y="49" xlink:href="#r0"/><use x="70" y="49" xlink:href="#r0"/><use x="82" y="49" xlink:href="#r0"/><use x="85" y="49" xlink:href="#r0"/><use x="91" y="49" xlink:href="#r0"/><use x="94" y="49" xlink:href="#r0"/><use x="109" y="49" xlink:href="#r0"/><use x="112" y="49" xlink:href="#r0"/><use x="10" y="52" xlink:href="#r0"/><use x="16" y="52" xlink:href="#r0"/><use x="22" y="52" xlink:href="#r0"/><use x="28" y="52" xlink:href="#r0"/><use x="31" y="52" xlink:href="#r0"/><use x="40" y="52" xlink:href="#r0"/><use x="46" y="52" xlink:href="#r0"/><use x="49" y="52" xlink:href="#r0"/><use x="64" y="52" xlink:href="#r0"/><use x="67" y="52" xlink:href="#r0"/><use x="79" y="52" xlink:href="#r0"/><use x="82" y="52" xlink:href="#r0"/><use x="85" y="52" xlink:href="#r0"/><use x="106" y="52" xlink:href="#r0"/><use x="109" y="52" xlink:href="#r0"/><use x="112" y="52" xlink:href="#r0"/><use x="10" y="55" xlink:href="#r0"/><use x="13" y="55" xlink:href="#r0"/><use x="16" y="55" xlink:href="#r0"/><use x="25" y="55" xlink:href="#r0"/><use x="28" y="55" xlink:href="#r0"/><use x="31" y="55" xlink:href="#r0"/><use x="46" y="55" xlink:href="#r0"/><use x="49" y="55" xlink:href="#r0"/><use x="55" y="55" xlink:href="#r0"/><use x="61" y="55" xlink:href="#r0"/><use x="64" y="55" xlink:href="#r0"/><use x="70" y="55" xlink:href="#r0"/><use x="73" y="55" xlink:href="#r0"/><use x="79" y="55" xlink:href="#r0"/><use x="82" y="55" xlink:href="#r0"/><use x="85" y="55" xlink:href="#r0"/><use x="88" y="55" xlink:href="#r0"/><use x="91" y="55" xlink:href="#r0"/><use x="94" y="55" xlink:href="#r0"/><use x="106" y="55" xlink:href="#r0"/><use x="112" y="55" xlink:href="#r0"/><use x="7" y="58" xlink:href="#r0"/><use x="19" y="58" xlink:href="#r0"/><use x="22" y="58" xlink:href="#r0"/><use x="25" y="58" xlink:href="#r0"/><use x="31" y="58" xlink:href="#r0"/><use x="43" y="58" xlink:href="#r0"/><use x="46" y="58" xlink:href="#r0"/><use x="49" y="58" xlink:href="#r0"/><use x="64" y="58" xlink:href="#r0"/><use x="67" y="58" xlink:href="#r0"/><use x="76" y="58" xlink:href="#r0"/><use x="85" y="58" xlink:href="#r0"/><use x="94" y="58" xlink:href="#r0"/><use x="97" y="58" xlink:href="#r0"/><use x="109" y="58" xlink:href="#r0"/><use x="112" y="58" xlink:href="#r0"/><use x="10" y="61" xlink:href="#r0"/><use x="16" y="61" xlink:href="#r0"/><use x="34" y="61" xlink:href="#r0"/><use x="37" y="61" xlink:href="#r0"/><use x="43" y="61" xlink:href="#r0"/><use x="46" y="61" xlink:href="#r0"/><use x="49" y="61" xlink:href="#r0"/><use x="55" y="61" xlink:href="#r0"/><use x="58" y="61" xlink:href="#r0"/><use x="73" y="61" xlink:href="#r0"/><use x="85" y="61" xlink:href="#r0"/><use x="88" y="61" xlink:href="#r0"/><use x="94" y="61" xlink:href="#r0"/><use x="97" y="61" xlink:href="#r0"/><use x="103" y="61" xlink:href="#r0"/><use x="109" y="61" xlink:href="#r0"/><use x="112" y="61" xlink:href="#r0"/><use x="10" y="64" xlink:href="#r0"/><use x="19" y="64" xlink:href="#r0"/><use x="22" y="64" xlink:href="#r0"/><use x="43" y="64" xlink:href="#r0"/><use x="46" y="64" xlink:href="#r0"/><use x="55" y="64" xlink:href="#r0"/><use x="73" y="64" xlink:href="#r0"/><use x="76" y="64" xlink:href="#r0"/><use x="85" y="64" xlink:href="#r0"/><use x="88" y="64" xlink:href="#r0"/><use x="91" y="64" xlink:href="#r0"/><use x="97" y="64" xlink:href="#r0"/><use x="109" y="64" xlink:href="#r0"/><use x="112" y="64" xlink:href="#r0"/><use x="4" y="67" xlink:href="#r0"/><use x="7" y="67" xlink:href="#r0"/><use x="13" y="67" xlink:href="#r0"/><use x="16" y="67" xlink:href="#r0"/><use x="19" y="67" xlink:href="#r0"/><use x="25" y="67" xlink:href="#r0"/><use x="28" y="67" xlink:href="#r0"/><use x="52" y="67" xlink:href="#r0"/><use x="61" y="67" xlink:href="#r0"/><use x="73" y="67" xlink:href="#r0"/><use x="76" y="67" xlink:href="#r0"/><use x="82" y="67" xlink:href="#r0"/><use x="97" y="67" xlink:href="#r0"/><use x="103" y="67" xlink:href="#r0"/><use x="106" y="67" xlink:href="#r0"/><use x="4" y="70" xlink:href="#r0"/><use x="10" y="70" xlink:href="#r0"/><use x="22" y="70" xlink:href="#r0"/><use x="25" y="70" xlink:href="#r0"/><use x="31" y="70" xlink:href="#r0"/><use x="46" y="70" xlink:href="#r0"/><use x="55" y="70" xlink:href="#r0"/><use x="64" y="70" xlink:href="#r0"/><use x="67" y="70" xlink:href="#r0"/><use x="73" y="70" xlink:href="#r0"/><use x="76" y="70" xlink:href="#r0"/><use x="88" y="70" xlink:href="#r0"/><use x="91" y="70" xlink:href="#r0"/><use x="100" y="70" xlink:href="#r0"/><use x="103" y="70" xlink:href="#r0"/><use x="106" y="70" xlink:href="#r0"/><use x="7" y="73" xlink:href="#r0"/><use x="16" y="73" xlink:href="#r0"/><use x="19" y="73" xlink:href="#r0"/><use x="31" y="73" xlink:href="#r0"/><use x="37" y="73" xlink:href="#r0"/><use x="40" y="73" xlink:href="#r0"/><use x="43" y="73" xlink:href="#r0"/><use x="46" y="73" xlink:href="#r0"/><use x="52" y="73" xlink:href="#r0"/><use x="58" y="73" xlink:href="#r0"/><use x="64" y="73" xlink:href="#r0"/><use x="79" y="73" xlink:href="#r0"/><use x="82" y="73" xlink:href="#r0"/><use x="85" y="73" xlink:href="#r0"/><use x="88" y="73" xlink:href="#r0"/><use x="91" y="73" xlink:href="#r0"/><use x="97" y="73" xlink:href="#r0"/><use x="106" y="73" xlink:href="#r0"/><use x="109" y="73" xlink:href="#r0"/><use x="4" y="76" xlink:href="#r0"/><use x="10" y="76" xlink:href="#r0"/><use x="19" y="76" xlink:href="#r0"/><use x="22" y="76" xlink:href="#r0"/><use x="28" y="76" xlink:href="#r0"/><use x="31" y="76" xlink:href="#r0"/><use x="37" y="76" xlink:href="#r0"/><use x="49" y="76" xlink:href="#r0"/><use x="52" y="76" xlink:href="#r0"/><use x="55" y="76" xlink:href="#r0"/><use x="58" y="76" xlink:href="#r0"/><use x="64" y="76" xlink:href="#r0"/><use x="67" y="76" xlink:href="#r0"/><use x="70" y="76" xlink:href="#r0"/><use x="79" y="76" xlink:href="#r0"/><use x="85" y="76" xlink:href="#r0"/><use x="88" y="76" xlink:href="#r0"/><use x="91" y="76" xlink:href="#r0"/><use x="94" y="76" xlink:href="#r0"/><use x="100" y="76" xlink:href="#r0"/><use x="103" y="76" xlink:href="#r0"/><use x="106" y="76" xlink:href="#r0"/><use x="112" y="76" xlink:href="#r0"/><use x="7" y="79" xlink:href="#r0"/><use x="25" y="79" xlink:href="#r0"/><use x="34" y="79" xlink:href="#r0"/><use x="37" y="79" xlink:href="#r0"/><use x="43" y="79" xlink:href="#r0"/><use x="52" y="79" xlink:href="#r0"/><use x="55" y="79" xlink:href="#r0"/><use x="58" y="79" xlink:href="#r0"/><use x="67" y="79" xlink:href="#r0"/><use x="79" y="79" xlink:href="#r0"/><use x="88" y="79" xlink:href="#r0"/><use x="91" y="79" xlink:href="#r0"/><use x="94" y="79" xlink:href="#r0"/><use x="100" y="79" xlink:href="#r0"/><use x="109" y="79" xlink:href="#r0"/><use x="112" y="79" xlink:href="#r0"/><use x="7" y="82" xlink:href="#r0"/><use x="10" y="82" xlink:href="#r0"/><use x="13" y="82" xlink:href="#r0"/><use x="19" y="82" xlink:href="#r0"/><use x="22" y="82" xlink:href="#r0"/><use x="25" y="82" xlink:href="#r0"/><use x="34" y="82" xlink:href="#r0"/><use x="40" y="82" xlink:href="#r0"/><use x="46" y="82" xlink:href="#r0"/><use x="52" y="82" xlink:href="#r0"/><use x="55" y="82" xlink:href="#r0"/><use x="61" y="82" xlink:href="#r0"/><use x="64" y="82" xlink:href="#r0"/><use x="70" y="82" xlink:href="#r0"/><use x="79" y="82" xlink:href="#r0"/><use x="88" y="82" xlink:href="#r0"/><use x="94" y="82" xlink:href="#r0"/><use x="97" y="82" xlink:href="#r0"/><use x="106" y="82" xlink:href="#r0"/><use x="109" y="82" xlink:href="#r0"/><use x="4" y="85" xlink:href="#r0"/><use x="13" y="85" xlink:href="#r0"/><use x="16" y="85" xlink:href="#r0"/><use x="19" y="85" xlink:href="#r0"/><use x="28" y="85" xlink:href="#r0"/><use x="31" y="85" xlink:href="#r0"/><use x="34" y="85" xlink:href="#r0"/><use x="40" y="85" xlink:href="#r0"/><use x="43" y="85" xlink:href="#r0"/><use x="49" y="85" xlink:href="#r0"/><use x="58" y="85" xlink:href="#r0"/><use x="64" y="85" xlink:href="#r0"/><use x="67" y="85" xlink:href="#r0"/><use x="76" y="85" xlink:href="#r0"/><use x="88" y="85" xlink:href="#r0"/><use x="94" y="85" xlink:href="#r0"/><use x="100" y="85" xlink:href="#r0"/><use x="109" y="85" xlink:href="#r0"/><use x="112" y="85" xlink:href="#r0"/><use x="16" y="88" xlink:href="#r0"/><use x="22" y="88" xlink:href="#r0"/><use x="28" y="88" xlink:href="#r0"/><use x="34" y="88" xlink:href="#r0"/><use x="37" y="88" xlink:href="#r0"/><use x="49" y="88" xlink:href="#r0"/><use x="52" y="88" xlink:href="#r0"/><use x="61" y="88" xlink:href="#r0"/><use x="64" y="88" xlink:href="#r0"/><use x="70" y="88" xlink:href="#r0"/><use x="73" y="88" xlink:href="#r0"/><use x="76" y="88" xlink:href="#r0"/><use x="79" y="88" xlink:href="#r0"/><use x="82" y="88" xlink:href="#r0"/><use x="85" y="88" xlink:href="#r0"/><use x="88" y="88" xlink:href="#r0"/><use x="91" y="88" xlink:href="#r0"/><use x="94" y="88" xlink:href="#r0"/><use x="97" y="88" xlink:href="#r0"/><use x="100" y="88" xlink:href="#r0"/><use x="112" y="88" xlink:href="#r0"/><use x="28" y="91" xlink:href="#r0"/><use x="40" y="91" xlink:href="#r0"/><use x="43" y="91" xlink:href="#r0"/><use x="49" y="91" xlink:href="#r0"/><use x="52" y="91" xlink:href="#r0"/><use x="55" y="91" xlink:href="#r0"/><use x="70" y="91" xlink:href="#r0"/><use x="73" y="91" xlink:href="#r0"/><use x="79" y="91" xlink:href="#r0"/><use x="82" y="91" xlink:href="#r0"/><use x="88" y="91" xlink:href="#r0"/><use x="100" y="91" xlink:href="#r0"/><use x="4" y="94" xlink:href="#r0"/><use x="7" y="94" xlink:href="#r0"/><use x="10" y="94" xlink:href="#r0"/><use x="13" y="94" xlink:href="#r0"/><use x="16" y="94" xlink:href="#r0"/><use x="19" y="94" xlink:href="#r0"/><use x="22" y="94" xlink:href="#r0"/><use x="31" y="94" xlink:href="#r0"/><use x="34" y="94" xlink:href="#r0"/><use x="37" y="94" xlink:href="#r0"/><use x="40" y="94" xlink:href="#r0"/><use x="49" y="94" xlink:href="#r0"/><use x="52" y="94" xlink:href="#r0"/><use x="67" y="94" xlink:href="#r0"/><use x="76" y="94" xlink:href="#r0"/><use x="88" y="94" xlink:href="#r0"/><use x="94" y="94" xlink:href="#r0"/><use x="100" y="94" xlink:href="#r0"/><use x="103" y="94" xlink:href="#r0"/><use x="109" y="94" xlink:href="#r0"/><use x="112" y="94" xlink:href="#r0"/><use x="4" y="97" xlink:href="#r0"/><use x="22" y="97" xlink:href="#r0"/><use x="31" y="97" xlink:href="#r0"/><use x="34" y="97" xlink:href="#r0"/><use x="40" y="97" xlink:href="#r0"/><use x="55" y="97" xlink:href="#r0"/><use x="58" y="97" xlink:href="#r0"/><use x="61" y="97" xlink:href="#r0"/><use x="70" y="97" xlink:href="#r0"/><use x="82" y="97" xlink:href="#r0"/><use x="88" y="97" xlink:href="#r0"/><use x="100" y="97" xlink:href="#r0"/><use x="103" y="97" xlink:href="#r0"/><use x="109" y="97" xlink:href="#r0"/><use x="4" y="100" xlink:href="#r0"/><use x="10" y="100" xlink:href="#r0"/><use x="13" y="100" xlink:href="#r0"/><use x="16" y="100" xlink:href="#r0"/><use x="22" y="100" xlink:href="#r0"/><use x="31" y="100" xlink:href="#r0"/><use x="37" y="100" xlink:href="#r0"/><use x="40" y="100" xlink:href="#r0"/><use x="43" y="100" xlink:href="#r0"/><use x="55" y="100" xlink:href="#r0"/><use x="76" y="100" xlink:href="#r0"/><use x="88" y="100" xlink:href="#r0"/><use x="91" y="100" xlink:href="#r0"/><use x="94" y="100" xlink:href="#r0"/><use x="97" y="100" xlink:href="#r0"/><use x="100" y="100" xlink:href="#r0"/><use x="112" y="100" xlink:href="#r0"/><use x="4" y="103" xlink:href="#r0"/><use x="10" y="103" xlink:href="#r0"/><use x="13" y="103" xlink:href="#r0"/><use x="16" y="103" xlink:href="#r0"/><use x="22" y="103" xlink:href="#r0"/><use x="28" y="103" xlink:href="#r0"/><use x="34" y="103" xlink:href="#r0"/><use x="40" y="103" xlink:href="#r0"/><use x="43" y="103" xlink:href="#r0"/><use x="46" y="103" xlink:href="#r0"/><use x="64" y="103" xlink:href="#r0"/><use x="67" y="103" xlink:href="#r0"/><use x="70" y="103" xlink:href="#r0"/><use x="73" y="103" xlink:href="#r0"/><use x="76" y="103" xlink:href="#r0"/><use x="82" y="103" xlink:href="#r0"/><use x="85" y="103" xlink:href="#r0"/><use x="94" y="103" xlink:href="#r0"/><use x="100" y="103" xlink:href="#r0"/><use x="103" y="103" xlink:href="#r0"/><use x="106" y="103" xlink:href="#r0"/><use x="109" y="103" xlink:href="#r0"/><use x="112" y="103" xlink:href="#r0"/><use x="4" y="106" xlink:href="#r0"/><use x="10" y="106" xlink:href="#r0"/><use x="13" y="106" xlink:href="#r0"/><use x="16" y="106" xlink:href="#r0"/><use x="22" y="106" xlink:href="#r0"/><use x="28" y="106" xlink:href="#r0"/><use x="31" y="106" xlink:href="#r0"/><use x="37" y="106" xlink:href="#r0"/><use x="40" y="106" xlink:href="#r0"/><use x="43" y="106" xlink:href="#r0"/><use x="70" y="106" xlink:href="#r0"/><use x="73" y="106" xlink:href="#r0"/><use x="76" y="106" xlink:href="#r0"/><use x="79" y="106" xlink:href="#r0"/><use x="82" y="106" xlink:href="#r0"/><use x="88" y="106" xlink:href="#r0"/><use x="91" y="106" xlink:href="#r0"/><use x="94" y="106" xlink:href="#r0"/><use x="97" y="106" xlink:href="#r0"/><use x="100" y="106" xlink:href="#r0"/><use x="103" y="106" xlink:href="#r0"/><use x="4" y="109" xlink:href="#r0"/><use x="22" y="109" xlink:href="#r0"/><use x="28" y="109" xlink:href="#r0"/><use x="31" y="109" xlink:href="#r0"/><use x="52" y="109" xlink:href="#r0"/><use x="61" y="109" xlink:href="#r0"/><use x="64" y="109" xlink:href="#r0"/><use x="70" y="109" xlink:href="#r0"/><use x="76" y="109" xlink:href="#r0"/><use x="79" y="109" xlink:href="#r0"/><use x="88" y="109" xlink:href="#r0"/><use x="94" y="109" xlink:href="#r0"/><use x="100" y="109" xlink:href="#r0"/><use x="103" y="109" xlink:href="#r0"/><use x="106" y="109" xlink:href="#r0"/><use x="4" y="112" xlink:href="#r0"/><use x="7" y="112" xlink:href="#r0"/><use x="10" y="112" xlink:href="#r0"/><use x="13" y="112" xlink:href="#r0"/><use x="16" y="112" xlink:href="#r0"/><use x="19" y="112" xlink:href="#r0"/><use x="22" y="112" xlink:href="#r0"/><use x="28" y="112" xlink:href="#r0"/><use x="34" y="112" xlink:href="#r0"/><use x="40" y="112" xlink:href="#r0"/><use x="46" y="112" xlink:href="#r0"/><use x="49" y="112" xlink:href="#r0"/><use x="52" y="112" xlink:href="#r0"/><use x="55" y="112" xlink:href="#r0"/><use x="58" y="112" xlink:href="#r0"/><use x="64" y="112" xlink:href="#r0"/><use x="67" y="112" xlink:href="#r0"/><use x="70" y="112" xlink:href="#r0"/><use x="73" y="112" xlink:href="#r0"/><use x="76" y="112" xlink:href="#r0"/><use x="79" y="112" xlink:href="#r0"/><use x="94" y="112" xlink:href="#r0"/><use x="97" y="112" xlink:href="#r0"/><use x="103" y="112" xlink:href="#r0"/><use x="106" y="112" xlink:href="#r0"/><use x="109" y="112" xlink:href="#r0"/><use x="112" y="112" xlink:href="#r0"/></svg>