<svg xmlns="http://www.w3.org/2000/svg" xmlns:xlink="http://www.w3.org/1999/xlink" version="1.1" width="120px" height="120px" viewBox="0 0 120 120"><defs><rect id="r0" width="2" height="2" fill="#000000"/></defs><rect x="0" y="0" width="120" height="120" fill="#fefefe"/><use x="19" y="19" xlink:href="#r0"/><use x="21" y="19" xlink:href="#r0"/><use x="23" y="19" xlink:href="#r0"/><use x="25" y="19" xlink:href="#r0"/><use x="27" y="19" xlink:href="#r0"/><use x="29" y="19" xlink:href="#r0"/><use x="31" y="19" xlink:href="#r0"/><use x="41" y="19" xlink:href="#r0"/><use x="47" y="19" xlink:href="#r0"/><use x="49" y="19" xlink:href="#r0"/><use x="55" y="19" xlink:href="#r0"/><use x="57" y="19" xlink:href="#r0"/><use x="61" y="19" xlink:href="#r0"/><use x="67" y="19" xlink:href="#r0"/><use x="69" y="19" xlink:href="#r0"/><use x="71" y="19" xlink:href="#r0"/><use x="75" y="19" xlink:href="#r0"/><use x="77" y="19" xlink:href="#r0"/><use x="87" y="19" xlink:href="#r0"/><use x="89" y="19" xlink:href="#r0"/><use x="91" y="19" xlink:href="#r0"/><use x="93" y="19" xlink:href="#r0"/><use x="95" y="19" xlink:href="#r0"/><use x="97" y="19" xlink:href="#r0"/><use x="99" y="19" xlink:href="#r0"/><use x="19" y="21" xlink:href="#r0"/><use x="31" y="21" xlink:href="#r0"/><use x="45" y="21" xlink:href="#r0"/><use x="47" y="21" xlink:href="#r0"/><use x="51" y="21" xlink:href="#r0"/><use x="63" y="21" xlink:href="#r0"/><use x="77" y="21" xlink:href="#r0"/><use x="79" y="21" xlink:href="#r0"/><use x="87" y="21" xlink:href="#r0"/><use x="99" y="21" xlink:href="#r0"/><use x="19" y="23" xlink:href="#r0"/><use x="23" y="23" xlink:href="#r0"/><use x="25" y="23" xlink:href="#r0"/><use x="27" y="23" xlink:href="#r0"/><use x="31" y="23" xlink:href="#r0"/><use x="41" y="23" xlink:href="#r0"/><use x="43" y="23" xlink:href="#r0"/><use x="45" y="23" xlink:href="#r0"/><use x="49" y="23" xlink:href="#r0"/><use x="51" y="23" xlink:href="#r0"/><use x="57" y="23" xlink:href="#r0"/><use x="61" y="23" xlink:href="#r0"/><use x="71" y="23" xlink:href="#r0"/><use x="75" y="23" xlink:href="#r0"/><use x="83" y="23" xlink:href="#r0"/><use x="87" y="23" xlink:href="#r0"/><use x="91" y="23" xlink:href="#r0"/><use x="93" y="23" xlink:href="#r0"/><use x="95" y="23" xlink:href="#r0"/><use x="99" y="23" xlink:href="#r0"/><use x="19" y="25" xlink:href="#r0"/><use x="23" y="25" xlink:href="#r0"/><use x="25" y="25" xlink:href="#r0"/><use x="27" y="25" xlink:href="#r0"/><use x="31" y="25" xlink:href="#r0"/><use x="35" y="25" xlink:href="#r0"/><use x="39" y="25" xlink:href="#r0"/><use x="41" y="25" xlink:href="#r0"/><use x="49" y="25" xlink:href="#r0"/><use x="51" y="25" xlink:href="#r0"/><use x="53" y="25" xlink:href="#r0"/><use x="55" y="25" xlink:href="#r0"/><use x="59" y="25" xlink:href="#r0"/><use x="61" y="25" xlink:href="#r0"/><use x="63" y="25" xlink:href="#r0"/><use x="69" y="25" xlink:href="#r0"/><use x="73" y="25" xlink:href="#r0"/><use x="75" y="25" xlink:href="#r0"/><use x="77" y="25" xlink:href="#r0"/><use x="79" y="25" xlink:href="#r0"/><use x="87" y="25" xlink:href="#r0"/><use x="91" y="25" xlink:href="#r0"/><use x="93" y="25" xlink:href="#r0"/><use x="95" y="25" xlink:href="#r0"/><use x="99" y="25" xlink:href="#r0"/><use x="19" y="27" xlink:href="#r0"/><use x="23" y="27" xlink:href="#r0"/><use x="25" y="27" xlink:href="#r0"/><use x="27" y="27" xlink:href="#r0"/><use x="31" y="27" xlink:href="#r0"/><use x="35" y="27" xlink:href="#r0"/><use x="37" y="27" xlink:href="#r0"/><use x="43" y="27" xlink:href="#r0"/><use x="49" y="27" xlink:href="#r0"/><use x="53" y="27" xlink:href="#r0"/><use x="55" y="27" xlink:href="#r0"/><use x="57" y="27" xlink:href="#r0"/><use x="63" y="27" xlink:href="#r0"/><use x="65" y="27" xlink:href="#r0"/><use x="67" y="27" xlink:href="#r0"/><use x="69" y="27" xlink:href="#r0"/><use x="71" y="27" xlink:href="#r0"/><use x="75" y="27" xlink:href="#r0"/><use x="81" y="27" xlink:href="#r0"/><use x="83" y="27" xlink:href="#r0"/><use x="87" y="27" xlink:href="#r0"/><use x="91" y="27" xlink:href="#r0"/><use x="93" y="27" xlink:href="#r0"/><use x="95" y="27" xlink:href="#r0"/><use x="99" y="27" xlink:href="#r0"/><use x="19" y="29" xlink:href="#r0"/><use x="31" y="29" xlink:href="#r0"/><use x="37" y="29" xlink:href="#r0"/><use x="41" y="29" xlink:href="#r0"/><use x="55" y="29" xlink:href="#r0"/><use x="59" y="29" xlink:href="#r0"/><use x="75" y="29" xlink:href="#r0"/><use x="77" y="29" xlink:href="#r0"/><use x="79" y="29" xlink:href="#r0"/><use x="87" y="29" xlink:href="#r0"/><use x="99" y="29" xlink:href="#r0"/><use x="19" y="31" xlink:href="#r0"/><use x="21" y="31" xlink:href="#r0"/><use x="23" y="31" xlink:href="#r0"/><use x="25" y="31" xlink:href="#r0"/><use x="27" y="31" xlink:href="#r0"/><use x="29" y="31" xlink:href="#r0"/><use x="31" y="31" xlink:href="#r0"/><use x="35" y="31" xlink:href="#r0"/><use x="39" y="31" xlink:href="#r0"/><use x="43" y="31" xlink:href="#r0"/><use x="47" y="31" xlink:href="#r0"/><use x="51" y="31" xlink:href="#r0"/><use x="55" y="31" xlink:href="#r0"/><use x="59" y="31" xlink:href="#r0"/><use x="63" y="31" xlink:href="#r0"/><use x="67" y="31" xlink:href="#r0"/><use x="71" y="31" xlink:href="#r0"/><use x="75" y="31" xlink:href="#r0"/><use x="79" y="31" xlink:href="#r0"/><use x="83" y="31" xlink:href="#r0"/><use x="87" y="31" xlink:href="#r0"/><use x="89" y="31" xlink:href="#r0"/><use x="91" y="31" xlink:href="#r0"/><use x="93" y="31" xlink:href="#r0"/><use x="95" y="31" xlink:href="#r0"/><use x="97" y="31" xlink:href="#r0"/><use x="99" y="31" xlink:href="#r0"/><use x="39" y="33" xlink:href="#r0"/><use x="41" y="33" xlink:href="#r0"/><use x="47" y="33" xlink:href="#r0"/><use x="51" y="33" xlink:href="#r0"/><use x="57" y="33" xlink:href="#r0"/><use x="65" y="33" xlink:href="#r0"/><use x="71" y="33" xlink:href="#r0"/><use x="75" y="33" xlink:href="#r0"/><use x="79" y="33" xlink:href="#r0"/><use x="83" y="33" xlink:href="#r0"/><use x="19" y="35" xlink:href="#r0"/><use x="21" y="35" xlink:href="#r0"/><use x="29" y="35" xlink:href="#r0"/><use x="31" y="35" xlink:href="#r0"/><use x="33" y="35" xlink:href="#r0"/><use x="45" y="35" xlink:href="#r0"/><use x="49" y="35" xlink:href="#r0"/><use x="59" y="35" xlink:href="#r0"/><use x="65" y="35" xlink:href="#r0"/><use x="69" y="35" xlink:href="#r0"/><use x="77" y="35" xlink:href="#r0"/><use x="91" y="35" xlink:href="#r0"/><use x="93" y="35" xlink:href="#r0"/><use x="21" y="37" xlink:href="#r0"/><use x="25" y="37" xlink:href="#r0"/><use x="27" y="37" xlink:href="#r0"/><use x="35" y="37" xlink:href="#r0"/><use x="39" y="37" xlink:href="#r0"/><use x="43" y="37" xlink:href="#r0"/><use x="47" y="37" xlink:href="#r0"/><use x="49" y="37" xlink:href="#r0"/><use x="51" y="37" xlink:href="#r0"/><use x="53" y="37" xlink:href="#r0"/><use x="55" y="37" xlink:href="#r0"/><use x="65" y="37" xlink:href="#r0"/><use x="67" y="37" xlink:href="#r0"/><use x="71" y="37" xlink:href="#r0"/><use x="73" y="37" xlink:href="#r0"/><use x="75" y="37" xlink:href="#r0"/><use x="77" y="37" xlink:href="#r0"/><use x="79" y="37" xlink:href="#r0"/><use x="81" y="37" xlink:href="#r0"/><use x="87" y="37" xlink:href="#r0"/><use x="89" y="37" xlink:href="#r0"/><use x="91" y="37" xlink:href="#r0"/><use x="93" y="37" xlink:href="#r0"/><use x="97" y="37" xlink:href="#r0"/><use x="19" y="39" xlink:href="#r0"/><use x="21" y="39" xlink:href="#r0"/><use x="23" y="39" xlink:href="#r0"/><use x="31" y="39" xlink:href="#r0"/><use x="43" y="39" xlink:href="#r0"/><use x="49" y="39" xlink:href="#r0"/><use x="59" y="39" xlink:href="#r0"/><use x="61" y="39" xlink:href="#r0"/><use x="63" y="39" xlink:href="#r0"/><use x="71" y="39" xlink:href="#r0"/><use x="73" y="39" xlink:href="#r0"/><use x="75" y="39" xlink:href="#r0"/><use x="77" y="39" xlink:href="#r0"/><use x="79" y="39" xlink:href="#r0"/><use x="83" y="39" xlink:href="#r0"/><use x="85" y="39" xlink:href="#r0"/><use x="91" y="39" xlink:href="#r0"/><use x="95" y="39" xlink:href="#r0"/><use x="25" y="41" xlink:href="#r0"/><use x="27" y="41" xlink:href="#r0"/><use x="33" y="41" xlink:href="#r0"/><use x="37" y="41" xlink:href="#r0"/><use x="39" y="41" xlink:href="#r0"/><use x="43" y="41" xlink:href="#r0"/><use x="47" y="41" xlink:href="#r0"/><use x="49" y="41" xlink:href="#r0"/><use x="51" y="41" xlink:href="#r0"/><use x="59" y="41" xlink:href="#r0"/><use x="63" y="41" xlink:href="#r0"/><use x="67" y="41" xlink:href="#r0"/><use x="73" y="41" xlink:href="#r0"/><use x="79" y="41" xlink:href="#r0"/><use x="87" y="41" xlink:href="#r0"/><use x="91" y="41" xlink:href="#r0"/><use x="93" y="41" xlink:href="#r0"/><use x="97" y="41" xlink:href="#r0"/><use x="19" y="43" xlink:href="#r0"/><use x="23" y="43" xlink:href="#r0"/><use x="25" y="43" xlink:href="#r0"/><use x="27" y="43" xlink:href="#r0"/><use x="29" y="43" xlink:href="#r0"/><use x="31" y="43" xlink:href="#r0"/><use x="33" y="43" xlink:href="#r0"/><use x="43" y="43" xlink:href="#r0"/><use x="45" y="43" xlink:href="#r0"/><use x="47" y="43" xlink:href="#r0"/><use x="49" y="43" xlink:href="#r0"/><use x="51" y="43" xlink:href="#r0"/><use x="53" y="43" xlink:href="#r0"/><use x="63" y="43" xlink:href="#r0"/><use x="65" y="43" xlink:href="#r0"/><use x="67" y="43" xlink:href="#r0"/><use x="73" y="43" xlink:href="#r0"/><use x="75" y="43" xlink:href="#r0"/><use x="79" y="43" xlink:href="#r0"/><use x="81" y="43" xlink:href="#r0"/><use x="83" y="43" xlink:href="#r0"/><use x="85" y="43" xlink:href="#r0"/><use x="87" y="43" xlink:href="#r0"/><use x="93" y="43" xlink:href="#r0"/><use x="97" y="43" xlink:href="#r0"/><use x="99" y="43" xlink:href="#r0"/><use x="21" y="45" xlink:href="#r0"/><use x="25" y="45" xlink:href="#r0"/><use x="27" y="45" xlink:href="#r0"/><use x="37" y="45" xlink:href="#r0"/><use x="39" y="45" xlink:href="#r0"/><use x="45" y="45" xlink:href="#r0"/><use x="47" y="45" xlink:href="#r0"/><use x="49" y="45" xlink:href="#r0"/><use x="51" y="45" xlink:href="#r0"/><use x="53" y="45" xlink:href="#r0"/><use x="57" y="45" xlink:href="#r0"/><use x="63" y="45" xlink:href="#r0"/><use x="65" y="45" xlink:href="#r0"/><use x="67" y="45" xlink:href="#r0"/><use x="69" y="45" xlink:href="#r0"/><use x="73" y="45" xlink:href="#r0"/><use x="75" y="45" xlink:href="#r0"/><use x="79" y="45" xlink:href="#r0"/><use x="83" y="45" xlink:href="#r0"/><use x="87" y="45" xlink:href="#r0"/><use x="91" y="45" xlink:href="#r0"/><use x="93" y="45" xlink:href="#r0"/><use x="99" y="45" xlink:href="#r0"/><use x="19" y="47" xlink:href="#r0"/><use x="21" y="47" xlink:href="#r0"/><use x="23" y="47" xlink:href="#r0"/><use x="27" y="47" xlink:href="#r0"/><use x="29" y="47" xlink:href="#r0"/><use x="31" y="47" xlink:href="#r0"/><use x="33" y="47" xlink:href="#r0"/><use x="35" y="47" xlink:href="#r0"/><use x="37" y="47" xlink:href="#r0"/><use x="39" y="47" xlink:href="#r0"/><use x="41" y="47" xlink:href="#r0"/><use x="43" y="47" xlink:href="#r0"/><use x="47" y="47" xlink:href="#r0"/><use x="49" y="47" xlink:href="#r0"/><use x="51" y="47" xlink:href="#r0"/><use x="55" y="47" xlink:href="#r0"/><use x="61" y="47" xlink:href="#r0"/><use x="67" y="47" xlink:href="#r0"/><use x="71" y="47" xlink:href="#r0"/><use x="73" y="47" xlink:href="#r0"/><use x="75" y="47" xlink:href="#r0"/><use x="79" y="47" xlink:href="#r0"/><use x="85" y="47" xlink:href="#r0"/><use x="87" y="47" xlink:href="#r0"/><use x="19" y="49" xlink:href="#r0"/><use x="23" y="49" xlink:href="#r0"/><use x="27" y="49" xlink:href="#r0"/><use x="29" y="49" xlink:href="#r0"/><use x="33" y="49" xlink:href="#r0"/><use x="37" y="49" xlink:href="#r0"/><use x="41" y="49" xlink:href="#r0"/><use x="55" y="49" xlink:href="#r0"/><use x="59" y="49" xlink:href="#r0"/><use x="63" y="49" xlink:href="#r0"/><use x="67" y="49" xlink:href="#r0"/><use x="83" y="49" xlink:href="#r0"/><use x="87" y="49" xlink:href="#r0"/><use x="91" y="49" xlink:href="#r0"/><use x="93" y="49" xlink:href="#r0"/><use x="95" y="49" xlink:href="#r0"/><use x="97" y="49" xlink:href="#r0"/><use x="99" y="49" xlink:href="#r0"/><use x="19" y="51" xlink:href="#r0"/><use x="25" y="51" xlink:href="#r0"/><use x="31" y="51" xlink:href="#r0"/><use x="35" y="51" xlink:href="#r0"/><use x="37" y="51" xlink:href="#r0"/><use x="39" y="51" xlink:href="#r0"/><use x="41" y="51" xlink:href="#r0"/><use x="43" y="51" xlink:href="#r0"/><use x="45" y="51" xlink:href="#r0"/><use x="49" y="51" xlink:href="#r0"/><use x="51" y="51" xlink:href="#r0"/><use x="69" y="51" xlink:href="#r0"/><use x="75" y="51" xlink:href="#r0"/><use x="77" y="51" xlink:href="#r0"/><use x="95" y="51" xlink:href="#r0"/><use x="97" y="51" xlink:href="#r0"/><use x="19" y="53" xlink:href="#r0"/><use x="27" y="53" xlink:href="#r0"/><use x="29" y="53" xlink:href="#r0"/><use x="35" y="53" xlink:href="#r0"/><use x="37" y="53" xlink:href="#r0"/><use x="39" y="53" xlink:href="#r0"/><use x="41" y="53" xlink:href="#r0"/><use x="45" y="53" xlink:href="#r0"/><use x="47" y="53" xlink:href="#r0"/><use x="51" y="53" xlink:href="#r0"/><use x="55" y="53" xlink:href="#r0"/><use x="57" y="53" xlink:href="#r0"/><use x="63" y="53" xlink:href="#r0"/><use x="65" y="53" xlink:href="#r0"/><use x="67" y="53" xlink:href="#r0"/><use x="69" y="53" xlink:href="#r0"/><use x="71" y="53" xlink:href="#r0"/><use x="75" y="53" xlink:href="#r0"/><use x="81" y="53" xlink:href="#r0"/><use x="83" y="53" xlink:href="#r0"/><use x="87" y="53" xlink:href="#r0"/><use x="91" y="53" xlink:href="#r0"/><use x="95" y="53" xlink:href="#r0"/><use x="99" y="53" xlink:href="#r0"/><use x="19" y="55" xlink:href="#r0"/><use x="23" y="55" xlink:href="#r0"/><use x="25" y="55" xlink:href="#r0"/><use x="31" y="55" xlink:href="#r0"/><use x="33" y="55" xlink:href="#r0"/><use x="35" y="55" xlink:href="#r0"/><use x="39" y="55" xlink:href="#r0"/><use x="41" y="55" xlink:href="#r0"/><use x="43" y="55" xlink:href="#r0"/><use x="49" y="55" xlink:href="#r0"/><use x="53" y="55" xlink:href="#r0"/><use x="55" y="55" xlink:href="#r0"/><use x="57" y="55" xlink:href="#r0"/><use x="59" y="55" xlink:href="#r0"/><use x="61" y="55" xlink:href="#r0"/><use x="63" y="55" xlink:href="#r0"/><use x="65" y="55" xlink:href="#r0"/><use x="69" y="55" xlink:href="#r0"/><use x="71" y="55" xlink:href="#r0"/><use x="73" y="55" xlink:href="#r0"/><use x="75" y="55" xlink:href="#r0"/><use x="77" y="55" xlink:href="#r0"/><use x="79" y="55" xlink:href="#r0"/><use x="81" y="55" xlink:href="#r0"/><use x="95" y="55" xlink:href="#r0"/><use x="99" y="55" xlink:href="#r0"/><use x="19" y="57" xlink:href="#r0"/><use x="23" y="57" xlink:href="#r0"/><use x="29" y="57" xlink:href="#r0"/><use x="33" y="57" xlink:href="#r0"/><use x="35" y="57" xlink:href="#r0"/><use x="41" y="57" xlink:href="#r0"/><use x="45" y="57" xlink:href="#r0"/><use x="51" y="57" xlink:href="#r0"/><use x="55" y="57" xlink:href="#r0"/><use x="71" y="57" xlink:href="#r0"/><use x="73" y="57" xlink:href="#r0"/><use x="75" y="57" xlink:href="#r0"/><use x="79" y="57" xlink:href="#r0"/><use x="83" y="57" xlink:href="#r0"/><use x="85" y="57" xlink:href="#r0"/><use x="87" y="57" xlink:href="#r0"/><use x="93" y="57" xlink:href="#r0"/><use x="97" y="57" xlink:href="#r0"/><use x="19" y="59" xlink:href="#r0"/><use x="21" y="59" xlink:href="#r0"/><use x="25" y="59" xlink:href="#r0"/><use x="29" y="59" xlink:href="#r0"/><use x="31" y="59" xlink:href="#r0"/><use x="37" y="59" xlink:href="#r0"/><use x="47" y="59" xlink:href="#r0"/><use x="53" y="59" xlink:href="#r0"/><use x="57" y="59" xlink:href="#r0"/><use x="69" y="59" xlink:href="#r0"/><use x="71" y="59" xlink:href="#r0"/><use x="77" y="59" xlink:href="#r0"/><use x="79" y="59" xlink:href="#r0"/><use x="81" y="59" xlink:href="#r0"/><use x="85" y="59" xlink:href="#r0"/><use x="89" y="59" xlink:href="#r0"/><use x="95" y="59" xlink:href="#r0"/><use x="99" y="59" xlink:href="#r0"/><use x="19" y="61" xlink:href="#r0"/><use x="23" y="61" xlink:href="#r0"/><use x="27" y="61" xlink:href="#r0"/><use x="33" y="61" xlink:href="#r0"/><use x="43" y="61" xlink:href="#r0"/><use x="47" y="61" xlink:href="#r0"/><use x="49" y="61" xlink:href="#r0"/><use x="57" y="61" xlink:href="#r0"/><use x="59" y="61" xlink:href="#r0"/><use x="63" y="61" xlink:href="#r0"/><use x="65" y="61" xlink:href="#r0"/><use x="67" y="61" xlink:href="#r0"/><use x="73" y="61" xlink:href="#r0"/><use x="81" y="61" xlink:href="#r0"/><use x="83" y="61" xlink:href="#r0"/><use x="85" y="61" xlink:href="#r0"/><use x="91" y="61" xlink:href="#r0"/><use x="27" y="63" xlink:href="#r0"/><use x="29" y="63" xlink:href="#r0"/><use x="31" y="63" xlink:href="#r0"/><use x="33" y="63" xlink:href="#r0"/><use x="37" y="63" xlink:href="#r0"/><use x="39" y="63" xlink:href="#r0"/><use x="45" y="63" xlink:href="#r0"/><use x="49" y="63" xlink:href="#r0"/><use x="55" y="63" xlink:href="#r0"/><use x="73" y="63" xlink:href="#r0"/><use x="75" y="63" xlink:href="#r0"/><use x="77" y="63" xlink:href="#r0"/><use x="79" y="63" xlink:href="#r0"/><use x="83" y="63" xlink:href="#r0"/><use x="85" y="63" xlink:href="#r0"/><use x="87" y="63" xlink:href="#r0"/><use x="93" y="63" xlink:href="#r0"/><use x="19" y="65" xlink:href="#r0"/><use x="21" y="65" xlink:href="#r0"/><use x="25" y="65" xlink:href="#r0"/><use x="29" y="65" xlink:href="#r0"/><use x="35" y="65" xlink:href="#r0"/><use x="43" y="65" xlink:href="#r0"/><use x="51" y="65" xlink:href="#r0"/><use x="57" y="65" xlink:href="#r0"/><use x="65" y="65" xlink:href="#r0"/><use x="67" y="65" xlink:href="#r0"/><use x="71" y="65" xlink:href="#r0"/><use x="75" y="65" xlink:href="#r0"/><use x="83" y="65" xlink:href="#r0"/><use x="85" y="65" xlink:href="#r0"/><use x="91" y="65" xlink:href="#r0"/><use x="93" y="65" xlink:href="#r0"/><use x="97" y="65" xlink:href="#r0"/><use x="23" y="67" xlink:href="#r0"/><use x="27" y="67" xlink:href="#r0"/><use x="31" y="67" xlink:href="#r0"/><use x="33" y="67" xlink:href="#r0"/><use x="37" y="67" xlink:href="#r0"/><use x="39" y="67" xlink:href="#r0"/><use x="41" y="67" xlink:href="#r0"/><use x="43" y="67" xlink:href="#r0"/><use x="47" y="67" xlink:href="#r0"/><use x="49" y="67" xlink:href="#r0"/><use x="51" y="67" xlink:href="#r0"/><use x="53" y="67" xlink:href="#r0"/><use x="63" y="67" xlink:href="#r0"/><use x="65" y="67" xlink:href="#r0"/><use x="71" y="67" xlink:href="#r0"/><use x="73" y="67" xlink:href="#r0"/><use x="75" y="67" xlink:href="#r0"/><use x="83" y="67" xlink:href="#r0"/><use x="87" y="67" xlink:href="#r0"/><use x="89" y="67" xlink:href="#r0"/><use x="19" y="69" xlink:href="#r0"/><use x="21" y="69" xlink:href="#r0"/><use x="23" y="69" xlink:href="#r0"/><use x="25" y="69" xlink:href="#r0"/><use x="33" y="69" xlink:href="#r0"/><use x="35" y="69" xlink:href="#r0"/><use x="39" y="69" xlink:href="#r0"/><use x="47" y="69" xlink:href="#r0"/><use x="49" y="69" xlink:href="#r0"/><use x="55" y="69" xlink:href="#r0"/><use x="57" y="69" xlink:href="#r0"/><use x="61" y="69" xlink:href="#r0"/><use x="65" y="69" xlink:href="#r0"/><use x="67" y="69" xlink:href="#r0"/><use x="71" y="69" xlink:href="#r0"/><use x="73" y="69" xlink:href="#r0"/><use x="79" y="69" xlink:href="#r0"/><use x="83" y="69" xlink:href="#r0"/><use x="87" y="69" xlink:href="#r0"/><use x="89" y="69" xlink:href="#r0"/><use x="91" y="69" xlink:href="#r0"/><use x="95" y="69" xlink:href="#r0"/><use x="99" y="69" xlink:href="#r0"/><use x="21" y="71" xlink:href="#r0"/><use x="25" y="71" xlink:href="#r0"/><use x="31" y="71" xlink:href="#r0"/><use x="39" y="71" xlink:href="#r0"/><use x="49" y="71" xlink:href="#r0"/><use x="51" y="71" xlink:href="#r0"/><use x="53" y="71" xlink:href="#r0"/><use x="55" y="71" xlink:href="#r0"/><use x="59" y="71" xlink:href="#r0"/><use x="61" y="71" xlink:href="#r0"/><use x="63" y="71" xlink:href="#r0"/><use x="69" y="71" xlink:href="#r0"/><use x="71" y="71" xlink:href="#r0"/><use x="73" y="71" xlink:href="#r0"/><use x="79" y="71" xlink:href="#r0"/><use x="85" y="71" xlink:href="#r0"/><use x="89" y="71" xlink:href="#r0"/><use x="91" y="71" xlink:href="#r0"/><use x="93" y="71" xlink:href="#r0"/><use x="95" y="71" xlink:href="#r0"/><use x="23" y="73" xlink:href="#r0"/><use x="25" y="73" xlink:href="#r0"/><use x="27" y="73" xlink:href="#r0"/><use x="29" y="73" xlink:href="#r0"/><use x="33" y="73" xlink:href="#r0"/><use x="41" y="73" xlink:href="#r0"/><use x="43" y="73" xlink:href="#r0"/><use x="49" y="73" xlink:href="#r0"/><use x="51" y="73" xlink:href="#r0"/><use x="55" y="73" xlink:href="#r0"/><use x="59" y="73" xlink:href="#r0"/><use x="67" y="73" xlink:href="#r0"/><use x="71" y="73" xlink:href="#r0"/><use x="75" y="73" xlink:href="#r0"/><use x="79" y="73" xlink:href="#r0"/><use x="83" y="73" xlink:href="#r0"/><use x="91" y="73" xlink:href="#r0"/><use x="93" y="73" xlink:href="#r0"/><use x="95" y="73" xlink:href="#r0"/><use x="27" y="75" xlink:href="#r0"/><use x="31" y="75" xlink:href="#r0"/><use x="35" y="75" xlink:href="#r0"/><use x="37" y="75" xlink:href="#r0"/><use x="39" y="75" xlink:href="#r0"/><use x="41" y="75" xlink:href="#r0"/><use x="43" y="75" xlink:href="#r0"/><use x="51" y="75" xlink:href="#r0"/><use x="53" y="75" xlink:href="#r0"/><use x="59" y="75" xlink:href="#r0"/><use x="69" y="75" xlink:href="#r0"/><use x="71" y="75" xlink:href="#r0"/><use x="75" y="75" xlink:href="#r0"/><use x="77" y="75" xlink:href="#r0"/><use x="79" y="75" xlink:href="#r0"/><use x="85" y="75" xlink:href="#r0"/><use x="89" y="75" xlink:href="#r0"/><use x="95" y="75" xlink:href="#r0"/><use x="97" y="75" xlink:href="#r0"/><use x="19" y="77" xlink:href="#r0"/><use x="21" y="77" xlink:href="#r0"/><use x="23" y="77" xlink:href="#r0"/><use x="25" y="77" xlink:href="#r0"/><use x="27" y="77" xlink:href="#r0"/><use x="33" y="77" xlink:href="#r0"/><use x="35" y="77" xlink:href="#r0"/><use x="39" y="77" xlink:href="#r0"/><use x="47" y="77" xlink:href="#r0"/><use x="49" y="77" xlink:href="#r0"/><use x="51" y="77" xlink:href="#r0"/><use x="53" y="77" xlink:href="#r0"/><use x="55" y="77" xlink:href="#r0"/><use x="57" y="77" xlink:href="#r0"/><use x="61" y="77" xlink:href="#r0"/><use x="65" y="77" xlink:href="#r0"/><use x="67" y="77" xlink:href="#r0"/><use x="69" y="77" xlink:href="#r0"/><use x="73" y="77" xlink:href="#r0"/><use x="75" y="77" xlink:href="#r0"/><use x="79" y="77" xlink:href="#r0"/><use x="81" y="77" xlink:href="#r0"/><use x="85" y="77" xlink:href="#r0"/><use x="87" y="77" xlink:href="#r0"/><use x="91" y="77" xlink:href="#r0"/><use x="93" y="77" xlink:href="#r0"/><use x="19" y="79" xlink:href="#r0"/><use x="21" y="79" xlink:href="#r0"/><use x="29" y="79" xlink:href="#r0"/><use x="31" y="79" xlink:href="#r0"/><use x="33" y="79" xlink:href="#r0"/><use x="43" y="79" xlink:href="#r0"/><use x="49" y="79" xlink:href="#r0"/><use x="57" y="79" xlink:href="#r0"/><use x="61" y="79" xlink:href="#r0"/><use x="65" y="79" xlink:href="#r0"/><use x="69" y="79" xlink:href="#r0"/><use x="71" y="79" xlink:href="#r0"/><use x="73" y="79" xlink:href="#r0"/><use x="77" y="79" xlink:href="#r0"/><use x="79" y="79" xlink:href="#r0"/><use x="81" y="79" xlink:href="#r0"/><use x="83" y="79" xlink:href="#r0"/><use x="87" y="79" xlink:href="#r0"/><use x="89" y="79" xlink:href="#r0"/><use x="93" y="79" xlink:href="#r0"/><use x="99" y="79" xlink:href="#r0"/><use x="19" y="81" xlink:href="#r0"/><use x="33" y="81" xlink:href="#r0"/><use x="35" y="81" xlink:href="#r0"/><use x="39" y="81" xlink:href="#r0"/><use x="41" y="81" xlink:href="#r0"/><use x="49" y="81" xlink:href="#r0"/><use x="51" y="81" xlink:href="#r0"/><use x="55" y="81" xlink:href="#r0"/><use x="57" y="81" xlink:href="#r0"/><use x="63" y="81" xlink:href="#r0"/><use x="67" y="81" xlink:href="#r0"/><use x="71" y="81" xlink:href="#r0"/><use x="73" y="81" xlink:href="#r0"/><use x="85" y="81" xlink:href="#r0"/><use x="87" y="81" xlink:href="#r0"/><use x="93" y="81" xlink:href="#r0"/><use x="97" y="81" xlink:href="#r0"/><use x="19" y="83" xlink:href="#r0"/><use x="23" y="83" xlink:href="#r0"/><use x="25" y="83" xlink:href="#r0"/><use x="31" y="83" xlink:href="#r0"/><use x="33" y="83" xlink:href="#r0"/><use x="37" y="83" xlink:href="#r0"/><use x="41" y="83" xlink:href="#r0"/><use x="45" y="83" xlink:href="#r0"/><use x="53" y="83" xlink:href="#r0"/><use x="55" y="83" xlink:href="#r0"/><use x="59" y="83" xlink:href="#r0"/><use x="69" y="83" xlink:href="#r0"/><use x="73" y="83" xlink:href="#r0"/><use x="77" y="83" xlink:href="#r0"/><use x="83" y="83" xlink:href="#r0"/><use x="85" y="83" xlink:href="#r0"/><use x="87" y="83" xlink:href="#r0"/><use x="89" y="83" xlink:href="#r0"/><use x="91" y="83" xlink:href="#r0"/><use x="95" y="83" xlink:href="#r0"/><use x="99" y="83" xlink:href="#r0"/><use x="35" y="85" xlink:href="#r0"/><use x="39" y="85" xlink:href="#r0"/><use x="41" y="85" xlink:href="#r0"/><use x="43" y="85" xlink:href="#r0"/><use x="45" y="85" xlink:href="#r0"/><use x="53" y="85" xlink:href="#r0"/><use x="55" y="85" xlink:href="#r0"/><use x="57" y="85" xlink:href="#r0"/><use x="59" y="85" xlink:href="#r0"/><use x="65" y="85" xlink:href="#r0"/><use x="67" y="85" xlink:href="#r0"/><use x="77" y="85" xlink:href="#r0"/><use x="79" y="85" xlink:href="#r0"/><use x="83" y="85" xlink:href="#r0"/><use x="91" y="85" xlink:href="#r0"/><use x="95" y="85" xlink:href="#r0"/><use x="97" y="85" xlink:href="#r0"/><use x="19" y="87" xlink:href="#r0"/><use x="21" y="87" xlink:href="#r0"/><use x="23" y="87" xlink:href="#r0"/><use x="25" y="87" xlink:href="#r0"/><use x="27" y="87" xlink:href="#r0"/><use x="29" y="87" xlink:href="#r0"/><use x="31" y="87" xlink:href="#r0"/><use x="35" y="87" xlink:href="#r0"/><use x="39" y="87" xlink:href="#r0"/><use x="45" y="87" xlink:href="#r0"/><use x="47" y="87" xlink:href="#r0"/><use x="49" y="87" xlink:href="#r0"/><use x="51" y="87" xlink:href="#r0"/><use x="53" y="87" xlink:href="#r0"/><use x="61" y="87" xlink:href="#r0"/><use x="71" y="87" xlink:href="#r0"/><use x="73" y="87" xlink:href="#r0"/><use x="81" y="87" xlink:href="#r0"/><use x="83" y="87" xlink:href="#r0"/><use x="87" y="87" xlink:href="#r0"/><use x="91" y="87" xlink:href="#r0"/><use x="93" y="87" xlink:href="#r0"/><use x="95" y="87" xlink:href="#r0"/><use x="19" y="89" xlink:href="#r0"/><use x="31" y="89" xlink:href="#r0"/><use x="35" y="89" xlink:href="#r0"/><use x="37" y="89" xlink:href="#r0"/><use x="39" y="89" xlink:href="#r0"/><use x="41" y="89" xlink:href="#r0"/><use x="45" y="89" xlink:href="#r0"/><use x="49" y="89" xlink:href="#r0"/><use x="65" y="89" xlink:href="#r0"/><use x="71" y="89" xlink:href="#r0"/><use x="83" y="89" xlink:href="#r0"/><use x="91" y="89" xlink:href="#r0"/><use x="93" y="89" xlink:href="#r0"/><use x="97" y="89" xlink:href="#r0"/><use x="99" y="89" xlink:href="#r0"/><use x="19" y="91" xlink:href="#r0"/><use x="23" y="91" xlink:href="#r0"/><use x="25" y="91" xlink:href="#r0"/><use x="27" y="91" xlink:href="#r0"/><use x="31" y="91" xlink:href="#r0"/><use x="37" y="91" xlink:href="#r0"/><use x="39" y="91" xlink:href="#r0"/><use x="45" y="91" xlink:href="#r0"/><use x="49" y="91" xlink:href="#r0"/><use x="51" y="91" xlink:href="#r0"/><use x="57" y="91" xlink:href="#r0"/><use x="61" y="91" xlink:href="#r0"/><use x="65" y="91" xlink:href="#r0"/><use x="71" y="91" xlink:href="#r0"/><use x="79" y="91" xlink:href="#r0"/><use x="81" y="91" xlink:href="#r0"/><use x="83" y="91" xlink:href="#r0"/><use x="85" y="91" xlink:href="#r0"/><use x="87" y="91" xlink:href="#r0"/><use x="89" y="91" xlink:href="#r0"/><use x="91" y="91" xlink:href="#r0"/><use x="93" y="91" xlink:href="#r0"/><use x="19" y="93" xlink:href="#r0"/><use x="23" y="93" xlink:href="#r0"/><use x="25" y="93" xlink:href="#r0"/><use x="27" y="93" xlink:href="#r0"/><use x="31" y="93" xlink:href="#r0"/><use x="37" y="93" xlink:href="#r0"/><use x="39" y="93" xlink:href="#r0"/><use x="43" y="93" xlink:href="#r0"/><use x="45" y="93" xlink:href="#r0"/><use x="49" y="93" xlink:href="#r0"/><use x="51" y="93" xlink:href="#r0"/><use x="55" y="93" xlink:href="#r0"/><use x="57" y="93" xlink:href="#r0"/><use x="59" y="93" xlink:href="#r0"/><use x="65" y="93" xlink:href="#r0"/><use x="67" y="93" xlink:href="#r0"/><use x="71" y="93" xlink:href="#r0"/><use x="75" y="93" xlink:href="#r0"/><use x="77" y="93" xlink:href="#r0"/><use x="79" y="93" xlink:href="#r0"/><use x="85" y="93" xlink:href="#r0"/><use x="93" y="93" xlink:href="#r0"/><use x="97" y="93" xlink:href="#r0"/><use x="99" y="93" xlink:href="#r0"/><use x="19" y="95" xlink:href="#r0"/><use x="23" y="95" xlink:href="#r0"/><use x="25" y="95" xlink:href="#r0"/><use x="27" y="95" xlink:href="#r0"/><use x="31" y="95" xlink:href="#r0"/><use x="39" y="95" xlink:href="#r0"/><use x="45" y="95" xlink:href="#r0"/><use x="49" y="95" xlink:href="#r0"/><use x="51" y="95" xlink:href="#r0"/><use x="55" y="95" xlink:href="#r0"/><use x="67" y="95" xlink:href="#r0"/><use x="73" y="95" xlink:href="#r0"/><use x="75" y="95" xlink:href="#r0"/><use x="79" y="95" xlink:href="#r0"/><use x="83" y="95" xlink:href="#r0"/><use x="85" y="95" xlink:href="#r0"/><use x="87" y="95" xlink:href="#r0"/><use x="89" y="95" xlink:href="#r0"/><use x="91" y="95" xlink:href="#r0"/><use x="93" y="95" xlink:href="#r0"/><use x="19" y="97" xlink:href="#r0"/><use x="31" y="97" xlink:href="#r0"/><use x="35" y="97" xlink:href="#r0"/><use x="43" y="97" xlink:href="#r0"/><use x="55" y="97" xlink:href="#r0"/><use x="63" y="97" xlink:href="#r0"/><use x="65" y="97" xlink:href="#r0"/><use x="67" y="97" xlink:href="#r0"/><use x="71" y="97" xlink:href="#r0"/><use x="79" y="97" xlink:href="#r0"/><use x="81" y="97" xlink:href="#r0"/><use x="85" y="97" xlink:href="#r0"/><use x="87" y="97" xlink:href="#r0"/><use x="91" y="97" xlink:href="#r0"/><use x="95" y="97" xlink:href="#r0"/><use x="99" y="97" xlink:href="#r0"/><use x="19" y="99" xlink:href="#r0"/><use x="21" y="99" xlink:href="#r0"/><use x="23" y="99" xlink:href="#r0"/><use x="25" y="99" xlink:href="#r0"/><use x="27" y="99" xlink:href="#r0"/><use x="29" y="99" xlink:href="#r0"/><use x="31" y="99" xlink:href="#r0"/><use x="35" y="99" xlink:href="#r0"/><use x="37" y="99" xlink:href="#r0"/><use x="39" y="99" xlink:href="#r0"/><use x="43" y="99" xlink:href="#r0"/><use x="45" y="99" xlink:href="#r0"/><use x="51" y="99" xlink:href="#r0"/><use x="59" y="99" xlink:href="#r0"/><use x="65" y="99" xlink:href="#r0"/><use x="69" y="99" xlink:href="#r0"/><use x="77" y="99" xlink:href="#r0"/><use x="79" y="99" xlink:href="#r0"/><use x="93" y="99" xlink:href="#r0"/><use x="95" y="99" xlink:href="#r0"/></svg>