<svg xmlns="http://www.w3.org/2000/svg" xmlns:xlink="http://www.w3.org/1999/xlink" version="1.1" width="130px" height="130px" viewBox="0 0 130 130"><defs><rect id="r0" width="2" height="2" fill="#000000"/></defs><rect x="0" y="0" width="130" height="130" fill="#fefefe"/><use x="16" y="16" xlink:href="#r0"/><use x="18" y="16" xlink:href="#r0"/><use x="20" y="16" xlink:href="#r0"/><use x="22" y="16" xlink:href="#r0"/><use x="24" y="16" xlink:href="#r0"/><use x="26" y="16" xlink:href="#r0"/><use x="28" y="16" xlink:href="#r0"/><use x="32" y="16" xlink:href="#r0"/><use x="34" y="16" xlink:href="#r0"/><use x="36" y="16" xlink:href="#r0"/><use x="40" y="16" xlink:href="#r0"/><use x="50" y="16" xlink:href="#r0"/><use x="58" y="16" xlink:href="#r0"/><use x="66" y="16" xlink:href="#r0"/><use x="72" y="16" xlink:href="#r0"/><use x="74" y="16" xlink:href="#r0"/><use x="76" y="16" xlink:href="#r0"/><use x="80" y="16" xlink:href="#r0"/><use x="82" y="16" xlink:href="#r0"/><use x="86" y="16" xlink:href="#r0"/><use x="88" y="16" xlink:href="#r0"/><use x="90" y="16" xlink:href="#r0"/><use x="96" y="16" xlink:href="#r0"/><use x="100" y="16" xlink:href="#r0"/><use x="102" y="16" xlink:href="#r0"/><use x="104" y="16" xlink:href="#r0"/><use x="106" y="16" xlink:href="#r0"/><use x="108" y="16" xlink:href="#r0"/><use x="110" y="16" xlink:href="#r0"/><use x="112" y="16" xlink:href="#r0"/><use x="16" y="18" xlink:href="#r0"/><use x="28" y="18" xlink:href="#r0"/><use x="36" y="18" xlink:href="#r0"/><use x="40" y="18" xlink:href="#r0"/><use x="42" y="18" xlink:href="#r0"/><use x="46" y="18" xlink:href="#r0"/><use x="48" y="18" xlink:href="#r0"/><use x="52" y="18" xlink:href="#r0"/><use x="54" y="18" xlink:href="#r0"/><use x="56" y="18" xlink:href="#r0"/><use x="60" y="18" xlink:href="#r0"/><use x="64" y="18" xlink:href="#r0"/><use x="66" y="18" xlink:href="#r0"/><use x="70" y="18" xlink:href="#r0"/><use x="72" y="18" xlink:href="#r0"/><use x="74" y="18" xlink:href="#r0"/><use x="76" y="18" xlink:href="#r0"/><use x="80" y="18" xlink:href="#r0"/><use x="82" y="18" xlink:href="#r0"/><use x="84" y="18" xlink:href="#r0"/><use x="90" y="18" xlink:href="#r0"/><use x="92" y="18" xlink:href="#r0"/><use x="94" y="18" xlink:href="#r0"/><use x="96" y="18" xlink:href="#r0"/><use x="100" y="18" xlink:href="#r0"/><use x="112" y="18" xlink:href="#r0"/><use x="16" y="20" xlink:href="#r0"/><use x="20" y="20" xlink:href="#r0"/><use x="22" y="20" xlink:href="#r0"/><use x="24" y="20" xlink:href="#r0"/><use x="28" y="20" xlink:href="#r0"/><use x="32" y="20" xlink:href="#r0"/><use x="34" y="20" xlink:href="#r0"/><use x="36" y="20" xlink:href="#r0"/><use x="42" y="20" xlink:href="#r0"/><use x="44" y="20" xlink:href="#r0"/><use x="52" y="20" xlink:href="#r0"/><use x="60" y="20" xlink:href="#r0"/><use x="66" y="20" xlink:href="#r0"/><use x="68" y="20" xlink:href="#r0"/><use x="72" y="20" xlink:href="#r0"/><use x="80" y="20" xlink:href="#r0"/><use x="84" y="20" xlink:href="#r0"/><use x="86" y="20" xlink:href="#r0"/><use x="88" y="20" xlink:href="#r0"/><use x="90" y="20" xlink:href="#r0"/><use x="94" y="20" xlink:href="#r0"/><use x="96" y="20" xlink:href="#r0"/><use x="100" y="20" xlink:href="#r0"/><use x="104" y="20" xlink:href="#r0"/><use x="106" y="20" xlink:href="#r0"/><use x="108" y="20" xlink:href="#r0"/><use x="112" y="20" xlink:href="#r0"/><use x="16" y="22" xlink:href="#r0"/><use x="20" y="22" xlink:href="#r0"/><use x="22" y="22" xlink:href="#r0"/><use x="24" y="22" xlink:href="#r0"/><use x="28" y="22" xlink:href="#r0"/><use x="32" y="22" xlink:href="#r0"/><use x="34" y="22" xlink:href="#r0"/><use x="38" y="22" xlink:href="#r0"/><use x="42" y="22" xlink:href="#r0"/><use x="44" y="22" xlink:href="#r0"/><use x="50" y="22" xlink:href="#r0"/><use x="54" y="22" xlink:href="#r0"/><use x="62" y="22" xlink:href="#r0"/><use x="68" y="22" xlink:href="#r0"/><use x="82" y="22" xlink:href="#r0"/><use x="88" y="22" xlink:href="#r0"/><use x="90" y="22" xlink:href="#r0"/><use x="94" y="22" xlink:href="#r0"/><use x="100" y="22" xlink:href="#r0"/><use x="104" y="22" xlink:href="#r0"/><use x="106" y="22" xlink:href="#r0"/><use x="108" y="22" xlink:href="#r0"/><use x="112" y="22" xlink:href="#r0"/><use x="16" y="24" xlink:href="#r0"/><use x="20" y="24" xlink:href="#r0"/><use x="22" y="24" xlink:href="#r0"/><use x="24" y="24" xlink:href="#r0"/><use x="28" y="24" xlink:href="#r0"/><use x="32" y="24" xlink:href="#r0"/><use x="40" y="24" xlink:href="#r0"/><use x="44" y="24" xlink:href="#r0"/><use x="50" y="24" xlink:href="#r0"/><use x="56" y="24" xlink:href="#r0"/><use x="60" y="24" xlink:href="#r0"/><use x="62" y="24" xlink:href="#r0"/><use x="64" y="24" xlink:href="#r0"/><use x="66" y="24" xlink:href="#r0"/><use x="68" y="24" xlink:href="#r0"/><use x="70" y="24" xlink:href="#r0"/><use x="74" y="24" xlink:href="#r0"/><use x="80" y="24" xlink:href="#r0"/><use x="90" y="24" xlink:href="#r0"/><use x="100" y="24" xlink:href="#r0"/><use x="104" y="24" xlink:href="#r0"/><use x="106" y="24" xlink:href="#r0"/><use x="108" y="24" xlink:href="#r0"/><use x="112" y="24" xlink:href="#r0"/><use x="16" y="26" xlink:href="#r0"/><use x="28" y="26" xlink:href="#r0"/><use x="34" y="26" xlink:href="#r0"/><use x="36" y="26" xlink:href="#r0"/><use x="40" y="26" xlink:href="#r0"/><use x="46" y="26" xlink:href="#r0"/><use x="48" y="26" xlink:href="#r0"/><use x="52" y="26" xlink:href="#r0"/><use x="60" y="26" xlink:href="#r0"/><use x="68" y="26" xlink:href="#r0"/><use x="74" y="26" xlink:href="#r0"/><use x="76" y="26" xlink:href="#r0"/><use x="78" y="26" xlink:href="#r0"/><use x="82" y="26" xlink:href="#r0"/><use x="88" y="26" xlink:href="#r0"/><use x="90" y="26" xlink:href="#r0"/><use x="92" y="26" xlink:href="#r0"/><use x="100" y="26" xlink:href="#r0"/><use x="112" y="26" xlink:href="#r0"/><use x="16" y="28" xlink:href="#r0"/><use x="18" y="28" xlink:href="#r0"/><use x="20" y="28" xlink:href="#r0"/><use x="22" y="28" xlink:href="#r0"/><use x="24" y="28" xlink:href="#r0"/><use x="26" y="28" xlink:href="#r0"/><use x="28" y="28" xlink:href="#r0"/><use x="32" y="28" xlink:href="#r0"/><use x="36" y="28" xlink:href="#r0"/><use x="40" y="28" xlink:href="#r0"/><use x="44" y="28" xlink:href="#r0"/><use x="48" y="28" xlink:href="#r0"/><use x="52" y="28" xlink:href="#r0"/><use x="56" y="28" xlink:href="#r0"/><use x="60" y="28" xlink:href="#r0"/><use x="64" y="28" xlink:href="#r0"/><use x="68" y="28" xlink:href="#r0"/><use x="72" y="28" xlink:href="#r0"/><use x="76" y="28" xlink:href="#r0"/><use x="80" y="28" xlink:href="#r0"/><use x="84" y="28" xlink:href="#r0"/><use x="88" y="28" xlink:href="#r0"/><use x="92" y="28" xlink:href="#r0"/><use x="96" y="28" xlink:href="#r0"/><use x="100" y="28" xlink:href="#r0"/><use x="102" y="28" xlink:href="#r0"/><use x="104" y="28" xlink:href="#r0"/><use x="106" y="28" xlink:href="#r0"/><use x="108" y="28" xlink:href="#r0"/><use x="110" y="28" xlink:href="#r0"/><use x="112" y="28" xlink:href="#r0"/><use x="40" y="30" xlink:href="#r0"/><use x="56" y="30" xlink:href="#r0"/><use x="60" y="30" xlink:href="#r0"/><use x="68" y="30" xlink:href="#r0"/><use x="72" y="30" xlink:href="#r0"/><use x="78" y="30" xlink:href="#r0"/><use x="80" y="30" xlink:href="#r0"/><use x="88" y="30" xlink:href="#r0"/><use x="90" y="30" xlink:href="#r0"/><use x="16" y="32" xlink:href="#r0"/><use x="18" y="32" xlink:href="#r0"/><use x="20" y="32" xlink:href="#r0"/><use x="22" y="32" xlink:href="#r0"/><use x="28" y="32" xlink:href="#r0"/><use x="32" y="32" xlink:href="#r0"/><use x="34" y="32" xlink:href="#r0"/><use x="36" y="32" xlink:href="#r0"/><use x="46" y="32" xlink:href="#r0"/><use x="56" y="32" xlink:href="#r0"/><use x="58" y="32" xlink:href="#r0"/><use x="60" y="32" xlink:href="#r0"/><use x="62" y="32" xlink:href="#r0"/><use x="64" y="32" xlink:href="#r0"/><use x="66" y="32" xlink:href="#r0"/><use x="68" y="32" xlink:href="#r0"/><use x="70" y="32" xlink:href="#r0"/><use x="72" y="32" xlink:href="#r0"/><use x="74" y="32" xlink:href="#r0"/><use x="84" y="32" xlink:href="#r0"/><use x="98" y="32" xlink:href="#r0"/><use x="104" y="32" xlink:href="#r0"/><use x="106" y="32" xlink:href="#r0"/><use x="108" y="32" xlink:href="#r0"/><use x="112" y="32" xlink:href="#r0"/><use x="24" y="34" xlink:href="#r0"/><use x="26" y="34" xlink:href="#r0"/><use x="30" y="34" xlink:href="#r0"/><use x="38" y="34" xlink:href="#r0"/><use x="44" y="34" xlink:href="#r0"/><use x="46" y="34" xlink:href="#r0"/><use x="50" y="34" xlink:href="#r0"/><use x="60" y="34" xlink:href="#r0"/><use x="66" y="34" xlink:href="#r0"/><use x="74" y="34" xlink:href="#r0"/><use x="76" y="34" xlink:href="#r0"/><use x="82" y="34" xlink:href="#r0"/><use x="86" y="34" xlink:href="#r0"/><use x="90" y="34" xlink:href="#r0"/><use x="98" y="34" xlink:href="#r0"/><use x="100" y="34" xlink:href="#r0"/><use x="106" y="34" xlink:href="#r0"/><use x="108" y="34" xlink:href="#r0"/><use x="110" y="34" xlink:href="#r0"/><use x="22" y="36" xlink:href="#r0"/><use x="28" y="36" xlink:href="#r0"/><use x="32" y="36" xlink:href="#r0"/><use x="34" y="36" xlink:href="#r0"/><use x="36" y="36" xlink:href="#r0"/><use x="44" y="36" xlink:href="#r0"/><use x="46" y="36" xlink:href="#r0"/><use x="48" y="36" xlink:href="#r0"/><use x="50" y="36" xlink:href="#r0"/><use x="54" y="36" xlink:href="#r0"/><use x="58" y="36" xlink:href="#r0"/><use x="64" y="36" xlink:href="#r0"/><use x="68" y="36" xlink:href="#r0"/><use x="70" y="36" xlink:href="#r0"/><use x="72" y="36" xlink:href="#r0"/><use x="76" y="36" xlink:href="#r0"/><use x="80" y="36" xlink:href="#r0"/><use x="82" y="36" xlink:href="#r0"/><use x="84" y="36" xlink:href="#r0"/><use x="88" y="36" xlink:href="#r0"/><use x="94" y="36" xlink:href="#r0"/><use x="98" y="36" xlink:href="#r0"/><use x="104" y="36" xlink:href="#r0"/><use x="106" y="36" xlink:href="#r0"/><use x="110" y="36" xlink:href="#r0"/><use x="16" y="38" xlink:href="#r0"/><use x="18" y="38" xlink:href="#r0"/><use x="20" y="38" xlink:href="#r0"/><use x="30" y="38" xlink:href="#r0"/><use x="36" y="38" xlink:href="#r0"/><use x="38" y="38" xlink:href="#r0"/><use x="46" y="38" xlink:href="#r0"/><use x="50" y="38" xlink:href="#r0"/><use x="58" y="38" xlink:href="#r0"/><use x="60" y="38" xlink:href="#r0"/><use x="72" y="38" xlink:href="#r0"/><use x="80" y="38" xlink:href="#r0"/><use x="82" y="38" xlink:href="#r0"/><use x="84" y="38" xlink:href="#r0"/><use x="86" y="38" xlink:href="#r0"/><use x="88" y="38" xlink:href="#r0"/><use x="90" y="38" xlink:href="#r0"/><use x="94" y="38" xlink:href="#r0"/><use x="98" y="38" xlink:href="#r0"/><use x="102" y="38" xlink:href="#r0"/><use x="104" y="38" xlink:href="#r0"/><use x="106" y="38" xlink:href="#r0"/><use x="108" y="38" xlink:href="#r0"/><use x="110" y="38" xlink:href="#r0"/><use x="16" y="40" xlink:href="#r0"/><use x="20" y="40" xlink:href="#r0"/><use x="28" y="40" xlink:href="#r0"/><use x="32" y="40" xlink:href="#r0"/><use x="34" y="40" xlink:href="#r0"/><use x="38" y="40" xlink:href="#r0"/><use x="40" y="40" xlink:href="#r0"/><use x="46" y="40" xlink:href="#r0"/><use x="52" y="40" xlink:href="#r0"/><use x="62" y="40" xlink:href="#r0"/><use x="64" y="40" xlink:href="#r0"/><use x="74" y="40" xlink:href="#r0"/><use x="84" y="40" xlink:href="#r0"/><use x="88" y="40" xlink:href="#r0"/><use x="90" y="40" xlink:href="#r0"/><use x="96" y="40" xlink:href="#r0"/><use x="98" y="40" xlink:href="#r0"/><use x="102" y="40" xlink:href="#r0"/><use x="106" y="40" xlink:href="#r0"/><use x="108" y="40" xlink:href="#r0"/><use x="110" y="40" xlink:href="#r0"/><use x="112" y="40" xlink:href="#r0"/><use x="16" y="42" xlink:href="#r0"/><use x="18" y="42" xlink:href="#r0"/><use x="24" y="42" xlink:href="#r0"/><use x="26" y="42" xlink:href="#r0"/><use x="32" y="42" xlink:href="#r0"/><use x="34" y="42" xlink:href="#r0"/><use x="40" y="42" xlink:href="#r0"/><use x="42" y="42" xlink:href="#r0"/><use x="44" y="42" xlink:href="#r0"/><use x="46" y="42" xlink:href="#r0"/><use x="48" y="42" xlink:href="#r0"/><use x="54" y="42" xlink:href="#r0"/><use x="58" y="42" xlink:href="#r0"/><use x="60" y="42" xlink:href="#r0"/><use x="66" y="42" xlink:href="#r0"/><use x="68" y="42" xlink:href="#r0"/><use x="74" y="42" xlink:href="#r0"/><use x="90" y="42" xlink:href="#r0"/><use x="92" y="42" xlink:href="#r0"/><use x="94" y="42" xlink:href="#r0"/><use x="102" y="42" xlink:href="#r0"/><use x="104" y="42" xlink:href="#r0"/><use x="110" y="42" xlink:href="#r0"/><use x="112" y="42" xlink:href="#r0"/><use x="18" y="44" xlink:href="#r0"/><use x="20" y="44" xlink:href="#r0"/><use x="22" y="44" xlink:href="#r0"/><use x="28" y="44" xlink:href="#r0"/><use x="30" y="44" xlink:href="#r0"/><use x="32" y="44" xlink:href="#r0"/><use x="38" y="44" xlink:href="#r0"/><use x="40" y="44" xlink:href="#r0"/><use x="44" y="44" xlink:href="#r0"/><use x="54" y="44" xlink:href="#r0"/><use x="56" y="44" xlink:href="#r0"/><use x="62" y="44" xlink:href="#r0"/><use x="66" y="44" xlink:href="#r0"/><use x="68" y="44" xlink:href="#r0"/><use x="70" y="44" xlink:href="#r0"/><use x="72" y="44" xlink:href="#r0"/><use x="76" y="44" xlink:href="#r0"/><use x="78" y="44" xlink:href="#r0"/><use x="82" y="44" xlink:href="#r0"/><use x="90" y="44" xlink:href="#r0"/><use x="92" y="44" xlink:href="#r0"/><use x="94" y="44" xlink:href="#r0"/><use x="96" y="44" xlink:href="#r0"/><use x="100" y="44" xlink:href="#r0"/><use x="102" y="44" xlink:href="#r0"/><use x="104" y="44" xlink:href="#r0"/><use x="108" y="44" xlink:href="#r0"/><use x="110" y="44" xlink:href="#r0"/><use x="22" y="46" xlink:href="#r0"/><use x="34" y="46" xlink:href="#r0"/><use x="38" y="46" xlink:href="#r0"/><use x="42" y="46" xlink:href="#r0"/><use x="44" y="46" xlink:href="#r0"/><use x="48" y="46" xlink:href="#r0"/><use x="50" y="46" xlink:href="#r0"/><use x="52" y="46" xlink:href="#r0"/><use x="54" y="46" xlink:href="#r0"/><use x="56" y="46" xlink:href="#r0"/><use x="60" y="46" xlink:href="#r0"/><use x="62" y="46" xlink:href="#r0"/><use x="64" y="46" xlink:href="#r0"/><use x="70" y="46" xlink:href="#r0"/><use x="72" y="46" xlink:href="#r0"/><use x="76" y="46" xlink:href="#r0"/><use x="80" y="46" xlink:href="#r0"/><use x="82" y="46" xlink:href="#r0"/><use x="94" y="46" xlink:href="#r0"/><use x="98" y="46" xlink:href="#r0"/><use x="100" y="46" xlink:href="#r0"/><use x="102" y="46" xlink:href="#r0"/><use x="104" y="46" xlink:href="#r0"/><use x="106" y="46" xlink:href="#r0"/><use x="18" y="48" xlink:href="#r0"/><use x="28" y="48" xlink:href="#r0"/><use x="30" y="48" xlink:href="#r0"/><use x="34" y="48" xlink:href="#r0"/><use x="36" y="48" xlink:href="#r0"/><use x="38" y="48" xlink:href="#r0"/><use x="40" y="48" xlink:href="#r0"/><use x="42" y="48" xlink:href="#r0"/><use x="44" y="48" xlink:href="#r0"/><use x="48" y="48" xlink:href="#r0"/><use x="50" y="48" xlink:href="#r0"/><use x="54" y="48" xlink:href="#r0"/><use x="62" y="48" xlink:href="#r0"/><use x="66" y="48" xlink:href="#r0"/><use x="68" y="48" xlink:href="#r0"/><use x="70" y="48" xlink:href="#r0"/><use x="76" y="48" xlink:href="#r0"/><use x="80" y="48" xlink:href="#r0"/><use x="86" y="48" xlink:href="#r0"/><use x="90" y="48" xlink:href="#r0"/><use x="92" y="48" xlink:href="#r0"/><use x="96" y="48" xlink:href="#r0"/><use x="98" y="48" xlink:href="#r0"/><use x="104" y="48" xlink:href="#r0"/><use x="108" y="48" xlink:href="#r0"/><use x="112" y="48" xlink:href="#r0"/><use x="22" y="50" xlink:href="#r0"/><use x="32" y="50" xlink:href="#r0"/><use x="34" y="50" xlink:href="#r0"/><use x="44" y="50" xlink:href="#r0"/><use x="48" y="50" xlink:href="#r0"/><use x="50" y="50" xlink:href="#r0"/><use x="52" y="50" xlink:href="#r0"/><use x="54" y="50" xlink:href="#r0"/><use x="58" y="50" xlink:href="#r0"/><use x="60" y="50" xlink:href="#r0"/><use x="62" y="50" xlink:href="#r0"/><use x="66" y="50" xlink:href="#r0"/><use x="70" y="50" xlink:href="#r0"/><use x="74" y="50" xlink:href="#r0"/><use x="80" y="50" xlink:href="#r0"/><use x="84" y="50" xlink:href="#r0"/><use x="94" y="50" xlink:href="#r0"/><use x="96" y="50" xlink:href="#r0"/><use x="98" y="50" xlink:href="#r0"/><use x="102" y="50" xlink:href="#r0"/><use x="110" y="50" xlink:href="#r0"/><use x="112" y="50" xlink:href="#r0"/><use x="22" y="52" xlink:href="#r0"/><use x="26" y="52" xlink:href="#r0"/><use x="28" y="52" xlink:href="#r0"/><use x="30" y="52" xlink:href="#r0"/><use x="34" y="52" xlink:href="#r0"/><use x="40" y="52" xlink:href="#r0"/><use x="42" y="52" xlink:href="#r0"/><use x="44" y="52" xlink:href="#r0"/><use x="46" y="52" xlink:href="#r0"/><use x="48" y="52" xlink:href="#r0"/><use x="50" y="52" xlink:href="#r0"/><use x="54" y="52" xlink:href="#r0"/><use x="58" y="52" xlink:href="#r0"/><use x="60" y="52" xlink:href="#r0"/><use x="64" y="52" xlink:href="#r0"/><use x="68" y="52" xlink:href="#r0"/><use x="72" y="52" xlink:href="#r0"/><use x="74" y="52" xlink:href="#r0"/><use x="80" y="52" xlink:href="#r0"/><use x="82" y="52" xlink:href="#r0"/><use x="84" y="52" xlink:href="#r0"/><use x="90" y="52" xlink:href="#r0"/><use x="92" y="52" xlink:href="#r0"/><use x="98" y="52" xlink:href="#r0"/><use x="104" y="52" xlink:href="#r0"/><use x="108" y="52" xlink:href="#r0"/><use x="112" y="52" xlink:href="#r0"/><use x="16" y="54" xlink:href="#r0"/><use x="18" y="54" xlink:href="#r0"/><use x="24" y="54" xlink:href="#r0"/><use x="34" y="54" xlink:href="#r0"/><use x="36" y="54" xlink:href="#r0"/><use x="46" y="54" xlink:href="#r0"/><use x="50" y="54" xlink:href="#r0"/><use x="52" y="54" xlink:href="#r0"/><use x="54" y="54" xlink:href="#r0"/><use x="56" y="54" xlink:href="#r0"/><use x="66" y="54" xlink:href="#r0"/><use x="68" y="54" xlink:href="#r0"/><use x="76" y="54" xlink:href="#r0"/><use x="78" y="54" xlink:href="#r0"/><use x="88" y="54" xlink:href="#r0"/><use x="94" y="54" xlink:href="#r0"/><use x="98" y="54" xlink:href="#r0"/><use x="100" y="54" xlink:href="#r0"/><use x="106" y="54" xlink:href="#r0"/><use x="110" y="54" xlink:href="#r0"/><use x="112" y="54" xlink:href="#r0"/><use x="16" y="56" xlink:href="#r0"/><use x="18" y="56" xlink:href="#r0"/><use x="22" y="56" xlink:href="#r0"/><use x="24" y="56" xlink:href="#r0"/><use x="26" y="56" xlink:href="#r0"/><use x="28" y="56" xlink:href="#r0"/><use x="32" y="56" xlink:href="#r0"/><use x="34" y="56" xlink:href="#r0"/><use x="40" y="56" xlink:href="#r0"/><use x="44" y="56" xlink:href="#r0"/><use x="46" y="56" xlink:href="#r0"/><use x="48" y="56" xlink:href="#r0"/><use x="50" y="56" xlink:href="#r0"/><use x="52" y="56" xlink:href="#r0"/><use x="62" y="56" xlink:href="#r0"/><use x="70" y="56" xlink:href="#r0"/><use x="72" y="56" xlink:href="#r0"/><use x="74" y="56" xlink:href="#r0"/><use x="78" y="56" xlink:href="#r0"/><use x="82" y="56" xlink:href="#r0"/><use x="84" y="56" xlink:href="#r0"/><use x="90" y="56" xlink:href="#r0"/><use x="20" y="58" xlink:href="#r0"/><use x="22" y="58" xlink:href="#r0"/><use x="24" y="58" xlink:href="#r0"/><use x="26" y="58" xlink:href="#r0"/><use x="32" y="58" xlink:href="#r0"/><use x="34" y="58" xlink:href="#r0"/><use x="38" y="58" xlink:href="#r0"/><use x="40" y="58" xlink:href="#r0"/><use x="46" y="58" xlink:href="#r0"/><use x="52" y="58" xlink:href="#r0"/><use x="58" y="58" xlink:href="#r0"/><use x="64" y="58" xlink:href="#r0"/><use x="66" y="58" xlink:href="#r0"/><use x="74" y="58" xlink:href="#r0"/><use x="76" y="58" xlink:href="#r0"/><use x="78" y="58" xlink:href="#r0"/><use x="82" y="58" xlink:href="#r0"/><use x="86" y="58" xlink:href="#r0"/><use x="88" y="58" xlink:href="#r0"/><use x="100" y="58" xlink:href="#r0"/><use x="108" y="58" xlink:href="#r0"/><use x="22" y="60" xlink:href="#r0"/><use x="24" y="60" xlink:href="#r0"/><use x="26" y="60" xlink:href="#r0"/><use x="28" y="60" xlink:href="#r0"/><use x="30" y="60" xlink:href="#r0"/><use x="32" y="60" xlink:href="#r0"/><use x="36" y="60" xlink:href="#r0"/><use x="40" y="60" xlink:href="#r0"/><use x="44" y="60" xlink:href="#r0"/><use x="46" y="60" xlink:href="#r0"/><use x="50" y="60" xlink:href="#r0"/><use x="54" y="60" xlink:href="#r0"/><use x="56" y="60" xlink:href="#r0"/><use x="60" y="60" xlink:href="#r0"/><use x="62" y="60" xlink:href="#r0"/><use x="64" y="60" xlink:href="#r0"/><use x="66" y="60" xlink:href="#r0"/><use x="68" y="60" xlink:href="#r0"/><use x="74" y="60" xlink:href="#r0"/><use x="78" y="60" xlink:href="#r0"/><use x="82" y="60" xlink:href="#r0"/><use x="84" y="60" xlink:href="#r0"/><use x="88" y="60" xlink:href="#r0"/><use x="96" y="60" xlink:href="#r0"/><use x="98" y="60" xlink:href="#r0"/><use x="100" y="60" xlink:href="#r0"/><use x="102" y="60" xlink:href="#r0"/><use x="104" y="60" xlink:href="#r0"/><use x="106" y="60" xlink:href="#r0"/><use x="108" y="60" xlink:href="#r0"/><use x="16" y="62" xlink:href="#r0"/><use x="20" y="62" xlink:href="#r0"/><use x="24" y="62" xlink:href="#r0"/><use x="32" y="62" xlink:href="#r0"/><use x="38" y="62" xlink:href="#r0"/><use x="42" y="62" xlink:href="#r0"/><use x="44" y="62" xlink:href="#r0"/><use x="48" y="62" xlink:href="#r0"/><use x="50" y="62" xlink:href="#r0"/><use x="54" y="62" xlink:href="#r0"/><use x="58" y="62" xlink:href="#r0"/><use x="60" y="62" xlink:href="#r0"/><use x="68" y="62" xlink:href="#r0"/><use x="74" y="62" xlink:href="#r0"/><use x="80" y="62" xlink:href="#r0"/><use x="82" y="62" xlink:href="#r0"/><use x="86" y="62" xlink:href="#r0"/><use x="88" y="62" xlink:href="#r0"/><use x="94" y="62" xlink:href="#r0"/><use x="96" y="62" xlink:href="#r0"/><use x="104" y="62" xlink:href="#r0"/><use x="108" y="62" xlink:href="#r0"/><use x="110" y="62" xlink:href="#r0"/><use x="18" y="64" xlink:href="#r0"/><use x="20" y="64" xlink:href="#r0"/><use x="24" y="64" xlink:href="#r0"/><use x="28" y="64" xlink:href="#r0"/><use x="32" y="64" xlink:href="#r0"/><use x="34" y="64" xlink:href="#r0"/><use x="36" y="64" xlink:href="#r0"/><use x="38" y="64" xlink:href="#r0"/><use x="42" y="64" xlink:href="#r0"/><use x="48" y="64" xlink:href="#r0"/><use x="52" y="64" xlink:href="#r0"/><use x="54" y="64" xlink:href="#r0"/><use x="56" y="64" xlink:href="#r0"/><use x="58" y="64" xlink:href="#r0"/><use x="60" y="64" xlink:href="#r0"/><use x="64" y="64" xlink:href="#r0"/><use x="68" y="64" xlink:href="#r0"/><use x="74" y="64" xlink:href="#r0"/><use x="76" y="64" xlink:href="#r0"/><use x="88" y="64" xlink:href="#r0"/><use x="94" y="64" xlink:href="#r0"/><use x="96" y="64" xlink:href="#r0"/><use x="100" y="64" xlink:href="#r0"/><use x="104" y="64" xlink:href="#r0"/><use x="108" y="64" xlink:href="#r0"/><use x="112" y="64" xlink:href="#r0"/><use x="16" y="66" xlink:href="#r0"/><use x="18" y="66" xlink:href="#r0"/><use x="20" y="66" xlink:href="#r0"/><use x="22" y="66" xlink:href="#r0"/><use x="24" y="66" xlink:href="#r0"/><use x="32" y="66" xlink:href="#r0"/><use x="38" y="66" xlink:href="#r0"/><use x="52" y="66" xlink:href="#r0"/><use x="56" y="66" xlink:href="#r0"/><use x="60" y="66" xlink:href="#r0"/><use x="68" y="66" xlink:href="#r0"/><use x="72" y="66" xlink:href="#r0"/><use x="78" y="66" xlink:href="#r0"/><use x="80" y="66" xlink:href="#r0"/><use x="86" y="66" xlink:href="#r0"/><use x="90" y="66" xlink:href="#r0"/><use x="92" y="66" xlink:href="#r0"/><use x="96" y="66" xlink:href="#r0"/><use x="104" y="66" xlink:href="#r0"/><use x="112" y="66" xlink:href="#r0"/><use x="18" y="68" xlink:href="#r0"/><use x="20" y="68" xlink:href="#r0"/><use x="24" y="68" xlink:href="#r0"/><use x="26" y="68" xlink:href="#r0"/><use x="28" y="68" xlink:href="#r0"/><use x="30" y="68" xlink:href="#r0"/><use x="32" y="68" xlink:href="#r0"/><use x="42" y="68" xlink:href="#r0"/><use x="46" y="68" xlink:href="#r0"/><use x="56" y="68" xlink:href="#r0"/><use x="60" y="68" xlink:href="#r0"/><use x="62" y="68" xlink:href="#r0"/><use x="64" y="68" xlink:href="#r0"/><use x="66" y="68" xlink:href="#r0"/><use x="68" y="68" xlink:href="#r0"/><use x="72" y="68" xlink:href="#r0"/><use x="76" y="68" xlink:href="#r0"/><use x="78" y="68" xlink:href="#r0"/><use x="80" y="68" xlink:href="#r0"/><use x="90" y="68" xlink:href="#r0"/><use x="92" y="68" xlink:href="#r0"/><use x="94" y="68" xlink:href="#r0"/><use x="96" y="68" xlink:href="#r0"/><use x="98" y="68" xlink:href="#r0"/><use x="100" y="68" xlink:href="#r0"/><use x="102" y="68" xlink:href="#r0"/><use x="104" y="68" xlink:href="#r0"/><use x="106" y="68" xlink:href="#r0"/><use x="16" y="70" xlink:href="#r0"/><use x="18" y="70" xlink:href="#r0"/><use x="22" y="70" xlink:href="#r0"/><use x="26" y="70" xlink:href="#r0"/><use x="30" y="70" xlink:href="#r0"/><use x="36" y="70" xlink:href="#r0"/><use x="38" y="70" xlink:href="#r0"/><use x="40" y="70" xlink:href="#r0"/><use x="42" y="70" xlink:href="#r0"/><use x="46" y="70" xlink:href="#r0"/><use x="50" y="70" xlink:href="#r0"/><use x="52" y="70" xlink:href="#r0"/><use x="56" y="70" xlink:href="#r0"/><use x="60" y="70" xlink:href="#r0"/><use x="62" y="70" xlink:href="#r0"/><use x="64" y="70" xlink:href="#r0"/><use x="68" y="70" xlink:href="#r0"/><use x="70" y="70" xlink:href="#r0"/><use x="74" y="70" xlink:href="#r0"/><use x="80" y="70" xlink:href="#r0"/><use x="92" y="70" xlink:href="#r0"/><use x="96" y="70" xlink:href="#r0"/><use x="104" y="70" xlink:href="#r0"/><use x="28" y="72" xlink:href="#r0"/><use x="30" y="72" xlink:href="#r0"/><use x="38" y="72" xlink:href="#r0"/><use x="40" y="72" xlink:href="#r0"/><use x="44" y="72" xlink:href="#r0"/><use x="50" y="72" xlink:href="#r0"/><use x="56" y="72" xlink:href="#r0"/><use x="60" y="72" xlink:href="#r0"/><use x="62" y="72" xlink:href="#r0"/><use x="68" y="72" xlink:href="#r0"/><use x="70" y="72" xlink:href="#r0"/><use x="80" y="72" xlink:href="#r0"/><use x="82" y="72" xlink:href="#r0"/><use x="86" y="72" xlink:href="#r0"/><use x="92" y="72" xlink:href="#r0"/><use x="96" y="72" xlink:href="#r0"/><use x="98" y="72" xlink:href="#r0"/><use x="108" y="72" xlink:href="#r0"/><use x="110" y="72" xlink:href="#r0"/><use x="112" y="72" xlink:href="#r0"/><use x="18" y="74" xlink:href="#r0"/><use x="20" y="74" xlink:href="#r0"/><use x="22" y="74" xlink:href="#r0"/><use x="24" y="74" xlink:href="#r0"/><use x="32" y="74" xlink:href="#r0"/><use x="46" y="74" xlink:href="#r0"/><use x="50" y="74" xlink:href="#r0"/><use x="56" y="74" xlink:href="#r0"/><use x="62" y="74" xlink:href="#r0"/><use x="64" y="74" xlink:href="#r0"/><use x="66" y="74" xlink:href="#r0"/><use x="72" y="74" xlink:href="#r0"/><use x="74" y="74" xlink:href="#r0"/><use x="78" y="74" xlink:href="#r0"/><use x="80" y="74" xlink:href="#r0"/><use x="84" y="74" xlink:href="#r0"/><use x="86" y="74" xlink:href="#r0"/><use x="94" y="74" xlink:href="#r0"/><use x="96" y="74" xlink:href="#r0"/><use x="98" y="74" xlink:href="#r0"/><use x="100" y="74" xlink:href="#r0"/><use x="102" y="74" xlink:href="#r0"/><use x="108" y="74" xlink:href="#r0"/><use x="112" y="74" xlink:href="#r0"/><use x="18" y="76" xlink:href="#r0"/><use x="22" y="76" xlink:href="#r0"/><use x="24" y="76" xlink:href="#r0"/><use x="28" y="76" xlink:href="#r0"/><use x="32" y="76" xlink:href="#r0"/><use x="42" y="76" xlink:href="#r0"/><use x="44" y="76" xlink:href="#r0"/><use x="46" y="76" xlink:href="#r0"/><use x="48" y="76" xlink:href="#r0"/><use x="56" y="76" xlink:href="#r0"/><use x="58" y="76" xlink:href="#r0"/><use x="60" y="76" xlink:href="#r0"/><use x="66" y="76" xlink:href="#r0"/><use x="70" y="76" xlink:href="#r0"/><use x="72" y="76" xlink:href="#r0"/><use x="74" y="76" xlink:href="#r0"/><use x="76" y="76" xlink:href="#r0"/><use x="84" y="76" xlink:href="#r0"/><use x="94" y="76" xlink:href="#r0"/><use x="96" y="76" xlink:href="#r0"/><use x="100" y="76" xlink:href="#r0"/><use x="106" y="76" xlink:href="#r0"/><use x="108" y="76" xlink:href="#r0"/><use x="110" y="76" xlink:href="#r0"/><use x="112" y="76" xlink:href="#r0"/><use x="16" y="78" xlink:href="#r0"/><use x="18" y="78" xlink:href="#r0"/><use x="20" y="78" xlink:href="#r0"/><use x="24" y="78" xlink:href="#r0"/><use x="30" y="78" xlink:href="#r0"/><use x="34" y="78" xlink:href="#r0"/><use x="38" y="78" xlink:href="#r0"/><use x="40" y="78" xlink:href="#r0"/><use x="42" y="78" xlink:href="#r0"/><use x="44" y="78" xlink:href="#r0"/><use x="46" y="78" xlink:href="#r0"/><use x="48" y="78" xlink:href="#r0"/><use x="54" y="78" xlink:href="#r0"/><use x="58" y="78" xlink:href="#r0"/><use x="64" y="78" xlink:href="#r0"/><use x="68" y="78" xlink:href="#r0"/><use x="70" y="78" xlink:href="#r0"/><use x="72" y="78" xlink:href="#r0"/><use x="76" y="78" xlink:href="#r0"/><use x="88" y="78" xlink:href="#r0"/><use x="94" y="78" xlink:href="#r0"/><use x="96" y="78" xlink:href="#r0"/><use x="98" y="78" xlink:href="#r0"/><use x="100" y="78" xlink:href="#r0"/><use x="104" y="78" xlink:href="#r0"/><use x="20" y="80" xlink:href="#r0"/><use x="22" y="80" xlink:href="#r0"/><use x="26" y="80" xlink:href="#r0"/><use x="28" y="80" xlink:href="#r0"/><use x="32" y="80" xlink:href="#r0"/><use x="46" y="80" xlink:href="#r0"/><use x="56" y="80" xlink:href="#r0"/><use x="58" y="80" xlink:href="#r0"/><use x="62" y="80" xlink:href="#r0"/><use x="70" y="80" xlink:href="#r0"/><use x="72" y="80" xlink:href="#r0"/><use x="78" y="80" xlink:href="#r0"/><use x="84" y="80" xlink:href="#r0"/><use x="96" y="80" xlink:href="#r0"/><use x="102" y="80" xlink:href="#r0"/><use x="106" y="80" xlink:href="#r0"/><use x="110" y="80" xlink:href="#r0"/><use x="112" y="80" xlink:href="#r0"/><use x="20" y="82" xlink:href="#r0"/><use x="24" y="82" xlink:href="#r0"/><use x="26" y="82" xlink:href="#r0"/><use x="38" y="82" xlink:href="#r0"/><use x="40" y="82" xlink:href="#r0"/><use x="44" y="82" xlink:href="#r0"/><use x="46" y="82" xlink:href="#r0"/><use x="50" y="82" xlink:href="#r0"/><use x="62" y="82" xlink:href="#r0"/><use x="64" y="82" xlink:href="#r0"/><use x="70" y="82" xlink:href="#r0"/><use x="74" y="82" xlink:href="#r0"/><use x="76" y="82" xlink:href="#r0"/><use x="78" y="82" xlink:href="#r0"/><use x="80" y="82" xlink:href="#r0"/><use x="82" y="82" xlink:href="#r0"/><use x="90" y="82" xlink:href="#r0"/><use x="94" y="82" xlink:href="#r0"/><use x="96" y="82" xlink:href="#r0"/><use x="100" y="82" xlink:href="#r0"/><use x="102" y="82" xlink:href="#r0"/><use x="106" y="82" xlink:href="#r0"/><use x="108" y="82" xlink:href="#r0"/><use x="110" y="82" xlink:href="#r0"/><use x="16" y="84" xlink:href="#r0"/><use x="18" y="84" xlink:href="#r0"/><use x="20" y="84" xlink:href="#r0"/><use x="28" y="84" xlink:href="#r0"/><use x="32" y="84" xlink:href="#r0"/><use x="34" y="84" xlink:href="#r0"/><use x="42" y="84" xlink:href="#r0"/><use x="52" y="84" xlink:href="#r0"/><use x="56" y="84" xlink:href="#r0"/><use x="60" y="84" xlink:href="#r0"/><use x="68" y="84" xlink:href="#r0"/><use x="76" y="84" xlink:href="#r0"/><use x="80" y="84" xlink:href="#r0"/><use x="84" y="84" xlink:href="#r0"/><use x="86" y="84" xlink:href="#r0"/><use x="90" y="84" xlink:href="#r0"/><use x="96" y="84" xlink:href="#r0"/><use x="104" y="84" xlink:href="#r0"/><use x="110" y="84" xlink:href="#r0"/><use x="16" y="86" xlink:href="#r0"/><use x="18" y="86" xlink:href="#r0"/><use x="24" y="86" xlink:href="#r0"/><use x="32" y="86" xlink:href="#r0"/><use x="34" y="86" xlink:href="#r0"/><use x="38" y="86" xlink:href="#r0"/><use x="42" y="86" xlink:href="#r0"/><use x="44" y="86" xlink:href="#r0"/><use x="48" y="86" xlink:href="#r0"/><use x="52" y="86" xlink:href="#r0"/><use x="54" y="86" xlink:href="#r0"/><use x="56" y="86" xlink:href="#r0"/><use x="60" y="86" xlink:href="#r0"/><use x="66" y="86" xlink:href="#r0"/><use x="72" y="86" xlink:href="#r0"/><use x="80" y="86" xlink:href="#r0"/><use x="84" y="86" xlink:href="#r0"/><use x="88" y="86" xlink:href="#r0"/><use x="90" y="86" xlink:href="#r0"/><use x="92" y="86" xlink:href="#r0"/><use x="102" y="86" xlink:href="#r0"/><use x="106" y="86" xlink:href="#r0"/><use x="108" y="86" xlink:href="#r0"/><use x="110" y="86" xlink:href="#r0"/><use x="20" y="88" xlink:href="#r0"/><use x="22" y="88" xlink:href="#r0"/><use x="26" y="88" xlink:href="#r0"/><use x="28" y="88" xlink:href="#r0"/><use x="38" y="88" xlink:href="#r0"/><use x="40" y="88" xlink:href="#r0"/><use x="42" y="88" xlink:href="#r0"/><use x="44" y="88" xlink:href="#r0"/><use x="50" y="88" xlink:href="#r0"/><use x="54" y="88" xlink:href="#r0"/><use x="62" y="88" xlink:href="#r0"/><use x="64" y="88" xlink:href="#r0"/><use x="68" y="88" xlink:href="#r0"/><use x="74" y="88" xlink:href="#r0"/><use x="88" y="88" xlink:href="#r0"/><use x="94" y="88" xlink:href="#r0"/><use x="104" y="88" xlink:href="#r0"/><use x="106" y="88" xlink:href="#r0"/><use x="108" y="88" xlink:href="#r0"/><use x="110" y="88" xlink:href="#r0"/><use x="112" y="88" xlink:href="#r0"/><use x="16" y="90" xlink:href="#r0"/><use x="22" y="90" xlink:href="#r0"/><use x="24" y="90" xlink:href="#r0"/><use x="26" y="90" xlink:href="#r0"/><use x="32" y="90" xlink:href="#r0"/><use x="36" y="90" xlink:href="#r0"/><use x="38" y="90" xlink:href="#r0"/><use x="44" y="90" xlink:href="#r0"/><use x="50" y="90" xlink:href="#r0"/><use x="56" y="90" xlink:href="#r0"/><use x="62" y="90" xlink:href="#r0"/><use x="66" y="90" xlink:href="#r0"/><use x="70" y="90" xlink:href="#r0"/><use x="72" y="90" xlink:href="#r0"/><use x="80" y="90" xlink:href="#r0"/><use x="86" y="90" xlink:href="#r0"/><use x="88" y="90" xlink:href="#r0"/><use x="92" y="90" xlink:href="#r0"/><use x="104" y="90" xlink:href="#r0"/><use x="106" y="90" xlink:href="#r0"/><use x="110" y="90" xlink:href="#r0"/><use x="18" y="92" xlink:href="#r0"/><use x="26" y="92" xlink:href="#r0"/><use x="28" y="92" xlink:href="#r0"/><use x="32" y="92" xlink:href="#r0"/><use x="38" y="92" xlink:href="#r0"/><use x="42" y="92" xlink:href="#r0"/><use x="46" y="92" xlink:href="#r0"/><use x="48" y="92" xlink:href="#r0"/><use x="58" y="92" xlink:href="#r0"/><use x="60" y="92" xlink:href="#r0"/><use x="62" y="92" xlink:href="#r0"/><use x="74" y="92" xlink:href="#r0"/><use x="78" y="92" xlink:href="#r0"/><use x="82" y="92" xlink:href="#r0"/><use x="86" y="92" xlink:href="#r0"/><use x="88" y="92" xlink:href="#r0"/><use x="90" y="92" xlink:href="#r0"/><use x="92" y="92" xlink:href="#r0"/><use x="96" y="92" xlink:href="#r0"/><use x="106" y="92" xlink:href="#r0"/><use x="108" y="92" xlink:href="#r0"/><use x="110" y="92" xlink:href="#r0"/><use x="18" y="94" xlink:href="#r0"/><use x="20" y="94" xlink:href="#r0"/><use x="22" y="94" xlink:href="#r0"/><use x="30" y="94" xlink:href="#r0"/><use x="34" y="94" xlink:href="#r0"/><use x="40" y="94" xlink:href="#r0"/><use x="42" y="94" xlink:href="#r0"/><use x="46" y="94" xlink:href="#r0"/><use x="52" y="94" xlink:href="#r0"/><use x="58" y="94" xlink:href="#r0"/><use x="64" y="94" xlink:href="#r0"/><use x="74" y="94" xlink:href="#r0"/><use x="76" y="94" xlink:href="#r0"/><use x="78" y="94" xlink:href="#r0"/><use x="80" y="94" xlink:href="#r0"/><use x="82" y="94" xlink:href="#r0"/><use x="84" y="94" xlink:href="#r0"/><use x="86" y="94" xlink:href="#r0"/><use x="90" y="94" xlink:href="#r0"/><use x="96" y="94" xlink:href="#r0"/><use x="98" y="94" xlink:href="#r0"/><use x="102" y="94" xlink:href="#r0"/><use x="104" y="94" xlink:href="#r0"/><use x="106" y="94" xlink:href="#r0"/><use x="112" y="94" xlink:href="#r0"/><use x="16" y="96" xlink:href="#r0"/><use x="18" y="96" xlink:href="#r0"/><use x="20" y="96" xlink:href="#r0"/><use x="28" y="96" xlink:href="#r0"/><use x="32" y="96" xlink:href="#r0"/><use x="36" y="96" xlink:href="#r0"/><use x="40" y="96" xlink:href="#r0"/><use x="42" y="96" xlink:href="#r0"/><use x="44" y="96" xlink:href="#r0"/><use x="46" y="96" xlink:href="#r0"/><use x="48" y="96" xlink:href="#r0"/><use x="50" y="96" xlink:href="#r0"/><use x="54" y="96" xlink:href="#r0"/><use x="60" y="96" xlink:href="#r0"/><use x="62" y="96" xlink:href="#r0"/><use x="64" y="96" xlink:href="#r0"/><use x="66" y="96" xlink:href="#r0"/><use x="68" y="96" xlink:href="#r0"/><use x="70" y="96" xlink:href="#r0"/><use x="74" y="96" xlink:href="#r0"/><use x="78" y="96" xlink:href="#r0"/><use x="80" y="96" xlink:href="#r0"/><use x="86" y="96" xlink:href="#r0"/><use x="96" y="96" xlink:href="#r0"/><use x="98" y="96" xlink:href="#r0"/><use x="100" y="96" xlink:href="#r0"/><use x="102" y="96" xlink:href="#r0"/><use x="104" y="96" xlink:href="#r0"/><use x="106" y="96" xlink:href="#r0"/><use x="108" y="96" xlink:href="#r0"/><use x="112" y="96" xlink:href="#r0"/><use x="32" y="98" xlink:href="#r0"/><use x="38" y="98" xlink:href="#r0"/><use x="44" y="98" xlink:href="#r0"/><use x="48" y="98" xlink:href="#r0"/><use x="50" y="98" xlink:href="#r0"/><use x="52" y="98" xlink:href="#r0"/><use x="54" y="98" xlink:href="#r0"/><use x="60" y="98" xlink:href="#r0"/><use x="68" y="98" xlink:href="#r0"/><use x="72" y="98" xlink:href="#r0"/><use x="78" y="98" xlink:href="#r0"/><use x="84" y="98" xlink:href="#r0"/><use x="88" y="98" xlink:href="#r0"/><use x="94" y="98" xlink:href="#r0"/><use x="96" y="98" xlink:href="#r0"/><use x="104" y="98" xlink:href="#r0"/><use x="108" y="98" xlink:href="#r0"/><use x="112" y="98" xlink:href="#r0"/><use x="16" y="100" xlink:href="#r0"/><use x="18" y="100" xlink:href="#r0"/><use x="20" y="100" xlink:href="#r0"/><use x="22" y="100" xlink:href="#r0"/><use x="24" y="100" xlink:href="#r0"/><use x="26" y="100" xlink:href="#r0"/><use x="28" y="100" xlink:href="#r0"/><use x="34" y="100" xlink:href="#r0"/><use x="36" y="100" xlink:href="#r0"/><use x="38" y="100" xlink:href="#r0"/><use x="40" y="100" xlink:href="#r0"/><use x="46" y="100" xlink:href="#r0"/><use x="52" y="100" xlink:href="#r0"/><use x="54" y="100" xlink:href="#r0"/><use x="60" y="100" xlink:href="#r0"/><use x="64" y="100" xlink:href="#r0"/><use x="68" y="100" xlink:href="#r0"/><use x="70" y="100" xlink:href="#r0"/><use x="74" y="100" xlink:href="#r0"/><use x="78" y="100" xlink:href="#r0"/><use x="84" y="100" xlink:href="#r0"/><use x="92" y="100" xlink:href="#r0"/><use x="94" y="100" xlink:href="#r0"/><use x="96" y="100" xlink:href="#r0"/><use x="100" y="100" xlink:href="#r0"/><use x="104" y="100" xlink:href="#r0"/><use x="110" y="100" xlink:href="#r0"/><use x="112" y="100" xlink:href="#r0"/><use x="16" y="102" xlink:href="#r0"/><use x="28" y="102" xlink:href="#r0"/><use x="34" y="102" xlink:href="#r0"/><use x="38" y="102" xlink:href="#r0"/><use x="40" y="102" xlink:href="#r0"/><use x="42" y="102" xlink:href="#r0"/><use x="44" y="102" xlink:href="#r0"/><use x="56" y="102" xlink:href="#r0"/><use x="60" y="102" xlink:href="#r0"/><use x="68" y="102" xlink:href="#r0"/><use x="78" y="102" xlink:href="#r0"/><use x="82" y="102" xlink:href="#r0"/><use x="86" y="102" xlink:href="#r0"/><use x="88" y="102" xlink:href="#r0"/><use x="90" y="102" xlink:href="#r0"/><use x="96" y="102" xlink:href="#r0"/><use x="104" y="102" xlink:href="#r0"/><use x="106" y="102" xlink:href="#r0"/><use x="110" y="102" xlink:href="#r0"/><use x="112" y="102" xlink:href="#r0"/><use x="16" y="104" xlink:href="#r0"/><use x="20" y="104" xlink:href="#r0"/><use x="22" y="104" xlink:href="#r0"/><use x="24" y="104" xlink:href="#r0"/><use x="28" y="104" xlink:href="#r0"/><use x="36" y="104" xlink:href="#r0"/><use x="42" y="104" xlink:href="#r0"/><use x="48" y="104" xlink:href="#r0"/><use x="54" y="104" xlink:href="#r0"/><use x="60" y="104" xlink:href="#r0"/><use x="62" y="104" xlink:href="#r0"/><use x="64" y="104" xlink:href="#r0"/><use x="66" y="104" xlink:href="#r0"/><use x="68" y="104" xlink:href="#r0"/><use x="70" y="104" xlink:href="#r0"/><use x="72" y="104" xlink:href="#r0"/><use x="78" y="104" xlink:href="#r0"/><use x="82" y="104" xlink:href="#r0"/><use x="84" y="104" xlink:href="#r0"/><use x="90" y="104" xlink:href="#r0"/><use x="92" y="104" xlink:href="#r0"/><use x="96" y="104" xlink:href="#r0"/><use x="98" y="104" xlink:href="#r0"/><use x="100" y="104" xlink:href="#r0"/><use x="102" y="104" xlink:href="#r0"/><use x="104" y="104" xlink:href="#r0"/><use x="110" y="104" xlink:href="#r0"/><use x="16" y="106" xlink:href="#r0"/><use x="20" y="106" xlink:href="#r0"/><use x="22" y="106" xlink:href="#r0"/><use x="24" y="106" xlink:href="#r0"/><use x="28" y="106" xlink:href="#r0"/><use x="32" y="106" xlink:href="#r0"/><use x="36" y="106" xlink:href="#r0"/><use x="38" y="106" xlink:href="#r0"/><use x="42" y="106" xlink:href="#r0"/><use x="48" y="106" xlink:href="#r0"/><use x="50" y="106" xlink:href="#r0"/><use x="52" y="106" xlink:href="#r0"/><use x="54" y="106" xlink:href="#r0"/><use x="56" y="106" xlink:href="#r0"/><use x="64" y="106" xlink:href="#r0"/><use x="66" y="106" xlink:href="#r0"/><use x="68" y="106" xlink:href="#r0"/><use x="70" y="106" xlink:href="#r0"/><use x="76" y="106" xlink:href="#r0"/><use x="82" y="106" xlink:href="#r0"/><use x="86" y="106" xlink:href="#r0"/><use x="90" y="106" xlink:href="#r0"/><use x="94" y="106" xlink:href="#r0"/><use x="96" y="106" xlink:href="#r0"/><use x="98" y="106" xlink:href="#r0"/><use x="104" y="106" xlink:href="#r0"/><use x="106" y="106" xlink:href="#r0"/><use x="110" y="106" xlink:href="#r0"/><use x="112" y="106" xlink:href="#r0"/><use x="16" y="108" xlink:href="#r0"/><use x="20" y="108" xlink:href="#r0"/><use x="22" y="108" xlink:href="#r0"/><use x="24" y="108" xlink:href="#r0"/><use x="28" y="108" xlink:href="#r0"/><use x="32" y="108" xlink:href="#r0"/><use x="38" y="108" xlink:href="#r0"/><use x="40" y="108" xlink:href="#r0"/><use x="42" y="108" xlink:href="#r0"/><use x="44" y="108" xlink:href="#r0"/><use x="48" y="108" xlink:href="#r0"/><use x="50" y="108" xlink:href="#r0"/><use x="58" y="108" xlink:href="#r0"/><use x="60" y="108" xlink:href="#r0"/><use x="74" y="108" xlink:href="#r0"/><use x="76" y="108" xlink:href="#r0"/><use x="82" y="108" xlink:href="#r0"/><use x="84" y="108" xlink:href="#r0"/><use x="86" y="108" xlink:href="#r0"/><use x="90" y="108" xlink:href="#r0"/><use x="92" y="108" xlink:href="#r0"/><use x="104" y="108" xlink:href="#r0"/><use x="110" y="108" xlink:href="#r0"/><use x="112" y="108" xlink:href="#r0"/><use x="16" y="110" xlink:href="#r0"/><use x="28" y="110" xlink:href="#r0"/><use x="32" y="110" xlink:href="#r0"/><use x="34" y="110" xlink:href="#r0"/><use x="38" y="110" xlink:href="#r0"/><use x="40" y="110" xlink:href="#r0"/><use x="42" y="110" xlink:href="#r0"/><use x="46" y="110" xlink:href="#r0"/><use x="56" y="110" xlink:href="#r0"/><use x="58" y="110" xlink:href="#r0"/><use x="60" y="110" xlink:href="#r0"/><use x="68" y="110" xlink:href="#r0"/><use x="76" y="110" xlink:href="#r0"/><use x="78" y="110" xlink:href="#r0"/><use x="84" y="110" xlink:href="#r0"/><use x="86" y="110" xlink:href="#r0"/><use x="88" y="110" xlink:href="#r0"/><use x="94" y="110" xlink:href="#r0"/><use x="98" y="110" xlink:href="#r0"/><use x="104" y="110" xlink:href="#r0"/><use x="108" y="110" xlink:href="#r0"/><use x="16" y="112" xlink:href="#r0"/><use x="18" y="112" xlink:href="#r0"/><use x="20" y="112" xlink:href="#r0"/><use x="22" y="112" xlink:href="#r0"/><use x="24" y="112" xlink:href="#r0"/><use x="26" y="112" xlink:href="#r0"/><use x="28" y="112" xlink:href="#r0"/><use x="32" y="112" xlink:href="#r0"/><use x="34" y="112" xlink:href="#r0"/><use x="36" y="112" xlink:href="#r0"/><use x="42" y="112" xlink:href="#r0"/><use x="48" y="112" xlink:href="#r0"/><use x="52" y="112" xlink:href="#r0"/><use x="54" y="112" xlink:href="#r0"/><use x="56" y="112" xlink:href="#r0"/><use x="58" y="112" xlink:href="#r0"/><use x="70" y="112" xlink:href="#r0"/><use x="78" y="112" xlink:href="#r0"/><use x="82" y="112" xlink:href="#r0"/><use x="84" y="112" xlink:href="#r0"/><use x="88" y="112" xlink:href="#r0"/><use x="90" y="112" xlink:href="#r0"/><use x="94" y="112" xlink:href="#r0"/><use x="96" y="112" xlink:href="#r0"/><use x="104" y="112" xlink:href="#r0"/><use x="106" y="112" xlink:href="#r0"/><use x="108" y="112" xlink:href="#r0"/><use x="110" y="112" xlink:href="#r0"/><use x="112" y="112" xlink:href="#r0"/></svg>