<svg xmlns="http://www.w3.org/2000/svg" xmlns:xlink="http://www.w3.org/1999/xlink" version="1.1" width="130px" height="130px" viewBox="0 0 130 130"><defs><rect id="r0" width="2" height="2" fill="#000000"/></defs><rect x="0" y="0" width="130" height="130" fill="#fefefe"/><use x="20" y="20" xlink:href="#r0"/><use x="22" y="20" xlink:href="#r0"/><use x="24" y="20" xlink:href="#r0"/><use x="26" y="20" xlink:href="#r0"/><use x="28" y="20" xlink:href="#r0"/><use x="30" y="20" xlink:href="#r0"/><use x="32" y="20" xlink:href="#r0"/><use x="36" y="20" xlink:href="#r0"/><use x="38" y="20" xlink:href="#r0"/><use x="40" y="20" xlink:href="#r0"/><use x="46" y="20" xlink:href="#r0"/><use x="50" y="20" xlink:href="#r0"/><use x="54" y="20" xlink:href="#r0"/><use x="58" y="20" xlink:href="#r0"/><use x="64" y="20" xlink:href="#r0"/><use x="68" y="20" xlink:href="#r0"/><use x="74" y="20" xlink:href="#r0"/><use x="80" y="20" xlink:href="#r0"/><use x="82" y="20" xlink:href="#r0"/><use x="86" y="20" xlink:href="#r0"/><use x="92" y="20" xlink:href="#r0"/><use x="96" y="20" xlink:href="#r0"/><use x="98" y="20" xlink:href="#r0"/><use x="100" y="20" xlink:href="#r0"/><use x="102" y="20" xlink:href="#r0"/><use x="104" y="20" xlink:href="#r0"/><use x="106" y="20" xlink:href="#r0"/><use x="108" y="20" xlink:href="#r0"/><use x="20" y="22" xlink:href="#r0"/><use x="32" y="22" xlink:href="#r0"/><use x="38" y="22" xlink:href="#r0"/><use x="50" y="22" xlink:href="#r0"/><use x="54" y="22" xlink:href="#r0"/><use x="58" y="22" xlink:href="#r0"/><use x="70" y="22" xlink:href="#r0"/><use x="78" y="22" xlink:href="#r0"/><use x="80" y="22" xlink:href="#r0"/><use x="86" y="22" xlink:href="#r0"/><use x="90" y="22" xlink:href="#r0"/><use x="96" y="22" xlink:href="#r0"/><use x="108" y="22" xlink:href="#r0"/><use x="20" y="24" xlink:href="#r0"/><use x="24" y="24" xlink:href="#r0"/><use x="26" y="24" xlink:href="#r0"/><use x="28" y="24" xlink:href="#r0"/><use x="32" y="24" xlink:href="#r0"/><use x="36" y="24" xlink:href="#r0"/><use x="44" y="24" xlink:href="#r0"/><use x="48" y="24" xlink:href="#r0"/><use x="52" y="24" xlink:href="#r0"/><use x="54" y="24" xlink:href="#r0"/><use x="60" y="24" xlink:href="#r0"/><use x="62" y="24" xlink:href="#r0"/><use x="64" y="24" xlink:href="#r0"/><use x="66" y="24" xlink:href="#r0"/><use x="70" y="24" xlink:href="#r0"/><use x="72" y="24" xlink:href="#r0"/><use x="74" y="24" xlink:href="#r0"/><use x="80" y="24" xlink:href="#r0"/><use x="84" y="24" xlink:href="#r0"/><use x="90" y="24" xlink:href="#r0"/><use x="96" y="24" xlink:href="#r0"/><use x="100" y="24" xlink:href="#r0"/><use x="102" y="24" xlink:href="#r0"/><use x="104" y="24" xlink:href="#r0"/><use x="108" y="24" xlink:href="#r0"/><use x="20" y="26" xlink:href="#r0"/><use x="24" y="26" xlink:href="#r0"/><use x="26" y="26" xlink:href="#r0"/><use x="28" y="26" xlink:href="#r0"/><use x="32" y="26" xlink:href="#r0"/><use x="36" y="26" xlink:href="#r0"/><use x="38" y="26" xlink:href="#r0"/><use x="42" y="26" xlink:href="#r0"/><use x="52" y="26" xlink:href="#r0"/><use x="54" y="26" xlink:href="#r0"/><use x="56" y="26" xlink:href="#r0"/><use x="64" y="26" xlink:href="#r0"/><use x="72" y="26" xlink:href="#r0"/><use x="74" y="26" xlink:href="#r0"/><use x="86" y="26" xlink:href="#r0"/><use x="90" y="26" xlink:href="#r0"/><use x="92" y="26" xlink:href="#r0"/><use x="96" y="26" xlink:href="#r0"/><use x="100" y="26" xlink:href="#r0"/><use x="102" y="26" xlink:href="#r0"/><use x="104" y="26" xlink:href="#r0"/><use x="108" y="26" xlink:href="#r0"/><use x="20" y="28" xlink:href="#r0"/><use x="24" y="28" xlink:href="#r0"/><use x="26" y="28" xlink:href="#r0"/><use x="28" y="28" xlink:href="#r0"/><use x="32" y="28" xlink:href="#r0"/><use x="36" y="28" xlink:href="#r0"/><use x="38" y="28" xlink:href="#r0"/><use x="54" y="28" xlink:href="#r0"/><use x="58" y="28" xlink:href="#r0"/><use x="60" y="28" xlink:href="#r0"/><use x="62" y="28" xlink:href="#r0"/><use x="64" y="28" xlink:href="#r0"/><use x="66" y="28" xlink:href="#r0"/><use x="68" y="28" xlink:href="#r0"/><use x="72" y="28" xlink:href="#r0"/><use x="74" y="28" xlink:href="#r0"/><use x="76" y="28" xlink:href="#r0"/><use x="78" y="28" xlink:href="#r0"/><use x="82" y="28" xlink:href="#r0"/><use x="84" y="28" xlink:href="#r0"/><use x="86" y="28" xlink:href="#r0"/><use x="88" y="28" xlink:href="#r0"/><use x="90" y="28" xlink:href="#r0"/><use x="92" y="28" xlink:href="#r0"/><use x="96" y="28" xlink:href="#r0"/><use x="100" y="28" xlink:href="#r0"/><use x="102" y="28" xlink:href="#r0"/><use x="104" y="28" xlink:href="#r0"/><use x="108" y="28" xlink:href="#r0"/><use x="20" y="30" xlink:href="#r0"/><use x="32" y="30" xlink:href="#r0"/><use x="40" y="30" xlink:href="#r0"/><use x="44" y="30" xlink:href="#r0"/><use x="48" y="30" xlink:href="#r0"/><use x="50" y="30" xlink:href="#r0"/><use x="52" y="30" xlink:href="#r0"/><use x="54" y="30" xlink:href="#r0"/><use x="58" y="30" xlink:href="#r0"/><use x="60" y="30" xlink:href="#r0"/><use x="68" y="30" xlink:href="#r0"/><use x="70" y="30" xlink:href="#r0"/><use x="72" y="30" xlink:href="#r0"/><use x="76" y="30" xlink:href="#r0"/><use x="78" y="30" xlink:href="#r0"/><use x="80" y="30" xlink:href="#r0"/><use x="96" y="30" xlink:href="#r0"/><use x="108" y="30" xlink:href="#r0"/><use x="20" y="32" xlink:href="#r0"/><use x="22" y="32" xlink:href="#r0"/><use x="24" y="32" xlink:href="#r0"/><use x="26" y="32" xlink:href="#r0"/><use x="28" y="32" xlink:href="#r0"/><use x="30" y="32" xlink:href="#r0"/><use x="32" y="32" xlink:href="#r0"/><use x="36" y="32" xlink:href="#r0"/><use x="40" y="32" xlink:href="#r0"/><use x="44" y="32" xlink:href="#r0"/><use x="48" y="32" xlink:href="#r0"/><use x="52" y="32" xlink:href="#r0"/><use x="56" y="32" xlink:href="#r0"/><use x="60" y="32" xlink:href="#r0"/><use x="64" y="32" xlink:href="#r0"/><use x="68" y="32" xlink:href="#r0"/><use x="72" y="32" xlink:href="#r0"/><use x="76" y="32" xlink:href="#r0"/><use x="80" y="32" xlink:href="#r0"/><use x="84" y="32" xlink:href="#r0"/><use x="88" y="32" xlink:href="#r0"/><use x="92" y="32" xlink:href="#r0"/><use x="96" y="32" xlink:href="#r0"/><use x="98" y="32" xlink:href="#r0"/><use x="100" y="32" xlink:href="#r0"/><use x="102" y="32" xlink:href="#r0"/><use x="104" y="32" xlink:href="#r0"/><use x="106" y="32" xlink:href="#r0"/><use x="108" y="32" xlink:href="#r0"/><use x="44" y="34" xlink:href="#r0"/><use x="52" y="34" xlink:href="#r0"/><use x="54" y="34" xlink:href="#r0"/><use x="60" y="34" xlink:href="#r0"/><use x="68" y="34" xlink:href="#r0"/><use x="72" y="34" xlink:href="#r0"/><use x="74" y="34" xlink:href="#r0"/><use x="76" y="34" xlink:href="#r0"/><use x="80" y="34" xlink:href="#r0"/><use x="92" y="34" xlink:href="#r0"/><use x="20" y="36" xlink:href="#r0"/><use x="22" y="36" xlink:href="#r0"/><use x="24" y="36" xlink:href="#r0"/><use x="26" y="36" xlink:href="#r0"/><use x="32" y="36" xlink:href="#r0"/><use x="36" y="36" xlink:href="#r0"/><use x="38" y="36" xlink:href="#r0"/><use x="40" y="36" xlink:href="#r0"/><use x="48" y="36" xlink:href="#r0"/><use x="52" y="36" xlink:href="#r0"/><use x="54" y="36" xlink:href="#r0"/><use x="58" y="36" xlink:href="#r0"/><use x="60" y="36" xlink:href="#r0"/><use x="62" y="36" xlink:href="#r0"/><use x="64" y="36" xlink:href="#r0"/><use x="66" y="36" xlink:href="#r0"/><use x="68" y="36" xlink:href="#r0"/><use x="70" y="36" xlink:href="#r0"/><use x="72" y="36" xlink:href="#r0"/><use x="76" y="36" xlink:href="#r0"/><use x="78" y="36" xlink:href="#r0"/><use x="82" y="36" xlink:href="#r0"/><use x="90" y="36" xlink:href="#r0"/><use x="92" y="36" xlink:href="#r0"/><use x="94" y="36" xlink:href="#r0"/><use x="100" y="36" xlink:href="#r0"/><use x="102" y="36" xlink:href="#r0"/><use x="104" y="36" xlink:href="#r0"/><use x="108" y="36" xlink:href="#r0"/><use x="26" y="38" xlink:href="#r0"/><use x="36" y="38" xlink:href="#r0"/><use x="38" y="38" xlink:href="#r0"/><use x="42" y="38" xlink:href="#r0"/><use x="52" y="38" xlink:href="#r0"/><use x="58" y="38" xlink:href="#r0"/><use x="64" y="38" xlink:href="#r0"/><use x="74" y="38" xlink:href="#r0"/><use x="80" y="38" xlink:href="#r0"/><use x="84" y="38" xlink:href="#r0"/><use x="90" y="38" xlink:href="#r0"/><use x="92" y="38" xlink:href="#r0"/><use x="94" y="38" xlink:href="#r0"/><use x="98" y="38" xlink:href="#r0"/><use x="108" y="38" xlink:href="#r0"/><use x="20" y="40" xlink:href="#r0"/><use x="22" y="40" xlink:href="#r0"/><use x="26" y="40" xlink:href="#r0"/><use x="28" y="40" xlink:href="#r0"/><use x="32" y="40" xlink:href="#r0"/><use x="36" y="40" xlink:href="#r0"/><use x="40" y="40" xlink:href="#r0"/><use x="44" y="40" xlink:href="#r0"/><use x="46" y="40" xlink:href="#r0"/><use x="52" y="40" xlink:href="#r0"/><use x="56" y="40" xlink:href="#r0"/><use x="76" y="40" xlink:href="#r0"/><use x="80" y="40" xlink:href="#r0"/><use x="82" y="40" xlink:href="#r0"/><use x="88" y="40" xlink:href="#r0"/><use x="90" y="40" xlink:href="#r0"/><use x="100" y="40" xlink:href="#r0"/><use x="102" y="40" xlink:href="#r0"/><use x="104" y="40" xlink:href="#r0"/><use x="106" y="40" xlink:href="#r0"/><use x="108" y="40" xlink:href="#r0"/><use x="20" y="42" xlink:href="#r0"/><use x="22" y="42" xlink:href="#r0"/><use x="26" y="42" xlink:href="#r0"/><use x="28" y="42" xlink:href="#r0"/><use x="48" y="42" xlink:href="#r0"/><use x="50" y="42" xlink:href="#r0"/><use x="62" y="42" xlink:href="#r0"/><use x="64" y="42" xlink:href="#r0"/><use x="66" y="42" xlink:href="#r0"/><use x="70" y="42" xlink:href="#r0"/><use x="74" y="42" xlink:href="#r0"/><use x="78" y="42" xlink:href="#r0"/><use x="82" y="42" xlink:href="#r0"/><use x="84" y="42" xlink:href="#r0"/><use x="86" y="42" xlink:href="#r0"/><use x="90" y="42" xlink:href="#r0"/><use x="96" y="42" xlink:href="#r0"/><use x="106" y="42" xlink:href="#r0"/><use x="108" y="42" xlink:href="#r0"/><use x="22" y="44" xlink:href="#r0"/><use x="24" y="44" xlink:href="#r0"/><use x="30" y="44" xlink:href="#r0"/><use x="32" y="44" xlink:href="#r0"/><use x="34" y="44" xlink:href="#r0"/><use x="38" y="44" xlink:href="#r0"/><use x="40" y="44" xlink:href="#r0"/><use x="42" y="44" xlink:href="#r0"/><use x="44" y="44" xlink:href="#r0"/><use x="52" y="44" xlink:href="#r0"/><use x="56" y="44" xlink:href="#r0"/><use x="58" y="44" xlink:href="#r0"/><use x="62" y="44" xlink:href="#r0"/><use x="66" y="44" xlink:href="#r0"/><use x="68" y="44" xlink:href="#r0"/><use x="82" y="44" xlink:href="#r0"/><use x="94" y="44" xlink:href="#r0"/><use x="98" y="44" xlink:href="#r0"/><use x="102" y="44" xlink:href="#r0"/><use x="106" y="44" xlink:href="#r0"/><use x="108" y="44" xlink:href="#r0"/><use x="20" y="46" xlink:href="#r0"/><use x="38" y="46" xlink:href="#r0"/><use x="42" y="46" xlink:href="#r0"/><use x="46" y="46" xlink:href="#r0"/><use x="54" y="46" xlink:href="#r0"/><use x="56" y="46" xlink:href="#r0"/><use x="58" y="46" xlink:href="#r0"/><use x="62" y="46" xlink:href="#r0"/><use x="66" y="46" xlink:href="#r0"/><use x="72" y="46" xlink:href="#r0"/><use x="78" y="46" xlink:href="#r0"/><use x="86" y="46" xlink:href="#r0"/><use x="90" y="46" xlink:href="#r0"/><use x="96" y="46" xlink:href="#r0"/><use x="102" y="46" xlink:href="#r0"/><use x="104" y="46" xlink:href="#r0"/><use x="106" y="46" xlink:href="#r0"/><use x="20" y="48" xlink:href="#r0"/><use x="24" y="48" xlink:href="#r0"/><use x="32" y="48" xlink:href="#r0"/><use x="38" y="48" xlink:href="#r0"/><use x="40" y="48" xlink:href="#r0"/><use x="42" y="48" xlink:href="#r0"/><use x="44" y="48" xlink:href="#r0"/><use x="46" y="48" xlink:href="#r0"/><use x="52" y="48" xlink:href="#r0"/><use x="54" y="48" xlink:href="#r0"/><use x="58" y="48" xlink:href="#r0"/><use x="64" y="48" xlink:href="#r0"/><use x="66" y="48" xlink:href="#r0"/><use x="72" y="48" xlink:href="#r0"/><use x="74" y="48" xlink:href="#r0"/><use x="76" y="48" xlink:href="#r0"/><use x="78" y="48" xlink:href="#r0"/><use x="80" y="48" xlink:href="#r0"/><use x="86" y="48" xlink:href="#r0"/><use x="88" y="48" xlink:href="#r0"/><use x="94" y="48" xlink:href="#r0"/><use x="96" y="48" xlink:href="#r0"/><use x="100" y="48" xlink:href="#r0"/><use x="102" y="48" xlink:href="#r0"/><use x="106" y="48" xlink:href="#r0"/><use x="22" y="50" xlink:href="#r0"/><use x="26" y="50" xlink:href="#r0"/><use x="28" y="50" xlink:href="#r0"/><use x="30" y="50" xlink:href="#r0"/><use x="36" y="50" xlink:href="#r0"/><use x="40" y="50" xlink:href="#r0"/><use x="42" y="50" xlink:href="#r0"/><use x="44" y="50" xlink:href="#r0"/><use x="46" y="50" xlink:href="#r0"/><use x="50" y="50" xlink:href="#r0"/><use x="52" y="50" xlink:href="#r0"/><use x="54" y="50" xlink:href="#r0"/><use x="56" y="50" xlink:href="#r0"/><use x="58" y="50" xlink:href="#r0"/><use x="62" y="50" xlink:href="#r0"/><use x="66" y="50" xlink:href="#r0"/><use x="68" y="50" xlink:href="#r0"/><use x="70" y="50" xlink:href="#r0"/><use x="72" y="50" xlink:href="#r0"/><use x="76" y="50" xlink:href="#r0"/><use x="80" y="50" xlink:href="#r0"/><use x="84" y="50" xlink:href="#r0"/><use x="86" y="50" xlink:href="#r0"/><use x="92" y="50" xlink:href="#r0"/><use x="96" y="50" xlink:href="#r0"/><use x="98" y="50" xlink:href="#r0"/><use x="102" y="50" xlink:href="#r0"/><use x="104" y="50" xlink:href="#r0"/><use x="106" y="50" xlink:href="#r0"/><use x="20" y="52" xlink:href="#r0"/><use x="24" y="52" xlink:href="#r0"/><use x="26" y="52" xlink:href="#r0"/><use x="30" y="52" xlink:href="#r0"/><use x="32" y="52" xlink:href="#r0"/><use x="36" y="52" xlink:href="#r0"/><use x="38" y="52" xlink:href="#r0"/><use x="40" y="52" xlink:href="#r0"/><use x="48" y="52" xlink:href="#r0"/><use x="50" y="52" xlink:href="#r0"/><use x="62" y="52" xlink:href="#r0"/><use x="64" y="52" xlink:href="#r0"/><use x="68" y="52" xlink:href="#r0"/><use x="70" y="52" xlink:href="#r0"/><use x="72" y="52" xlink:href="#r0"/><use x="84" y="52" xlink:href="#r0"/><use x="86" y="52" xlink:href="#r0"/><use x="90" y="52" xlink:href="#r0"/><use x="92" y="52" xlink:href="#r0"/><use x="94" y="52" xlink:href="#r0"/><use x="96" y="52" xlink:href="#r0"/><use x="98" y="52" xlink:href="#r0"/><use x="102" y="52" xlink:href="#r0"/><use x="104" y="52" xlink:href="#r0"/><use x="106" y="52" xlink:href="#r0"/><use x="108" y="52" xlink:href="#r0"/><use x="26" y="54" xlink:href="#r0"/><use x="28" y="54" xlink:href="#r0"/><use x="34" y="54" xlink:href="#r0"/><use x="40" y="54" xlink:href="#r0"/><use x="42" y="54" xlink:href="#r0"/><use x="44" y="54" xlink:href="#r0"/><use x="52" y="54" xlink:href="#r0"/><use x="56" y="54" xlink:href="#r0"/><use x="60" y="54" xlink:href="#r0"/><use x="64" y="54" xlink:href="#r0"/><use x="66" y="54" xlink:href="#r0"/><use x="68" y="54" xlink:href="#r0"/><use x="70" y="54" xlink:href="#r0"/><use x="74" y="54" xlink:href="#r0"/><use x="76" y="54" xlink:href="#r0"/><use x="84" y="54" xlink:href="#r0"/><use x="86" y="54" xlink:href="#r0"/><use x="88" y="54" xlink:href="#r0"/><use x="90" y="54" xlink:href="#r0"/><use x="100" y="54" xlink:href="#r0"/><use x="106" y="54" xlink:href="#r0"/><use x="108" y="54" xlink:href="#r0"/><use x="22" y="56" xlink:href="#r0"/><use x="24" y="56" xlink:href="#r0"/><use x="26" y="56" xlink:href="#r0"/><use x="28" y="56" xlink:href="#r0"/><use x="32" y="56" xlink:href="#r0"/><use x="34" y="56" xlink:href="#r0"/><use x="44" y="56" xlink:href="#r0"/><use x="48" y="56" xlink:href="#r0"/><use x="54" y="56" xlink:href="#r0"/><use x="60" y="56" xlink:href="#r0"/><use x="66" y="56" xlink:href="#r0"/><use x="68" y="56" xlink:href="#r0"/><use x="70" y="56" xlink:href="#r0"/><use x="72" y="56" xlink:href="#r0"/><use x="78" y="56" xlink:href="#r0"/><use x="88" y="56" xlink:href="#r0"/><use x="90" y="56" xlink:href="#r0"/><use x="92" y="56" xlink:href="#r0"/><use x="96" y="56" xlink:href="#r0"/><use x="98" y="56" xlink:href="#r0"/><use x="106" y="56" xlink:href="#r0"/><use x="24" y="58" xlink:href="#r0"/><use x="26" y="58" xlink:href="#r0"/><use x="34" y="58" xlink:href="#r0"/><use x="46" y="58" xlink:href="#r0"/><use x="58" y="58" xlink:href="#r0"/><use x="60" y="58" xlink:href="#r0"/><use x="62" y="58" xlink:href="#r0"/><use x="68" y="58" xlink:href="#r0"/><use x="82" y="58" xlink:href="#r0"/><use x="90" y="58" xlink:href="#r0"/><use x="96" y="58" xlink:href="#r0"/><use x="98" y="58" xlink:href="#r0"/><use x="100" y="58" xlink:href="#r0"/><use x="102" y="58" xlink:href="#r0"/><use x="106" y="58" xlink:href="#r0"/><use x="108" y="58" xlink:href="#r0"/><use x="24" y="60" xlink:href="#r0"/><use x="28" y="60" xlink:href="#r0"/><use x="30" y="60" xlink:href="#r0"/><use x="32" y="60" xlink:href="#r0"/><use x="34" y="60" xlink:href="#r0"/><use x="36" y="60" xlink:href="#r0"/><use x="40" y="60" xlink:href="#r0"/><use x="44" y="60" xlink:href="#r0"/><use x="50" y="60" xlink:href="#r0"/><use x="54" y="60" xlink:href="#r0"/><use x="60" y="60" xlink:href="#r0"/><use x="62" y="60" xlink:href="#r0"/><use x="64" y="60" xlink:href="#r0"/><use x="66" y="60" xlink:href="#r0"/><use x="68" y="60" xlink:href="#r0"/><use x="74" y="60" xlink:href="#r0"/><use x="76" y="60" xlink:href="#r0"/><use x="78" y="60" xlink:href="#r0"/><use x="86" y="60" xlink:href="#r0"/><use x="90" y="60" xlink:href="#r0"/><use x="92" y="60" xlink:href="#r0"/><use x="94" y="60" xlink:href="#r0"/><use x="96" y="60" xlink:href="#r0"/><use x="98" y="60" xlink:href="#r0"/><use x="100" y="60" xlink:href="#r0"/><use x="102" y="60" xlink:href="#r0"/><use x="104" y="60" xlink:href="#r0"/><use x="106" y="60" xlink:href="#r0"/><use x="20" y="62" xlink:href="#r0"/><use x="24" y="62" xlink:href="#r0"/><use x="28" y="62" xlink:href="#r0"/><use x="36" y="62" xlink:href="#r0"/><use x="40" y="62" xlink:href="#r0"/><use x="50" y="62" xlink:href="#r0"/><use x="54" y="62" xlink:href="#r0"/><use x="56" y="62" xlink:href="#r0"/><use x="58" y="62" xlink:href="#r0"/><use x="60" y="62" xlink:href="#r0"/><use x="68" y="62" xlink:href="#r0"/><use x="74" y="62" xlink:href="#r0"/><use x="80" y="62" xlink:href="#r0"/><use x="82" y="62" xlink:href="#r0"/><use x="90" y="62" xlink:href="#r0"/><use x="92" y="62" xlink:href="#r0"/><use x="100" y="62" xlink:href="#r0"/><use x="108" y="62" xlink:href="#r0"/><use x="20" y="64" xlink:href="#r0"/><use x="24" y="64" xlink:href="#r0"/><use x="26" y="64" xlink:href="#r0"/><use x="28" y="64" xlink:href="#r0"/><use x="32" y="64" xlink:href="#r0"/><use x="36" y="64" xlink:href="#r0"/><use x="38" y="64" xlink:href="#r0"/><use x="42" y="64" xlink:href="#r0"/><use x="44" y="64" xlink:href="#r0"/><use x="46" y="64" xlink:href="#r0"/><use x="50" y="64" xlink:href="#r0"/><use x="58" y="64" xlink:href="#r0"/><use x="60" y="64" xlink:href="#r0"/><use x="64" y="64" xlink:href="#r0"/><use x="68" y="64" xlink:href="#r0"/><use x="78" y="64" xlink:href="#r0"/><use x="80" y="64" xlink:href="#r0"/><use x="86" y="64" xlink:href="#r0"/><use x="88" y="64" xlink:href="#r0"/><use x="90" y="64" xlink:href="#r0"/><use x="92" y="64" xlink:href="#r0"/><use x="96" y="64" xlink:href="#r0"/><use x="100" y="64" xlink:href="#r0"/><use x="104" y="64" xlink:href="#r0"/><use x="106" y="64" xlink:href="#r0"/><use x="108" y="64" xlink:href="#r0"/><use x="24" y="66" xlink:href="#r0"/><use x="26" y="66" xlink:href="#r0"/><use x="28" y="66" xlink:href="#r0"/><use x="36" y="66" xlink:href="#r0"/><use x="40" y="66" xlink:href="#r0"/><use x="42" y="66" xlink:href="#r0"/><use x="46" y="66" xlink:href="#r0"/><use x="48" y="66" xlink:href="#r0"/><use x="50" y="66" xlink:href="#r0"/><use x="60" y="66" xlink:href="#r0"/><use x="68" y="66" xlink:href="#r0"/><use x="70" y="66" xlink:href="#r0"/><use x="74" y="66" xlink:href="#r0"/><use x="80" y="66" xlink:href="#r0"/><use x="88" y="66" xlink:href="#r0"/><use x="92" y="66" xlink:href="#r0"/><use x="100" y="66" xlink:href="#r0"/><use x="102" y="66" xlink:href="#r0"/><use x="106" y="66" xlink:href="#r0"/><use x="108" y="66" xlink:href="#r0"/><use x="26" y="68" xlink:href="#r0"/><use x="28" y="68" xlink:href="#r0"/><use x="30" y="68" xlink:href="#r0"/><use x="32" y="68" xlink:href="#r0"/><use x="34" y="68" xlink:href="#r0"/><use x="36" y="68" xlink:href="#r0"/><use x="38" y="68" xlink:href="#r0"/><use x="40" y="68" xlink:href="#r0"/><use x="42" y="68" xlink:href="#r0"/><use x="44" y="68" xlink:href="#r0"/><use x="46" y="68" xlink:href="#r0"/><use x="48" y="68" xlink:href="#r0"/><use x="50" y="68" xlink:href="#r0"/><use x="56" y="68" xlink:href="#r0"/><use x="60" y="68" xlink:href="#r0"/><use x="62" y="68" xlink:href="#r0"/><use x="64" y="68" xlink:href="#r0"/><use x="66" y="68" xlink:href="#r0"/><use x="68" y="68" xlink:href="#r0"/><use x="72" y="68" xlink:href="#r0"/><use x="74" y="68" xlink:href="#r0"/><use x="78" y="68" xlink:href="#r0"/><use x="80" y="68" xlink:href="#r0"/><use x="82" y="68" xlink:href="#r0"/><use x="88" y="68" xlink:href="#r0"/><use x="92" y="68" xlink:href="#r0"/><use x="94" y="68" xlink:href="#r0"/><use x="96" y="68" xlink:href="#r0"/><use x="98" y="68" xlink:href="#r0"/><use x="100" y="68" xlink:href="#r0"/><use x="106" y="68" xlink:href="#r0"/><use x="24" y="70" xlink:href="#r0"/><use x="26" y="70" xlink:href="#r0"/><use x="30" y="70" xlink:href="#r0"/><use x="34" y="70" xlink:href="#r0"/><use x="36" y="70" xlink:href="#r0"/><use x="42" y="70" xlink:href="#r0"/><use x="48" y="70" xlink:href="#r0"/><use x="50" y="70" xlink:href="#r0"/><use x="52" y="70" xlink:href="#r0"/><use x="54" y="70" xlink:href="#r0"/><use x="66" y="70" xlink:href="#r0"/><use x="72" y="70" xlink:href="#r0"/><use x="74" y="70" xlink:href="#r0"/><use x="78" y="70" xlink:href="#r0"/><use x="86" y="70" xlink:href="#r0"/><use x="90" y="70" xlink:href="#r0"/><use x="96" y="70" xlink:href="#r0"/><use x="20" y="72" xlink:href="#r0"/><use x="22" y="72" xlink:href="#r0"/><use x="24" y="72" xlink:href="#r0"/><use x="26" y="72" xlink:href="#r0"/><use x="28" y="72" xlink:href="#r0"/><use x="30" y="72" xlink:href="#r0"/><use x="32" y="72" xlink:href="#r0"/><use x="34" y="72" xlink:href="#r0"/><use x="36" y="72" xlink:href="#r0"/><use x="42" y="72" xlink:href="#r0"/><use x="54" y="72" xlink:href="#r0"/><use x="58" y="72" xlink:href="#r0"/><use x="60" y="72" xlink:href="#r0"/><use x="72" y="72" xlink:href="#r0"/><use x="76" y="72" xlink:href="#r0"/><use x="78" y="72" xlink:href="#r0"/><use x="80" y="72" xlink:href="#r0"/><use x="84" y="72" xlink:href="#r0"/><use x="100" y="72" xlink:href="#r0"/><use x="24" y="74" xlink:href="#r0"/><use x="28" y="74" xlink:href="#r0"/><use x="36" y="74" xlink:href="#r0"/><use x="44" y="74" xlink:href="#r0"/><use x="48" y="74" xlink:href="#r0"/><use x="52" y="74" xlink:href="#r0"/><use x="58" y="74" xlink:href="#r0"/><use x="60" y="74" xlink:href="#r0"/><use x="62" y="74" xlink:href="#r0"/><use x="64" y="74" xlink:href="#r0"/><use x="66" y="74" xlink:href="#r0"/><use x="68" y="74" xlink:href="#r0"/><use x="70" y="74" xlink:href="#r0"/><use x="72" y="74" xlink:href="#r0"/><use x="74" y="74" xlink:href="#r0"/><use x="76" y="74" xlink:href="#r0"/><use x="78" y="74" xlink:href="#r0"/><use x="84" y="74" xlink:href="#r0"/><use x="90" y="74" xlink:href="#r0"/><use x="98" y="74" xlink:href="#r0"/><use x="104" y="74" xlink:href="#r0"/><use x="106" y="74" xlink:href="#r0"/><use x="22" y="76" xlink:href="#r0"/><use x="26" y="76" xlink:href="#r0"/><use x="32" y="76" xlink:href="#r0"/><use x="34" y="76" xlink:href="#r0"/><use x="38" y="76" xlink:href="#r0"/><use x="40" y="76" xlink:href="#r0"/><use x="44" y="76" xlink:href="#r0"/><use x="46" y="76" xlink:href="#r0"/><use x="48" y="76" xlink:href="#r0"/><use x="52" y="76" xlink:href="#r0"/><use x="58" y="76" xlink:href="#r0"/><use x="60" y="76" xlink:href="#r0"/><use x="70" y="76" xlink:href="#r0"/><use x="72" y="76" xlink:href="#r0"/><use x="80" y="76" xlink:href="#r0"/><use x="82" y="76" xlink:href="#r0"/><use x="84" y="76" xlink:href="#r0"/><use x="86" y="76" xlink:href="#r0"/><use x="90" y="76" xlink:href="#r0"/><use x="92" y="76" xlink:href="#r0"/><use x="94" y="76" xlink:href="#r0"/><use x="96" y="76" xlink:href="#r0"/><use x="100" y="76" xlink:href="#r0"/><use x="104" y="76" xlink:href="#r0"/><use x="106" y="76" xlink:href="#r0"/><use x="20" y="78" xlink:href="#r0"/><use x="22" y="78" xlink:href="#r0"/><use x="24" y="78" xlink:href="#r0"/><use x="28" y="78" xlink:href="#r0"/><use x="40" y="78" xlink:href="#r0"/><use x="42" y="78" xlink:href="#r0"/><use x="46" y="78" xlink:href="#r0"/><use x="48" y="78" xlink:href="#r0"/><use x="52" y="78" xlink:href="#r0"/><use x="60" y="78" xlink:href="#r0"/><use x="66" y="78" xlink:href="#r0"/><use x="68" y="78" xlink:href="#r0"/><use x="70" y="78" xlink:href="#r0"/><use x="74" y="78" xlink:href="#r0"/><use x="76" y="78" xlink:href="#r0"/><use x="82" y="78" xlink:href="#r0"/><use x="86" y="78" xlink:href="#r0"/><use x="88" y="78" xlink:href="#r0"/><use x="92" y="78" xlink:href="#r0"/><use x="96" y="78" xlink:href="#r0"/><use x="100" y="78" xlink:href="#r0"/><use x="108" y="78" xlink:href="#r0"/><use x="20" y="80" xlink:href="#r0"/><use x="22" y="80" xlink:href="#r0"/><use x="26" y="80" xlink:href="#r0"/><use x="28" y="80" xlink:href="#r0"/><use x="30" y="80" xlink:href="#r0"/><use x="32" y="80" xlink:href="#r0"/><use x="34" y="80" xlink:href="#r0"/><use x="42" y="80" xlink:href="#r0"/><use x="44" y="80" xlink:href="#r0"/><use x="54" y="80" xlink:href="#r0"/><use x="64" y="80" xlink:href="#r0"/><use x="66" y="80" xlink:href="#r0"/><use x="72" y="80" xlink:href="#r0"/><use x="76" y="80" xlink:href="#r0"/><use x="78" y="80" xlink:href="#r0"/><use x="82" y="80" xlink:href="#r0"/><use x="86" y="80" xlink:href="#r0"/><use x="88" y="80" xlink:href="#r0"/><use x="90" y="80" xlink:href="#r0"/><use x="92" y="80" xlink:href="#r0"/><use x="94" y="80" xlink:href="#r0"/><use x="100" y="80" xlink:href="#r0"/><use x="102" y="80" xlink:href="#r0"/><use x="106" y="80" xlink:href="#r0"/><use x="20" y="82" xlink:href="#r0"/><use x="26" y="82" xlink:href="#r0"/><use x="34" y="82" xlink:href="#r0"/><use x="38" y="82" xlink:href="#r0"/><use x="42" y="82" xlink:href="#r0"/><use x="46" y="82" xlink:href="#r0"/><use x="48" y="82" xlink:href="#r0"/><use x="54" y="82" xlink:href="#r0"/><use x="56" y="82" xlink:href="#r0"/><use x="58" y="82" xlink:href="#r0"/><use x="60" y="82" xlink:href="#r0"/><use x="64" y="82" xlink:href="#r0"/><use x="72" y="82" xlink:href="#r0"/><use x="74" y="82" xlink:href="#r0"/><use x="76" y="82" xlink:href="#r0"/><use x="78" y="82" xlink:href="#r0"/><use x="100" y="82" xlink:href="#r0"/><use x="106" y="82" xlink:href="#r0"/><use x="108" y="82" xlink:href="#r0"/><use x="24" y="84" xlink:href="#r0"/><use x="26" y="84" xlink:href="#r0"/><use x="28" y="84" xlink:href="#r0"/><use x="32" y="84" xlink:href="#r0"/><use x="40" y="84" xlink:href="#r0"/><use x="46" y="84" xlink:href="#r0"/><use x="50" y="84" xlink:href="#r0"/><use x="52" y="84" xlink:href="#r0"/><use x="54" y="84" xlink:href="#r0"/><use x="56" y="84" xlink:href="#r0"/><use x="58" y="84" xlink:href="#r0"/><use x="64" y="84" xlink:href="#r0"/><use x="66" y="84" xlink:href="#r0"/><use x="70" y="84" xlink:href="#r0"/><use x="76" y="84" xlink:href="#r0"/><use x="82" y="84" xlink:href="#r0"/><use x="86" y="84" xlink:href="#r0"/><use x="88" y="84" xlink:href="#r0"/><use x="98" y="84" xlink:href="#r0"/><use x="104" y="84" xlink:href="#r0"/><use x="106" y="84" xlink:href="#r0"/><use x="108" y="84" xlink:href="#r0"/><use x="20" y="86" xlink:href="#r0"/><use x="24" y="86" xlink:href="#r0"/><use x="26" y="86" xlink:href="#r0"/><use x="28" y="86" xlink:href="#r0"/><use x="36" y="86" xlink:href="#r0"/><use x="38" y="86" xlink:href="#r0"/><use x="42" y="86" xlink:href="#r0"/><use x="46" y="86" xlink:href="#r0"/><use x="50" y="86" xlink:href="#r0"/><use x="56" y="86" xlink:href="#r0"/><use x="60" y="86" xlink:href="#r0"/><use x="62" y="86" xlink:href="#r0"/><use x="64" y="86" xlink:href="#r0"/><use x="66" y="86" xlink:href="#r0"/><use x="68" y="86" xlink:href="#r0"/><use x="80" y="86" xlink:href="#r0"/><use x="90" y="86" xlink:href="#r0"/><use x="92" y="86" xlink:href="#r0"/><use x="98" y="86" xlink:href="#r0"/><use x="102" y="86" xlink:href="#r0"/><use x="104" y="86" xlink:href="#r0"/><use x="28" y="88" xlink:href="#r0"/><use x="32" y="88" xlink:href="#r0"/><use x="36" y="88" xlink:href="#r0"/><use x="38" y="88" xlink:href="#r0"/><use x="42" y="88" xlink:href="#r0"/><use x="44" y="88" xlink:href="#r0"/><use x="46" y="88" xlink:href="#r0"/><use x="50" y="88" xlink:href="#r0"/><use x="54" y="88" xlink:href="#r0"/><use x="56" y="88" xlink:href="#r0"/><use x="66" y="88" xlink:href="#r0"/><use x="68" y="88" xlink:href="#r0"/><use x="70" y="88" xlink:href="#r0"/><use x="74" y="88" xlink:href="#r0"/><use x="80" y="88" xlink:href="#r0"/><use x="88" y="88" xlink:href="#r0"/><use x="94" y="88" xlink:href="#r0"/><use x="96" y="88" xlink:href="#r0"/><use x="98" y="88" xlink:href="#r0"/><use x="100" y="88" xlink:href="#r0"/><use x="106" y="88" xlink:href="#r0"/><use x="108" y="88" xlink:href="#r0"/><use x="22" y="90" xlink:href="#r0"/><use x="24" y="90" xlink:href="#r0"/><use x="26" y="90" xlink:href="#r0"/><use x="28" y="90" xlink:href="#r0"/><use x="34" y="90" xlink:href="#r0"/><use x="36" y="90" xlink:href="#r0"/><use x="42" y="90" xlink:href="#r0"/><use x="44" y="90" xlink:href="#r0"/><use x="48" y="90" xlink:href="#r0"/><use x="52" y="90" xlink:href="#r0"/><use x="54" y="90" xlink:href="#r0"/><use x="58" y="90" xlink:href="#r0"/><use x="60" y="90" xlink:href="#r0"/><use x="64" y="90" xlink:href="#r0"/><use x="72" y="90" xlink:href="#r0"/><use x="80" y="90" xlink:href="#r0"/><use x="84" y="90" xlink:href="#r0"/><use x="86" y="90" xlink:href="#r0"/><use x="92" y="90" xlink:href="#r0"/><use x="96" y="90" xlink:href="#r0"/><use x="100" y="90" xlink:href="#r0"/><use x="106" y="90" xlink:href="#r0"/><use x="108" y="90" xlink:href="#r0"/><use x="20" y="92" xlink:href="#r0"/><use x="26" y="92" xlink:href="#r0"/><use x="28" y="92" xlink:href="#r0"/><use x="32" y="92" xlink:href="#r0"/><use x="34" y="92" xlink:href="#r0"/><use x="36" y="92" xlink:href="#r0"/><use x="38" y="92" xlink:href="#r0"/><use x="46" y="92" xlink:href="#r0"/><use x="50" y="92" xlink:href="#r0"/><use x="54" y="92" xlink:href="#r0"/><use x="56" y="92" xlink:href="#r0"/><use x="58" y="92" xlink:href="#r0"/><use x="60" y="92" xlink:href="#r0"/><use x="62" y="92" xlink:href="#r0"/><use x="64" y="92" xlink:href="#r0"/><use x="66" y="92" xlink:href="#r0"/><use x="68" y="92" xlink:href="#r0"/><use x="70" y="92" xlink:href="#r0"/><use x="74" y="92" xlink:href="#r0"/><use x="78" y="92" xlink:href="#r0"/><use x="80" y="92" xlink:href="#r0"/><use x="82" y="92" xlink:href="#r0"/><use x="92" y="92" xlink:href="#r0"/><use x="94" y="92" xlink:href="#r0"/><use x="96" y="92" xlink:href="#r0"/><use x="98" y="92" xlink:href="#r0"/><use x="100" y="92" xlink:href="#r0"/><use x="108" y="92" xlink:href="#r0"/><use x="36" y="94" xlink:href="#r0"/><use x="38" y="94" xlink:href="#r0"/><use x="46" y="94" xlink:href="#r0"/><use x="50" y="94" xlink:href="#r0"/><use x="54" y="94" xlink:href="#r0"/><use x="58" y="94" xlink:href="#r0"/><use x="60" y="94" xlink:href="#r0"/><use x="68" y="94" xlink:href="#r0"/><use x="70" y="94" xlink:href="#r0"/><use x="72" y="94" xlink:href="#r0"/><use x="78" y="94" xlink:href="#r0"/><use x="82" y="94" xlink:href="#r0"/><use x="84" y="94" xlink:href="#r0"/><use x="86" y="94" xlink:href="#r0"/><use x="90" y="94" xlink:href="#r0"/><use x="92" y="94" xlink:href="#r0"/><use x="100" y="94" xlink:href="#r0"/><use x="102" y="94" xlink:href="#r0"/><use x="104" y="94" xlink:href="#r0"/><use x="20" y="96" xlink:href="#r0"/><use x="22" y="96" xlink:href="#r0"/><use x="24" y="96" xlink:href="#r0"/><use x="26" y="96" xlink:href="#r0"/><use x="28" y="96" xlink:href="#r0"/><use x="30" y="96" xlink:href="#r0"/><use x="32" y="96" xlink:href="#r0"/><use x="40" y="96" xlink:href="#r0"/><use x="42" y="96" xlink:href="#r0"/><use x="48" y="96" xlink:href="#r0"/><use x="50" y="96" xlink:href="#r0"/><use x="52" y="96" xlink:href="#r0"/><use x="60" y="96" xlink:href="#r0"/><use x="64" y="96" xlink:href="#r0"/><use x="68" y="96" xlink:href="#r0"/><use x="76" y="96" xlink:href="#r0"/><use x="78" y="96" xlink:href="#r0"/><use x="80" y="96" xlink:href="#r0"/><use x="82" y="96" xlink:href="#r0"/><use x="92" y="96" xlink:href="#r0"/><use x="96" y="96" xlink:href="#r0"/><use x="100" y="96" xlink:href="#r0"/><use x="20" y="98" xlink:href="#r0"/><use x="32" y="98" xlink:href="#r0"/><use x="38" y="98" xlink:href="#r0"/><use x="40" y="98" xlink:href="#r0"/><use x="42" y="98" xlink:href="#r0"/><use x="48" y="98" xlink:href="#r0"/><use x="52" y="98" xlink:href="#r0"/><use x="54" y="98" xlink:href="#r0"/><use x="56" y="98" xlink:href="#r0"/><use x="58" y="98" xlink:href="#r0"/><use x="60" y="98" xlink:href="#r0"/><use x="68" y="98" xlink:href="#r0"/><use x="76" y="98" xlink:href="#r0"/><use x="78" y="98" xlink:href="#r0"/><use x="80" y="98" xlink:href="#r0"/><use x="86" y="98" xlink:href="#r0"/><use x="88" y="98" xlink:href="#r0"/><use x="92" y="98" xlink:href="#r0"/><use x="100" y="98" xlink:href="#r0"/><use x="102" y="98" xlink:href="#r0"/><use x="104" y="98" xlink:href="#r0"/><use x="20" y="100" xlink:href="#r0"/><use x="24" y="100" xlink:href="#r0"/><use x="26" y="100" xlink:href="#r0"/><use x="28" y="100" xlink:href="#r0"/><use x="32" y="100" xlink:href="#r0"/><use x="38" y="100" xlink:href="#r0"/><use x="40" y="100" xlink:href="#r0"/><use x="46" y="100" xlink:href="#r0"/><use x="54" y="100" xlink:href="#r0"/><use x="60" y="100" xlink:href="#r0"/><use x="62" y="100" xlink:href="#r0"/><use x="64" y="100" xlink:href="#r0"/><use x="66" y="100" xlink:href="#r0"/><use x="68" y="100" xlink:href="#r0"/><use x="70" y="100" xlink:href="#r0"/><use x="72" y="100" xlink:href="#r0"/><use x="80" y="100" xlink:href="#r0"/><use x="82" y="100" xlink:href="#r0"/><use x="84" y="100" xlink:href="#r0"/><use x="90" y="100" xlink:href="#r0"/><use x="92" y="100" xlink:href="#r0"/><use x="94" y="100" xlink:href="#r0"/><use x="96" y="100" xlink:href="#r0"/><use x="98" y="100" xlink:href="#r0"/><use x="100" y="100" xlink:href="#r0"/><use x="102" y="100" xlink:href="#r0"/><use x="104" y="100" xlink:href="#r0"/><use x="106" y="100" xlink:href="#r0"/><use x="108" y="100" xlink:href="#r0"/><use x="20" y="102" xlink:href="#r0"/><use x="24" y="102" xlink:href="#r0"/><use x="26" y="102" xlink:href="#r0"/><use x="28" y="102" xlink:href="#r0"/><use x="32" y="102" xlink:href="#r0"/><use x="36" y="102" xlink:href="#r0"/><use x="46" y="102" xlink:href="#r0"/><use x="50" y="102" xlink:href="#r0"/><use x="54" y="102" xlink:href="#r0"/><use x="58" y="102" xlink:href="#r0"/><use x="62" y="102" xlink:href="#r0"/><use x="64" y="102" xlink:href="#r0"/><use x="70" y="102" xlink:href="#r0"/><use x="74" y="102" xlink:href="#r0"/><use x="76" y="102" xlink:href="#r0"/><use x="82" y="102" xlink:href="#r0"/><use x="88" y="102" xlink:href="#r0"/><use x="90" y="102" xlink:href="#r0"/><use x="92" y="102" xlink:href="#r0"/><use x="94" y="102" xlink:href="#r0"/><use x="96" y="102" xlink:href="#r0"/><use x="102" y="102" xlink:href="#r0"/><use x="104" y="102" xlink:href="#r0"/><use x="106" y="102" xlink:href="#r0"/><use x="20" y="104" xlink:href="#r0"/><use x="24" y="104" xlink:href="#r0"/><use x="26" y="104" xlink:href="#r0"/><use x="28" y="104" xlink:href="#r0"/><use x="32" y="104" xlink:href="#r0"/><use x="36" y="104" xlink:href="#r0"/><use x="38" y="104" xlink:href="#r0"/><use x="40" y="104" xlink:href="#r0"/><use x="42" y="104" xlink:href="#r0"/><use x="44" y="104" xlink:href="#r0"/><use x="50" y="104" xlink:href="#r0"/><use x="52" y="104" xlink:href="#r0"/><use x="70" y="104" xlink:href="#r0"/><use x="72" y="104" xlink:href="#r0"/><use x="74" y="104" xlink:href="#r0"/><use x="78" y="104" xlink:href="#r0"/><use x="84" y="104" xlink:href="#r0"/><use x="86" y="104" xlink:href="#r0"/><use x="88" y="104" xlink:href="#r0"/><use x="92" y="104" xlink:href="#r0"/><use x="102" y="104" xlink:href="#r0"/><use x="108" y="104" xlink:href="#r0"/><use x="20" y="106" xlink:href="#r0"/><use x="32" y="106" xlink:href="#r0"/><use x="36" y="106" xlink:href="#r0"/><use x="42" y="106" xlink:href="#r0"/><use x="50" y="106" xlink:href="#r0"/><use x="52" y="106" xlink:href="#r0"/><use x="60" y="106" xlink:href="#r0"/><use x="66" y="106" xlink:href="#r0"/><use x="68" y="106" xlink:href="#r0"/><use x="72" y="106" xlink:href="#r0"/><use x="74" y="106" xlink:href="#r0"/><use x="76" y="106" xlink:href="#r0"/><use x="86" y="106" xlink:href="#r0"/><use x="88" y="106" xlink:href="#r0"/><use x="92" y="106" xlink:href="#r0"/><use x="96" y="106" xlink:href="#r0"/><use x="98" y="106" xlink:href="#r0"/><use x="102" y="106" xlink:href="#r0"/><use x="108" y="106" xlink:href="#r0"/><use x="20" y="108" xlink:href="#r0"/><use x="22" y="108" xlink:href="#r0"/><use x="24" y="108" xlink:href="#r0"/><use x="26" y="108" xlink:href="#r0"/><use x="28" y="108" xlink:href="#r0"/><use x="30" y="108" xlink:href="#r0"/><use x="32" y="108" xlink:href="#r0"/><use x="36" y="108" xlink:href="#r0"/><use x="44" y="108" xlink:href="#r0"/><use x="64" y="108" xlink:href="#r0"/><use x="66" y="108" xlink:href="#r0"/><use x="70" y="108" xlink:href="#r0"/><use x="72" y="108" xlink:href="#r0"/><use x="76" y="108" xlink:href="#r0"/><use x="78" y="108" xlink:href="#r0"/><use x="86" y="108" xlink:href="#r0"/><use x="88" y="108" xlink:href="#r0"/><use x="94" y="108" xlink:href="#r0"/><use x="96" y="108" xlink:href="#r0"/><use x="100" y="108" xlink:href="#r0"/><use x="102" y="108" xlink:href="#r0"/><use x="104" y="108" xlink:href="#r0"/></svg>