<svg xmlns="http://www.w3.org/2000/svg" xmlns:xlink="http://www.w3.org/1999/xlink" version="1.1" width="100px" height="100px" viewBox="0 0 100 100"><defs><rect id="r0" width="3" height="3" fill="#000000"/></defs><rect x="0" y="0" width="100" height="100" fill="#fefefe"/><use x="0" y="0" xlink:href="#r0"/><use x="3" y="0" xlink:href="#r0"/><use x="6" y="0" xlink:href="#r0"/><use x="9" y="0" xlink:href="#r0"/><use x="12" y="0" xlink:href="#r0"/><use x="15" y="0" xlink:href="#r0"/><use x="18" y="0" xlink:href="#r0"/><use x="27" y="0" xlink:href="#r0"/><use x="36" y="0" xlink:href="#r0"/><use x="42" y="0" xlink:href="#r0"/><use x="57" y="0" xlink:href="#r0"/><use x="60" y="0" xlink:href="#r0"/><use x="63" y="0" xlink:href="#r0"/><use x="66" y="0" xlink:href="#r0"/><use x="69" y="0" xlink:href="#r0"/><use x="72" y="0" xlink:href="#r0"/><use x="78" y="0" xlink:href="#r0"/><use x="81" y="0" xlink:href="#r0"/><use x="84" y="0" xlink:href="#r0"/><use x="87" y="0" xlink:href="#r0"/><use x="90" y="0" xlink:href="#r0"/><use x="93" y="0" xlink:href="#r0"/><use x="96" y="0" xlink:href="#r0"/><use x="0" y="3" xlink:href="#r0"/><use x="18" y="3" xlink:href="#r0"/><use x="24" y="3" xlink:href="#r0"/><use x="33" y="3" xlink:href="#r0"/><use x="36" y="3" xlink:href="#r0"/><use x="45" y="3" xlink:href="#r0"/><use x="48" y="3" xlink:href="#r0"/><use x="51" y="3" xlink:href="#r0"/><use x="69" y="3" xlink:href="#r0"/><use x="72" y="3" xlink:href="#r0"/><use x="78" y="3" xlink:href="#r0"/><use x="96" y="3" xlink:href="#r0"/><use x="0" y="6" xlink:href="#r0"/><use x="6" y="6" xlink:href="#r0"/><use x="9" y="6" xlink:href="#r0"/><use x="12" y="6" xlink:href="#r0"/><use x="18" y="6" xlink:href="#r0"/><use x="24" y="6" xlink:href="#r0"/><use x="27" y="6" xlink:href="#r0"/><use x="30" y="6" xlink:href="#r0"/><use x="33" y="6" xlink:href="#r0"/><use x="36" y="6" xlink:href="#r0"/><use x="42" y="6" xlink:href="#r0"/><use x="45" y="6" xlink:href="#r0"/><use x="48" y="6" xlink:href="#r0"/><use x="51" y="6" xlink:href="#r0"/><use x="54" y="6" xlink:href="#r0"/><use x="57" y="6" xlink:href="#r0"/><use x="66" y="6" xlink:href="#r0"/><use x="72" y="6" xlink:href="#r0"/><use x="78" y="6" xlink:href="#r0"/><use x="84" y="6" xlink:href="#r0"/><use x="87" y="6" xlink:href="#r0"/><use x="90" y="6" xlink:href="#r0"/><use x="96" y="6" xlink:href="#r0"/><use x="0" y="9" xlink:href="#r0"/><use x="6" y="9" xlink:href="#r0"/><use x="9" y="9" xlink:href="#r0"/><use x="12" y="9" xlink:href="#r0"/><use x="18" y="9" xlink:href="#r0"/><use x="27" y="9" xlink:href="#r0"/><use x="30" y="9" xlink:href="#r0"/><use x="33" y="9" xlink:href="#r0"/><use x="45" y="9" xlink:href="#r0"/><use x="48" y="9" xlink:href="#r0"/><use x="57" y="9" xlink:href="#r0"/><use x="60" y="9" xlink:href="#r0"/><use x="69" y="9" xlink:href="#r0"/><use x="72" y="9" xlink:href="#r0"/><use x="78" y="9" xlink:href="#r0"/><use x="84" y="9" xlink:href="#r0"/><use x="87" y="9" xlink:href="#r0"/><use x="90" y="9" xlink:href="#r0"/><use x="96" y="9" xlink:href="#r0"/><use x="0" y="12" xlink:href="#r0"/><use x="6" y="12" xlink:href="#r0"/><use x="9" y="12" xlink:href="#r0"/><use x="12" y="12" xlink:href="#r0"/><use x="18" y="12" xlink:href="#r0"/><use x="24" y="12" xlink:href="#r0"/><use x="42" y="12" xlink:href="#r0"/><use x="48" y="12" xlink:href="#r0"/><use x="60" y="12" xlink:href="#r0"/><use x="63" y="12" xlink:href="#r0"/><use x="78" y="12" xlink:href="#r0"/><use x="84" y="12" xlink:href="#r0"/><use x="87" y="12" xlink:href="#r0"/><use x="90" y="12" xlink:href="#r0"/><use x="96" y="12" xlink:href="#r0"/><use x="0" y="15" xlink:href="#r0"/><use x="18" y="15" xlink:href="#r0"/><use x="24" y="15" xlink:href="#r0"/><use x="27" y="15" xlink:href="#r0"/><use x="33" y="15" xlink:href="#r0"/><use x="39" y="15" xlink:href="#r0"/><use x="45" y="15" xlink:href="#r0"/><use x="48" y="15" xlink:href="#r0"/><use x="57" y="15" xlink:href="#r0"/><use x="63" y="15" xlink:href="#r0"/><use x="78" y="15" xlink:href="#r0"/><use x="96" y="15" xlink:href="#r0"/><use x="0" y="18" xlink:href="#r0"/><use x="3" y="18" xlink:href="#r0"/><use x="6" y="18" xlink:href="#r0"/><use x="9" y="18" xlink:href="#r0"/><use x="12" y="18" xlink:href="#r0"/><use x="15" y="18" xlink:href="#r0"/><use x="18" y="18" xlink:href="#r0"/><use x="24" y="18" xlink:href="#r0"/><use x="30" y="18" xlink:href="#r0"/><use x="36" y="18" xlink:href="#r0"/><use x="42" y="18" xlink:href="#r0"/><use x="48" y="18" xlink:href="#r0"/><use x="54" y="18" xlink:href="#r0"/><use x="60" y="18" xlink:href="#r0"/><use x="66" y="18" xlink:href="#r0"/><use x="72" y="18" xlink:href="#r0"/><use x="78" y="18" xlink:href="#r0"/><use x="81" y="18" xlink:href="#r0"/><use x="84" y="18" xlink:href="#r0"/><use x="87" y="18" xlink:href="#r0"/><use x="90" y="18" xlink:href="#r0"/><use x="93" y="18" xlink:href="#r0"/><use x="96" y="18" xlink:href="#r0"/><use x="24" y="21" xlink:href="#r0"/><use x="27" y="21" xlink:href="#r0"/><use x="36" y="21" xlink:href="#r0"/><use x="42" y="21" xlink:href="#r0"/><use x="45" y="21" xlink:href="#r0"/><use x="48" y="21" xlink:href="#r0"/><use x="51" y="21" xlink:href="#r0"/><use x="54" y="21" xlink:href="#r0"/><use x="60" y="21" xlink:href="#r0"/><use x="63" y="21" xlink:href="#r0"/><use x="72" y="21" xlink:href="#r0"/><use x="0" y="24" xlink:href="#r0"/><use x="3" y="24" xlink:href="#r0"/><use x="9" y="24" xlink:href="#r0"/><use x="18" y="24" xlink:href="#r0"/><use x="21" y="24" xlink:href="#r0"/><use x="30" y="24" xlink:href="#r0"/><use x="42" y="24" xlink:href="#r0"/><use x="45" y="24" xlink:href="#r0"/><use x="48" y="24" xlink:href="#r0"/><use x="54" y="24" xlink:href="#r0"/><use x="57" y="24" xlink:href="#r0"/><use x="63" y="24" xlink:href="#r0"/><use x="66" y="24" xlink:href="#r0"/><use x="72" y="24" xlink:href="#r0"/><use x="78" y="24" xlink:href="#r0"/><use x="81" y="24" xlink:href="#r0"/><use x="84" y="24" xlink:href="#r0"/><use x="90" y="24" xlink:href="#r0"/><use x="93" y="24" xlink:href="#r0"/><use x="12" y="27" xlink:href="#r0"/><use x="21" y="27" xlink:href="#r0"/><use x="24" y="27" xlink:href="#r0"/><use x="30" y="27" xlink:href="#r0"/><use x="33" y="27" xlink:href="#r0"/><use x="45" y="27" xlink:href="#r0"/><use x="48" y="27" xlink:href="#r0"/><use x="54" y="27" xlink:href="#r0"/><use x="75" y="27" xlink:href="#r0"/><use x="87" y="27" xlink:href="#r0"/><use x="90" y="27" xlink:href="#r0"/><use x="93" y="27" xlink:href="#r0"/><use x="96" y="27" xlink:href="#r0"/><use x="9" y="30" xlink:href="#r0"/><use x="18" y="30" xlink:href="#r0"/><use x="21" y="30" xlink:href="#r0"/><use x="24" y="30" xlink:href="#r0"/><use x="27" y="30" xlink:href="#r0"/><use x="30" y="30" xlink:href="#r0"/><use x="39" y="30" xlink:href="#r0"/><use x="42" y="30" xlink:href="#r0"/><use x="54" y="30" xlink:href="#r0"/><use x="57" y="30" xlink:href="#r0"/><use x="60" y="30" xlink:href="#r0"/><use x="66" y="30" xlink:href="#r0"/><use x="72" y="30" xlink:href="#r0"/><use x="87" y="30" xlink:href="#r0"/><use x="96" y="30" xlink:href="#r0"/><use x="6" y="33" xlink:href="#r0"/><use x="9" y="33" xlink:href="#r0"/><use x="24" y="33" xlink:href="#r0"/><use x="39" y="33" xlink:href="#r0"/><use x="48" y="33" xlink:href="#r0"/><use x="60" y="33" xlink:href="#r0"/><use x="63" y="33" xlink:href="#r0"/><use x="66" y="33" xlink:href="#r0"/><use x="78" y="33" xlink:href="#r0"/><use x="81" y="33" xlink:href="#r0"/><use x="87" y="33" xlink:href="#r0"/><use x="96" y="33" xlink:href="#r0"/><use x="0" y="36" xlink:href="#r0"/><use x="3" y="36" xlink:href="#r0"/><use x="6" y="36" xlink:href="#r0"/><use x="9" y="36" xlink:href="#r0"/><use x="12" y="36" xlink:href="#r0"/><use x="18" y="36" xlink:href="#r0"/><use x="21" y="36" xlink:href="#r0"/><use x="24" y="36" xlink:href="#r0"/><use x="36" y="36" xlink:href="#r0"/><use x="45" y="36" xlink:href="#r0"/><use x="48" y="36" xlink:href="#r0"/><use x="51" y="36" xlink:href="#r0"/><use x="54" y="36" xlink:href="#r0"/><use x="63" y="36" xlink:href="#r0"/><use x="66" y="36" xlink:href="#r0"/><use x="69" y="36" xlink:href="#r0"/><use x="72" y="36" xlink:href="#r0"/><use x="75" y="36" xlink:href="#r0"/><use x="78" y="36" xlink:href="#r0"/><use x="0" y="39" xlink:href="#r0"/><use x="15" y="39" xlink:href="#r0"/><use x="24" y="39" xlink:href="#r0"/><use x="27" y="39" xlink:href="#r0"/><use x="30" y="39" xlink:href="#r0"/><use x="33" y="39" xlink:href="#r0"/><use x="36" y="39" xlink:href="#r0"/><use x="39" y="39" xlink:href="#r0"/><use x="42" y="39" xlink:href="#r0"/><use x="45" y="39" xlink:href="#r0"/><use x="57" y="39" xlink:href="#r0"/><use x="63" y="39" xlink:href="#r0"/><use x="69" y="39" xlink:href="#r0"/><use x="72" y="39" xlink:href="#r0"/><use x="78" y="39" xlink:href="#r0"/><use x="81" y="39" xlink:href="#r0"/><use x="84" y="39" xlink:href="#r0"/><use x="87" y="39" xlink:href="#r0"/><use x="96" y="39" xlink:href="#r0"/><use x="0" y="42" xlink:href="#r0"/><use x="3" y="42" xlink:href="#r0"/><use x="15" y="42" xlink:href="#r0"/><use x="18" y="42" xlink:href="#r0"/><use x="27" y="42" xlink:href="#r0"/><use x="30" y="42" xlink:href="#r0"/><use x="36" y="42" xlink:href="#r0"/><use x="51" y="42" xlink:href="#r0"/><use x="66" y="42" xlink:href="#r0"/><use x="69" y="42" xlink:href="#r0"/><use x="72" y="42" xlink:href="#r0"/><use x="84" y="42" xlink:href="#r0"/><use x="93" y="42" xlink:href="#r0"/><use x="3" y="45" xlink:href="#r0"/><use x="9" y="45" xlink:href="#r0"/><use x="21" y="45" xlink:href="#r0"/><use x="24" y="45" xlink:href="#r0"/><use x="27" y="45" xlink:href="#r0"/><use x="36" y="45" xlink:href="#r0"/><use x="39" y="45" xlink:href="#r0"/><use x="48" y="45" xlink:href="#r0"/><use x="51" y="45" xlink:href="#r0"/><use x="54" y="45" xlink:href="#r0"/><use x="57" y="45" xlink:href="#r0"/><use x="63" y="45" xlink:href="#r0"/><use x="66" y="45" xlink:href="#r0"/><use x="69" y="45" xlink:href="#r0"/><use x="81" y="45" xlink:href="#r0"/><use x="84" y="45" xlink:href="#r0"/><use x="93" y="45" xlink:href="#r0"/><use x="96" y="45" xlink:href="#r0"/><use x="18" y="48" xlink:href="#r0"/><use x="24" y="48" xlink:href="#r0"/><use x="27" y="48" xlink:href="#r0"/><use x="33" y="48" xlink:href="#r0"/><use x="42" y="48" xlink:href="#r0"/><use x="45" y="48" xlink:href="#r0"/><use x="57" y="48" xlink:href="#r0"/><use x="63" y="48" xlink:href="#r0"/><use x="69" y="48" xlink:href="#r0"/><use x="72" y="48" xlink:href="#r0"/><use x="78" y="48" xlink:href="#r0"/><use x="84" y="48" xlink:href="#r0"/><use x="0" y="51" xlink:href="#r0"/><use x="6" y="51" xlink:href="#r0"/><use x="9" y="51" xlink:href="#r0"/><use x="12" y="51" xlink:href="#r0"/><use x="27" y="51" xlink:href="#r0"/><use x="30" y="51" xlink:href="#r0"/><use x="42" y="51" xlink:href="#r0"/><use x="45" y="51" xlink:href="#r0"/><use x="48" y="51" xlink:href="#r0"/><use x="54" y="51" xlink:href="#r0"/><use x="60" y="51" xlink:href="#r0"/><use x="66" y="51" xlink:href="#r0"/><use x="69" y="51" xlink:href="#r0"/><use x="75" y="51" xlink:href="#r0"/><use x="90" y="51" xlink:href="#r0"/><use x="93" y="51" xlink:href="#r0"/><use x="0" y="54" xlink:href="#r0"/><use x="15" y="54" xlink:href="#r0"/><use x="18" y="54" xlink:href="#r0"/><use x="21" y="54" xlink:href="#r0"/><use x="27" y="54" xlink:href="#r0"/><use x="51" y="54" xlink:href="#r0"/><use x="54" y="54" xlink:href="#r0"/><use x="60" y="54" xlink:href="#r0"/><use x="66" y="54" xlink:href="#r0"/><use x="72" y="54" xlink:href="#r0"/><use x="75" y="54" xlink:href="#r0"/><use x="78" y="54" xlink:href="#r0"/><use x="81" y="54" xlink:href="#r0"/><use x="90" y="54" xlink:href="#r0"/><use x="93" y="54" xlink:href="#r0"/><use x="96" y="54" xlink:href="#r0"/><use x="3" y="57" xlink:href="#r0"/><use x="6" y="57" xlink:href="#r0"/><use x="12" y="57" xlink:href="#r0"/><use x="24" y="57" xlink:href="#r0"/><use x="27" y="57" xlink:href="#r0"/><use x="33" y="57" xlink:href="#r0"/><use x="42" y="57" xlink:href="#r0"/><use x="45" y="57" xlink:href="#r0"/><use x="51" y="57" xlink:href="#r0"/><use x="54" y="57" xlink:href="#r0"/><use x="63" y="57" xlink:href="#r0"/><use x="69" y="57" xlink:href="#r0"/><use x="84" y="57" xlink:href="#r0"/><use x="93" y="57" xlink:href="#r0"/><use x="6" y="60" xlink:href="#r0"/><use x="18" y="60" xlink:href="#r0"/><use x="27" y="60" xlink:href="#r0"/><use x="33" y="60" xlink:href="#r0"/><use x="36" y="60" xlink:href="#r0"/><use x="42" y="60" xlink:href="#r0"/><use x="45" y="60" xlink:href="#r0"/><use x="48" y="60" xlink:href="#r0"/><use x="51" y="60" xlink:href="#r0"/><use x="57" y="60" xlink:href="#r0"/><use x="60" y="60" xlink:href="#r0"/><use x="63" y="60" xlink:href="#r0"/><use x="66" y="60" xlink:href="#r0"/><use x="72" y="60" xlink:href="#r0"/><use x="75" y="60" xlink:href="#r0"/><use x="87" y="60" xlink:href="#r0"/><use x="3" y="63" xlink:href="#r0"/><use x="9" y="63" xlink:href="#r0"/><use x="12" y="63" xlink:href="#r0"/><use x="15" y="63" xlink:href="#r0"/><use x="21" y="63" xlink:href="#r0"/><use x="24" y="63" xlink:href="#r0"/><use x="33" y="63" xlink:href="#r0"/><use x="36" y="63" xlink:href="#r0"/><use x="39" y="63" xlink:href="#r0"/><use x="45" y="63" xlink:href="#r0"/><use x="48" y="63" xlink:href="#r0"/><use x="63" y="63" xlink:href="#r0"/><use x="66" y="63" xlink:href="#r0"/><use x="72" y="63" xlink:href="#r0"/><use x="78" y="63" xlink:href="#r0"/><use x="87" y="63" xlink:href="#r0"/><use x="93" y="63" xlink:href="#r0"/><use x="96" y="63" xlink:href="#r0"/><use x="0" y="66" xlink:href="#r0"/><use x="3" y="66" xlink:href="#r0"/><use x="6" y="66" xlink:href="#r0"/><use x="9" y="66" xlink:href="#r0"/><use x="12" y="66" xlink:href="#r0"/><use x="15" y="66" xlink:href="#r0"/><use x="18" y="66" xlink:href="#r0"/><use x="24" y="66" xlink:href="#r0"/><use x="33" y="66" xlink:href="#r0"/><use x="36" y="66" xlink:href="#r0"/><use x="39" y="66" xlink:href="#r0"/><use x="42" y="66" xlink:href="#r0"/><use x="54" y="66" xlink:href="#r0"/><use x="57" y="66" xlink:href="#r0"/><use x="75" y="66" xlink:href="#r0"/><use x="78" y="66" xlink:href="#r0"/><use x="81" y="66" xlink:href="#r0"/><use x="87" y="66" xlink:href="#r0"/><use x="90" y="66" xlink:href="#r0"/><use x="96" y="66" xlink:href="#r0"/><use x="3" y="69" xlink:href="#r0"/><use x="9" y="69" xlink:href="#r0"/><use x="24" y="69" xlink:href="#r0"/><use x="33" y="69" xlink:href="#r0"/><use x="36" y="69" xlink:href="#r0"/><use x="39" y="69" xlink:href="#r0"/><use x="45" y="69" xlink:href="#r0"/><use x="54" y="69" xlink:href="#r0"/><use x="57" y="69" xlink:href="#r0"/><use x="63" y="69" xlink:href="#r0"/><use x="75" y="69" xlink:href="#r0"/><use x="81" y="69" xlink:href="#r0"/><use x="84" y="69" xlink:href="#r0"/><use x="87" y="69" xlink:href="#r0"/><use x="96" y="69" xlink:href="#r0"/><use x="0" y="72" xlink:href="#r0"/><use x="6" y="72" xlink:href="#r0"/><use x="15" y="72" xlink:href="#r0"/><use x="18" y="72" xlink:href="#r0"/><use x="21" y="72" xlink:href="#r0"/><use x="33" y="72" xlink:href="#r0"/><use x="39" y="72" xlink:href="#r0"/><use x="42" y="72" xlink:href="#r0"/><use x="48" y="72" xlink:href="#r0"/><use x="63" y="72" xlink:href="#r0"/><use x="66" y="72" xlink:href="#r0"/><use x="72" y="72" xlink:href="#r0"/><use x="75" y="72" xlink:href="#r0"/><use x="78" y="72" xlink:href="#r0"/><use x="81" y="72" xlink:href="#r0"/><use x="84" y="72" xlink:href="#r0"/><use x="93" y="72" xlink:href="#r0"/><use x="24" y="75" xlink:href="#r0"/><use x="33" y="75" xlink:href="#r0"/><use x="39" y="75" xlink:href="#r0"/><use x="48" y="75" xlink:href="#r0"/><use x="51" y="75" xlink:href="#r0"/><use x="54" y="75" xlink:href="#r0"/><use x="57" y="75" xlink:href="#r0"/><use x="63" y="75" xlink:href="#r0"/><use x="69" y="75" xlink:href="#r0"/><use x="72" y="75" xlink:href="#r0"/><use x="84" y="75" xlink:href="#r0"/><use x="87" y="75" xlink:href="#r0"/><use x="90" y="75" xlink:href="#r0"/><use x="0" y="78" xlink:href="#r0"/><use x="3" y="78" xlink:href="#r0"/><use x="6" y="78" xlink:href="#r0"/><use x="9" y="78" xlink:href="#r0"/><use x="12" y="78" xlink:href="#r0"/><use x="15" y="78" xlink:href="#r0"/><use x="18" y="78" xlink:href="#r0"/><use x="24" y="78" xlink:href="#r0"/><use x="33" y="78" xlink:href="#r0"/><use x="42" y="78" xlink:href="#r0"/><use x="54" y="78" xlink:href="#r0"/><use x="60" y="78" xlink:href="#r0"/><use x="63" y="78" xlink:href="#r0"/><use x="72" y="78" xlink:href="#r0"/><use x="78" y="78" xlink:href="#r0"/><use x="84" y="78" xlink:href="#r0"/><use x="93" y="78" xlink:href="#r0"/><use x="0" y="81" xlink:href="#r0"/><use x="18" y="81" xlink:href="#r0"/><use x="27" y="81" xlink:href="#r0"/><use x="30" y="81" xlink:href="#r0"/><use x="33" y="81" xlink:href="#r0"/><use x="39" y="81" xlink:href="#r0"/><use x="42" y="81" xlink:href="#r0"/><use x="45" y="81" xlink:href="#r0"/><use x="51" y="81" xlink:href="#r0"/><use x="57" y="81" xlink:href="#r0"/><use x="63" y="81" xlink:href="#r0"/><use x="66" y="81" xlink:href="#r0"/><use x="72" y="81" xlink:href="#r0"/><use x="84" y="81" xlink:href="#r0"/><use x="87" y="81" xlink:href="#r0"/><use x="96" y="81" xlink:href="#r0"/><use x="0" y="84" xlink:href="#r0"/><use x="6" y="84" xlink:href="#r0"/><use x="9" y="84" xlink:href="#r0"/><use x="12" y="84" xlink:href="#r0"/><use x="18" y="84" xlink:href="#r0"/><use x="30" y="84" xlink:href="#r0"/><use x="36" y="84" xlink:href="#r0"/><use x="42" y="84" xlink:href="#r0"/><use x="57" y="84" xlink:href="#r0"/><use x="63" y="84" xlink:href="#r0"/><use x="72" y="84" xlink:href="#r0"/><use x="75" y="84" xlink:href="#r0"/><use x="78" y="84" xlink:href="#r0"/><use x="81" y="84" xlink:href="#r0"/><use x="84" y="84" xlink:href="#r0"/><use x="93" y="84" xlink:href="#r0"/><use x="96" y="84" xlink:href="#r0"/><use x="0" y="87" xlink:href="#r0"/><use x="6" y="87" xlink:href="#r0"/><use x="9" y="87" xlink:href="#r0"/><use x="12" y="87" xlink:href="#r0"/><use x="18" y="87" xlink:href="#r0"/><use x="24" y="87" xlink:href="#r0"/><use x="27" y="87" xlink:href="#r0"/><use x="30" y="87" xlink:href="#r0"/><use x="36" y="87" xlink:href="#r0"/><use x="39" y="87" xlink:href="#r0"/><use x="45" y="87" xlink:href="#r0"/><use x="48" y="87" xlink:href="#r0"/><use x="60" y="87" xlink:href="#r0"/><use x="63" y="87" xlink:href="#r0"/><use x="66" y="87" xlink:href="#r0"/><use x="69" y="87" xlink:href="#r0"/><use x="72" y="87" xlink:href="#r0"/><use x="78" y="87" xlink:href="#r0"/><use x="81" y="87" xlink:href="#r0"/><use x="84" y="87" xlink:href="#r0"/><use x="93" y="87" xlink:href="#r0"/><use x="96" y="87" xlink:href="#r0"/><use x="0" y="90" xlink:href="#r0"/><use x="6" y="90" xlink:href="#r0"/><use x="9" y="90" xlink:href="#r0"/><use x="12" y="90" xlink:href="#r0"/><use x="18" y="90" xlink:href="#r0"/><use x="33" y="90" xlink:href="#r0"/><use x="36" y="90" xlink:href="#r0"/><use x="42" y="90" xlink:href="#r0"/><use x="48" y="90" xlink:href="#r0"/><use x="54" y="90" xlink:href="#r0"/><use x="66" y="90" xlink:href="#r0"/><use x="72" y="90" xlink:href="#r0"/><use x="81" y="90" xlink:href="#r0"/><use x="84" y="90" xlink:href="#r0"/><use x="90" y="90" xlink:href="#r0"/><use x="93" y="90" xlink:href="#r0"/><use x="96" y="90" xlink:href="#r0"/><use x="0" y="93" xlink:href="#r0"/><use x="18" y="93" xlink:href="#r0"/><use x="24" y="93" xlink:href="#r0"/><use x="30" y="93" xlink:href="#r0"/><use x="36" y="93" xlink:href="#r0"/><use x="42" y="93" xlink:href="#r0"/><use x="48" y="93" xlink:href="#r0"/><use x="51" y="93" xlink:href="#r0"/><use x="54" y="93" xlink:href="#r0"/><use x="60" y="93" xlink:href="#r0"/><use x="63" y="93" xlink:href="#r0"/><use x="72" y="93" xlink:href="#r0"/><use x="81" y="93" xlink:href="#r0"/><use x="84" y="93" xlink:href="#r0"/><use x="0" y="96" xlink:href="#r0"/><use x="3" y="96" xlink:href="#r0"/><use x="6" y="96" xlink:href="#r0"/><use x="9" y="96" xlink:href="#r0"/><use x="12" y="96" xlink:href="#r0"/><use x="15" y="96" xlink:href="#r0"/><use x="18" y="96" xlink:href="#r0"/><use x="24" y="96" xlink:href="#r0"/><use x="30" y="96" xlink:href="#r0"/><use x="36" y="96" xlink:href="#r0"/><use x="45" y="96" xlink:href="#r0"/><use x="48" y="96" xlink:href="#r0"/><use x="51" y="96" xlink:href="#r0"/><use x="60" y="96" xlink:href="#r0"/><use x="63" y="96" xlink:href="#r0"/><use x="66" y="96" xlink:href="#r0"/><use x="72" y="96" xlink:href="#r0"/><use x="75" y="96" xlink:href="#r0"/><use x="87" y="96" xlink:href="#r0"/><use x="90" y="96" xlink:href="#r0"/><use x="93" y="96" xlink:href="#r0"/></svg>