<svg xmlns="http://www.w3.org/2000/svg" xmlns:xlink="http://www.w3.org/1999/xlink" version="1.1" width="120px" height="120px" viewBox="0 0 120 120"><defs><rect id="r0" width="3" height="3" fill="#000000"/></defs><rect x="0" y="0" width="120" height="120" fill="#fefefe"/><use x="4" y="4" xlink:href="#r0"/><use x="7" y="4" xlink:href="#r0"/><use x="10" y="4" xlink:href="#r0"/><use x="13" y="4" xlink:href="#r0"/><use x="16" y="4" xlink:href="#r0"/><use x="19" y="4" xlink:href="#r0"/><use x="22" y="4" xlink:href="#r0"/><use x="31" y="4" xlink:href="#r0"/><use x="49" y="4" xlink:href="#r0"/><use x="52" y="4" xlink:href="#r0"/><use x="58" y="4" xlink:href="#r0"/><use x="64" y="4" xlink:href="#r0"/><use x="67" y="4" xlink:href="#r0"/><use x="73" y="4" xlink:href="#r0"/><use x="76" y="4" xlink:href="#r0"/><use x="82" y="4" xlink:href="#r0"/><use x="94" y="4" xlink:href="#r0"/><use x="97" y="4" xlink:href="#r0"/><use x="100" y="4" xlink:href="#r0"/><use x="103" y="4" xlink:href="#r0"/><use x="106" y="4" xlink:href="#r0"/><use x="109" y="4" xlink:href="#r0"/><use x="112" y="4" xlink:href="#r0"/><use x="4" y="7" xlink:href="#r0"/><use x="22" y="7" xlink:href="#r0"/><use x="28" y="7" xlink:href="#r0"/><use x="31" y="7" xlink:href="#r0"/><use x="37" y="7" xlink:href="#r0"/><use x="40" y="7" xlink:href="#r0"/><use x="55" y="7" xlink:href="#r0"/><use x="58" y="7" xlink:href="#r0"/><use x="64" y="7" xlink:href="#r0"/><use x="67" y="7" xlink:href="#r0"/><use x="76" y="7" xlink:href="#r0"/><use x="85" y="7" xlink:href="#r0"/><use x="88" y="7" xlink:href="#r0"/><use x="94" y="7" xlink:href="#r0"/><use x="112" y="7" xlink:href="#r0"/><use x="4" y="10" xlink:href="#r0"/><use x="10" y="10" xlink:href="#r0"/><use x="13" y="10" xlink:href="#r0"/><use x="16" y="10" xlink:href="#r0"/><use x="22" y="10" xlink:href="#r0"/><use x="31" y="10" xlink:href="#r0"/><use x="34" y="10" xlink:href="#r0"/><use x="37" y="10" xlink:href="#r0"/><use x="46" y="10" xlink:href="#r0"/><use x="52" y="10" xlink:href="#r0"/><use x="58" y="10" xlink:href="#r0"/><use x="64" y="10" xlink:href="#r0"/><use x="67" y="10" xlink:href="#r0"/><use x="85" y="10" xlink:href="#r0"/><use x="94" y="10" xlink:href="#r0"/><use x="100" y="10" xlink:href="#r0"/><use x="103" y="10" xlink:href="#r0"/><use x="106" y="10" xlink:href="#r0"/><use x="112" y="10" xlink:href="#r0"/><use x="4" y="13" xlink:href="#r0"/><use x="10" y="13" xlink:href="#r0"/><use x="13" y="13" xlink:href="#r0"/><use x="16" y="13" xlink:href="#r0"/><use x="22" y="13" xlink:href="#r0"/><use x="28" y="13" xlink:href="#r0"/><use x="31" y="13" xlink:href="#r0"/><use x="37" y="13" xlink:href="#r0"/><use x="55" y="13" xlink:href="#r0"/><use x="58" y="13" xlink:href="#r0"/><use x="61" y="13" xlink:href="#r0"/><use x="67" y="13" xlink:href="#r0"/><use x="70" y="13" xlink:href="#r0"/><use x="79" y="13" xlink:href="#r0"/><use x="88" y="13" xlink:href="#r0"/><use x="94" y="13" xlink:href="#r0"/><use x="100" y="13" xlink:href="#r0"/><use x="103" y="13" xlink:href="#r0"/><use x="106" y="13" xlink:href="#r0"/><use x="112" y="13" xlink:href="#r0"/><use x="4" y="16" xlink:href="#r0"/><use x="10" y="16" xlink:href="#r0"/><use x="13" y="16" xlink:href="#r0"/><use x="16" y="16" xlink:href="#r0"/><use x="22" y="16" xlink:href="#r0"/><use x="34" y="16" xlink:href="#r0"/><use x="40" y="16" xlink:href="#r0"/><use x="43" y="16" xlink:href="#r0"/><use x="46" y="16" xlink:href="#r0"/><use x="49" y="16" xlink:href="#r0"/><use x="55" y="16" xlink:href="#r0"/><use x="58" y="16" xlink:href="#r0"/><use x="61" y="16" xlink:href="#r0"/><use x="82" y="16" xlink:href="#r0"/><use x="94" y="16" xlink:href="#r0"/><use x="100" y="16" xlink:href="#r0"/><use x="103" y="16" xlink:href="#r0"/><use x="106" y="16" xlink:href="#r0"/><use x="112" y="16" xlink:href="#r0"/><use x="4" y="19" xlink:href="#r0"/><use x="22" y="19" xlink:href="#r0"/><use x="28" y="19" xlink:href="#r0"/><use x="34" y="19" xlink:href="#r0"/><use x="43" y="19" xlink:href="#r0"/><use x="46" y="19" xlink:href="#r0"/><use x="49" y="19" xlink:href="#r0"/><use x="52" y="19" xlink:href="#r0"/><use x="64" y="19" xlink:href="#r0"/><use x="67" y="19" xlink:href="#r0"/><use x="70" y="19" xlink:href="#r0"/><use x="79" y="19" xlink:href="#r0"/><use x="82" y="19" xlink:href="#r0"/><use x="85" y="19" xlink:href="#r0"/><use x="88" y="19" xlink:href="#r0"/><use x="94" y="19" xlink:href="#r0"/><use x="112" y="19" xlink:href="#r0"/><use x="4" y="22" xlink:href="#r0"/><use x="7" y="22" xlink:href="#r0"/><use x="10" y="22" xlink:href="#r0"/><use x="13" y="22" xlink:href="#r0"/><use x="16" y="22" xlink:href="#r0"/><use x="19" y="22" xlink:href="#r0"/><use x="22" y="22" xlink:href="#r0"/><use x="28" y="22" xlink:href="#r0"/><use x="34" y="22" xlink:href="#r0"/><use x="40" y="22" xlink:href="#r0"/><use x="46" y="22" xlink:href="#r0"/><use x="52" y="22" xlink:href="#r0"/><use x="58" y="22" xlink:href="#r0"/><use x="64" y="22" xlink:href="#r0"/><use x="70" y="22" xlink:href="#r0"/><use x="76" y="22" xlink:href="#r0"/><use x="82" y="22" xlink:href="#r0"/><use x="88" y="22" xlink:href="#r0"/><use x="94" y="22" xlink:href="#r0"/><use x="97" y="22" xlink:href="#r0"/><use x="100" y="22" xlink:href="#r0"/><use x="103" y="22" xlink:href="#r0"/><use x="106" y="22" xlink:href="#r0"/><use x="109" y="22" xlink:href="#r0"/><use x="112" y="22" xlink:href="#r0"/><use x="40" y="25" xlink:href="#r0"/><use x="43" y="25" xlink:href="#r0"/><use x="52" y="25" xlink:href="#r0"/><use x="67" y="25" xlink:href="#r0"/><use x="70" y="25" xlink:href="#r0"/><use x="73" y="25" xlink:href="#r0"/><use x="76" y="25" xlink:href="#r0"/><use x="82" y="25" xlink:href="#r0"/><use x="85" y="25" xlink:href="#r0"/><use x="4" y="28" xlink:href="#r0"/><use x="7" y="28" xlink:href="#r0"/><use x="10" y="28" xlink:href="#r0"/><use x="13" y="28" xlink:href="#r0"/><use x="16" y="28" xlink:href="#r0"/><use x="22" y="28" xlink:href="#r0"/><use x="25" y="28" xlink:href="#r0"/><use x="28" y="28" xlink:href="#r0"/><use x="31" y="28" xlink:href="#r0"/><use x="34" y="28" xlink:href="#r0"/><use x="40" y="28" xlink:href="#r0"/><use x="46" y="28" xlink:href="#r0"/><use x="49" y="28" xlink:href="#r0"/><use x="52" y="28" xlink:href="#r0"/><use x="55" y="28" xlink:href="#r0"/><use x="58" y="28" xlink:href="#r0"/><use x="61" y="28" xlink:href="#r0"/><use x="67" y="28" xlink:href="#r0"/><use x="70" y="28" xlink:href="#r0"/><use x="79" y="28" xlink:href="#r0"/><use x="85" y="28" xlink:href="#r0"/><use x="88" y="28" xlink:href="#r0"/><use x="91" y="28" xlink:href="#r0"/><use x="97" y="28" xlink:href="#r0"/><use x="103" y="28" xlink:href="#r0"/><use x="109" y="28" xlink:href="#r0"/><use x="4" y="31" xlink:href="#r0"/><use x="7" y="31" xlink:href="#r0"/><use x="13" y="31" xlink:href="#r0"/><use x="19" y="31" xlink:href="#r0"/><use x="31" y="31" xlink:href="#r0"/><use x="64" y="31" xlink:href="#r0"/><use x="67" y="31" xlink:href="#r0"/><use x="82" y="31" xlink:href="#r0"/><use x="91" y="31" xlink:href="#r0"/><use x="97" y="31" xlink:href="#r0"/><use x="103" y="31" xlink:href="#r0"/><use x="7" y="34" xlink:href="#r0"/><use x="16" y="34" xlink:href="#r0"/><use x="22" y="34" xlink:href="#r0"/><use x="31" y="34" xlink:href="#r0"/><use x="37" y="34" xlink:href="#r0"/><use x="40" y="34" xlink:href="#r0"/><use x="49" y="34" xlink:href="#r0"/><use x="52" y="34" xlink:href="#r0"/><use x="55" y="34" xlink:href="#r0"/><use x="58" y="34" xlink:href="#r0"/><use x="67" y="34" xlink:href="#r0"/><use x="85" y="34" xlink:href="#r0"/><use x="88" y="34" xlink:href="#r0"/><use x="94" y="34" xlink:href="#r0"/><use x="106" y="34" xlink:href="#r0"/><use x="109" y="34" xlink:href="#r0"/><use x="112" y="34" xlink:href="#r0"/><use x="7" y="37" xlink:href="#r0"/><use x="16" y="37" xlink:href="#r0"/><use x="19" y="37" xlink:href="#r0"/><use x="25" y="37" xlink:href="#r0"/><use x="28" y="37" xlink:href="#r0"/><use x="31" y="37" xlink:href="#r0"/><use x="34" y="37" xlink:href="#r0"/><use x="37" y="37" xlink:href="#r0"/><use x="46" y="37" xlink:href="#r0"/><use x="49" y="37" xlink:href="#r0"/><use x="61" y="37" xlink:href="#r0"/><use x="64" y="37" xlink:href="#r0"/><use x="67" y="37" xlink:href="#r0"/><use x="70" y="37" xlink:href="#r0"/><use x="82" y="37" xlink:href="#r0"/><use x="85" y="37" xlink:href="#r0"/><use x="88" y="37" xlink:href="#r0"/><use x="97" y="37" xlink:href="#r0"/><use x="109" y="37" xlink:href="#r0"/><use x="4" y="40" xlink:href="#r0"/><use x="7" y="40" xlink:href="#r0"/><use x="13" y="40" xlink:href="#r0"/><use x="22" y="40" xlink:href="#r0"/><use x="28" y="40" xlink:href="#r0"/><use x="31" y="40" xlink:href="#r0"/><use x="37" y="40" xlink:href="#r0"/><use x="49" y="40" xlink:href="#r0"/><use x="52" y="40" xlink:href="#r0"/><use x="55" y="40" xlink:href="#r0"/><use x="58" y="40" xlink:href="#r0"/><use x="64" y="40" xlink:href="#r0"/><use x="67" y="40" xlink:href="#r0"/><use x="70" y="40" xlink:href="#r0"/><use x="73" y="40" xlink:href="#r0"/><use x="76" y="40" xlink:href="#r0"/><use x="79" y="40" xlink:href="#r0"/><use x="91" y="40" xlink:href="#r0"/><use x="94" y="40" xlink:href="#r0"/><use x="100" y="40" xlink:href="#r0"/><use x="103" y="40" xlink:href="#r0"/><use x="106" y="40" xlink:href="#r0"/><use x="4" y="43" xlink:href="#r0"/><use x="10" y="43" xlink:href="#r0"/><use x="13" y="43" xlink:href="#r0"/><use x="16" y="43" xlink:href="#r0"/><use x="28" y="43" xlink:href="#r0"/><use x="34" y="43" xlink:href="#r0"/><use x="40" y="43" xlink:href="#r0"/><use x="43" y="43" xlink:href="#r0"/><use x="46" y="43" xlink:href="#r0"/><use x="64" y="43" xlink:href="#r0"/><use x="82" y="43" xlink:href="#r0"/><use x="97" y="43" xlink:href="#r0"/><use x="103" y="43" xlink:href="#r0"/><use x="106" y="43" xlink:href="#r0"/><use x="4" y="46" xlink:href="#r0"/><use x="7" y="46" xlink:href="#r0"/><use x="10" y="46" xlink:href="#r0"/><use x="22" y="46" xlink:href="#r0"/><use x="25" y="46" xlink:href="#r0"/><use x="28" y="46" xlink:href="#r0"/><use x="31" y="46" xlink:href="#r0"/><use x="34" y="46" xlink:href="#r0"/><use x="43" y="46" xlink:href="#r0"/><use x="46" y="46" xlink:href="#r0"/><use x="49" y="46" xlink:href="#r0"/><use x="58" y="46" xlink:href="#r0"/><use x="64" y="46" xlink:href="#r0"/><use x="67" y="46" xlink:href="#r0"/><use x="70" y="46" xlink:href="#r0"/><use x="82" y="46" xlink:href="#r0"/><use x="85" y="46" xlink:href="#r0"/><use x="88" y="46" xlink:href="#r0"/><use x="94" y="46" xlink:href="#r0"/><use x="97" y="46" xlink:href="#r0"/><use x="103" y="46" xlink:href="#r0"/><use x="109" y="46" xlink:href="#r0"/><use x="112" y="46" xlink:href="#r0"/><use x="13" y="49" xlink:href="#r0"/><use x="19" y="49" xlink:href="#r0"/><use x="25" y="49" xlink:href="#r0"/><use x="28" y="49" xlink:href="#r0"/><use x="31" y="49" xlink:href="#r0"/><use x="40" y="49" xlink:href="#r0"/><use x="43" y="49" xlink:href="#r0"/><use x="49" y="49" xlink:href="#r0"/><use x="64" y="49" xlink:href="#r0"/><use x="67" y="49" xlink:href="#r0"/><use x="70" y="49" xlink:href="#r0"/><use x="82" y="49" xlink:href="#r0"/><use x="85" y="49" xlink:href="#r0"/><use x="91" y="49" xlink:href="#r0"/><use x="94" y="49" xlink:href="#r0"/><use x="109" y="49" xlink:href="#r0"/><use x="112" y="49" xlink:href="#r0"/><use x="4" y="52" xlink:href="#r0"/><use x="19" y="52" xlink:href="#r0"/><use x="22" y="52" xlink:href="#r0"/><use x="28" y="52" xlink:href="#r0"/><use x="31" y="52" xlink:href="#r0"/><use x="40" y="52" xlink:href="#r0"/><use x="46" y="52" xlink:href="#r0"/><use x="49" y="52" xlink:href="#r0"/><use x="52" y="52" xlink:href="#r0"/><use x="55" y="52" xlink:href="#r0"/><use x="58" y="52" xlink:href="#r0"/><use x="61" y="52" xlink:href="#r0"/><use x="67" y="52" xlink:href="#r0"/><use x="70" y="52" xlink:href="#r0"/><use x="73" y="52" xlink:href="#r0"/><use x="76" y="52" xlink:href="#r0"/><use x="79" y="52" xlink:href="#r0"/><use x="91" y="52" xlink:href="#r0"/><use x="94" y="52" xlink:href="#r0"/><use x="100" y="52" xlink:href="#r0"/><use x="103" y="52" xlink:href="#r0"/><use x="106" y="52" xlink:href="#r0"/><use x="4" y="55" xlink:href="#r0"/><use x="10" y="55" xlink:href="#r0"/><use x="34" y="55" xlink:href="#r0"/><use x="61" y="55" xlink:href="#r0"/><use x="73" y="55" xlink:href="#r0"/><use x="76" y="55" xlink:href="#r0"/><use x="82" y="55" xlink:href="#r0"/><use x="91" y="55" xlink:href="#r0"/><use x="97" y="55" xlink:href="#r0"/><use x="103" y="55" xlink:href="#r0"/><use x="4" y="58" xlink:href="#r0"/><use x="7" y="58" xlink:href="#r0"/><use x="10" y="58" xlink:href="#r0"/><use x="16" y="58" xlink:href="#r0"/><use x="22" y="58" xlink:href="#r0"/><use x="28" y="58" xlink:href="#r0"/><use x="31" y="58" xlink:href="#r0"/><use x="34" y="58" xlink:href="#r0"/><use x="37" y="58" xlink:href="#r0"/><use x="40" y="58" xlink:href="#r0"/><use x="49" y="58" xlink:href="#r0"/><use x="70" y="58" xlink:href="#r0"/><use x="76" y="58" xlink:href="#r0"/><use x="85" y="58" xlink:href="#r0"/><use x="94" y="58" xlink:href="#r0"/><use x="97" y="58" xlink:href="#r0"/><use x="109" y="58" xlink:href="#r0"/><use x="112" y="58" xlink:href="#r0"/><use x="4" y="61" xlink:href="#r0"/><use x="7" y="61" xlink:href="#r0"/><use x="13" y="61" xlink:href="#r0"/><use x="25" y="61" xlink:href="#r0"/><use x="37" y="61" xlink:href="#r0"/><use x="46" y="61" xlink:href="#r0"/><use x="58" y="61" xlink:href="#r0"/><use x="61" y="61" xlink:href="#r0"/><use x="64" y="61" xlink:href="#r0"/><use x="67" y="61" xlink:href="#r0"/><use x="70" y="61" xlink:href="#r0"/><use x="76" y="61" xlink:href="#r0"/><use x="82" y="61" xlink:href="#r0"/><use x="88" y="61" xlink:href="#r0"/><use x="91" y="61" xlink:href="#r0"/><use x="97" y="61" xlink:href="#r0"/><use x="100" y="61" xlink:href="#r0"/><use x="4" y="64" xlink:href="#r0"/><use x="7" y="64" xlink:href="#r0"/><use x="10" y="64" xlink:href="#r0"/><use x="13" y="64" xlink:href="#r0"/><use x="16" y="64" xlink:href="#r0"/><use x="19" y="64" xlink:href="#r0"/><use x="22" y="64" xlink:href="#r0"/><use x="25" y="64" xlink:href="#r0"/><use x="28" y="64" xlink:href="#r0"/><use x="34" y="64" xlink:href="#r0"/><use x="37" y="64" xlink:href="#r0"/><use x="49" y="64" xlink:href="#r0"/><use x="52" y="64" xlink:href="#r0"/><use x="55" y="64" xlink:href="#r0"/><use x="58" y="64" xlink:href="#r0"/><use x="61" y="64" xlink:href="#r0"/><use x="67" y="64" xlink:href="#r0"/><use x="70" y="64" xlink:href="#r0"/><use x="73" y="64" xlink:href="#r0"/><use x="79" y="64" xlink:href="#r0"/><use x="91" y="64" xlink:href="#r0"/><use x="94" y="64" xlink:href="#r0"/><use x="103" y="64" xlink:href="#r0"/><use x="106" y="64" xlink:href="#r0"/><use x="109" y="64" xlink:href="#r0"/><use x="7" y="67" xlink:href="#r0"/><use x="13" y="67" xlink:href="#r0"/><use x="19" y="67" xlink:href="#r0"/><use x="25" y="67" xlink:href="#r0"/><use x="34" y="67" xlink:href="#r0"/><use x="40" y="67" xlink:href="#r0"/><use x="43" y="67" xlink:href="#r0"/><use x="46" y="67" xlink:href="#r0"/><use x="64" y="67" xlink:href="#r0"/><use x="67" y="67" xlink:href="#r0"/><use x="70" y="67" xlink:href="#r0"/><use x="73" y="67" xlink:href="#r0"/><use x="76" y="67" xlink:href="#r0"/><use x="82" y="67" xlink:href="#r0"/><use x="97" y="67" xlink:href="#r0"/><use x="103" y="67" xlink:href="#r0"/><use x="106" y="67" xlink:href="#r0"/><use x="7" y="70" xlink:href="#r0"/><use x="10" y="70" xlink:href="#r0"/><use x="22" y="70" xlink:href="#r0"/><use x="28" y="70" xlink:href="#r0"/><use x="31" y="70" xlink:href="#r0"/><use x="43" y="70" xlink:href="#r0"/><use x="46" y="70" xlink:href="#r0"/><use x="49" y="70" xlink:href="#r0"/><use x="52" y="70" xlink:href="#r0"/><use x="58" y="70" xlink:href="#r0"/><use x="64" y="70" xlink:href="#r0"/><use x="67" y="70" xlink:href="#r0"/><use x="70" y="70" xlink:href="#r0"/><use x="82" y="70" xlink:href="#r0"/><use x="85" y="70" xlink:href="#r0"/><use x="88" y="70" xlink:href="#r0"/><use x="94" y="70" xlink:href="#r0"/><use x="106" y="70" xlink:href="#r0"/><use x="109" y="70" xlink:href="#r0"/><use x="112" y="70" xlink:href="#r0"/><use x="4" y="73" xlink:href="#r0"/><use x="13" y="73" xlink:href="#r0"/><use x="19" y="73" xlink:href="#r0"/><use x="25" y="73" xlink:href="#r0"/><use x="28" y="73" xlink:href="#r0"/><use x="40" y="73" xlink:href="#r0"/><use x="43" y="73" xlink:href="#r0"/><use x="49" y="73" xlink:href="#r0"/><use x="52" y="73" xlink:href="#r0"/><use x="64" y="73" xlink:href="#r0"/><use x="67" y="73" xlink:href="#r0"/><use x="76" y="73" xlink:href="#r0"/><use x="82" y="73" xlink:href="#r0"/><use x="91" y="73" xlink:href="#r0"/><use x="94" y="73" xlink:href="#r0"/><use x="103" y="73" xlink:href="#r0"/><use x="109" y="73" xlink:href="#r0"/><use x="112" y="73" xlink:href="#r0"/><use x="7" y="76" xlink:href="#r0"/><use x="22" y="76" xlink:href="#r0"/><use x="34" y="76" xlink:href="#r0"/><use x="40" y="76" xlink:href="#r0"/><use x="46" y="76" xlink:href="#r0"/><use x="55" y="76" xlink:href="#r0"/><use x="58" y="76" xlink:href="#r0"/><use x="64" y="76" xlink:href="#r0"/><use x="67" y="76" xlink:href="#r0"/><use x="70" y="76" xlink:href="#r0"/><use x="79" y="76" xlink:href="#r0"/><use x="85" y="76" xlink:href="#r0"/><use x="88" y="76" xlink:href="#r0"/><use x="91" y="76" xlink:href="#r0"/><use x="94" y="76" xlink:href="#r0"/><use x="100" y="76" xlink:href="#r0"/><use x="103" y="76" xlink:href="#r0"/><use x="106" y="76" xlink:href="#r0"/><use x="112" y="76" xlink:href="#r0"/><use x="4" y="79" xlink:href="#r0"/><use x="7" y="79" xlink:href="#r0"/><use x="13" y="79" xlink:href="#r0"/><use x="19" y="79" xlink:href="#r0"/><use x="25" y="79" xlink:href="#r0"/><use x="31" y="79" xlink:href="#r0"/><use x="55" y="79" xlink:href="#r0"/><use x="58" y="79" xlink:href="#r0"/><use x="64" y="79" xlink:href="#r0"/><use x="67" y="79" xlink:href="#r0"/><use x="73" y="79" xlink:href="#r0"/><use x="76" y="79" xlink:href="#r0"/><use x="79" y="79" xlink:href="#r0"/><use x="82" y="79" xlink:href="#r0"/><use x="85" y="79" xlink:href="#r0"/><use x="88" y="79" xlink:href="#r0"/><use x="103" y="79" xlink:href="#r0"/><use x="4" y="82" xlink:href="#r0"/><use x="13" y="82" xlink:href="#r0"/><use x="19" y="82" xlink:href="#r0"/><use x="22" y="82" xlink:href="#r0"/><use x="25" y="82" xlink:href="#r0"/><use x="31" y="82" xlink:href="#r0"/><use x="37" y="82" xlink:href="#r0"/><use x="40" y="82" xlink:href="#r0"/><use x="49" y="82" xlink:href="#r0"/><use x="52" y="82" xlink:href="#r0"/><use x="55" y="82" xlink:href="#r0"/><use x="67" y="82" xlink:href="#r0"/><use x="76" y="82" xlink:href="#r0"/><use x="85" y="82" xlink:href="#r0"/><use x="103" y="82" xlink:href="#r0"/><use x="109" y="82" xlink:href="#r0"/><use x="112" y="82" xlink:href="#r0"/><use x="4" y="85" xlink:href="#r0"/><use x="10" y="85" xlink:href="#r0"/><use x="19" y="85" xlink:href="#r0"/><use x="28" y="85" xlink:href="#r0"/><use x="31" y="85" xlink:href="#r0"/><use x="37" y="85" xlink:href="#r0"/><use x="46" y="85" xlink:href="#r0"/><use x="49" y="85" xlink:href="#r0"/><use x="64" y="85" xlink:href="#r0"/><use x="67" y="85" xlink:href="#r0"/><use x="70" y="85" xlink:href="#r0"/><use x="76" y="85" xlink:href="#r0"/><use x="88" y="85" xlink:href="#r0"/><use x="94" y="85" xlink:href="#r0"/><use x="100" y="85" xlink:href="#r0"/><use x="109" y="85" xlink:href="#r0"/><use x="112" y="85" xlink:href="#r0"/><use x="4" y="88" xlink:href="#r0"/><use x="10" y="88" xlink:href="#r0"/><use x="19" y="88" xlink:href="#r0"/><use x="22" y="88" xlink:href="#r0"/><use x="25" y="88" xlink:href="#r0"/><use x="31" y="88" xlink:href="#r0"/><use x="37" y="88" xlink:href="#r0"/><use x="49" y="88" xlink:href="#r0"/><use x="52" y="88" xlink:href="#r0"/><use x="55" y="88" xlink:href="#r0"/><use x="58" y="88" xlink:href="#r0"/><use x="64" y="88" xlink:href="#r0"/><use x="79" y="88" xlink:href="#r0"/><use x="88" y="88" xlink:href="#r0"/><use x="91" y="88" xlink:href="#r0"/><use x="94" y="88" xlink:href="#r0"/><use x="97" y="88" xlink:href="#r0"/><use x="100" y="88" xlink:href="#r0"/><use x="103" y="88" xlink:href="#r0"/><use x="109" y="88" xlink:href="#r0"/><use x="28" y="91" xlink:href="#r0"/><use x="31" y="91" xlink:href="#r0"/><use x="40" y="91" xlink:href="#r0"/><use x="43" y="91" xlink:href="#r0"/><use x="46" y="91" xlink:href="#r0"/><use x="64" y="91" xlink:href="#r0"/><use x="67" y="91" xlink:href="#r0"/><use x="73" y="91" xlink:href="#r0"/><use x="76" y="91" xlink:href="#r0"/><use x="82" y="91" xlink:href="#r0"/><use x="85" y="91" xlink:href="#r0"/><use x="88" y="91" xlink:href="#r0"/><use x="100" y="91" xlink:href="#r0"/><use x="103" y="91" xlink:href="#r0"/><use x="106" y="91" xlink:href="#r0"/><use x="112" y="91" xlink:href="#r0"/><use x="4" y="94" xlink:href="#r0"/><use x="7" y="94" xlink:href="#r0"/><use x="10" y="94" xlink:href="#r0"/><use x="13" y="94" xlink:href="#r0"/><use x="16" y="94" xlink:href="#r0"/><use x="19" y="94" xlink:href="#r0"/><use x="22" y="94" xlink:href="#r0"/><use x="28" y="94" xlink:href="#r0"/><use x="34" y="94" xlink:href="#r0"/><use x="43" y="94" xlink:href="#r0"/><use x="46" y="94" xlink:href="#r0"/><use x="49" y="94" xlink:href="#r0"/><use x="58" y="94" xlink:href="#r0"/><use x="64" y="94" xlink:href="#r0"/><use x="67" y="94" xlink:href="#r0"/><use x="76" y="94" xlink:href="#r0"/><use x="88" y="94" xlink:href="#r0"/><use x="94" y="94" xlink:href="#r0"/><use x="100" y="94" xlink:href="#r0"/><use x="103" y="94" xlink:href="#r0"/><use x="109" y="94" xlink:href="#r0"/><use x="112" y="94" xlink:href="#r0"/><use x="4" y="97" xlink:href="#r0"/><use x="22" y="97" xlink:href="#r0"/><use x="40" y="97" xlink:href="#r0"/><use x="43" y="97" xlink:href="#r0"/><use x="49" y="97" xlink:href="#r0"/><use x="58" y="97" xlink:href="#r0"/><use x="67" y="97" xlink:href="#r0"/><use x="73" y="97" xlink:href="#r0"/><use x="76" y="97" xlink:href="#r0"/><use x="85" y="97" xlink:href="#r0"/><use x="88" y="97" xlink:href="#r0"/><use x="100" y="97" xlink:href="#r0"/><use x="109" y="97" xlink:href="#r0"/><use x="112" y="97" xlink:href="#r0"/><use x="4" y="100" xlink:href="#r0"/><use x="10" y="100" xlink:href="#r0"/><use x="13" y="100" xlink:href="#r0"/><use x="16" y="100" xlink:href="#r0"/><use x="22" y="100" xlink:href="#r0"/><use x="28" y="100" xlink:href="#r0"/><use x="40" y="100" xlink:href="#r0"/><use x="46" y="100" xlink:href="#r0"/><use x="49" y="100" xlink:href="#r0"/><use x="52" y="100" xlink:href="#r0"/><use x="55" y="100" xlink:href="#r0"/><use x="58" y="100" xlink:href="#r0"/><use x="67" y="100" xlink:href="#r0"/><use x="70" y="100" xlink:href="#r0"/><use x="79" y="100" xlink:href="#r0"/><use x="85" y="100" xlink:href="#r0"/><use x="88" y="100" xlink:href="#r0"/><use x="91" y="100" xlink:href="#r0"/><use x="94" y="100" xlink:href="#r0"/><use x="97" y="100" xlink:href="#r0"/><use x="100" y="100" xlink:href="#r0"/><use x="103" y="100" xlink:href="#r0"/><use x="106" y="100" xlink:href="#r0"/><use x="109" y="100" xlink:href="#r0"/><use x="112" y="100" xlink:href="#r0"/><use x="4" y="103" xlink:href="#r0"/><use x="10" y="103" xlink:href="#r0"/><use x="13" y="103" xlink:href="#r0"/><use x="16" y="103" xlink:href="#r0"/><use x="22" y="103" xlink:href="#r0"/><use x="28" y="103" xlink:href="#r0"/><use x="31" y="103" xlink:href="#r0"/><use x="64" y="103" xlink:href="#r0"/><use x="73" y="103" xlink:href="#r0"/><use x="76" y="103" xlink:href="#r0"/><use x="82" y="103" xlink:href="#r0"/><use x="85" y="103" xlink:href="#r0"/><use x="94" y="103" xlink:href="#r0"/><use x="100" y="103" xlink:href="#r0"/><use x="103" y="103" xlink:href="#r0"/><use x="106" y="103" xlink:href="#r0"/><use x="109" y="103" xlink:href="#r0"/><use x="112" y="103" xlink:href="#r0"/><use x="4" y="106" xlink:href="#r0"/><use x="10" y="106" xlink:href="#r0"/><use x="13" y="106" xlink:href="#r0"/><use x="16" y="106" xlink:href="#r0"/><use x="22" y="106" xlink:href="#r0"/><use x="28" y="106" xlink:href="#r0"/><use x="34" y="106" xlink:href="#r0"/><use x="37" y="106" xlink:href="#r0"/><use x="40" y="106" xlink:href="#r0"/><use x="49" y="106" xlink:href="#r0"/><use x="52" y="106" xlink:href="#r0"/><use x="55" y="106" xlink:href="#r0"/><use x="79" y="106" xlink:href="#r0"/><use x="85" y="106" xlink:href="#r0"/><use x="88" y="106" xlink:href="#r0"/><use x="97" y="106" xlink:href="#r0"/><use x="109" y="106" xlink:href="#r0"/><use x="112" y="106" xlink:href="#r0"/><use x="4" y="109" xlink:href="#r0"/><use x="22" y="109" xlink:href="#r0"/><use x="28" y="109" xlink:href="#r0"/><use x="31" y="109" xlink:href="#r0"/><use x="34" y="109" xlink:href="#r0"/><use x="37" y="109" xlink:href="#r0"/><use x="46" y="109" xlink:href="#r0"/><use x="49" y="109" xlink:href="#r0"/><use x="52" y="109" xlink:href="#r0"/><use x="58" y="109" xlink:href="#r0"/><use x="67" y="109" xlink:href="#r0"/><use x="70" y="109" xlink:href="#r0"/><use x="85" y="109" xlink:href="#r0"/><use x="97" y="109" xlink:href="#r0"/><use x="100" y="109" xlink:href="#r0"/><use x="112" y="109" xlink:href="#r0"/><use x="4" y="112" xlink:href="#r0"/><use x="7" y="112" xlink:href="#r0"/><use x="10" y="112" xlink:href="#r0"/><use x="13" y="112" xlink:href="#r0"/><use x="16" y="112" xlink:href="#r0"/><use x="19" y="112" xlink:href="#r0"/><use x="22" y="112" xlink:href="#r0"/><use x="28" y="112" xlink:href="#r0"/><use x="34" y="112" xlink:href="#r0"/><use x="37" y="112" xlink:href="#r0"/><use x="55" y="112" xlink:href="#r0"/><use x="58" y="112" xlink:href="#r0"/><use x="61" y="112" xlink:href="#r0"/><use x="67" y="112" xlink:href="#r0"/><use x="70" y="112" xlink:href="#r0"/><use x="73" y="112" xlink:href="#r0"/><use x="76" y="112" xlink:href="#r0"/><use x="79" y="112" xlink:href="#r0"/><use x="94" y="112" xlink:href="#r0"/><use x="97" y="112" xlink:href="#r0"/><use x="103" y="112" xlink:href="#r0"/><use x="106" y="112" xlink:href="#r0"/><use x="109" y="112" xlink:href="#r0"/><use x="112" y="112" xlink:href="#r0"/></svg>