<svg xmlns="http://www.w3.org/2000/svg" xmlns:xlink="http://www.w3.org/1999/xlink" version="1.1" width="130px" height="130px" viewBox="0 0 130 130"><defs><rect id="r0" width="3" height="3" fill="#000000"/></defs><rect x="0" y="0" width="130" height="130" fill="#fefefe"/><use x="3" y="3" xlink:href="#r0"/><use x="6" y="3" xlink:href="#r0"/><use x="9" y="3" xlink:href="#r0"/><use x="12" y="3" xlink:href="#r0"/><use x="15" y="3" xlink:href="#r0"/><use x="18" y="3" xlink:href="#r0"/><use x="21" y="3" xlink:href="#r0"/><use x="27" y="3" xlink:href="#r0"/><use x="30" y="3" xlink:href="#r0"/><use x="48" y="3" xlink:href="#r0"/><use x="51" y="3" xlink:href="#r0"/><use x="57" y="3" xlink:href="#r0"/><use x="63" y="3" xlink:href="#r0"/><use x="66" y="3" xlink:href="#r0"/><use x="69" y="3" xlink:href="#r0"/><use x="72" y="3" xlink:href="#r0"/><use x="75" y="3" xlink:href="#r0"/><use x="78" y="3" xlink:href="#r0"/><use x="90" y="3" xlink:href="#r0"/><use x="96" y="3" xlink:href="#r0"/><use x="99" y="3" xlink:href="#r0"/><use x="105" y="3" xlink:href="#r0"/><use x="108" y="3" xlink:href="#r0"/><use x="111" y="3" xlink:href="#r0"/><use x="114" y="3" xlink:href="#r0"/><use x="117" y="3" xlink:href="#r0"/><use x="120" y="3" xlink:href="#r0"/><use x="123" y="3" xlink:href="#r0"/><use x="3" y="6" xlink:href="#r0"/><use x="21" y="6" xlink:href="#r0"/><use x="33" y="6" xlink:href="#r0"/><use x="39" y="6" xlink:href="#r0"/><use x="45" y="6" xlink:href="#r0"/><use x="54" y="6" xlink:href="#r0"/><use x="57" y="6" xlink:href="#r0"/><use x="72" y="6" xlink:href="#r0"/><use x="75" y="6" xlink:href="#r0"/><use x="81" y="6" xlink:href="#r0"/><use x="93" y="6" xlink:href="#r0"/><use x="99" y="6" xlink:href="#r0"/><use x="105" y="6" xlink:href="#r0"/><use x="123" y="6" xlink:href="#r0"/><use x="3" y="9" xlink:href="#r0"/><use x="9" y="9" xlink:href="#r0"/><use x="12" y="9" xlink:href="#r0"/><use x="15" y="9" xlink:href="#r0"/><use x="21" y="9" xlink:href="#r0"/><use x="27" y="9" xlink:href="#r0"/><use x="30" y="9" xlink:href="#r0"/><use x="33" y="9" xlink:href="#r0"/><use x="42" y="9" xlink:href="#r0"/><use x="45" y="9" xlink:href="#r0"/><use x="69" y="9" xlink:href="#r0"/><use x="75" y="9" xlink:href="#r0"/><use x="78" y="9" xlink:href="#r0"/><use x="84" y="9" xlink:href="#r0"/><use x="93" y="9" xlink:href="#r0"/><use x="96" y="9" xlink:href="#r0"/><use x="99" y="9" xlink:href="#r0"/><use x="105" y="9" xlink:href="#r0"/><use x="111" y="9" xlink:href="#r0"/><use x="114" y="9" xlink:href="#r0"/><use x="117" y="9" xlink:href="#r0"/><use x="123" y="9" xlink:href="#r0"/><use x="3" y="12" xlink:href="#r0"/><use x="9" y="12" xlink:href="#r0"/><use x="12" y="12" xlink:href="#r0"/><use x="15" y="12" xlink:href="#r0"/><use x="21" y="12" xlink:href="#r0"/><use x="27" y="12" xlink:href="#r0"/><use x="48" y="12" xlink:href="#r0"/><use x="54" y="12" xlink:href="#r0"/><use x="63" y="12" xlink:href="#r0"/><use x="66" y="12" xlink:href="#r0"/><use x="69" y="12" xlink:href="#r0"/><use x="75" y="12" xlink:href="#r0"/><use x="78" y="12" xlink:href="#r0"/><use x="87" y="12" xlink:href="#r0"/><use x="90" y="12" xlink:href="#r0"/><use x="93" y="12" xlink:href="#r0"/><use x="105" y="12" xlink:href="#r0"/><use x="111" y="12" xlink:href="#r0"/><use x="114" y="12" xlink:href="#r0"/><use x="117" y="12" xlink:href="#r0"/><use x="123" y="12" xlink:href="#r0"/><use x="3" y="15" xlink:href="#r0"/><use x="9" y="15" xlink:href="#r0"/><use x="12" y="15" xlink:href="#r0"/><use x="15" y="15" xlink:href="#r0"/><use x="21" y="15" xlink:href="#r0"/><use x="27" y="15" xlink:href="#r0"/><use x="30" y="15" xlink:href="#r0"/><use x="36" y="15" xlink:href="#r0"/><use x="39" y="15" xlink:href="#r0"/><use x="51" y="15" xlink:href="#r0"/><use x="60" y="15" xlink:href="#r0"/><use x="66" y="15" xlink:href="#r0"/><use x="78" y="15" xlink:href="#r0"/><use x="81" y="15" xlink:href="#r0"/><use x="84" y="15" xlink:href="#r0"/><use x="90" y="15" xlink:href="#r0"/><use x="93" y="15" xlink:href="#r0"/><use x="96" y="15" xlink:href="#r0"/><use x="99" y="15" xlink:href="#r0"/><use x="105" y="15" xlink:href="#r0"/><use x="111" y="15" xlink:href="#r0"/><use x="114" y="15" xlink:href="#r0"/><use x="117" y="15" xlink:href="#r0"/><use x="123" y="15" xlink:href="#r0"/><use x="3" y="18" xlink:href="#r0"/><use x="21" y="18" xlink:href="#r0"/><use x="30" y="18" xlink:href="#r0"/><use x="36" y="18" xlink:href="#r0"/><use x="42" y="18" xlink:href="#r0"/><use x="48" y="18" xlink:href="#r0"/><use x="51" y="18" xlink:href="#r0"/><use x="60" y="18" xlink:href="#r0"/><use x="63" y="18" xlink:href="#r0"/><use x="69" y="18" xlink:href="#r0"/><use x="78" y="18" xlink:href="#r0"/><use x="87" y="18" xlink:href="#r0"/><use x="90" y="18" xlink:href="#r0"/><use x="96" y="18" xlink:href="#r0"/><use x="105" y="18" xlink:href="#r0"/><use x="123" y="18" xlink:href="#r0"/><use x="3" y="21" xlink:href="#r0"/><use x="6" y="21" xlink:href="#r0"/><use x="9" y="21" xlink:href="#r0"/><use x="12" y="21" xlink:href="#r0"/><use x="15" y="21" xlink:href="#r0"/><use x="18" y="21" xlink:href="#r0"/><use x="21" y="21" xlink:href="#r0"/><use x="27" y="21" xlink:href="#r0"/><use x="33" y="21" xlink:href="#r0"/><use x="39" y="21" xlink:href="#r0"/><use x="45" y="21" xlink:href="#r0"/><use x="51" y="21" xlink:href="#r0"/><use x="57" y="21" xlink:href="#r0"/><use x="63" y="21" xlink:href="#r0"/><use x="69" y="21" xlink:href="#r0"/><use x="75" y="21" xlink:href="#r0"/><use x="81" y="21" xlink:href="#r0"/><use x="87" y="21" xlink:href="#r0"/><use x="93" y="21" xlink:href="#r0"/><use x="99" y="21" xlink:href="#r0"/><use x="105" y="21" xlink:href="#r0"/><use x="108" y="21" xlink:href="#r0"/><use x="111" y="21" xlink:href="#r0"/><use x="114" y="21" xlink:href="#r0"/><use x="117" y="21" xlink:href="#r0"/><use x="120" y="21" xlink:href="#r0"/><use x="123" y="21" xlink:href="#r0"/><use x="39" y="24" xlink:href="#r0"/><use x="48" y="24" xlink:href="#r0"/><use x="51" y="24" xlink:href="#r0"/><use x="54" y="24" xlink:href="#r0"/><use x="60" y="24" xlink:href="#r0"/><use x="90" y="24" xlink:href="#r0"/><use x="3" y="27" xlink:href="#r0"/><use x="6" y="27" xlink:href="#r0"/><use x="9" y="27" xlink:href="#r0"/><use x="12" y="27" xlink:href="#r0"/><use x="21" y="27" xlink:href="#r0"/><use x="27" y="27" xlink:href="#r0"/><use x="42" y="27" xlink:href="#r0"/><use x="45" y="27" xlink:href="#r0"/><use x="48" y="27" xlink:href="#r0"/><use x="51" y="27" xlink:href="#r0"/><use x="57" y="27" xlink:href="#r0"/><use x="63" y="27" xlink:href="#r0"/><use x="66" y="27" xlink:href="#r0"/><use x="69" y="27" xlink:href="#r0"/><use x="72" y="27" xlink:href="#r0"/><use x="75" y="27" xlink:href="#r0"/><use x="87" y="27" xlink:href="#r0"/><use x="90" y="27" xlink:href="#r0"/><use x="93" y="27" xlink:href="#r0"/><use x="96" y="27" xlink:href="#r0"/><use x="102" y="27" xlink:href="#r0"/><use x="111" y="27" xlink:href="#r0"/><use x="114" y="27" xlink:href="#r0"/><use x="117" y="27" xlink:href="#r0"/><use x="123" y="27" xlink:href="#r0"/><use x="12" y="30" xlink:href="#r0"/><use x="15" y="30" xlink:href="#r0"/><use x="18" y="30" xlink:href="#r0"/><use x="39" y="30" xlink:href="#r0"/><use x="42" y="30" xlink:href="#r0"/><use x="48" y="30" xlink:href="#r0"/><use x="51" y="30" xlink:href="#r0"/><use x="57" y="30" xlink:href="#r0"/><use x="63" y="30" xlink:href="#r0"/><use x="69" y="30" xlink:href="#r0"/><use x="72" y="30" xlink:href="#r0"/><use x="75" y="30" xlink:href="#r0"/><use x="78" y="30" xlink:href="#r0"/><use x="90" y="30" xlink:href="#r0"/><use x="93" y="30" xlink:href="#r0"/><use x="96" y="30" xlink:href="#r0"/><use x="99" y="30" xlink:href="#r0"/><use x="102" y="30" xlink:href="#r0"/><use x="108" y="30" xlink:href="#r0"/><use x="111" y="30" xlink:href="#r0"/><use x="114" y="30" xlink:href="#r0"/><use x="117" y="30" xlink:href="#r0"/><use x="120" y="30" xlink:href="#r0"/><use x="123" y="30" xlink:href="#r0"/><use x="12" y="33" xlink:href="#r0"/><use x="21" y="33" xlink:href="#r0"/><use x="39" y="33" xlink:href="#r0"/><use x="42" y="33" xlink:href="#r0"/><use x="54" y="33" xlink:href="#r0"/><use x="57" y="33" xlink:href="#r0"/><use x="66" y="33" xlink:href="#r0"/><use x="69" y="33" xlink:href="#r0"/><use x="72" y="33" xlink:href="#r0"/><use x="75" y="33" xlink:href="#r0"/><use x="87" y="33" xlink:href="#r0"/><use x="90" y="33" xlink:href="#r0"/><use x="102" y="33" xlink:href="#r0"/><use x="108" y="33" xlink:href="#r0"/><use x="3" y="36" xlink:href="#r0"/><use x="12" y="36" xlink:href="#r0"/><use x="18" y="36" xlink:href="#r0"/><use x="24" y="36" xlink:href="#r0"/><use x="27" y="36" xlink:href="#r0"/><use x="33" y="36" xlink:href="#r0"/><use x="36" y="36" xlink:href="#r0"/><use x="39" y="36" xlink:href="#r0"/><use x="48" y="36" xlink:href="#r0"/><use x="57" y="36" xlink:href="#r0"/><use x="60" y="36" xlink:href="#r0"/><use x="63" y="36" xlink:href="#r0"/><use x="69" y="36" xlink:href="#r0"/><use x="78" y="36" xlink:href="#r0"/><use x="81" y="36" xlink:href="#r0"/><use x="84" y="36" xlink:href="#r0"/><use x="87" y="36" xlink:href="#r0"/><use x="96" y="36" xlink:href="#r0"/><use x="105" y="36" xlink:href="#r0"/><use x="120" y="36" xlink:href="#r0"/><use x="3" y="39" xlink:href="#r0"/><use x="6" y="39" xlink:href="#r0"/><use x="12" y="39" xlink:href="#r0"/><use x="18" y="39" xlink:href="#r0"/><use x="21" y="39" xlink:href="#r0"/><use x="27" y="39" xlink:href="#r0"/><use x="30" y="39" xlink:href="#r0"/><use x="36" y="39" xlink:href="#r0"/><use x="45" y="39" xlink:href="#r0"/><use x="51" y="39" xlink:href="#r0"/><use x="54" y="39" xlink:href="#r0"/><use x="60" y="39" xlink:href="#r0"/><use x="69" y="39" xlink:href="#r0"/><use x="78" y="39" xlink:href="#r0"/><use x="84" y="39" xlink:href="#r0"/><use x="90" y="39" xlink:href="#r0"/><use x="93" y="39" xlink:href="#r0"/><use x="99" y="39" xlink:href="#r0"/><use x="108" y="39" xlink:href="#r0"/><use x="117" y="39" xlink:href="#r0"/><use x="120" y="39" xlink:href="#r0"/><use x="123" y="39" xlink:href="#r0"/><use x="9" y="42" xlink:href="#r0"/><use x="15" y="42" xlink:href="#r0"/><use x="18" y="42" xlink:href="#r0"/><use x="27" y="42" xlink:href="#r0"/><use x="36" y="42" xlink:href="#r0"/><use x="42" y="42" xlink:href="#r0"/><use x="45" y="42" xlink:href="#r0"/><use x="54" y="42" xlink:href="#r0"/><use x="60" y="42" xlink:href="#r0"/><use x="78" y="42" xlink:href="#r0"/><use x="81" y="42" xlink:href="#r0"/><use x="84" y="42" xlink:href="#r0"/><use x="90" y="42" xlink:href="#r0"/><use x="93" y="42" xlink:href="#r0"/><use x="96" y="42" xlink:href="#r0"/><use x="99" y="42" xlink:href="#r0"/><use x="105" y="42" xlink:href="#r0"/><use x="114" y="42" xlink:href="#r0"/><use x="123" y="42" xlink:href="#r0"/><use x="9" y="45" xlink:href="#r0"/><use x="12" y="45" xlink:href="#r0"/><use x="21" y="45" xlink:href="#r0"/><use x="24" y="45" xlink:href="#r0"/><use x="27" y="45" xlink:href="#r0"/><use x="39" y="45" xlink:href="#r0"/><use x="42" y="45" xlink:href="#r0"/><use x="45" y="45" xlink:href="#r0"/><use x="60" y="45" xlink:href="#r0"/><use x="63" y="45" xlink:href="#r0"/><use x="69" y="45" xlink:href="#r0"/><use x="78" y="45" xlink:href="#r0"/><use x="81" y="45" xlink:href="#r0"/><use x="87" y="45" xlink:href="#r0"/><use x="96" y="45" xlink:href="#r0"/><use x="99" y="45" xlink:href="#r0"/><use x="108" y="45" xlink:href="#r0"/><use x="117" y="45" xlink:href="#r0"/><use x="120" y="45" xlink:href="#r0"/><use x="123" y="45" xlink:href="#r0"/><use x="3" y="48" xlink:href="#r0"/><use x="6" y="48" xlink:href="#r0"/><use x="15" y="48" xlink:href="#r0"/><use x="24" y="48" xlink:href="#r0"/><use x="27" y="48" xlink:href="#r0"/><use x="30" y="48" xlink:href="#r0"/><use x="33" y="48" xlink:href="#r0"/><use x="39" y="48" xlink:href="#r0"/><use x="48" y="48" xlink:href="#r0"/><use x="63" y="48" xlink:href="#r0"/><use x="66" y="48" xlink:href="#r0"/><use x="81" y="48" xlink:href="#r0"/><use x="99" y="48" xlink:href="#r0"/><use x="102" y="48" xlink:href="#r0"/><use x="111" y="48" xlink:href="#r0"/><use x="3" y="51" xlink:href="#r0"/><use x="9" y="51" xlink:href="#r0"/><use x="15" y="51" xlink:href="#r0"/><use x="21" y="51" xlink:href="#r0"/><use x="27" y="51" xlink:href="#r0"/><use x="30" y="51" xlink:href="#r0"/><use x="36" y="51" xlink:href="#r0"/><use x="39" y="51" xlink:href="#r0"/><use x="42" y="51" xlink:href="#r0"/><use x="45" y="51" xlink:href="#r0"/><use x="54" y="51" xlink:href="#r0"/><use x="57" y="51" xlink:href="#r0"/><use x="60" y="51" xlink:href="#r0"/><use x="63" y="51" xlink:href="#r0"/><use x="66" y="51" xlink:href="#r0"/><use x="72" y="51" xlink:href="#r0"/><use x="75" y="51" xlink:href="#r0"/><use x="78" y="51" xlink:href="#r0"/><use x="81" y="51" xlink:href="#r0"/><use x="84" y="51" xlink:href="#r0"/><use x="87" y="51" xlink:href="#r0"/><use x="93" y="51" xlink:href="#r0"/><use x="99" y="51" xlink:href="#r0"/><use x="102" y="51" xlink:href="#r0"/><use x="108" y="51" xlink:href="#r0"/><use x="111" y="51" xlink:href="#r0"/><use x="114" y="51" xlink:href="#r0"/><use x="12" y="54" xlink:href="#r0"/><use x="27" y="54" xlink:href="#r0"/><use x="33" y="54" xlink:href="#r0"/><use x="36" y="54" xlink:href="#r0"/><use x="42" y="54" xlink:href="#r0"/><use x="57" y="54" xlink:href="#r0"/><use x="66" y="54" xlink:href="#r0"/><use x="72" y="54" xlink:href="#r0"/><use x="81" y="54" xlink:href="#r0"/><use x="93" y="54" xlink:href="#r0"/><use x="99" y="54" xlink:href="#r0"/><use x="114" y="54" xlink:href="#r0"/><use x="117" y="54" xlink:href="#r0"/><use x="120" y="54" xlink:href="#r0"/><use x="9" y="57" xlink:href="#r0"/><use x="12" y="57" xlink:href="#r0"/><use x="15" y="57" xlink:href="#r0"/><use x="21" y="57" xlink:href="#r0"/><use x="24" y="57" xlink:href="#r0"/><use x="30" y="57" xlink:href="#r0"/><use x="33" y="57" xlink:href="#r0"/><use x="48" y="57" xlink:href="#r0"/><use x="51" y="57" xlink:href="#r0"/><use x="69" y="57" xlink:href="#r0"/><use x="81" y="57" xlink:href="#r0"/><use x="84" y="57" xlink:href="#r0"/><use x="93" y="57" xlink:href="#r0"/><use x="99" y="57" xlink:href="#r0"/><use x="102" y="57" xlink:href="#r0"/><use x="105" y="57" xlink:href="#r0"/><use x="108" y="57" xlink:href="#r0"/><use x="114" y="57" xlink:href="#r0"/><use x="120" y="57" xlink:href="#r0"/><use x="6" y="60" xlink:href="#r0"/><use x="9" y="60" xlink:href="#r0"/><use x="18" y="60" xlink:href="#r0"/><use x="24" y="60" xlink:href="#r0"/><use x="27" y="60" xlink:href="#r0"/><use x="30" y="60" xlink:href="#r0"/><use x="33" y="60" xlink:href="#r0"/><use x="36" y="60" xlink:href="#r0"/><use x="39" y="60" xlink:href="#r0"/><use x="54" y="60" xlink:href="#r0"/><use x="63" y="60" xlink:href="#r0"/><use x="69" y="60" xlink:href="#r0"/><use x="72" y="60" xlink:href="#r0"/><use x="75" y="60" xlink:href="#r0"/><use x="84" y="60" xlink:href="#r0"/><use x="87" y="60" xlink:href="#r0"/><use x="90" y="60" xlink:href="#r0"/><use x="102" y="60" xlink:href="#r0"/><use x="108" y="60" xlink:href="#r0"/><use x="111" y="60" xlink:href="#r0"/><use x="114" y="60" xlink:href="#r0"/><use x="117" y="60" xlink:href="#r0"/><use x="120" y="60" xlink:href="#r0"/><use x="123" y="60" xlink:href="#r0"/><use x="6" y="63" xlink:href="#r0"/><use x="12" y="63" xlink:href="#r0"/><use x="15" y="63" xlink:href="#r0"/><use x="21" y="63" xlink:href="#r0"/><use x="24" y="63" xlink:href="#r0"/><use x="27" y="63" xlink:href="#r0"/><use x="33" y="63" xlink:href="#r0"/><use x="36" y="63" xlink:href="#r0"/><use x="42" y="63" xlink:href="#r0"/><use x="51" y="63" xlink:href="#r0"/><use x="66" y="63" xlink:href="#r0"/><use x="75" y="63" xlink:href="#r0"/><use x="78" y="63" xlink:href="#r0"/><use x="81" y="63" xlink:href="#r0"/><use x="84" y="63" xlink:href="#r0"/><use x="90" y="63" xlink:href="#r0"/><use x="99" y="63" xlink:href="#r0"/><use x="102" y="63" xlink:href="#r0"/><use x="105" y="63" xlink:href="#r0"/><use x="111" y="63" xlink:href="#r0"/><use x="114" y="63" xlink:href="#r0"/><use x="117" y="63" xlink:href="#r0"/><use x="120" y="63" xlink:href="#r0"/><use x="123" y="63" xlink:href="#r0"/><use x="6" y="66" xlink:href="#r0"/><use x="9" y="66" xlink:href="#r0"/><use x="12" y="66" xlink:href="#r0"/><use x="18" y="66" xlink:href="#r0"/><use x="33" y="66" xlink:href="#r0"/><use x="42" y="66" xlink:href="#r0"/><use x="45" y="66" xlink:href="#r0"/><use x="48" y="66" xlink:href="#r0"/><use x="51" y="66" xlink:href="#r0"/><use x="57" y="66" xlink:href="#r0"/><use x="60" y="66" xlink:href="#r0"/><use x="63" y="66" xlink:href="#r0"/><use x="66" y="66" xlink:href="#r0"/><use x="69" y="66" xlink:href="#r0"/><use x="72" y="66" xlink:href="#r0"/><use x="81" y="66" xlink:href="#r0"/><use x="96" y="66" xlink:href="#r0"/><use x="105" y="66" xlink:href="#r0"/><use x="108" y="66" xlink:href="#r0"/><use x="111" y="66" xlink:href="#r0"/><use x="117" y="66" xlink:href="#r0"/><use x="120" y="66" xlink:href="#r0"/><use x="123" y="66" xlink:href="#r0"/><use x="18" y="69" xlink:href="#r0"/><use x="21" y="69" xlink:href="#r0"/><use x="27" y="69" xlink:href="#r0"/><use x="30" y="69" xlink:href="#r0"/><use x="33" y="69" xlink:href="#r0"/><use x="48" y="69" xlink:href="#r0"/><use x="54" y="69" xlink:href="#r0"/><use x="57" y="69" xlink:href="#r0"/><use x="66" y="69" xlink:href="#r0"/><use x="72" y="69" xlink:href="#r0"/><use x="81" y="69" xlink:href="#r0"/><use x="87" y="69" xlink:href="#r0"/><use x="105" y="69" xlink:href="#r0"/><use x="114" y="69" xlink:href="#r0"/><use x="120" y="69" xlink:href="#r0"/><use x="9" y="72" xlink:href="#r0"/><use x="12" y="72" xlink:href="#r0"/><use x="24" y="72" xlink:href="#r0"/><use x="27" y="72" xlink:href="#r0"/><use x="36" y="72" xlink:href="#r0"/><use x="39" y="72" xlink:href="#r0"/><use x="42" y="72" xlink:href="#r0"/><use x="45" y="72" xlink:href="#r0"/><use x="48" y="72" xlink:href="#r0"/><use x="63" y="72" xlink:href="#r0"/><use x="69" y="72" xlink:href="#r0"/><use x="75" y="72" xlink:href="#r0"/><use x="78" y="72" xlink:href="#r0"/><use x="81" y="72" xlink:href="#r0"/><use x="84" y="72" xlink:href="#r0"/><use x="87" y="72" xlink:href="#r0"/><use x="93" y="72" xlink:href="#r0"/><use x="96" y="72" xlink:href="#r0"/><use x="102" y="72" xlink:href="#r0"/><use x="105" y="72" xlink:href="#r0"/><use x="108" y="72" xlink:href="#r0"/><use x="111" y="72" xlink:href="#r0"/><use x="120" y="72" xlink:href="#r0"/><use x="123" y="72" xlink:href="#r0"/><use x="6" y="75" xlink:href="#r0"/><use x="9" y="75" xlink:href="#r0"/><use x="12" y="75" xlink:href="#r0"/><use x="15" y="75" xlink:href="#r0"/><use x="18" y="75" xlink:href="#r0"/><use x="21" y="75" xlink:href="#r0"/><use x="27" y="75" xlink:href="#r0"/><use x="30" y="75" xlink:href="#r0"/><use x="33" y="75" xlink:href="#r0"/><use x="36" y="75" xlink:href="#r0"/><use x="39" y="75" xlink:href="#r0"/><use x="45" y="75" xlink:href="#r0"/><use x="60" y="75" xlink:href="#r0"/><use x="63" y="75" xlink:href="#r0"/><use x="72" y="75" xlink:href="#r0"/><use x="78" y="75" xlink:href="#r0"/><use x="84" y="75" xlink:href="#r0"/><use x="90" y="75" xlink:href="#r0"/><use x="114" y="75" xlink:href="#r0"/><use x="123" y="75" xlink:href="#r0"/><use x="9" y="78" xlink:href="#r0"/><use x="12" y="78" xlink:href="#r0"/><use x="15" y="78" xlink:href="#r0"/><use x="18" y="78" xlink:href="#r0"/><use x="24" y="78" xlink:href="#r0"/><use x="27" y="78" xlink:href="#r0"/><use x="30" y="78" xlink:href="#r0"/><use x="42" y="78" xlink:href="#r0"/><use x="45" y="78" xlink:href="#r0"/><use x="51" y="78" xlink:href="#r0"/><use x="60" y="78" xlink:href="#r0"/><use x="63" y="78" xlink:href="#r0"/><use x="84" y="78" xlink:href="#r0"/><use x="90" y="78" xlink:href="#r0"/><use x="105" y="78" xlink:href="#r0"/><use x="120" y="78" xlink:href="#r0"/><use x="123" y="78" xlink:href="#r0"/><use x="9" y="81" xlink:href="#r0"/><use x="15" y="81" xlink:href="#r0"/><use x="18" y="81" xlink:href="#r0"/><use x="21" y="81" xlink:href="#r0"/><use x="30" y="81" xlink:href="#r0"/><use x="33" y="81" xlink:href="#r0"/><use x="45" y="81" xlink:href="#r0"/><use x="54" y="81" xlink:href="#r0"/><use x="57" y="81" xlink:href="#r0"/><use x="60" y="81" xlink:href="#r0"/><use x="63" y="81" xlink:href="#r0"/><use x="75" y="81" xlink:href="#r0"/><use x="87" y="81" xlink:href="#r0"/><use x="96" y="81" xlink:href="#r0"/><use x="102" y="81" xlink:href="#r0"/><use x="105" y="81" xlink:href="#r0"/><use x="108" y="81" xlink:href="#r0"/><use x="117" y="81" xlink:href="#r0"/><use x="123" y="81" xlink:href="#r0"/><use x="3" y="84" xlink:href="#r0"/><use x="6" y="84" xlink:href="#r0"/><use x="9" y="84" xlink:href="#r0"/><use x="12" y="84" xlink:href="#r0"/><use x="15" y="84" xlink:href="#r0"/><use x="30" y="84" xlink:href="#r0"/><use x="33" y="84" xlink:href="#r0"/><use x="36" y="84" xlink:href="#r0"/><use x="39" y="84" xlink:href="#r0"/><use x="42" y="84" xlink:href="#r0"/><use x="48" y="84" xlink:href="#r0"/><use x="51" y="84" xlink:href="#r0"/><use x="54" y="84" xlink:href="#r0"/><use x="57" y="84" xlink:href="#r0"/><use x="66" y="84" xlink:href="#r0"/><use x="75" y="84" xlink:href="#r0"/><use x="84" y="84" xlink:href="#r0"/><use x="93" y="84" xlink:href="#r0"/><use x="102" y="84" xlink:href="#r0"/><use x="105" y="84" xlink:href="#r0"/><use x="111" y="84" xlink:href="#r0"/><use x="114" y="84" xlink:href="#r0"/><use x="120" y="84" xlink:href="#r0"/><use x="9" y="87" xlink:href="#r0"/><use x="12" y="87" xlink:href="#r0"/><use x="15" y="87" xlink:href="#r0"/><use x="21" y="87" xlink:href="#r0"/><use x="36" y="87" xlink:href="#r0"/><use x="39" y="87" xlink:href="#r0"/><use x="48" y="87" xlink:href="#r0"/><use x="51" y="87" xlink:href="#r0"/><use x="54" y="87" xlink:href="#r0"/><use x="57" y="87" xlink:href="#r0"/><use x="63" y="87" xlink:href="#r0"/><use x="66" y="87" xlink:href="#r0"/><use x="72" y="87" xlink:href="#r0"/><use x="78" y="87" xlink:href="#r0"/><use x="84" y="87" xlink:href="#r0"/><use x="87" y="87" xlink:href="#r0"/><use x="102" y="87" xlink:href="#r0"/><use x="108" y="87" xlink:href="#r0"/><use x="111" y="87" xlink:href="#r0"/><use x="9" y="90" xlink:href="#r0"/><use x="12" y="90" xlink:href="#r0"/><use x="15" y="90" xlink:href="#r0"/><use x="27" y="90" xlink:href="#r0"/><use x="51" y="90" xlink:href="#r0"/><use x="54" y="90" xlink:href="#r0"/><use x="63" y="90" xlink:href="#r0"/><use x="66" y="90" xlink:href="#r0"/><use x="69" y="90" xlink:href="#r0"/><use x="72" y="90" xlink:href="#r0"/><use x="75" y="90" xlink:href="#r0"/><use x="84" y="90" xlink:href="#r0"/><use x="108" y="90" xlink:href="#r0"/><use x="114" y="90" xlink:href="#r0"/><use x="123" y="90" xlink:href="#r0"/><use x="3" y="93" xlink:href="#r0"/><use x="15" y="93" xlink:href="#r0"/><use x="21" y="93" xlink:href="#r0"/><use x="24" y="93" xlink:href="#r0"/><use x="33" y="93" xlink:href="#r0"/><use x="48" y="93" xlink:href="#r0"/><use x="51" y="93" xlink:href="#r0"/><use x="57" y="93" xlink:href="#r0"/><use x="66" y="93" xlink:href="#r0"/><use x="69" y="93" xlink:href="#r0"/><use x="84" y="93" xlink:href="#r0"/><use x="93" y="93" xlink:href="#r0"/><use x="108" y="93" xlink:href="#r0"/><use x="111" y="93" xlink:href="#r0"/><use x="114" y="93" xlink:href="#r0"/><use x="117" y="93" xlink:href="#r0"/><use x="12" y="96" xlink:href="#r0"/><use x="33" y="96" xlink:href="#r0"/><use x="36" y="96" xlink:href="#r0"/><use x="54" y="96" xlink:href="#r0"/><use x="60" y="96" xlink:href="#r0"/><use x="63" y="96" xlink:href="#r0"/><use x="69" y="96" xlink:href="#r0"/><use x="72" y="96" xlink:href="#r0"/><use x="75" y="96" xlink:href="#r0"/><use x="87" y="96" xlink:href="#r0"/><use x="90" y="96" xlink:href="#r0"/><use x="93" y="96" xlink:href="#r0"/><use x="96" y="96" xlink:href="#r0"/><use x="99" y="96" xlink:href="#r0"/><use x="102" y="96" xlink:href="#r0"/><use x="105" y="96" xlink:href="#r0"/><use x="111" y="96" xlink:href="#r0"/><use x="114" y="96" xlink:href="#r0"/><use x="117" y="96" xlink:href="#r0"/><use x="123" y="96" xlink:href="#r0"/><use x="6" y="99" xlink:href="#r0"/><use x="9" y="99" xlink:href="#r0"/><use x="12" y="99" xlink:href="#r0"/><use x="21" y="99" xlink:href="#r0"/><use x="27" y="99" xlink:href="#r0"/><use x="30" y="99" xlink:href="#r0"/><use x="42" y="99" xlink:href="#r0"/><use x="45" y="99" xlink:href="#r0"/><use x="51" y="99" xlink:href="#r0"/><use x="57" y="99" xlink:href="#r0"/><use x="60" y="99" xlink:href="#r0"/><use x="63" y="99" xlink:href="#r0"/><use x="66" y="99" xlink:href="#r0"/><use x="69" y="99" xlink:href="#r0"/><use x="75" y="99" xlink:href="#r0"/><use x="87" y="99" xlink:href="#r0"/><use x="90" y="99" xlink:href="#r0"/><use x="93" y="99" xlink:href="#r0"/><use x="99" y="99" xlink:href="#r0"/><use x="102" y="99" xlink:href="#r0"/><use x="105" y="99" xlink:href="#r0"/><use x="108" y="99" xlink:href="#r0"/><use x="111" y="99" xlink:href="#r0"/><use x="117" y="99" xlink:href="#r0"/><use x="120" y="99" xlink:href="#r0"/><use x="123" y="99" xlink:href="#r0"/><use x="27" y="102" xlink:href="#r0"/><use x="30" y="102" xlink:href="#r0"/><use x="45" y="102" xlink:href="#r0"/><use x="48" y="102" xlink:href="#r0"/><use x="51" y="102" xlink:href="#r0"/><use x="57" y="102" xlink:href="#r0"/><use x="60" y="102" xlink:href="#r0"/><use x="66" y="102" xlink:href="#r0"/><use x="69" y="102" xlink:href="#r0"/><use x="72" y="102" xlink:href="#r0"/><use x="75" y="102" xlink:href="#r0"/><use x="81" y="102" xlink:href="#r0"/><use x="84" y="102" xlink:href="#r0"/><use x="87" y="102" xlink:href="#r0"/><use x="90" y="102" xlink:href="#r0"/><use x="93" y="102" xlink:href="#r0"/><use x="99" y="102" xlink:href="#r0"/><use x="111" y="102" xlink:href="#r0"/><use x="123" y="102" xlink:href="#r0"/><use x="3" y="105" xlink:href="#r0"/><use x="6" y="105" xlink:href="#r0"/><use x="9" y="105" xlink:href="#r0"/><use x="12" y="105" xlink:href="#r0"/><use x="15" y="105" xlink:href="#r0"/><use x="18" y="105" xlink:href="#r0"/><use x="21" y="105" xlink:href="#r0"/><use x="30" y="105" xlink:href="#r0"/><use x="36" y="105" xlink:href="#r0"/><use x="39" y="105" xlink:href="#r0"/><use x="45" y="105" xlink:href="#r0"/><use x="54" y="105" xlink:href="#r0"/><use x="63" y="105" xlink:href="#r0"/><use x="72" y="105" xlink:href="#r0"/><use x="75" y="105" xlink:href="#r0"/><use x="90" y="105" xlink:href="#r0"/><use x="93" y="105" xlink:href="#r0"/><use x="96" y="105" xlink:href="#r0"/><use x="99" y="105" xlink:href="#r0"/><use x="105" y="105" xlink:href="#r0"/><use x="111" y="105" xlink:href="#r0"/><use x="114" y="105" xlink:href="#r0"/><use x="3" y="108" xlink:href="#r0"/><use x="21" y="108" xlink:href="#r0"/><use x="30" y="108" xlink:href="#r0"/><use x="33" y="108" xlink:href="#r0"/><use x="39" y="108" xlink:href="#r0"/><use x="42" y="108" xlink:href="#r0"/><use x="45" y="108" xlink:href="#r0"/><use x="51" y="108" xlink:href="#r0"/><use x="57" y="108" xlink:href="#r0"/><use x="60" y="108" xlink:href="#r0"/><use x="69" y="108" xlink:href="#r0"/><use x="72" y="108" xlink:href="#r0"/><use x="75" y="108" xlink:href="#r0"/><use x="78" y="108" xlink:href="#r0"/><use x="81" y="108" xlink:href="#r0"/><use x="87" y="108" xlink:href="#r0"/><use x="93" y="108" xlink:href="#r0"/><use x="96" y="108" xlink:href="#r0"/><use x="99" y="108" xlink:href="#r0"/><use x="111" y="108" xlink:href="#r0"/><use x="120" y="108" xlink:href="#r0"/><use x="123" y="108" xlink:href="#r0"/><use x="3" y="111" xlink:href="#r0"/><use x="9" y="111" xlink:href="#r0"/><use x="12" y="111" xlink:href="#r0"/><use x="15" y="111" xlink:href="#r0"/><use x="21" y="111" xlink:href="#r0"/><use x="36" y="111" xlink:href="#r0"/><use x="39" y="111" xlink:href="#r0"/><use x="48" y="111" xlink:href="#r0"/><use x="57" y="111" xlink:href="#r0"/><use x="63" y="111" xlink:href="#r0"/><use x="66" y="111" xlink:href="#r0"/><use x="69" y="111" xlink:href="#r0"/><use x="78" y="111" xlink:href="#r0"/><use x="81" y="111" xlink:href="#r0"/><use x="90" y="111" xlink:href="#r0"/><use x="93" y="111" xlink:href="#r0"/><use x="99" y="111" xlink:href="#r0"/><use x="102" y="111" xlink:href="#r0"/><use x="105" y="111" xlink:href="#r0"/><use x="108" y="111" xlink:href="#r0"/><use x="111" y="111" xlink:href="#r0"/><use x="117" y="111" xlink:href="#r0"/><use x="120" y="111" xlink:href="#r0"/><use x="3" y="114" xlink:href="#r0"/><use x="9" y="114" xlink:href="#r0"/><use x="12" y="114" xlink:href="#r0"/><use x="15" y="114" xlink:href="#r0"/><use x="21" y="114" xlink:href="#r0"/><use x="27" y="114" xlink:href="#r0"/><use x="36" y="114" xlink:href="#r0"/><use x="39" y="114" xlink:href="#r0"/><use x="42" y="114" xlink:href="#r0"/><use x="51" y="114" xlink:href="#r0"/><use x="57" y="114" xlink:href="#r0"/><use x="60" y="114" xlink:href="#r0"/><use x="69" y="114" xlink:href="#r0"/><use x="75" y="114" xlink:href="#r0"/><use x="87" y="114" xlink:href="#r0"/><use x="99" y="114" xlink:href="#r0"/><use x="102" y="114" xlink:href="#r0"/><use x="108" y="114" xlink:href="#r0"/><use x="111" y="114" xlink:href="#r0"/><use x="114" y="114" xlink:href="#r0"/><use x="117" y="114" xlink:href="#r0"/><use x="120" y="114" xlink:href="#r0"/><use x="123" y="114" xlink:href="#r0"/><use x="3" y="117" xlink:href="#r0"/><use x="9" y="117" xlink:href="#r0"/><use x="12" y="117" xlink:href="#r0"/><use x="15" y="117" xlink:href="#r0"/><use x="21" y="117" xlink:href="#r0"/><use x="27" y="117" xlink:href="#r0"/><use x="30" y="117" xlink:href="#r0"/><use x="36" y="117" xlink:href="#r0"/><use x="42" y="117" xlink:href="#r0"/><use x="48" y="117" xlink:href="#r0"/><use x="51" y="117" xlink:href="#r0"/><use x="60" y="117" xlink:href="#r0"/><use x="66" y="117" xlink:href="#r0"/><use x="69" y="117" xlink:href="#r0"/><use x="75" y="117" xlink:href="#r0"/><use x="78" y="117" xlink:href="#r0"/><use x="87" y="117" xlink:href="#r0"/><use x="96" y="117" xlink:href="#r0"/><use x="99" y="117" xlink:href="#r0"/><use x="108" y="117" xlink:href="#r0"/><use x="120" y="117" xlink:href="#r0"/><use x="123" y="117" xlink:href="#r0"/><use x="3" y="120" xlink:href="#r0"/><use x="21" y="120" xlink:href="#r0"/><use x="27" y="120" xlink:href="#r0"/><use x="33" y="120" xlink:href="#r0"/><use x="36" y="120" xlink:href="#r0"/><use x="51" y="120" xlink:href="#r0"/><use x="66" y="120" xlink:href="#r0"/><use x="72" y="120" xlink:href="#r0"/><use x="75" y="120" xlink:href="#r0"/><use x="84" y="120" xlink:href="#r0"/><use x="93" y="120" xlink:href="#r0"/><use x="96" y="120" xlink:href="#r0"/><use x="99" y="120" xlink:href="#r0"/><use x="111" y="120" xlink:href="#r0"/><use x="114" y="120" xlink:href="#r0"/><use x="120" y="120" xlink:href="#r0"/><use x="3" y="123" xlink:href="#r0"/><use x="6" y="123" xlink:href="#r0"/><use x="9" y="123" xlink:href="#r0"/><use x="12" y="123" xlink:href="#r0"/><use x="15" y="123" xlink:href="#r0"/><use x="18" y="123" xlink:href="#r0"/><use x="21" y="123" xlink:href="#r0"/><use x="27" y="123" xlink:href="#r0"/><use x="30" y="123" xlink:href="#r0"/><use x="33" y="123" xlink:href="#r0"/><use x="42" y="123" xlink:href="#r0"/><use x="45" y="123" xlink:href="#r0"/><use x="48" y="123" xlink:href="#r0"/><use x="66" y="123" xlink:href="#r0"/><use x="72" y="123" xlink:href="#r0"/><use x="75" y="123" xlink:href="#r0"/><use x="78" y="123" xlink:href="#r0"/><use x="81" y="123" xlink:href="#r0"/><use x="99" y="123" xlink:href="#r0"/><use x="102" y="123" xlink:href="#r0"/><use x="108" y="123" xlink:href="#r0"/><use x="111" y="123" xlink:href="#r0"/><use x="120" y="123" xlink:href="#r0"/></svg>