<svg xmlns="http://www.w3.org/2000/svg" xmlns:xlink="http://www.w3.org/1999/xlink" version="1.1" width="125px" height="125px" viewBox="0 0 125 125"><defs><rect id="r0" width="2" height="2" fill="#000000"/></defs><rect x="0" y="0" width="125" height="125" fill="#fefefe"/><use x="17" y="17" xlink:href="#r0"/><use x="19" y="17" xlink:href="#r0"/><use x="21" y="17" xlink:href="#r0"/><use x="23" y="17" xlink:href="#r0"/><use x="25" y="17" xlink:href="#r0"/><use x="27" y="17" xlink:href="#r0"/><use x="29" y="17" xlink:href="#r0"/><use x="33" y="17" xlink:href="#r0"/><use x="35" y="17" xlink:href="#r0"/><use x="43" y="17" xlink:href="#r0"/><use x="45" y="17" xlink:href="#r0"/><use x="47" y="17" xlink:href="#r0"/><use x="49" y="17" xlink:href="#r0"/><use x="57" y="17" xlink:href="#r0"/><use x="59" y="17" xlink:href="#r0"/><use x="61" y="17" xlink:href="#r0"/><use x="63" y="17" xlink:href="#r0"/><use x="65" y="17" xlink:href="#r0"/><use x="67" y="17" xlink:href="#r0"/><use x="69" y="17" xlink:href="#r0"/><use x="71" y="17" xlink:href="#r0"/><use x="73" y="17" xlink:href="#r0"/><use x="75" y="17" xlink:href="#r0"/><use x="77" y="17" xlink:href="#r0"/><use x="81" y="17" xlink:href="#r0"/><use x="83" y="17" xlink:href="#r0"/><use x="89" y="17" xlink:href="#r0"/><use x="93" y="17" xlink:href="#r0"/><use x="95" y="17" xlink:href="#r0"/><use x="97" y="17" xlink:href="#r0"/><use x="99" y="17" xlink:href="#r0"/><use x="101" y="17" xlink:href="#r0"/><use x="103" y="17" xlink:href="#r0"/><use x="105" y="17" xlink:href="#r0"/><use x="17" y="19" xlink:href="#r0"/><use x="29" y="19" xlink:href="#r0"/><use x="33" y="19" xlink:href="#r0"/><use x="37" y="19" xlink:href="#r0"/><use x="43" y="19" xlink:href="#r0"/><use x="45" y="19" xlink:href="#r0"/><use x="59" y="19" xlink:href="#r0"/><use x="61" y="19" xlink:href="#r0"/><use x="63" y="19" xlink:href="#r0"/><use x="67" y="19" xlink:href="#r0"/><use x="69" y="19" xlink:href="#r0"/><use x="77" y="19" xlink:href="#r0"/><use x="81" y="19" xlink:href="#r0"/><use x="83" y="19" xlink:href="#r0"/><use x="87" y="19" xlink:href="#r0"/><use x="93" y="19" xlink:href="#r0"/><use x="105" y="19" xlink:href="#r0"/><use x="17" y="21" xlink:href="#r0"/><use x="21" y="21" xlink:href="#r0"/><use x="23" y="21" xlink:href="#r0"/><use x="25" y="21" xlink:href="#r0"/><use x="29" y="21" xlink:href="#r0"/><use x="37" y="21" xlink:href="#r0"/><use x="39" y="21" xlink:href="#r0"/><use x="41" y="21" xlink:href="#r0"/><use x="49" y="21" xlink:href="#r0"/><use x="59" y="21" xlink:href="#r0"/><use x="61" y="21" xlink:href="#r0"/><use x="65" y="21" xlink:href="#r0"/><use x="71" y="21" xlink:href="#r0"/><use x="79" y="21" xlink:href="#r0"/><use x="83" y="21" xlink:href="#r0"/><use x="87" y="21" xlink:href="#r0"/><use x="93" y="21" xlink:href="#r0"/><use x="97" y="21" xlink:href="#r0"/><use x="99" y="21" xlink:href="#r0"/><use x="101" y="21" xlink:href="#r0"/><use x="105" y="21" xlink:href="#r0"/><use x="17" y="23" xlink:href="#r0"/><use x="21" y="23" xlink:href="#r0"/><use x="23" y="23" xlink:href="#r0"/><use x="25" y="23" xlink:href="#r0"/><use x="29" y="23" xlink:href="#r0"/><use x="35" y="23" xlink:href="#r0"/><use x="37" y="23" xlink:href="#r0"/><use x="41" y="23" xlink:href="#r0"/><use x="49" y="23" xlink:href="#r0"/><use x="51" y="23" xlink:href="#r0"/><use x="55" y="23" xlink:href="#r0"/><use x="61" y="23" xlink:href="#r0"/><use x="65" y="23" xlink:href="#r0"/><use x="67" y="23" xlink:href="#r0"/><use x="69" y="23" xlink:href="#r0"/><use x="75" y="23" xlink:href="#r0"/><use x="79" y="23" xlink:href="#r0"/><use x="87" y="23" xlink:href="#r0"/><use x="89" y="23" xlink:href="#r0"/><use x="93" y="23" xlink:href="#r0"/><use x="97" y="23" xlink:href="#r0"/><use x="99" y="23" xlink:href="#r0"/><use x="101" y="23" xlink:href="#r0"/><use x="105" y="23" xlink:href="#r0"/><use x="17" y="25" xlink:href="#r0"/><use x="21" y="25" xlink:href="#r0"/><use x="23" y="25" xlink:href="#r0"/><use x="25" y="25" xlink:href="#r0"/><use x="29" y="25" xlink:href="#r0"/><use x="33" y="25" xlink:href="#r0"/><use x="35" y="25" xlink:href="#r0"/><use x="39" y="25" xlink:href="#r0"/><use x="47" y="25" xlink:href="#r0"/><use x="49" y="25" xlink:href="#r0"/><use x="51" y="25" xlink:href="#r0"/><use x="53" y="25" xlink:href="#r0"/><use x="57" y="25" xlink:href="#r0"/><use x="59" y="25" xlink:href="#r0"/><use x="61" y="25" xlink:href="#r0"/><use x="63" y="25" xlink:href="#r0"/><use x="65" y="25" xlink:href="#r0"/><use x="67" y="25" xlink:href="#r0"/><use x="69" y="25" xlink:href="#r0"/><use x="71" y="25" xlink:href="#r0"/><use x="77" y="25" xlink:href="#r0"/><use x="81" y="25" xlink:href="#r0"/><use x="85" y="25" xlink:href="#r0"/><use x="87" y="25" xlink:href="#r0"/><use x="89" y="25" xlink:href="#r0"/><use x="93" y="25" xlink:href="#r0"/><use x="97" y="25" xlink:href="#r0"/><use x="99" y="25" xlink:href="#r0"/><use x="101" y="25" xlink:href="#r0"/><use x="105" y="25" xlink:href="#r0"/><use x="17" y="27" xlink:href="#r0"/><use x="29" y="27" xlink:href="#r0"/><use x="33" y="27" xlink:href="#r0"/><use x="37" y="27" xlink:href="#r0"/><use x="43" y="27" xlink:href="#r0"/><use x="45" y="27" xlink:href="#r0"/><use x="47" y="27" xlink:href="#r0"/><use x="51" y="27" xlink:href="#r0"/><use x="57" y="27" xlink:href="#r0"/><use x="65" y="27" xlink:href="#r0"/><use x="67" y="27" xlink:href="#r0"/><use x="69" y="27" xlink:href="#r0"/><use x="71" y="27" xlink:href="#r0"/><use x="77" y="27" xlink:href="#r0"/><use x="79" y="27" xlink:href="#r0"/><use x="93" y="27" xlink:href="#r0"/><use x="105" y="27" xlink:href="#r0"/><use x="17" y="29" xlink:href="#r0"/><use x="19" y="29" xlink:href="#r0"/><use x="21" y="29" xlink:href="#r0"/><use x="23" y="29" xlink:href="#r0"/><use x="25" y="29" xlink:href="#r0"/><use x="27" y="29" xlink:href="#r0"/><use x="29" y="29" xlink:href="#r0"/><use x="33" y="29" xlink:href="#r0"/><use x="37" y="29" xlink:href="#r0"/><use x="41" y="29" xlink:href="#r0"/><use x="45" y="29" xlink:href="#r0"/><use x="49" y="29" xlink:href="#r0"/><use x="53" y="29" xlink:href="#r0"/><use x="57" y="29" xlink:href="#r0"/><use x="61" y="29" xlink:href="#r0"/><use x="65" y="29" xlink:href="#r0"/><use x="69" y="29" xlink:href="#r0"/><use x="73" y="29" xlink:href="#r0"/><use x="77" y="29" xlink:href="#r0"/><use x="81" y="29" xlink:href="#r0"/><use x="85" y="29" xlink:href="#r0"/><use x="89" y="29" xlink:href="#r0"/><use x="93" y="29" xlink:href="#r0"/><use x="95" y="29" xlink:href="#r0"/><use x="97" y="29" xlink:href="#r0"/><use x="99" y="29" xlink:href="#r0"/><use x="101" y="29" xlink:href="#r0"/><use x="103" y="29" xlink:href="#r0"/><use x="105" y="29" xlink:href="#r0"/><use x="33" y="31" xlink:href="#r0"/><use x="35" y="31" xlink:href="#r0"/><use x="41" y="31" xlink:href="#r0"/><use x="45" y="31" xlink:href="#r0"/><use x="55" y="31" xlink:href="#r0"/><use x="57" y="31" xlink:href="#r0"/><use x="65" y="31" xlink:href="#r0"/><use x="71" y="31" xlink:href="#r0"/><use x="73" y="31" xlink:href="#r0"/><use x="75" y="31" xlink:href="#r0"/><use x="77" y="31" xlink:href="#r0"/><use x="81" y="31" xlink:href="#r0"/><use x="87" y="31" xlink:href="#r0"/><use x="89" y="31" xlink:href="#r0"/><use x="17" y="33" xlink:href="#r0"/><use x="19" y="33" xlink:href="#r0"/><use x="21" y="33" xlink:href="#r0"/><use x="27" y="33" xlink:href="#r0"/><use x="29" y="33" xlink:href="#r0"/><use x="33" y="33" xlink:href="#r0"/><use x="35" y="33" xlink:href="#r0"/><use x="39" y="33" xlink:href="#r0"/><use x="47" y="33" xlink:href="#r0"/><use x="51" y="33" xlink:href="#r0"/><use x="53" y="33" xlink:href="#r0"/><use x="55" y="33" xlink:href="#r0"/><use x="57" y="33" xlink:href="#r0"/><use x="59" y="33" xlink:href="#r0"/><use x="61" y="33" xlink:href="#r0"/><use x="63" y="33" xlink:href="#r0"/><use x="65" y="33" xlink:href="#r0"/><use x="67" y="33" xlink:href="#r0"/><use x="71" y="33" xlink:href="#r0"/><use x="73" y="33" xlink:href="#r0"/><use x="77" y="33" xlink:href="#r0"/><use x="79" y="33" xlink:href="#r0"/><use x="81" y="33" xlink:href="#r0"/><use x="83" y="33" xlink:href="#r0"/><use x="91" y="33" xlink:href="#r0"/><use x="93" y="33" xlink:href="#r0"/><use x="95" y="33" xlink:href="#r0"/><use x="97" y="33" xlink:href="#r0"/><use x="103" y="33" xlink:href="#r0"/><use x="105" y="33" xlink:href="#r0"/><use x="19" y="35" xlink:href="#r0"/><use x="21" y="35" xlink:href="#r0"/><use x="23" y="35" xlink:href="#r0"/><use x="25" y="35" xlink:href="#r0"/><use x="27" y="35" xlink:href="#r0"/><use x="31" y="35" xlink:href="#r0"/><use x="37" y="35" xlink:href="#r0"/><use x="41" y="35" xlink:href="#r0"/><use x="47" y="35" xlink:href="#r0"/><use x="51" y="35" xlink:href="#r0"/><use x="53" y="35" xlink:href="#r0"/><use x="55" y="35" xlink:href="#r0"/><use x="59" y="35" xlink:href="#r0"/><use x="61" y="35" xlink:href="#r0"/><use x="63" y="35" xlink:href="#r0"/><use x="65" y="35" xlink:href="#r0"/><use x="81" y="35" xlink:href="#r0"/><use x="83" y="35" xlink:href="#r0"/><use x="87" y="35" xlink:href="#r0"/><use x="91" y="35" xlink:href="#r0"/><use x="105" y="35" xlink:href="#r0"/><use x="17" y="37" xlink:href="#r0"/><use x="19" y="37" xlink:href="#r0"/><use x="25" y="37" xlink:href="#r0"/><use x="29" y="37" xlink:href="#r0"/><use x="37" y="37" xlink:href="#r0"/><use x="43" y="37" xlink:href="#r0"/><use x="45" y="37" xlink:href="#r0"/><use x="49" y="37" xlink:href="#r0"/><use x="51" y="37" xlink:href="#r0"/><use x="55" y="37" xlink:href="#r0"/><use x="59" y="37" xlink:href="#r0"/><use x="65" y="37" xlink:href="#r0"/><use x="67" y="37" xlink:href="#r0"/><use x="71" y="37" xlink:href="#r0"/><use x="83" y="37" xlink:href="#r0"/><use x="87" y="37" xlink:href="#r0"/><use x="89" y="37" xlink:href="#r0"/><use x="91" y="37" xlink:href="#r0"/><use x="95" y="37" xlink:href="#r0"/><use x="99" y="37" xlink:href="#r0"/><use x="105" y="37" xlink:href="#r0"/><use x="17" y="39" xlink:href="#r0"/><use x="21" y="39" xlink:href="#r0"/><use x="23" y="39" xlink:href="#r0"/><use x="31" y="39" xlink:href="#r0"/><use x="35" y="39" xlink:href="#r0"/><use x="37" y="39" xlink:href="#r0"/><use x="39" y="39" xlink:href="#r0"/><use x="45" y="39" xlink:href="#r0"/><use x="47" y="39" xlink:href="#r0"/><use x="55" y="39" xlink:href="#r0"/><use x="59" y="39" xlink:href="#r0"/><use x="67" y="39" xlink:href="#r0"/><use x="71" y="39" xlink:href="#r0"/><use x="73" y="39" xlink:href="#r0"/><use x="75" y="39" xlink:href="#r0"/><use x="77" y="39" xlink:href="#r0"/><use x="79" y="39" xlink:href="#r0"/><use x="81" y="39" xlink:href="#r0"/><use x="87" y="39" xlink:href="#r0"/><use x="95" y="39" xlink:href="#r0"/><use x="97" y="39" xlink:href="#r0"/><use x="99" y="39" xlink:href="#r0"/><use x="105" y="39" xlink:href="#r0"/><use x="19" y="41" xlink:href="#r0"/><use x="21" y="41" xlink:href="#r0"/><use x="23" y="41" xlink:href="#r0"/><use x="25" y="41" xlink:href="#r0"/><use x="27" y="41" xlink:href="#r0"/><use x="29" y="41" xlink:href="#r0"/><use x="35" y="41" xlink:href="#r0"/><use x="41" y="41" xlink:href="#r0"/><use x="43" y="41" xlink:href="#r0"/><use x="45" y="41" xlink:href="#r0"/><use x="53" y="41" xlink:href="#r0"/><use x="57" y="41" xlink:href="#r0"/><use x="59" y="41" xlink:href="#r0"/><use x="61" y="41" xlink:href="#r0"/><use x="65" y="41" xlink:href="#r0"/><use x="67" y="41" xlink:href="#r0"/><use x="69" y="41" xlink:href="#r0"/><use x="71" y="41" xlink:href="#r0"/><use x="73" y="41" xlink:href="#r0"/><use x="77" y="41" xlink:href="#r0"/><use x="81" y="41" xlink:href="#r0"/><use x="83" y="41" xlink:href="#r0"/><use x="85" y="41" xlink:href="#r0"/><use x="87" y="41" xlink:href="#r0"/><use x="91" y="41" xlink:href="#r0"/><use x="95" y="41" xlink:href="#r0"/><use x="97" y="41" xlink:href="#r0"/><use x="99" y="41" xlink:href="#r0"/><use x="17" y="43" xlink:href="#r0"/><use x="19" y="43" xlink:href="#r0"/><use x="21" y="43" xlink:href="#r0"/><use x="25" y="43" xlink:href="#r0"/><use x="31" y="43" xlink:href="#r0"/><use x="37" y="43" xlink:href="#r0"/><use x="43" y="43" xlink:href="#r0"/><use x="45" y="43" xlink:href="#r0"/><use x="55" y="43" xlink:href="#r0"/><use x="61" y="43" xlink:href="#r0"/><use x="71" y="43" xlink:href="#r0"/><use x="73" y="43" xlink:href="#r0"/><use x="75" y="43" xlink:href="#r0"/><use x="79" y="43" xlink:href="#r0"/><use x="81" y="43" xlink:href="#r0"/><use x="97" y="43" xlink:href="#r0"/><use x="101" y="43" xlink:href="#r0"/><use x="103" y="43" xlink:href="#r0"/><use x="105" y="43" xlink:href="#r0"/><use x="19" y="45" xlink:href="#r0"/><use x="23" y="45" xlink:href="#r0"/><use x="27" y="45" xlink:href="#r0"/><use x="29" y="45" xlink:href="#r0"/><use x="33" y="45" xlink:href="#r0"/><use x="39" y="45" xlink:href="#r0"/><use x="43" y="45" xlink:href="#r0"/><use x="45" y="45" xlink:href="#r0"/><use x="51" y="45" xlink:href="#r0"/><use x="55" y="45" xlink:href="#r0"/><use x="57" y="45" xlink:href="#r0"/><use x="61" y="45" xlink:href="#r0"/><use x="65" y="45" xlink:href="#r0"/><use x="71" y="45" xlink:href="#r0"/><use x="73" y="45" xlink:href="#r0"/><use x="75" y="45" xlink:href="#r0"/><use x="79" y="45" xlink:href="#r0"/><use x="81" y="45" xlink:href="#r0"/><use x="83" y="45" xlink:href="#r0"/><use x="87" y="45" xlink:href="#r0"/><use x="89" y="45" xlink:href="#r0"/><use x="95" y="45" xlink:href="#r0"/><use x="101" y="45" xlink:href="#r0"/><use x="105" y="45" xlink:href="#r0"/><use x="23" y="47" xlink:href="#r0"/><use x="31" y="47" xlink:href="#r0"/><use x="33" y="47" xlink:href="#r0"/><use x="37" y="47" xlink:href="#r0"/><use x="41" y="47" xlink:href="#r0"/><use x="43" y="47" xlink:href="#r0"/><use x="49" y="47" xlink:href="#r0"/><use x="53" y="47" xlink:href="#r0"/><use x="55" y="47" xlink:href="#r0"/><use x="65" y="47" xlink:href="#r0"/><use x="67" y="47" xlink:href="#r0"/><use x="69" y="47" xlink:href="#r0"/><use x="71" y="47" xlink:href="#r0"/><use x="73" y="47" xlink:href="#r0"/><use x="81" y="47" xlink:href="#r0"/><use x="93" y="47" xlink:href="#r0"/><use x="99" y="47" xlink:href="#r0"/><use x="103" y="47" xlink:href="#r0"/><use x="105" y="47" xlink:href="#r0"/><use x="17" y="49" xlink:href="#r0"/><use x="21" y="49" xlink:href="#r0"/><use x="23" y="49" xlink:href="#r0"/><use x="25" y="49" xlink:href="#r0"/><use x="29" y="49" xlink:href="#r0"/><use x="31" y="49" xlink:href="#r0"/><use x="33" y="49" xlink:href="#r0"/><use x="35" y="49" xlink:href="#r0"/><use x="39" y="49" xlink:href="#r0"/><use x="41" y="49" xlink:href="#r0"/><use x="43" y="49" xlink:href="#r0"/><use x="45" y="49" xlink:href="#r0"/><use x="47" y="49" xlink:href="#r0"/><use x="51" y="49" xlink:href="#r0"/><use x="53" y="49" xlink:href="#r0"/><use x="55" y="49" xlink:href="#r0"/><use x="63" y="49" xlink:href="#r0"/><use x="69" y="49" xlink:href="#r0"/><use x="71" y="49" xlink:href="#r0"/><use x="73" y="49" xlink:href="#r0"/><use x="77" y="49" xlink:href="#r0"/><use x="79" y="49" xlink:href="#r0"/><use x="81" y="49" xlink:href="#r0"/><use x="85" y="49" xlink:href="#r0"/><use x="87" y="49" xlink:href="#r0"/><use x="93" y="49" xlink:href="#r0"/><use x="97" y="49" xlink:href="#r0"/><use x="99" y="49" xlink:href="#r0"/><use x="19" y="51" xlink:href="#r0"/><use x="21" y="51" xlink:href="#r0"/><use x="31" y="51" xlink:href="#r0"/><use x="37" y="51" xlink:href="#r0"/><use x="43" y="51" xlink:href="#r0"/><use x="47" y="51" xlink:href="#r0"/><use x="53" y="51" xlink:href="#r0"/><use x="55" y="51" xlink:href="#r0"/><use x="57" y="51" xlink:href="#r0"/><use x="59" y="51" xlink:href="#r0"/><use x="61" y="51" xlink:href="#r0"/><use x="71" y="51" xlink:href="#r0"/><use x="79" y="51" xlink:href="#r0"/><use x="81" y="51" xlink:href="#r0"/><use x="83" y="51" xlink:href="#r0"/><use x="87" y="51" xlink:href="#r0"/><use x="91" y="51" xlink:href="#r0"/><use x="99" y="51" xlink:href="#r0"/><use x="101" y="51" xlink:href="#r0"/><use x="105" y="51" xlink:href="#r0"/><use x="23" y="53" xlink:href="#r0"/><use x="25" y="53" xlink:href="#r0"/><use x="27" y="53" xlink:href="#r0"/><use x="29" y="53" xlink:href="#r0"/><use x="33" y="53" xlink:href="#r0"/><use x="35" y="53" xlink:href="#r0"/><use x="37" y="53" xlink:href="#r0"/><use x="39" y="53" xlink:href="#r0"/><use x="43" y="53" xlink:href="#r0"/><use x="45" y="53" xlink:href="#r0"/><use x="47" y="53" xlink:href="#r0"/><use x="49" y="53" xlink:href="#r0"/><use x="51" y="53" xlink:href="#r0"/><use x="53" y="53" xlink:href="#r0"/><use x="59" y="53" xlink:href="#r0"/><use x="65" y="53" xlink:href="#r0"/><use x="73" y="53" xlink:href="#r0"/><use x="79" y="53" xlink:href="#r0"/><use x="81" y="53" xlink:href="#r0"/><use x="89" y="53" xlink:href="#r0"/><use x="91" y="53" xlink:href="#r0"/><use x="95" y="53" xlink:href="#r0"/><use x="97" y="53" xlink:href="#r0"/><use x="101" y="53" xlink:href="#r0"/><use x="105" y="53" xlink:href="#r0"/><use x="17" y="55" xlink:href="#r0"/><use x="19" y="55" xlink:href="#r0"/><use x="21" y="55" xlink:href="#r0"/><use x="23" y="55" xlink:href="#r0"/><use x="27" y="55" xlink:href="#r0"/><use x="37" y="55" xlink:href="#r0"/><use x="39" y="55" xlink:href="#r0"/><use x="47" y="55" xlink:href="#r0"/><use x="51" y="55" xlink:href="#r0"/><use x="55" y="55" xlink:href="#r0"/><use x="59" y="55" xlink:href="#r0"/><use x="67" y="55" xlink:href="#r0"/><use x="71" y="55" xlink:href="#r0"/><use x="73" y="55" xlink:href="#r0"/><use x="79" y="55" xlink:href="#r0"/><use x="85" y="55" xlink:href="#r0"/><use x="95" y="55" xlink:href="#r0"/><use x="97" y="55" xlink:href="#r0"/><use x="99" y="55" xlink:href="#r0"/><use x="103" y="55" xlink:href="#r0"/><use x="17" y="57" xlink:href="#r0"/><use x="21" y="57" xlink:href="#r0"/><use x="25" y="57" xlink:href="#r0"/><use x="27" y="57" xlink:href="#r0"/><use x="29" y="57" xlink:href="#r0"/><use x="31" y="57" xlink:href="#r0"/><use x="33" y="57" xlink:href="#r0"/><use x="43" y="57" xlink:href="#r0"/><use x="45" y="57" xlink:href="#r0"/><use x="51" y="57" xlink:href="#r0"/><use x="53" y="57" xlink:href="#r0"/><use x="57" y="57" xlink:href="#r0"/><use x="59" y="57" xlink:href="#r0"/><use x="61" y="57" xlink:href="#r0"/><use x="63" y="57" xlink:href="#r0"/><use x="65" y="57" xlink:href="#r0"/><use x="69" y="57" xlink:href="#r0"/><use x="71" y="57" xlink:href="#r0"/><use x="73" y="57" xlink:href="#r0"/><use x="77" y="57" xlink:href="#r0"/><use x="81" y="57" xlink:href="#r0"/><use x="83" y="57" xlink:href="#r0"/><use x="85" y="57" xlink:href="#r0"/><use x="89" y="57" xlink:href="#r0"/><use x="91" y="57" xlink:href="#r0"/><use x="93" y="57" xlink:href="#r0"/><use x="95" y="57" xlink:href="#r0"/><use x="97" y="57" xlink:href="#r0"/><use x="99" y="57" xlink:href="#r0"/><use x="103" y="57" xlink:href="#r0"/><use x="105" y="57" xlink:href="#r0"/><use x="17" y="59" xlink:href="#r0"/><use x="19" y="59" xlink:href="#r0"/><use x="25" y="59" xlink:href="#r0"/><use x="33" y="59" xlink:href="#r0"/><use x="39" y="59" xlink:href="#r0"/><use x="43" y="59" xlink:href="#r0"/><use x="45" y="59" xlink:href="#r0"/><use x="53" y="59" xlink:href="#r0"/><use x="55" y="59" xlink:href="#r0"/><use x="57" y="59" xlink:href="#r0"/><use x="65" y="59" xlink:href="#r0"/><use x="71" y="59" xlink:href="#r0"/><use x="75" y="59" xlink:href="#r0"/><use x="87" y="59" xlink:href="#r0"/><use x="89" y="59" xlink:href="#r0"/><use x="97" y="59" xlink:href="#r0"/><use x="101" y="59" xlink:href="#r0"/><use x="105" y="59" xlink:href="#r0"/><use x="19" y="61" xlink:href="#r0"/><use x="25" y="61" xlink:href="#r0"/><use x="29" y="61" xlink:href="#r0"/><use x="33" y="61" xlink:href="#r0"/><use x="35" y="61" xlink:href="#r0"/><use x="37" y="61" xlink:href="#r0"/><use x="39" y="61" xlink:href="#r0"/><use x="49" y="61" xlink:href="#r0"/><use x="51" y="61" xlink:href="#r0"/><use x="53" y="61" xlink:href="#r0"/><use x="55" y="61" xlink:href="#r0"/><use x="57" y="61" xlink:href="#r0"/><use x="61" y="61" xlink:href="#r0"/><use x="65" y="61" xlink:href="#r0"/><use x="71" y="61" xlink:href="#r0"/><use x="73" y="61" xlink:href="#r0"/><use x="79" y="61" xlink:href="#r0"/><use x="81" y="61" xlink:href="#r0"/><use x="87" y="61" xlink:href="#r0"/><use x="89" y="61" xlink:href="#r0"/><use x="93" y="61" xlink:href="#r0"/><use x="97" y="61" xlink:href="#r0"/><use x="105" y="61" xlink:href="#r0"/><use x="19" y="63" xlink:href="#r0"/><use x="21" y="63" xlink:href="#r0"/><use x="25" y="63" xlink:href="#r0"/><use x="33" y="63" xlink:href="#r0"/><use x="37" y="63" xlink:href="#r0"/><use x="41" y="63" xlink:href="#r0"/><use x="45" y="63" xlink:href="#r0"/><use x="57" y="63" xlink:href="#r0"/><use x="65" y="63" xlink:href="#r0"/><use x="71" y="63" xlink:href="#r0"/><use x="73" y="63" xlink:href="#r0"/><use x="77" y="63" xlink:href="#r0"/><use x="79" y="63" xlink:href="#r0"/><use x="89" y="63" xlink:href="#r0"/><use x="97" y="63" xlink:href="#r0"/><use x="99" y="63" xlink:href="#r0"/><use x="105" y="63" xlink:href="#r0"/><use x="23" y="65" xlink:href="#r0"/><use x="25" y="65" xlink:href="#r0"/><use x="27" y="65" xlink:href="#r0"/><use x="29" y="65" xlink:href="#r0"/><use x="31" y="65" xlink:href="#r0"/><use x="33" y="65" xlink:href="#r0"/><use x="41" y="65" xlink:href="#r0"/><use x="53" y="65" xlink:href="#r0"/><use x="55" y="65" xlink:href="#r0"/><use x="57" y="65" xlink:href="#r0"/><use x="59" y="65" xlink:href="#r0"/><use x="61" y="65" xlink:href="#r0"/><use x="63" y="65" xlink:href="#r0"/><use x="65" y="65" xlink:href="#r0"/><use x="67" y="65" xlink:href="#r0"/><use x="71" y="65" xlink:href="#r0"/><use x="73" y="65" xlink:href="#r0"/><use x="77" y="65" xlink:href="#r0"/><use x="81" y="65" xlink:href="#r0"/><use x="89" y="65" xlink:href="#r0"/><use x="91" y="65" xlink:href="#r0"/><use x="93" y="65" xlink:href="#r0"/><use x="95" y="65" xlink:href="#r0"/><use x="97" y="65" xlink:href="#r0"/><use x="99" y="65" xlink:href="#r0"/><use x="105" y="65" xlink:href="#r0"/><use x="17" y="67" xlink:href="#r0"/><use x="21" y="67" xlink:href="#r0"/><use x="25" y="67" xlink:href="#r0"/><use x="31" y="67" xlink:href="#r0"/><use x="37" y="67" xlink:href="#r0"/><use x="47" y="67" xlink:href="#r0"/><use x="51" y="67" xlink:href="#r0"/><use x="57" y="67" xlink:href="#r0"/><use x="63" y="67" xlink:href="#r0"/><use x="71" y="67" xlink:href="#r0"/><use x="81" y="67" xlink:href="#r0"/><use x="83" y="67" xlink:href="#r0"/><use x="89" y="67" xlink:href="#r0"/><use x="93" y="67" xlink:href="#r0"/><use x="105" y="67" xlink:href="#r0"/><use x="19" y="69" xlink:href="#r0"/><use x="21" y="69" xlink:href="#r0"/><use x="23" y="69" xlink:href="#r0"/><use x="25" y="69" xlink:href="#r0"/><use x="29" y="69" xlink:href="#r0"/><use x="31" y="69" xlink:href="#r0"/><use x="35" y="69" xlink:href="#r0"/><use x="37" y="69" xlink:href="#r0"/><use x="41" y="69" xlink:href="#r0"/><use x="43" y="69" xlink:href="#r0"/><use x="45" y="69" xlink:href="#r0"/><use x="55" y="69" xlink:href="#r0"/><use x="57" y="69" xlink:href="#r0"/><use x="59" y="69" xlink:href="#r0"/><use x="65" y="69" xlink:href="#r0"/><use x="71" y="69" xlink:href="#r0"/><use x="73" y="69" xlink:href="#r0"/><use x="83" y="69" xlink:href="#r0"/><use x="87" y="69" xlink:href="#r0"/><use x="89" y="69" xlink:href="#r0"/><use x="91" y="69" xlink:href="#r0"/><use x="93" y="69" xlink:href="#r0"/><use x="97" y="69" xlink:href="#r0"/><use x="101" y="69" xlink:href="#r0"/><use x="105" y="69" xlink:href="#r0"/><use x="17" y="71" xlink:href="#r0"/><use x="19" y="71" xlink:href="#r0"/><use x="21" y="71" xlink:href="#r0"/><use x="23" y="71" xlink:href="#r0"/><use x="25" y="71" xlink:href="#r0"/><use x="33" y="71" xlink:href="#r0"/><use x="35" y="71" xlink:href="#r0"/><use x="37" y="71" xlink:href="#r0"/><use x="43" y="71" xlink:href="#r0"/><use x="47" y="71" xlink:href="#r0"/><use x="49" y="71" xlink:href="#r0"/><use x="51" y="71" xlink:href="#r0"/><use x="55" y="71" xlink:href="#r0"/><use x="57" y="71" xlink:href="#r0"/><use x="59" y="71" xlink:href="#r0"/><use x="61" y="71" xlink:href="#r0"/><use x="63" y="71" xlink:href="#r0"/><use x="71" y="71" xlink:href="#r0"/><use x="73" y="71" xlink:href="#r0"/><use x="75" y="71" xlink:href="#r0"/><use x="81" y="71" xlink:href="#r0"/><use x="87" y="71" xlink:href="#r0"/><use x="89" y="71" xlink:href="#r0"/><use x="91" y="71" xlink:href="#r0"/><use x="93" y="71" xlink:href="#r0"/><use x="95" y="71" xlink:href="#r0"/><use x="99" y="71" xlink:href="#r0"/><use x="103" y="71" xlink:href="#r0"/><use x="17" y="73" xlink:href="#r0"/><use x="19" y="73" xlink:href="#r0"/><use x="25" y="73" xlink:href="#r0"/><use x="27" y="73" xlink:href="#r0"/><use x="29" y="73" xlink:href="#r0"/><use x="31" y="73" xlink:href="#r0"/><use x="33" y="73" xlink:href="#r0"/><use x="43" y="73" xlink:href="#r0"/><use x="45" y="73" xlink:href="#r0"/><use x="53" y="73" xlink:href="#r0"/><use x="59" y="73" xlink:href="#r0"/><use x="61" y="73" xlink:href="#r0"/><use x="65" y="73" xlink:href="#r0"/><use x="67" y="73" xlink:href="#r0"/><use x="69" y="73" xlink:href="#r0"/><use x="71" y="73" xlink:href="#r0"/><use x="73" y="73" xlink:href="#r0"/><use x="75" y="73" xlink:href="#r0"/><use x="77" y="73" xlink:href="#r0"/><use x="79" y="73" xlink:href="#r0"/><use x="81" y="73" xlink:href="#r0"/><use x="83" y="73" xlink:href="#r0"/><use x="85" y="73" xlink:href="#r0"/><use x="87" y="73" xlink:href="#r0"/><use x="93" y="73" xlink:href="#r0"/><use x="95" y="73" xlink:href="#r0"/><use x="21" y="75" xlink:href="#r0"/><use x="33" y="75" xlink:href="#r0"/><use x="37" y="75" xlink:href="#r0"/><use x="43" y="75" xlink:href="#r0"/><use x="45" y="75" xlink:href="#r0"/><use x="51" y="75" xlink:href="#r0"/><use x="55" y="75" xlink:href="#r0"/><use x="57" y="75" xlink:href="#r0"/><use x="61" y="75" xlink:href="#r0"/><use x="63" y="75" xlink:href="#r0"/><use x="65" y="75" xlink:href="#r0"/><use x="73" y="75" xlink:href="#r0"/><use x="75" y="75" xlink:href="#r0"/><use x="79" y="75" xlink:href="#r0"/><use x="81" y="75" xlink:href="#r0"/><use x="83" y="75" xlink:href="#r0"/><use x="89" y="75" xlink:href="#r0"/><use x="91" y="75" xlink:href="#r0"/><use x="93" y="75" xlink:href="#r0"/><use x="17" y="77" xlink:href="#r0"/><use x="21" y="77" xlink:href="#r0"/><use x="25" y="77" xlink:href="#r0"/><use x="29" y="77" xlink:href="#r0"/><use x="31" y="77" xlink:href="#r0"/><use x="33" y="77" xlink:href="#r0"/><use x="41" y="77" xlink:href="#r0"/><use x="43" y="77" xlink:href="#r0"/><use x="45" y="77" xlink:href="#r0"/><use x="49" y="77" xlink:href="#r0"/><use x="51" y="77" xlink:href="#r0"/><use x="53" y="77" xlink:href="#r0"/><use x="55" y="77" xlink:href="#r0"/><use x="59" y="77" xlink:href="#r0"/><use x="61" y="77" xlink:href="#r0"/><use x="67" y="77" xlink:href="#r0"/><use x="71" y="77" xlink:href="#r0"/><use x="75" y="77" xlink:href="#r0"/><use x="79" y="77" xlink:href="#r0"/><use x="83" y="77" xlink:href="#r0"/><use x="85" y="77" xlink:href="#r0"/><use x="93" y="77" xlink:href="#r0"/><use x="105" y="77" xlink:href="#r0"/><use x="21" y="79" xlink:href="#r0"/><use x="23" y="79" xlink:href="#r0"/><use x="31" y="79" xlink:href="#r0"/><use x="37" y="79" xlink:href="#r0"/><use x="39" y="79" xlink:href="#r0"/><use x="41" y="79" xlink:href="#r0"/><use x="43" y="79" xlink:href="#r0"/><use x="47" y="79" xlink:href="#r0"/><use x="49" y="79" xlink:href="#r0"/><use x="57" y="79" xlink:href="#r0"/><use x="59" y="79" xlink:href="#r0"/><use x="71" y="79" xlink:href="#r0"/><use x="73" y="79" xlink:href="#r0"/><use x="81" y="79" xlink:href="#r0"/><use x="87" y="79" xlink:href="#r0"/><use x="93" y="79" xlink:href="#r0"/><use x="97" y="79" xlink:href="#r0"/><use x="99" y="79" xlink:href="#r0"/><use x="103" y="79" xlink:href="#r0"/><use x="105" y="79" xlink:href="#r0"/><use x="19" y="81" xlink:href="#r0"/><use x="21" y="81" xlink:href="#r0"/><use x="25" y="81" xlink:href="#r0"/><use x="27" y="81" xlink:href="#r0"/><use x="29" y="81" xlink:href="#r0"/><use x="31" y="81" xlink:href="#r0"/><use x="33" y="81" xlink:href="#r0"/><use x="37" y="81" xlink:href="#r0"/><use x="39" y="81" xlink:href="#r0"/><use x="41" y="81" xlink:href="#r0"/><use x="43" y="81" xlink:href="#r0"/><use x="45" y="81" xlink:href="#r0"/><use x="47" y="81" xlink:href="#r0"/><use x="53" y="81" xlink:href="#r0"/><use x="55" y="81" xlink:href="#r0"/><use x="57" y="81" xlink:href="#r0"/><use x="61" y="81" xlink:href="#r0"/><use x="63" y="81" xlink:href="#r0"/><use x="65" y="81" xlink:href="#r0"/><use x="67" y="81" xlink:href="#r0"/><use x="69" y="81" xlink:href="#r0"/><use x="71" y="81" xlink:href="#r0"/><use x="73" y="81" xlink:href="#r0"/><use x="75" y="81" xlink:href="#r0"/><use x="77" y="81" xlink:href="#r0"/><use x="79" y="81" xlink:href="#r0"/><use x="81" y="81" xlink:href="#r0"/><use x="85" y="81" xlink:href="#r0"/><use x="87" y="81" xlink:href="#r0"/><use x="89" y="81" xlink:href="#r0"/><use x="91" y="81" xlink:href="#r0"/><use x="93" y="81" xlink:href="#r0"/><use x="95" y="81" xlink:href="#r0"/><use x="99" y="81" xlink:href="#r0"/><use x="103" y="81" xlink:href="#r0"/><use x="19" y="83" xlink:href="#r0"/><use x="23" y="83" xlink:href="#r0"/><use x="25" y="83" xlink:href="#r0"/><use x="27" y="83" xlink:href="#r0"/><use x="31" y="83" xlink:href="#r0"/><use x="33" y="83" xlink:href="#r0"/><use x="39" y="83" xlink:href="#r0"/><use x="41" y="83" xlink:href="#r0"/><use x="43" y="83" xlink:href="#r0"/><use x="47" y="83" xlink:href="#r0"/><use x="51" y="83" xlink:href="#r0"/><use x="53" y="83" xlink:href="#r0"/><use x="57" y="83" xlink:href="#r0"/><use x="59" y="83" xlink:href="#r0"/><use x="65" y="83" xlink:href="#r0"/><use x="71" y="83" xlink:href="#r0"/><use x="83" y="83" xlink:href="#r0"/><use x="87" y="83" xlink:href="#r0"/><use x="95" y="83" xlink:href="#r0"/><use x="99" y="83" xlink:href="#r0"/><use x="25" y="85" xlink:href="#r0"/><use x="29" y="85" xlink:href="#r0"/><use x="31" y="85" xlink:href="#r0"/><use x="33" y="85" xlink:href="#r0"/><use x="35" y="85" xlink:href="#r0"/><use x="37" y="85" xlink:href="#r0"/><use x="39" y="85" xlink:href="#r0"/><use x="43" y="85" xlink:href="#r0"/><use x="49" y="85" xlink:href="#r0"/><use x="53" y="85" xlink:href="#r0"/><use x="55" y="85" xlink:href="#r0"/><use x="59" y="85" xlink:href="#r0"/><use x="61" y="85" xlink:href="#r0"/><use x="63" y="85" xlink:href="#r0"/><use x="73" y="85" xlink:href="#r0"/><use x="79" y="85" xlink:href="#r0"/><use x="83" y="85" xlink:href="#r0"/><use x="87" y="85" xlink:href="#r0"/><use x="89" y="85" xlink:href="#r0"/><use x="91" y="85" xlink:href="#r0"/><use x="93" y="85" xlink:href="#r0"/><use x="95" y="85" xlink:href="#r0"/><use x="99" y="85" xlink:href="#r0"/><use x="101" y="85" xlink:href="#r0"/><use x="105" y="85" xlink:href="#r0"/><use x="19" y="87" xlink:href="#r0"/><use x="21" y="87" xlink:href="#r0"/><use x="23" y="87" xlink:href="#r0"/><use x="25" y="87" xlink:href="#r0"/><use x="31" y="87" xlink:href="#r0"/><use x="39" y="87" xlink:href="#r0"/><use x="41" y="87" xlink:href="#r0"/><use x="43" y="87" xlink:href="#r0"/><use x="47" y="87" xlink:href="#r0"/><use x="49" y="87" xlink:href="#r0"/><use x="53" y="87" xlink:href="#r0"/><use x="57" y="87" xlink:href="#r0"/><use x="67" y="87" xlink:href="#r0"/><use x="69" y="87" xlink:href="#r0"/><use x="71" y="87" xlink:href="#r0"/><use x="73" y="87" xlink:href="#r0"/><use x="77" y="87" xlink:href="#r0"/><use x="79" y="87" xlink:href="#r0"/><use x="81" y="87" xlink:href="#r0"/><use x="83" y="87" xlink:href="#r0"/><use x="89" y="87" xlink:href="#r0"/><use x="93" y="87" xlink:href="#r0"/><use x="95" y="87" xlink:href="#r0"/><use x="99" y="87" xlink:href="#r0"/><use x="105" y="87" xlink:href="#r0"/><use x="17" y="89" xlink:href="#r0"/><use x="23" y="89" xlink:href="#r0"/><use x="25" y="89" xlink:href="#r0"/><use x="29" y="89" xlink:href="#r0"/><use x="31" y="89" xlink:href="#r0"/><use x="33" y="89" xlink:href="#r0"/><use x="39" y="89" xlink:href="#r0"/><use x="43" y="89" xlink:href="#r0"/><use x="45" y="89" xlink:href="#r0"/><use x="47" y="89" xlink:href="#r0"/><use x="51" y="89" xlink:href="#r0"/><use x="53" y="89" xlink:href="#r0"/><use x="55" y="89" xlink:href="#r0"/><use x="57" y="89" xlink:href="#r0"/><use x="59" y="89" xlink:href="#r0"/><use x="61" y="89" xlink:href="#r0"/><use x="63" y="89" xlink:href="#r0"/><use x="65" y="89" xlink:href="#r0"/><use x="69" y="89" xlink:href="#r0"/><use x="71" y="89" xlink:href="#r0"/><use x="73" y="89" xlink:href="#r0"/><use x="77" y="89" xlink:href="#r0"/><use x="79" y="89" xlink:href="#r0"/><use x="81" y="89" xlink:href="#r0"/><use x="83" y="89" xlink:href="#r0"/><use x="85" y="89" xlink:href="#r0"/><use x="87" y="89" xlink:href="#r0"/><use x="89" y="89" xlink:href="#r0"/><use x="91" y="89" xlink:href="#r0"/><use x="93" y="89" xlink:href="#r0"/><use x="95" y="89" xlink:href="#r0"/><use x="97" y="89" xlink:href="#r0"/><use x="99" y="89" xlink:href="#r0"/><use x="103" y="89" xlink:href="#r0"/><use x="105" y="89" xlink:href="#r0"/><use x="33" y="91" xlink:href="#r0"/><use x="35" y="91" xlink:href="#r0"/><use x="45" y="91" xlink:href="#r0"/><use x="53" y="91" xlink:href="#r0"/><use x="57" y="91" xlink:href="#r0"/><use x="65" y="91" xlink:href="#r0"/><use x="71" y="91" xlink:href="#r0"/><use x="75" y="91" xlink:href="#r0"/><use x="79" y="91" xlink:href="#r0"/><use x="83" y="91" xlink:href="#r0"/><use x="89" y="91" xlink:href="#r0"/><use x="97" y="91" xlink:href="#r0"/><use x="101" y="91" xlink:href="#r0"/><use x="103" y="91" xlink:href="#r0"/><use x="105" y="91" xlink:href="#r0"/><use x="17" y="93" xlink:href="#r0"/><use x="19" y="93" xlink:href="#r0"/><use x="21" y="93" xlink:href="#r0"/><use x="23" y="93" xlink:href="#r0"/><use x="25" y="93" xlink:href="#r0"/><use x="27" y="93" xlink:href="#r0"/><use x="29" y="93" xlink:href="#r0"/><use x="35" y="93" xlink:href="#r0"/><use x="41" y="93" xlink:href="#r0"/><use x="49" y="93" xlink:href="#r0"/><use x="51" y="93" xlink:href="#r0"/><use x="53" y="93" xlink:href="#r0"/><use x="57" y="93" xlink:href="#r0"/><use x="61" y="93" xlink:href="#r0"/><use x="65" y="93" xlink:href="#r0"/><use x="67" y="93" xlink:href="#r0"/><use x="73" y="93" xlink:href="#r0"/><use x="79" y="93" xlink:href="#r0"/><use x="87" y="93" xlink:href="#r0"/><use x="89" y="93" xlink:href="#r0"/><use x="93" y="93" xlink:href="#r0"/><use x="97" y="93" xlink:href="#r0"/><use x="99" y="93" xlink:href="#r0"/><use x="101" y="93" xlink:href="#r0"/><use x="103" y="93" xlink:href="#r0"/><use x="105" y="93" xlink:href="#r0"/><use x="17" y="95" xlink:href="#r0"/><use x="29" y="95" xlink:href="#r0"/><use x="33" y="95" xlink:href="#r0"/><use x="37" y="95" xlink:href="#r0"/><use x="45" y="95" xlink:href="#r0"/><use x="53" y="95" xlink:href="#r0"/><use x="55" y="95" xlink:href="#r0"/><use x="57" y="95" xlink:href="#r0"/><use x="65" y="95" xlink:href="#r0"/><use x="71" y="95" xlink:href="#r0"/><use x="73" y="95" xlink:href="#r0"/><use x="75" y="95" xlink:href="#r0"/><use x="85" y="95" xlink:href="#r0"/><use x="89" y="95" xlink:href="#r0"/><use x="97" y="95" xlink:href="#r0"/><use x="99" y="95" xlink:href="#r0"/><use x="103" y="95" xlink:href="#r0"/><use x="17" y="97" xlink:href="#r0"/><use x="21" y="97" xlink:href="#r0"/><use x="23" y="97" xlink:href="#r0"/><use x="25" y="97" xlink:href="#r0"/><use x="29" y="97" xlink:href="#r0"/><use x="35" y="97" xlink:href="#r0"/><use x="37" y="97" xlink:href="#r0"/><use x="41" y="97" xlink:href="#r0"/><use x="47" y="97" xlink:href="#r0"/><use x="53" y="97" xlink:href="#r0"/><use x="55" y="97" xlink:href="#r0"/><use x="57" y="97" xlink:href="#r0"/><use x="59" y="97" xlink:href="#r0"/><use x="61" y="97" xlink:href="#r0"/><use x="63" y="97" xlink:href="#r0"/><use x="65" y="97" xlink:href="#r0"/><use x="69" y="97" xlink:href="#r0"/><use x="71" y="97" xlink:href="#r0"/><use x="73" y="97" xlink:href="#r0"/><use x="81" y="97" xlink:href="#r0"/><use x="83" y="97" xlink:href="#r0"/><use x="85" y="97" xlink:href="#r0"/><use x="87" y="97" xlink:href="#r0"/><use x="89" y="97" xlink:href="#r0"/><use x="91" y="97" xlink:href="#r0"/><use x="93" y="97" xlink:href="#r0"/><use x="95" y="97" xlink:href="#r0"/><use x="97" y="97" xlink:href="#r0"/><use x="99" y="97" xlink:href="#r0"/><use x="103" y="97" xlink:href="#r0"/><use x="105" y="97" xlink:href="#r0"/><use x="17" y="99" xlink:href="#r0"/><use x="21" y="99" xlink:href="#r0"/><use x="23" y="99" xlink:href="#r0"/><use x="25" y="99" xlink:href="#r0"/><use x="29" y="99" xlink:href="#r0"/><use x="35" y="99" xlink:href="#r0"/><use x="47" y="99" xlink:href="#r0"/><use x="53" y="99" xlink:href="#r0"/><use x="57" y="99" xlink:href="#r0"/><use x="59" y="99" xlink:href="#r0"/><use x="63" y="99" xlink:href="#r0"/><use x="71" y="99" xlink:href="#r0"/><use x="87" y="99" xlink:href="#r0"/><use x="89" y="99" xlink:href="#r0"/><use x="93" y="99" xlink:href="#r0"/><use x="97" y="99" xlink:href="#r0"/><use x="101" y="99" xlink:href="#r0"/><use x="103" y="99" xlink:href="#r0"/><use x="17" y="101" xlink:href="#r0"/><use x="21" y="101" xlink:href="#r0"/><use x="23" y="101" xlink:href="#r0"/><use x="25" y="101" xlink:href="#r0"/><use x="29" y="101" xlink:href="#r0"/><use x="33" y="101" xlink:href="#r0"/><use x="35" y="101" xlink:href="#r0"/><use x="41" y="101" xlink:href="#r0"/><use x="55" y="101" xlink:href="#r0"/><use x="57" y="101" xlink:href="#r0"/><use x="61" y="101" xlink:href="#r0"/><use x="63" y="101" xlink:href="#r0"/><use x="71" y="101" xlink:href="#r0"/><use x="73" y="101" xlink:href="#r0"/><use x="79" y="101" xlink:href="#r0"/><use x="83" y="101" xlink:href="#r0"/><use x="87" y="101" xlink:href="#r0"/><use x="89" y="101" xlink:href="#r0"/><use x="91" y="101" xlink:href="#r0"/><use x="93" y="101" xlink:href="#r0"/><use x="97" y="101" xlink:href="#r0"/><use x="101" y="101" xlink:href="#r0"/><use x="103" y="101" xlink:href="#r0"/><use x="17" y="103" xlink:href="#r0"/><use x="29" y="103" xlink:href="#r0"/><use x="33" y="103" xlink:href="#r0"/><use x="35" y="103" xlink:href="#r0"/><use x="43" y="103" xlink:href="#r0"/><use x="47" y="103" xlink:href="#r0"/><use x="49" y="103" xlink:href="#r0"/><use x="51" y="103" xlink:href="#r0"/><use x="55" y="103" xlink:href="#r0"/><use x="59" y="103" xlink:href="#r0"/><use x="65" y="103" xlink:href="#r0"/><use x="73" y="103" xlink:href="#r0"/><use x="75" y="103" xlink:href="#r0"/><use x="81" y="103" xlink:href="#r0"/><use x="87" y="103" xlink:href="#r0"/><use x="89" y="103" xlink:href="#r0"/><use x="95" y="103" xlink:href="#r0"/><use x="99" y="103" xlink:href="#r0"/><use x="17" y="105" xlink:href="#r0"/><use x="19" y="105" xlink:href="#r0"/><use x="21" y="105" xlink:href="#r0"/><use x="23" y="105" xlink:href="#r0"/><use x="25" y="105" xlink:href="#r0"/><use x="27" y="105" xlink:href="#r0"/><use x="29" y="105" xlink:href="#r0"/><use x="33" y="105" xlink:href="#r0"/><use x="43" y="105" xlink:href="#r0"/><use x="45" y="105" xlink:href="#r0"/><use x="47" y="105" xlink:href="#r0"/><use x="49" y="105" xlink:href="#r0"/><use x="53" y="105" xlink:href="#r0"/><use x="57" y="105" xlink:href="#r0"/><use x="59" y="105" xlink:href="#r0"/><use x="61" y="105" xlink:href="#r0"/><use x="63" y="105" xlink:href="#r0"/><use x="65" y="105" xlink:href="#r0"/><use x="67" y="105" xlink:href="#r0"/><use x="69" y="105" xlink:href="#r0"/><use x="73" y="105" xlink:href="#r0"/><use x="75" y="105" xlink:href="#r0"/><use x="79" y="105" xlink:href="#r0"/><use x="81" y="105" xlink:href="#r0"/><use x="91" y="105" xlink:href="#r0"/><use x="95" y="105" xlink:href="#r0"/><use x="97" y="105" xlink:href="#r0"/><use x="105" y="105" xlink:href="#r0"/></svg>